ISO-10303-21;
HEADER;
/* Generated by software containing ST-Developer
 * from STEP Tools, Inc. (www.steptools.com) 
 */

FILE_DESCRIPTION(
/* description */ (''),
/* implementation_level */ '2;1');

FILE_NAME(
/* name */ 'Base.step',
/* time_stamp */ '2025-07-26T08:19:31-05:00',
/* author */ (''),
/* organization */ (''),
/* preprocessor_version */ 'ST-DEVELOPER v20.1',
/* originating_system */ 'Autodesk Translation Framework v14.10.0.0',
/* authorisation */ '');

FILE_SCHEMA (('AUTOMOTIVE_DESIGN { 1 0 10303 214 3 1 1 }'));
ENDSEC;

DATA;
#10=MECHANICAL_DESIGN_GEOMETRIC_PRESENTATION_REPRESENTATION('',(#13),#1515);
#11=SHAPE_REPRESENTATION_RELATIONSHIP('SRR','None',#1521,#12);
#12=ADVANCED_BREP_SHAPE_REPRESENTATION('',(#14),#1514);
#13=STYLED_ITEM('',(#1543),#14);
#14=MANIFOLD_SOLID_BREP('Base',#963);
#15=FACE_BOUND('',#84,.T.);
#16=FACE_BOUND('',#114,.T.);
#17=FACE_BOUND('',#116,.T.);
#18=FACE_BOUND('',#118,.T.);
#19=FACE_OUTER_BOUND('',#67,.T.);
#20=FACE_OUTER_BOUND('',#68,.T.);
#21=FACE_OUTER_BOUND('',#69,.T.);
#22=FACE_OUTER_BOUND('',#70,.T.);
#23=FACE_OUTER_BOUND('',#71,.T.);
#24=FACE_OUTER_BOUND('',#72,.T.);
#25=FACE_OUTER_BOUND('',#73,.T.);
#26=FACE_OUTER_BOUND('',#74,.T.);
#27=FACE_OUTER_BOUND('',#75,.T.);
#28=FACE_OUTER_BOUND('',#76,.T.);
#29=FACE_OUTER_BOUND('',#77,.T.);
#30=FACE_OUTER_BOUND('',#78,.T.);
#31=FACE_OUTER_BOUND('',#79,.T.);
#32=FACE_OUTER_BOUND('',#80,.T.);
#33=FACE_OUTER_BOUND('',#81,.T.);
#34=FACE_OUTER_BOUND('',#82,.T.);
#35=FACE_OUTER_BOUND('',#83,.T.);
#36=FACE_OUTER_BOUND('',#85,.T.);
#37=FACE_OUTER_BOUND('',#86,.T.);
#38=FACE_OUTER_BOUND('',#87,.T.);
#39=FACE_OUTER_BOUND('',#88,.T.);
#40=FACE_OUTER_BOUND('',#89,.T.);
#41=FACE_OUTER_BOUND('',#90,.T.);
#42=FACE_OUTER_BOUND('',#91,.T.);
#43=FACE_OUTER_BOUND('',#92,.T.);
#44=FACE_OUTER_BOUND('',#93,.T.);
#45=FACE_OUTER_BOUND('',#94,.T.);
#46=FACE_OUTER_BOUND('',#95,.T.);
#47=FACE_OUTER_BOUND('',#96,.T.);
#48=FACE_OUTER_BOUND('',#97,.T.);
#49=FACE_OUTER_BOUND('',#98,.T.);
#50=FACE_OUTER_BOUND('',#99,.T.);
#51=FACE_OUTER_BOUND('',#100,.T.);
#52=FACE_OUTER_BOUND('',#101,.T.);
#53=FACE_OUTER_BOUND('',#102,.T.);
#54=FACE_OUTER_BOUND('',#103,.T.);
#55=FACE_OUTER_BOUND('',#104,.T.);
#56=FACE_OUTER_BOUND('',#105,.T.);
#57=FACE_OUTER_BOUND('',#106,.T.);
#58=FACE_OUTER_BOUND('',#107,.T.);
#59=FACE_OUTER_BOUND('',#108,.T.);
#60=FACE_OUTER_BOUND('',#109,.T.);
#61=FACE_OUTER_BOUND('',#110,.T.);
#62=FACE_OUTER_BOUND('',#111,.T.);
#63=FACE_OUTER_BOUND('',#112,.T.);
#64=FACE_OUTER_BOUND('',#113,.T.);
#65=FACE_OUTER_BOUND('',#115,.T.);
#66=FACE_OUTER_BOUND('',#117,.T.);
#67=EDGE_LOOP('',(#603,#604,#605,#606));
#68=EDGE_LOOP('',(#607,#608,#609,#610));
#69=EDGE_LOOP('',(#611,#612,#613,#614));
#70=EDGE_LOOP('',(#615,#616,#617,#618));
#71=EDGE_LOOP('',(#619,#620,#621,#622));
#72=EDGE_LOOP('',(#623,#624,#625,#626));
#73=EDGE_LOOP('',(#627,#628,#629,#630));
#74=EDGE_LOOP('',(#631,#632,#633,#634));
#75=EDGE_LOOP('',(#635,#636,#637,#638));
#76=EDGE_LOOP('',(#639,#640,#641,#642));
#77=EDGE_LOOP('',(#643,#644,#645,#646));
#78=EDGE_LOOP('',(#647,#648,#649,#650));
#79=EDGE_LOOP('',(#651,#652,#653,#654,#655,#656,#657,#658));
#80=EDGE_LOOP('',(#659,#660,#661,#662,#663,#664,#665,#666));
#81=EDGE_LOOP('',(#667,#668,#669,#670,#671,#672,#673,#674));
#82=EDGE_LOOP('',(#675,#676,#677,#678,#679,#680,#681,#682));
#83=EDGE_LOOP('',(#683,#684,#685,#686));
#84=EDGE_LOOP('',(#687,#688,#689,#690,#691,#692,#693,#694,#695,#696,#697,
#698,#699,#700,#701,#702,#703,#704,#705,#706));
#85=EDGE_LOOP('',(#707,#708,#709,#710));
#86=EDGE_LOOP('',(#711,#712,#713,#714));
#87=EDGE_LOOP('',(#715,#716,#717,#718));
#88=EDGE_LOOP('',(#719,#720,#721,#722));
#89=EDGE_LOOP('',(#723,#724,#725,#726));
#90=EDGE_LOOP('',(#727,#728,#729,#730));
#91=EDGE_LOOP('',(#731,#732,#733,#734));
#92=EDGE_LOOP('',(#735,#736,#737,#738));
#93=EDGE_LOOP('',(#739,#740,#741,#742));
#94=EDGE_LOOP('',(#743,#744,#745,#746,#747,#748,#749,#750));
#95=EDGE_LOOP('',(#751,#752,#753,#754));
#96=EDGE_LOOP('',(#755,#756,#757,#758));
#97=EDGE_LOOP('',(#759,#760,#761,#762,#763,#764,#765,#766));
#98=EDGE_LOOP('',(#767,#768,#769,#770));
#99=EDGE_LOOP('',(#771,#772,#773,#774));
#100=EDGE_LOOP('',(#775,#776,#777,#778));
#101=EDGE_LOOP('',(#779,#780,#781,#782));
#102=EDGE_LOOP('',(#783,#784,#785,#786));
#103=EDGE_LOOP('',(#787,#788,#789,#790));
#104=EDGE_LOOP('',(#791,#792,#793,#794,#795,#796,#797,#798));
#105=EDGE_LOOP('',(#799,#800,#801,#802));
#106=EDGE_LOOP('',(#803,#804,#805,#806,#807,#808,#809,#810));
#107=EDGE_LOOP('',(#811,#812,#813,#814));
#108=EDGE_LOOP('',(#815,#816,#817,#818));
#109=EDGE_LOOP('',(#819,#820,#821,#822));
#110=EDGE_LOOP('',(#823,#824,#825,#826));
#111=EDGE_LOOP('',(#827,#828,#829,#830));
#112=EDGE_LOOP('',(#831,#832,#833,#834));
#113=EDGE_LOOP('',(#835,#836,#837,#838));
#114=EDGE_LOOP('',(#839,#840,#841,#842));
#115=EDGE_LOOP('',(#843,#844,#845,#846));
#116=EDGE_LOOP('',(#847,#848,#849,#850));
#117=EDGE_LOOP('',(#851,#852,#853,#854,#855,#856,#857,#858,#859,#860,#861,
#862));
#118=EDGE_LOOP('',(#863,#864,#865,#866));
#119=LINE('',#1247,#251);
#120=LINE('',#1249,#252);
#121=LINE('',#1251,#253);
#122=LINE('',#1252,#254);
#123=LINE('',#1256,#255);
#124=LINE('',#1258,#256);
#125=LINE('',#1260,#257);
#126=LINE('',#1261,#258);
#127=LINE('',#1263,#259);
#128=LINE('',#1264,#260);
#129=LINE('',#1268,#261);
#130=LINE('',#1270,#262);
#131=LINE('',#1272,#263);
#132=LINE('',#1273,#264);
#133=LINE('',#1277,#265);
#134=LINE('',#1279,#266);
#135=LINE('',#1281,#267);
#136=LINE('',#1282,#268);
#137=LINE('',#1284,#269);
#138=LINE('',#1285,#270);
#139=LINE('',#1289,#271);
#140=LINE('',#1291,#272);
#141=LINE('',#1293,#273);
#142=LINE('',#1294,#274);
#143=LINE('',#1298,#275);
#144=LINE('',#1300,#276);
#145=LINE('',#1302,#277);
#146=LINE('',#1303,#278);
#147=LINE('',#1305,#279);
#148=LINE('',#1306,#280);
#149=LINE('',#1310,#281);
#150=LINE('',#1312,#282);
#151=LINE('',#1314,#283);
#152=LINE('',#1315,#284);
#153=LINE('',#1319,#285);
#154=LINE('',#1321,#286);
#155=LINE('',#1323,#287);
#156=LINE('',#1324,#288);
#157=LINE('',#1326,#289);
#158=LINE('',#1327,#290);
#159=LINE('',#1330,#291);
#160=LINE('',#1332,#292);
#161=LINE('',#1334,#293);
#162=LINE('',#1336,#294);
#163=LINE('',#1337,#295);
#164=LINE('',#1340,#296);
#165=LINE('',#1342,#297);
#166=LINE('',#1344,#298);
#167=LINE('',#1346,#299);
#168=LINE('',#1347,#300);
#169=LINE('',#1350,#301);
#170=LINE('',#1352,#302);
#171=LINE('',#1354,#303);
#172=LINE('',#1356,#304);
#173=LINE('',#1357,#305);
#174=LINE('',#1359,#306);
#175=LINE('',#1361,#307);
#176=LINE('',#1363,#308);
#177=LINE('',#1364,#309);
#178=LINE('',#1368,#310);
#179=LINE('',#1370,#311);
#180=LINE('',#1372,#312);
#181=LINE('',#1373,#313);
#182=LINE('',#1375,#314);
#183=LINE('',#1377,#315);
#184=LINE('',#1379,#316);
#185=LINE('',#1380,#317);
#186=LINE('',#1382,#318);
#187=LINE('',#1384,#319);
#188=LINE('',#1385,#320);
#189=LINE('',#1387,#321);
#190=LINE('',#1388,#322);
#191=LINE('',#1390,#323);
#192=LINE('',#1392,#324);
#193=LINE('',#1393,#325);
#194=LINE('',#1397,#326);
#195=LINE('',#1399,#327);
#196=LINE('',#1401,#328);
#197=LINE('',#1402,#329);
#198=LINE('',#1405,#330);
#199=LINE('',#1407,#331);
#200=LINE('',#1408,#332);
#201=LINE('',#1411,#333);
#202=LINE('',#1413,#334);
#203=LINE('',#1414,#335);
#204=LINE('',#1418,#336);
#205=LINE('',#1420,#337);
#206=LINE('',#1422,#338);
#207=LINE('',#1423,#339);
#208=LINE('',#1427,#340);
#209=LINE('',#1429,#341);
#210=LINE('',#1431,#342);
#211=LINE('',#1432,#343);
#212=LINE('',#1435,#344);
#213=LINE('',#1437,#345);
#214=LINE('',#1438,#346);
#215=LINE('',#1441,#347);
#216=LINE('',#1442,#348);
#217=LINE('',#1445,#349);
#218=LINE('',#1446,#350);
#219=LINE('',#1450,#351);
#220=LINE('',#1451,#352);
#221=LINE('',#1452,#353);
#222=LINE('',#1454,#354);
#223=LINE('',#1455,#355);
#224=LINE('',#1459,#356);
#225=LINE('',#1461,#357);
#226=LINE('',#1463,#358);
#227=LINE('',#1464,#359);
#228=LINE('',#1466,#360);
#229=LINE('',#1467,#361);
#230=LINE('',#1470,#362);
#231=LINE('',#1471,#363);
#232=LINE('',#1474,#364);
#233=LINE('',#1475,#365);
#234=LINE('',#1477,#366);
#235=LINE('',#1480,#367);
#236=LINE('',#1482,#368);
#237=LINE('',#1483,#369);
#238=LINE('',#1485,#370);
#239=LINE('',#1487,#371);
#240=LINE('',#1490,#372);
#241=LINE('',#1492,#373);
#242=LINE('',#1494,#374);
#243=LINE('',#1496,#375);
#244=LINE('',#1499,#376);
#245=LINE('',#1500,#377);
#246=LINE('',#1502,#378);
#247=LINE('',#1504,#379);
#248=LINE('',#1506,#380);
#249=LINE('',#1507,#381);
#250=LINE('',#1509,#382);
#251=VECTOR('',#1017,10.);
#252=VECTOR('',#1018,10.);
#253=VECTOR('',#1019,10.);
#254=VECTOR('',#1020,10.);
#255=VECTOR('',#1023,10.);
#256=VECTOR('',#1024,10.);
#257=VECTOR('',#1025,10.);
#258=VECTOR('',#1026,10.);
#259=VECTOR('',#1029,10.);
#260=VECTOR('',#1030,10.);
#261=VECTOR('',#1033,10.);
#262=VECTOR('',#1034,10.);
#263=VECTOR('',#1035,10.);
#264=VECTOR('',#1036,10.);
#265=VECTOR('',#1039,10.);
#266=VECTOR('',#1040,10.);
#267=VECTOR('',#1041,10.);
#268=VECTOR('',#1042,10.);
#269=VECTOR('',#1045,10.);
#270=VECTOR('',#1046,10.);
#271=VECTOR('',#1049,10.);
#272=VECTOR('',#1050,10.);
#273=VECTOR('',#1051,10.);
#274=VECTOR('',#1052,10.);
#275=VECTOR('',#1055,10.);
#276=VECTOR('',#1056,10.);
#277=VECTOR('',#1057,10.);
#278=VECTOR('',#1058,10.);
#279=VECTOR('',#1061,10.);
#280=VECTOR('',#1062,10.);
#281=VECTOR('',#1065,10.);
#282=VECTOR('',#1066,10.);
#283=VECTOR('',#1067,10.);
#284=VECTOR('',#1068,10.);
#285=VECTOR('',#1071,10.);
#286=VECTOR('',#1072,10.);
#287=VECTOR('',#1073,10.);
#288=VECTOR('',#1074,10.);
#289=VECTOR('',#1077,10.);
#290=VECTOR('',#1078,10.);
#291=VECTOR('',#1081,10.);
#292=VECTOR('',#1082,10.);
#293=VECTOR('',#1083,10.);
#294=VECTOR('',#1084,10.);
#295=VECTOR('',#1085,10.);
#296=VECTOR('',#1088,10.);
#297=VECTOR('',#1089,10.);
#298=VECTOR('',#1090,10.);
#299=VECTOR('',#1091,10.);
#300=VECTOR('',#1092,10.);
#301=VECTOR('',#1095,10.);
#302=VECTOR('',#1096,10.);
#303=VECTOR('',#1097,10.);
#304=VECTOR('',#1098,10.);
#305=VECTOR('',#1099,10.);
#306=VECTOR('',#1102,10.);
#307=VECTOR('',#1103,10.);
#308=VECTOR('',#1104,10.);
#309=VECTOR('',#1105,10.);
#310=VECTOR('',#1108,10.);
#311=VECTOR('',#1109,10.);
#312=VECTOR('',#1110,10.);
#313=VECTOR('',#1111,10.);
#314=VECTOR('',#1112,10.);
#315=VECTOR('',#1113,10.);
#316=VECTOR('',#1114,10.);
#317=VECTOR('',#1115,10.);
#318=VECTOR('',#1116,10.);
#319=VECTOR('',#1117,10.);
#320=VECTOR('',#1118,10.);
#321=VECTOR('',#1119,10.);
#322=VECTOR('',#1120,10.);
#323=VECTOR('',#1121,10.);
#324=VECTOR('',#1122,10.);
#325=VECTOR('',#1123,10.);
#326=VECTOR('',#1126,10.);
#327=VECTOR('',#1127,10.);
#328=VECTOR('',#1128,10.);
#329=VECTOR('',#1129,10.);
#330=VECTOR('',#1132,10.);
#331=VECTOR('',#1133,10.);
#332=VECTOR('',#1134,10.);
#333=VECTOR('',#1137,10.);
#334=VECTOR('',#1138,10.);
#335=VECTOR('',#1139,10.);
#336=VECTOR('',#1142,10.);
#337=VECTOR('',#1143,10.);
#338=VECTOR('',#1144,10.);
#339=VECTOR('',#1145,10.);
#340=VECTOR('',#1148,10.);
#341=VECTOR('',#1149,10.);
#342=VECTOR('',#1150,10.);
#343=VECTOR('',#1151,10.);
#344=VECTOR('',#1154,10.);
#345=VECTOR('',#1155,10.);
#346=VECTOR('',#1156,10.);
#347=VECTOR('',#1159,10.);
#348=VECTOR('',#1160,10.);
#349=VECTOR('',#1163,10.);
#350=VECTOR('',#1164,10.);
#351=VECTOR('',#1167,10.);
#352=VECTOR('',#1168,10.);
#353=VECTOR('',#1169,10.);
#354=VECTOR('',#1172,10.);
#355=VECTOR('',#1173,10.);
#356=VECTOR('',#1176,10.);
#357=VECTOR('',#1177,10.);
#358=VECTOR('',#1178,10.);
#359=VECTOR('',#1179,10.);
#360=VECTOR('',#1182,10.);
#361=VECTOR('',#1183,10.);
#362=VECTOR('',#1186,10.);
#363=VECTOR('',#1187,10.);
#364=VECTOR('',#1190,10.);
#365=VECTOR('',#1191,10.);
#366=VECTOR('',#1194,10.);
#367=VECTOR('',#1197,10.);
#368=VECTOR('',#1198,10.);
#369=VECTOR('',#1199,10.);
#370=VECTOR('',#1202,10.);
#371=VECTOR('',#1205,10.);
#372=VECTOR('',#1210,10.);
#373=VECTOR('',#1213,10.);
#374=VECTOR('',#1216,10.);
#375=VECTOR('',#1219,10.);
#376=VECTOR('',#1224,10.);
#377=VECTOR('',#1225,10.);
#378=VECTOR('',#1228,10.);
#379=VECTOR('',#1231,10.);
#380=VECTOR('',#1234,10.);
#381=VECTOR('',#1235,10.);
#382=VECTOR('',#1238,10.);
#383=VERTEX_POINT('',#1245);
#384=VERTEX_POINT('',#1246);
#385=VERTEX_POINT('',#1248);
#386=VERTEX_POINT('',#1250);
#387=VERTEX_POINT('',#1254);
#388=VERTEX_POINT('',#1255);
#389=VERTEX_POINT('',#1257);
#390=VERTEX_POINT('',#1259);
#391=VERTEX_POINT('',#1266);
#392=VERTEX_POINT('',#1267);
#393=VERTEX_POINT('',#1269);
#394=VERTEX_POINT('',#1271);
#395=VERTEX_POINT('',#1275);
#396=VERTEX_POINT('',#1276);
#397=VERTEX_POINT('',#1278);
#398=VERTEX_POINT('',#1280);
#399=VERTEX_POINT('',#1287);
#400=VERTEX_POINT('',#1288);
#401=VERTEX_POINT('',#1290);
#402=VERTEX_POINT('',#1292);
#403=VERTEX_POINT('',#1296);
#404=VERTEX_POINT('',#1297);
#405=VERTEX_POINT('',#1299);
#406=VERTEX_POINT('',#1301);
#407=VERTEX_POINT('',#1308);
#408=VERTEX_POINT('',#1309);
#409=VERTEX_POINT('',#1311);
#410=VERTEX_POINT('',#1313);
#411=VERTEX_POINT('',#1317);
#412=VERTEX_POINT('',#1318);
#413=VERTEX_POINT('',#1320);
#414=VERTEX_POINT('',#1322);
#415=VERTEX_POINT('',#1329);
#416=VERTEX_POINT('',#1331);
#417=VERTEX_POINT('',#1333);
#418=VERTEX_POINT('',#1335);
#419=VERTEX_POINT('',#1339);
#420=VERTEX_POINT('',#1341);
#421=VERTEX_POINT('',#1343);
#422=VERTEX_POINT('',#1345);
#423=VERTEX_POINT('',#1349);
#424=VERTEX_POINT('',#1351);
#425=VERTEX_POINT('',#1353);
#426=VERTEX_POINT('',#1355);
#427=VERTEX_POINT('',#1360);
#428=VERTEX_POINT('',#1362);
#429=VERTEX_POINT('',#1366);
#430=VERTEX_POINT('',#1367);
#431=VERTEX_POINT('',#1369);
#432=VERTEX_POINT('',#1371);
#433=VERTEX_POINT('',#1374);
#434=VERTEX_POINT('',#1376);
#435=VERTEX_POINT('',#1378);
#436=VERTEX_POINT('',#1381);
#437=VERTEX_POINT('',#1383);
#438=VERTEX_POINT('',#1386);
#439=VERTEX_POINT('',#1389);
#440=VERTEX_POINT('',#1391);
#441=VERTEX_POINT('',#1395);
#442=VERTEX_POINT('',#1396);
#443=VERTEX_POINT('',#1398);
#444=VERTEX_POINT('',#1400);
#445=VERTEX_POINT('',#1404);
#446=VERTEX_POINT('',#1406);
#447=VERTEX_POINT('',#1410);
#448=VERTEX_POINT('',#1412);
#449=VERTEX_POINT('',#1416);
#450=VERTEX_POINT('',#1417);
#451=VERTEX_POINT('',#1419);
#452=VERTEX_POINT('',#1421);
#453=VERTEX_POINT('',#1425);
#454=VERTEX_POINT('',#1426);
#455=VERTEX_POINT('',#1428);
#456=VERTEX_POINT('',#1430);
#457=VERTEX_POINT('',#1434);
#458=VERTEX_POINT('',#1436);
#459=VERTEX_POINT('',#1440);
#460=VERTEX_POINT('',#1444);
#461=VERTEX_POINT('',#1448);
#462=VERTEX_POINT('',#1449);
#463=VERTEX_POINT('',#1457);
#464=VERTEX_POINT('',#1458);
#465=VERTEX_POINT('',#1460);
#466=VERTEX_POINT('',#1462);
#467=VERTEX_POINT('',#1469);
#468=VERTEX_POINT('',#1473);
#469=VERTEX_POINT('',#1479);
#470=VERTEX_POINT('',#1481);
#471=EDGE_CURVE('',#383,#384,#119,.T.);
#472=EDGE_CURVE('',#385,#383,#120,.T.);
#473=EDGE_CURVE('',#386,#385,#121,.T.);
#474=EDGE_CURVE('',#384,#386,#122,.T.);
#475=EDGE_CURVE('',#387,#388,#123,.T.);
#476=EDGE_CURVE('',#389,#387,#124,.T.);
#477=EDGE_CURVE('',#390,#389,#125,.T.);
#478=EDGE_CURVE('',#388,#390,#126,.T.);
#479=EDGE_CURVE('',#383,#388,#127,.T.);
#480=EDGE_CURVE('',#387,#384,#128,.T.);
#481=EDGE_CURVE('',#391,#392,#129,.T.);
#482=EDGE_CURVE('',#393,#392,#130,.T.);
#483=EDGE_CURVE('',#394,#393,#131,.T.);
#484=EDGE_CURVE('',#391,#394,#132,.T.);
#485=EDGE_CURVE('',#395,#396,#133,.T.);
#486=EDGE_CURVE('',#397,#396,#134,.T.);
#487=EDGE_CURVE('',#398,#397,#135,.T.);
#488=EDGE_CURVE('',#395,#398,#136,.T.);
#489=EDGE_CURVE('',#392,#395,#137,.T.);
#490=EDGE_CURVE('',#396,#391,#138,.T.);
#491=EDGE_CURVE('',#399,#400,#139,.T.);
#492=EDGE_CURVE('',#401,#400,#140,.T.);
#493=EDGE_CURVE('',#402,#401,#141,.T.);
#494=EDGE_CURVE('',#399,#402,#142,.T.);
#495=EDGE_CURVE('',#403,#404,#143,.T.);
#496=EDGE_CURVE('',#405,#404,#144,.T.);
#497=EDGE_CURVE('',#406,#405,#145,.T.);
#498=EDGE_CURVE('',#403,#406,#146,.T.);
#499=EDGE_CURVE('',#400,#403,#147,.T.);
#500=EDGE_CURVE('',#404,#399,#148,.T.);
#501=EDGE_CURVE('',#407,#408,#149,.T.);
#502=EDGE_CURVE('',#409,#408,#150,.T.);
#503=EDGE_CURVE('',#410,#409,#151,.T.);
#504=EDGE_CURVE('',#407,#410,#152,.T.);
#505=EDGE_CURVE('',#411,#412,#153,.T.);
#506=EDGE_CURVE('',#413,#412,#154,.T.);
#507=EDGE_CURVE('',#414,#413,#155,.T.);
#508=EDGE_CURVE('',#411,#414,#156,.T.);
#509=EDGE_CURVE('',#412,#407,#157,.T.);
#510=EDGE_CURVE('',#408,#411,#158,.T.);
#511=EDGE_CURVE('',#415,#386,#159,.T.);
#512=EDGE_CURVE('',#416,#415,#160,.T.);
#513=EDGE_CURVE('',#416,#417,#161,.T.);
#514=EDGE_CURVE('',#417,#418,#162,.T.);
#515=EDGE_CURVE('',#389,#418,#163,.T.);
#516=EDGE_CURVE('',#419,#394,#164,.T.);
#517=EDGE_CURVE('',#420,#419,#165,.T.);
#518=EDGE_CURVE('',#420,#421,#166,.T.);
#519=EDGE_CURVE('',#421,#422,#167,.T.);
#520=EDGE_CURVE('',#397,#422,#168,.T.);
#521=EDGE_CURVE('',#423,#402,#169,.T.);
#522=EDGE_CURVE('',#424,#423,#170,.T.);
#523=EDGE_CURVE('',#424,#425,#171,.T.);
#524=EDGE_CURVE('',#425,#426,#172,.T.);
#525=EDGE_CURVE('',#405,#426,#173,.T.);
#526=EDGE_CURVE('',#426,#414,#174,.T.);
#527=EDGE_CURVE('',#425,#427,#175,.T.);
#528=EDGE_CURVE('',#427,#428,#176,.T.);
#529=EDGE_CURVE('',#409,#428,#177,.T.);
#530=EDGE_CURVE('',#429,#430,#178,.T.);
#531=EDGE_CURVE('',#430,#431,#179,.T.);
#532=EDGE_CURVE('',#431,#432,#180,.T.);
#533=EDGE_CURVE('',#432,#429,#181,.T.);
#534=EDGE_CURVE('',#385,#433,#182,.T.);
#535=EDGE_CURVE('',#433,#434,#183,.T.);
#536=EDGE_CURVE('',#434,#435,#184,.T.);
#537=EDGE_CURVE('',#435,#398,#185,.T.);
#538=EDGE_CURVE('',#422,#436,#186,.T.);
#539=EDGE_CURVE('',#436,#437,#187,.T.);
#540=EDGE_CURVE('',#437,#410,#188,.T.);
#541=EDGE_CURVE('',#428,#438,#189,.T.);
#542=EDGE_CURVE('',#438,#423,#190,.T.);
#543=EDGE_CURVE('',#401,#439,#191,.T.);
#544=EDGE_CURVE('',#439,#440,#192,.T.);
#545=EDGE_CURVE('',#440,#415,#193,.T.);
#546=EDGE_CURVE('',#441,#442,#194,.T.);
#547=EDGE_CURVE('',#443,#442,#195,.T.);
#548=EDGE_CURVE('',#443,#444,#196,.T.);
#549=EDGE_CURVE('',#441,#444,#197,.T.);
#550=EDGE_CURVE('',#445,#442,#198,.T.);
#551=EDGE_CURVE('',#445,#446,#199,.T.);
#552=EDGE_CURVE('',#446,#443,#200,.T.);
#553=EDGE_CURVE('',#445,#447,#201,.T.);
#554=EDGE_CURVE('',#448,#447,#202,.T.);
#555=EDGE_CURVE('',#448,#446,#203,.T.);
#556=EDGE_CURVE('',#449,#450,#204,.T.);
#557=EDGE_CURVE('',#450,#451,#205,.T.);
#558=EDGE_CURVE('',#451,#452,#206,.T.);
#559=EDGE_CURVE('',#452,#449,#207,.T.);
#560=EDGE_CURVE('',#453,#454,#208,.T.);
#561=EDGE_CURVE('',#455,#453,#209,.T.);
#562=EDGE_CURVE('',#456,#455,#210,.T.);
#563=EDGE_CURVE('',#454,#456,#211,.T.);
#564=EDGE_CURVE('',#456,#457,#212,.T.);
#565=EDGE_CURVE('',#458,#457,#213,.T.);
#566=EDGE_CURVE('',#454,#458,#214,.T.);
#567=EDGE_CURVE('',#455,#459,#215,.T.);
#568=EDGE_CURVE('',#457,#459,#216,.T.);
#569=EDGE_CURVE('',#453,#460,#217,.T.);
#570=EDGE_CURVE('',#459,#460,#218,.T.);
#571=EDGE_CURVE('',#461,#462,#219,.T.);
#572=EDGE_CURVE('',#417,#461,#220,.T.);
#573=EDGE_CURVE('',#462,#416,#221,.T.);
#574=EDGE_CURVE('',#418,#406,#222,.T.);
#575=EDGE_CURVE('',#461,#439,#223,.T.);
#576=EDGE_CURVE('',#463,#464,#224,.T.);
#577=EDGE_CURVE('',#465,#463,#225,.T.);
#578=EDGE_CURVE('',#466,#465,#226,.T.);
#579=EDGE_CURVE('',#464,#466,#227,.T.);
#580=EDGE_CURVE('',#465,#435,#228,.T.);
#581=EDGE_CURVE('',#466,#434,#229,.T.);
#582=EDGE_CURVE('',#463,#467,#230,.T.);
#583=EDGE_CURVE('',#393,#467,#231,.T.);
#584=EDGE_CURVE('',#468,#424,#232,.T.);
#585=EDGE_CURVE('',#427,#468,#233,.T.);
#586=EDGE_CURVE('',#468,#438,#234,.T.);
#587=EDGE_CURVE('',#469,#420,#235,.T.);
#588=EDGE_CURVE('',#470,#469,#236,.T.);
#589=EDGE_CURVE('',#421,#470,#237,.T.);
#590=EDGE_CURVE('',#470,#436,#238,.T.);
#591=EDGE_CURVE('',#469,#437,#239,.T.);
#592=EDGE_CURVE('',#413,#419,#240,.T.);
#593=EDGE_CURVE('',#464,#433,#241,.T.);
#594=EDGE_CURVE('',#467,#390,#242,.T.);
#595=EDGE_CURVE('',#462,#440,#243,.T.);
#596=EDGE_CURVE('',#450,#429,#244,.T.);
#597=EDGE_CURVE('',#451,#432,#245,.T.);
#598=EDGE_CURVE('',#452,#431,#246,.T.);
#599=EDGE_CURVE('',#449,#430,#247,.T.);
#600=EDGE_CURVE('',#448,#444,#248,.T.);
#601=EDGE_CURVE('',#447,#441,#249,.T.);
#602=EDGE_CURVE('',#460,#458,#250,.T.);
#603=ORIENTED_EDGE('',*,*,#471,.F.);
#604=ORIENTED_EDGE('',*,*,#472,.F.);
#605=ORIENTED_EDGE('',*,*,#473,.F.);
#606=ORIENTED_EDGE('',*,*,#474,.F.);
#607=ORIENTED_EDGE('',*,*,#475,.F.);
#608=ORIENTED_EDGE('',*,*,#476,.F.);
#609=ORIENTED_EDGE('',*,*,#477,.F.);
#610=ORIENTED_EDGE('',*,*,#478,.F.);
#611=ORIENTED_EDGE('',*,*,#475,.T.);
#612=ORIENTED_EDGE('',*,*,#479,.F.);
#613=ORIENTED_EDGE('',*,*,#471,.T.);
#614=ORIENTED_EDGE('',*,*,#480,.F.);
#615=ORIENTED_EDGE('',*,*,#481,.T.);
#616=ORIENTED_EDGE('',*,*,#482,.F.);
#617=ORIENTED_EDGE('',*,*,#483,.F.);
#618=ORIENTED_EDGE('',*,*,#484,.F.);
#619=ORIENTED_EDGE('',*,*,#485,.T.);
#620=ORIENTED_EDGE('',*,*,#486,.F.);
#621=ORIENTED_EDGE('',*,*,#487,.F.);
#622=ORIENTED_EDGE('',*,*,#488,.F.);
#623=ORIENTED_EDGE('',*,*,#485,.F.);
#624=ORIENTED_EDGE('',*,*,#489,.F.);
#625=ORIENTED_EDGE('',*,*,#481,.F.);
#626=ORIENTED_EDGE('',*,*,#490,.F.);
#627=ORIENTED_EDGE('',*,*,#491,.T.);
#628=ORIENTED_EDGE('',*,*,#492,.F.);
#629=ORIENTED_EDGE('',*,*,#493,.F.);
#630=ORIENTED_EDGE('',*,*,#494,.F.);
#631=ORIENTED_EDGE('',*,*,#495,.T.);
#632=ORIENTED_EDGE('',*,*,#496,.F.);
#633=ORIENTED_EDGE('',*,*,#497,.F.);
#634=ORIENTED_EDGE('',*,*,#498,.F.);
#635=ORIENTED_EDGE('',*,*,#495,.F.);
#636=ORIENTED_EDGE('',*,*,#499,.F.);
#637=ORIENTED_EDGE('',*,*,#491,.F.);
#638=ORIENTED_EDGE('',*,*,#500,.F.);
#639=ORIENTED_EDGE('',*,*,#501,.T.);
#640=ORIENTED_EDGE('',*,*,#502,.F.);
#641=ORIENTED_EDGE('',*,*,#503,.F.);
#642=ORIENTED_EDGE('',*,*,#504,.F.);
#643=ORIENTED_EDGE('',*,*,#505,.T.);
#644=ORIENTED_EDGE('',*,*,#506,.F.);
#645=ORIENTED_EDGE('',*,*,#507,.F.);
#646=ORIENTED_EDGE('',*,*,#508,.F.);
#647=ORIENTED_EDGE('',*,*,#509,.F.);
#648=ORIENTED_EDGE('',*,*,#505,.F.);
#649=ORIENTED_EDGE('',*,*,#510,.F.);
#650=ORIENTED_EDGE('',*,*,#501,.F.);
#651=ORIENTED_EDGE('',*,*,#476,.T.);
#652=ORIENTED_EDGE('',*,*,#480,.T.);
#653=ORIENTED_EDGE('',*,*,#474,.T.);
#654=ORIENTED_EDGE('',*,*,#511,.F.);
#655=ORIENTED_EDGE('',*,*,#512,.F.);
#656=ORIENTED_EDGE('',*,*,#513,.T.);
#657=ORIENTED_EDGE('',*,*,#514,.T.);
#658=ORIENTED_EDGE('',*,*,#515,.F.);
#659=ORIENTED_EDGE('',*,*,#486,.T.);
#660=ORIENTED_EDGE('',*,*,#490,.T.);
#661=ORIENTED_EDGE('',*,*,#484,.T.);
#662=ORIENTED_EDGE('',*,*,#516,.F.);
#663=ORIENTED_EDGE('',*,*,#517,.F.);
#664=ORIENTED_EDGE('',*,*,#518,.T.);
#665=ORIENTED_EDGE('',*,*,#519,.T.);
#666=ORIENTED_EDGE('',*,*,#520,.F.);
#667=ORIENTED_EDGE('',*,*,#496,.T.);
#668=ORIENTED_EDGE('',*,*,#500,.T.);
#669=ORIENTED_EDGE('',*,*,#494,.T.);
#670=ORIENTED_EDGE('',*,*,#521,.F.);
#671=ORIENTED_EDGE('',*,*,#522,.F.);
#672=ORIENTED_EDGE('',*,*,#523,.T.);
#673=ORIENTED_EDGE('',*,*,#524,.T.);
#674=ORIENTED_EDGE('',*,*,#525,.F.);
#675=ORIENTED_EDGE('',*,*,#502,.T.);
#676=ORIENTED_EDGE('',*,*,#510,.T.);
#677=ORIENTED_EDGE('',*,*,#508,.T.);
#678=ORIENTED_EDGE('',*,*,#526,.F.);
#679=ORIENTED_EDGE('',*,*,#524,.F.);
#680=ORIENTED_EDGE('',*,*,#527,.T.);
#681=ORIENTED_EDGE('',*,*,#528,.T.);
#682=ORIENTED_EDGE('',*,*,#529,.F.);
#683=ORIENTED_EDGE('',*,*,#530,.T.);
#684=ORIENTED_EDGE('',*,*,#531,.T.);
#685=ORIENTED_EDGE('',*,*,#532,.T.);
#686=ORIENTED_EDGE('',*,*,#533,.T.);
#687=ORIENTED_EDGE('',*,*,#473,.T.);
#688=ORIENTED_EDGE('',*,*,#534,.T.);
#689=ORIENTED_EDGE('',*,*,#535,.T.);
#690=ORIENTED_EDGE('',*,*,#536,.T.);
#691=ORIENTED_EDGE('',*,*,#537,.T.);
#692=ORIENTED_EDGE('',*,*,#487,.T.);
#693=ORIENTED_EDGE('',*,*,#520,.T.);
#694=ORIENTED_EDGE('',*,*,#538,.T.);
#695=ORIENTED_EDGE('',*,*,#539,.T.);
#696=ORIENTED_EDGE('',*,*,#540,.T.);
#697=ORIENTED_EDGE('',*,*,#503,.T.);
#698=ORIENTED_EDGE('',*,*,#529,.T.);
#699=ORIENTED_EDGE('',*,*,#541,.T.);
#700=ORIENTED_EDGE('',*,*,#542,.T.);
#701=ORIENTED_EDGE('',*,*,#521,.T.);
#702=ORIENTED_EDGE('',*,*,#493,.T.);
#703=ORIENTED_EDGE('',*,*,#543,.T.);
#704=ORIENTED_EDGE('',*,*,#544,.T.);
#705=ORIENTED_EDGE('',*,*,#545,.T.);
#706=ORIENTED_EDGE('',*,*,#511,.T.);
#707=ORIENTED_EDGE('',*,*,#546,.T.);
#708=ORIENTED_EDGE('',*,*,#547,.F.);
#709=ORIENTED_EDGE('',*,*,#548,.T.);
#710=ORIENTED_EDGE('',*,*,#549,.F.);
#711=ORIENTED_EDGE('',*,*,#547,.T.);
#712=ORIENTED_EDGE('',*,*,#550,.F.);
#713=ORIENTED_EDGE('',*,*,#551,.T.);
#714=ORIENTED_EDGE('',*,*,#552,.T.);
#715=ORIENTED_EDGE('',*,*,#553,.T.);
#716=ORIENTED_EDGE('',*,*,#554,.F.);
#717=ORIENTED_EDGE('',*,*,#555,.T.);
#718=ORIENTED_EDGE('',*,*,#551,.F.);
#719=ORIENTED_EDGE('',*,*,#556,.T.);
#720=ORIENTED_EDGE('',*,*,#557,.T.);
#721=ORIENTED_EDGE('',*,*,#558,.T.);
#722=ORIENTED_EDGE('',*,*,#559,.T.);
#723=ORIENTED_EDGE('',*,*,#560,.F.);
#724=ORIENTED_EDGE('',*,*,#561,.F.);
#725=ORIENTED_EDGE('',*,*,#562,.F.);
#726=ORIENTED_EDGE('',*,*,#563,.F.);
#727=ORIENTED_EDGE('',*,*,#563,.T.);
#728=ORIENTED_EDGE('',*,*,#564,.T.);
#729=ORIENTED_EDGE('',*,*,#565,.F.);
#730=ORIENTED_EDGE('',*,*,#566,.F.);
#731=ORIENTED_EDGE('',*,*,#562,.T.);
#732=ORIENTED_EDGE('',*,*,#567,.T.);
#733=ORIENTED_EDGE('',*,*,#568,.F.);
#734=ORIENTED_EDGE('',*,*,#564,.F.);
#735=ORIENTED_EDGE('',*,*,#561,.T.);
#736=ORIENTED_EDGE('',*,*,#569,.T.);
#737=ORIENTED_EDGE('',*,*,#570,.F.);
#738=ORIENTED_EDGE('',*,*,#567,.F.);
#739=ORIENTED_EDGE('',*,*,#571,.F.);
#740=ORIENTED_EDGE('',*,*,#572,.F.);
#741=ORIENTED_EDGE('',*,*,#513,.F.);
#742=ORIENTED_EDGE('',*,*,#573,.F.);
#743=ORIENTED_EDGE('',*,*,#498,.T.);
#744=ORIENTED_EDGE('',*,*,#574,.F.);
#745=ORIENTED_EDGE('',*,*,#514,.F.);
#746=ORIENTED_EDGE('',*,*,#572,.T.);
#747=ORIENTED_EDGE('',*,*,#575,.T.);
#748=ORIENTED_EDGE('',*,*,#543,.F.);
#749=ORIENTED_EDGE('',*,*,#492,.T.);
#750=ORIENTED_EDGE('',*,*,#499,.T.);
#751=ORIENTED_EDGE('',*,*,#576,.F.);
#752=ORIENTED_EDGE('',*,*,#577,.F.);
#753=ORIENTED_EDGE('',*,*,#578,.F.);
#754=ORIENTED_EDGE('',*,*,#579,.F.);
#755=ORIENTED_EDGE('',*,*,#578,.T.);
#756=ORIENTED_EDGE('',*,*,#580,.T.);
#757=ORIENTED_EDGE('',*,*,#536,.F.);
#758=ORIENTED_EDGE('',*,*,#581,.F.);
#759=ORIENTED_EDGE('',*,*,#488,.T.);
#760=ORIENTED_EDGE('',*,*,#537,.F.);
#761=ORIENTED_EDGE('',*,*,#580,.F.);
#762=ORIENTED_EDGE('',*,*,#577,.T.);
#763=ORIENTED_EDGE('',*,*,#582,.T.);
#764=ORIENTED_EDGE('',*,*,#583,.F.);
#765=ORIENTED_EDGE('',*,*,#482,.T.);
#766=ORIENTED_EDGE('',*,*,#489,.T.);
#767=ORIENTED_EDGE('',*,*,#584,.F.);
#768=ORIENTED_EDGE('',*,*,#585,.F.);
#769=ORIENTED_EDGE('',*,*,#527,.F.);
#770=ORIENTED_EDGE('',*,*,#523,.F.);
#771=ORIENTED_EDGE('',*,*,#585,.T.);
#772=ORIENTED_EDGE('',*,*,#586,.T.);
#773=ORIENTED_EDGE('',*,*,#541,.F.);
#774=ORIENTED_EDGE('',*,*,#528,.F.);
#775=ORIENTED_EDGE('',*,*,#587,.F.);
#776=ORIENTED_EDGE('',*,*,#588,.F.);
#777=ORIENTED_EDGE('',*,*,#589,.F.);
#778=ORIENTED_EDGE('',*,*,#518,.F.);
#779=ORIENTED_EDGE('',*,*,#589,.T.);
#780=ORIENTED_EDGE('',*,*,#590,.T.);
#781=ORIENTED_EDGE('',*,*,#538,.F.);
#782=ORIENTED_EDGE('',*,*,#519,.F.);
#783=ORIENTED_EDGE('',*,*,#588,.T.);
#784=ORIENTED_EDGE('',*,*,#591,.T.);
#785=ORIENTED_EDGE('',*,*,#539,.F.);
#786=ORIENTED_EDGE('',*,*,#590,.F.);
#787=ORIENTED_EDGE('',*,*,#584,.T.);
#788=ORIENTED_EDGE('',*,*,#522,.T.);
#789=ORIENTED_EDGE('',*,*,#542,.F.);
#790=ORIENTED_EDGE('',*,*,#586,.F.);
#791=ORIENTED_EDGE('',*,*,#504,.T.);
#792=ORIENTED_EDGE('',*,*,#540,.F.);
#793=ORIENTED_EDGE('',*,*,#591,.F.);
#794=ORIENTED_EDGE('',*,*,#587,.T.);
#795=ORIENTED_EDGE('',*,*,#517,.T.);
#796=ORIENTED_EDGE('',*,*,#592,.F.);
#797=ORIENTED_EDGE('',*,*,#506,.T.);
#798=ORIENTED_EDGE('',*,*,#509,.T.);
#799=ORIENTED_EDGE('',*,*,#579,.T.);
#800=ORIENTED_EDGE('',*,*,#581,.T.);
#801=ORIENTED_EDGE('',*,*,#535,.F.);
#802=ORIENTED_EDGE('',*,*,#593,.F.);
#803=ORIENTED_EDGE('',*,*,#478,.T.);
#804=ORIENTED_EDGE('',*,*,#594,.F.);
#805=ORIENTED_EDGE('',*,*,#582,.F.);
#806=ORIENTED_EDGE('',*,*,#576,.T.);
#807=ORIENTED_EDGE('',*,*,#593,.T.);
#808=ORIENTED_EDGE('',*,*,#534,.F.);
#809=ORIENTED_EDGE('',*,*,#472,.T.);
#810=ORIENTED_EDGE('',*,*,#479,.T.);
#811=ORIENTED_EDGE('',*,*,#573,.T.);
#812=ORIENTED_EDGE('',*,*,#512,.T.);
#813=ORIENTED_EDGE('',*,*,#545,.F.);
#814=ORIENTED_EDGE('',*,*,#595,.F.);
#815=ORIENTED_EDGE('',*,*,#571,.T.);
#816=ORIENTED_EDGE('',*,*,#595,.T.);
#817=ORIENTED_EDGE('',*,*,#544,.F.);
#818=ORIENTED_EDGE('',*,*,#575,.F.);
#819=ORIENTED_EDGE('',*,*,#557,.F.);
#820=ORIENTED_EDGE('',*,*,#596,.T.);
#821=ORIENTED_EDGE('',*,*,#533,.F.);
#822=ORIENTED_EDGE('',*,*,#597,.F.);
#823=ORIENTED_EDGE('',*,*,#558,.F.);
#824=ORIENTED_EDGE('',*,*,#597,.T.);
#825=ORIENTED_EDGE('',*,*,#532,.F.);
#826=ORIENTED_EDGE('',*,*,#598,.F.);
#827=ORIENTED_EDGE('',*,*,#559,.F.);
#828=ORIENTED_EDGE('',*,*,#598,.T.);
#829=ORIENTED_EDGE('',*,*,#531,.F.);
#830=ORIENTED_EDGE('',*,*,#599,.F.);
#831=ORIENTED_EDGE('',*,*,#549,.T.);
#832=ORIENTED_EDGE('',*,*,#600,.F.);
#833=ORIENTED_EDGE('',*,*,#554,.T.);
#834=ORIENTED_EDGE('',*,*,#601,.T.);
#835=ORIENTED_EDGE('',*,*,#602,.F.);
#836=ORIENTED_EDGE('',*,*,#569,.F.);
#837=ORIENTED_EDGE('',*,*,#560,.T.);
#838=ORIENTED_EDGE('',*,*,#566,.T.);
#839=ORIENTED_EDGE('',*,*,#552,.F.);
#840=ORIENTED_EDGE('',*,*,#555,.F.);
#841=ORIENTED_EDGE('',*,*,#600,.T.);
#842=ORIENTED_EDGE('',*,*,#548,.F.);
#843=ORIENTED_EDGE('',*,*,#530,.F.);
#844=ORIENTED_EDGE('',*,*,#596,.F.);
#845=ORIENTED_EDGE('',*,*,#556,.F.);
#846=ORIENTED_EDGE('',*,*,#599,.T.);
#847=ORIENTED_EDGE('',*,*,#546,.F.);
#848=ORIENTED_EDGE('',*,*,#601,.F.);
#849=ORIENTED_EDGE('',*,*,#553,.F.);
#850=ORIENTED_EDGE('',*,*,#550,.T.);
#851=ORIENTED_EDGE('',*,*,#477,.T.);
#852=ORIENTED_EDGE('',*,*,#515,.T.);
#853=ORIENTED_EDGE('',*,*,#574,.T.);
#854=ORIENTED_EDGE('',*,*,#497,.T.);
#855=ORIENTED_EDGE('',*,*,#525,.T.);
#856=ORIENTED_EDGE('',*,*,#526,.T.);
#857=ORIENTED_EDGE('',*,*,#507,.T.);
#858=ORIENTED_EDGE('',*,*,#592,.T.);
#859=ORIENTED_EDGE('',*,*,#516,.T.);
#860=ORIENTED_EDGE('',*,*,#483,.T.);
#861=ORIENTED_EDGE('',*,*,#583,.T.);
#862=ORIENTED_EDGE('',*,*,#594,.T.);
#863=ORIENTED_EDGE('',*,*,#602,.T.);
#864=ORIENTED_EDGE('',*,*,#565,.T.);
#865=ORIENTED_EDGE('',*,*,#568,.T.);
#866=ORIENTED_EDGE('',*,*,#570,.T.);
#867=PLANE('',#965);
#868=PLANE('',#966);
#869=PLANE('',#967);
#870=PLANE('',#968);
#871=PLANE('',#969);
#872=PLANE('',#970);
#873=PLANE('',#971);
#874=PLANE('',#972);
#875=PLANE('',#973);
#876=PLANE('',#974);
#877=PLANE('',#975);
#878=PLANE('',#976);
#879=PLANE('',#977);
#880=PLANE('',#978);
#881=PLANE('',#979);
#882=PLANE('',#980);
#883=PLANE('',#981);
#884=PLANE('',#982);
#885=PLANE('',#983);
#886=PLANE('',#984);
#887=PLANE('',#985);
#888=PLANE('',#986);
#889=PLANE('',#987);
#890=PLANE('',#988);
#891=PLANE('',#989);
#892=PLANE('',#990);
#893=PLANE('',#991);
#894=PLANE('',#992);
#895=PLANE('',#993);
#896=PLANE('',#994);
#897=PLANE('',#995);
#898=PLANE('',#996);
#899=PLANE('',#997);
#900=PLANE('',#998);
#901=PLANE('',#999);
#902=PLANE('',#1000);
#903=PLANE('',#1001);
#904=PLANE('',#1002);
#905=PLANE('',#1003);
#906=PLANE('',#1004);
#907=PLANE('',#1005);
#908=PLANE('',#1006);
#909=PLANE('',#1007);
#910=PLANE('',#1008);
#911=PLANE('',#1009);
#912=PLANE('',#1010);
#913=PLANE('',#1011);
#914=PLANE('',#1012);
#915=ADVANCED_FACE('',(#19),#867,.F.);
#916=ADVANCED_FACE('',(#20),#868,.F.);
#917=ADVANCED_FACE('',(#21),#869,.T.);
#918=ADVANCED_FACE('',(#22),#870,.F.);
#919=ADVANCED_FACE('',(#23),#871,.F.);
#920=ADVANCED_FACE('',(#24),#872,.T.);
#921=ADVANCED_FACE('',(#25),#873,.F.);
#922=ADVANCED_FACE('',(#26),#874,.F.);
#923=ADVANCED_FACE('',(#27),#875,.T.);
#924=ADVANCED_FACE('',(#28),#876,.F.);
#925=ADVANCED_FACE('',(#29),#877,.F.);
#926=ADVANCED_FACE('',(#30),#878,.T.);
#927=ADVANCED_FACE('',(#31),#879,.T.);
#928=ADVANCED_FACE('',(#32),#880,.T.);
#929=ADVANCED_FACE('',(#33),#881,.T.);
#930=ADVANCED_FACE('',(#34),#882,.T.);
#931=ADVANCED_FACE('',(#35,#15),#883,.T.);
#932=ADVANCED_FACE('',(#36),#884,.F.);
#933=ADVANCED_FACE('',(#37),#885,.T.);
#934=ADVANCED_FACE('',(#38),#886,.T.);
#935=ADVANCED_FACE('',(#39),#887,.F.);
#936=ADVANCED_FACE('',(#40),#888,.T.);
#937=ADVANCED_FACE('',(#41),#889,.T.);
#938=ADVANCED_FACE('',(#42),#890,.T.);
#939=ADVANCED_FACE('',(#43),#891,.T.);
#940=ADVANCED_FACE('',(#44),#892,.T.);
#941=ADVANCED_FACE('',(#45),#893,.T.);
#942=ADVANCED_FACE('',(#46),#894,.T.);
#943=ADVANCED_FACE('',(#47),#895,.T.);
#944=ADVANCED_FACE('',(#48),#896,.T.);
#945=ADVANCED_FACE('',(#49),#897,.T.);
#946=ADVANCED_FACE('',(#50),#898,.T.);
#947=ADVANCED_FACE('',(#51),#899,.T.);
#948=ADVANCED_FACE('',(#52),#900,.T.);
#949=ADVANCED_FACE('',(#53),#901,.T.);
#950=ADVANCED_FACE('',(#54),#902,.T.);
#951=ADVANCED_FACE('',(#55),#903,.T.);
#952=ADVANCED_FACE('',(#56),#904,.T.);
#953=ADVANCED_FACE('',(#57),#905,.T.);
#954=ADVANCED_FACE('',(#58),#906,.T.);
#955=ADVANCED_FACE('',(#59),#907,.T.);
#956=ADVANCED_FACE('',(#60),#908,.T.);
#957=ADVANCED_FACE('',(#61),#909,.T.);
#958=ADVANCED_FACE('',(#62),#910,.T.);
#959=ADVANCED_FACE('',(#63),#911,.T.);
#960=ADVANCED_FACE('',(#64,#16),#912,.T.);
#961=ADVANCED_FACE('',(#65,#17),#913,.T.);
#962=ADVANCED_FACE('',(#66,#18),#914,.T.);
#963=CLOSED_SHELL('',(#915,#916,#917,#918,#919,#920,#921,#922,#923,#924,
#925,#926,#927,#928,#929,#930,#931,#932,#933,#934,#935,#936,#937,#938,#939,
#940,#941,#942,#943,#944,#945,#946,#947,#948,#949,#950,#951,#952,#953,#954,
#955,#956,#957,#958,#959,#960,#961,#962));
#964=AXIS2_PLACEMENT_3D('',#1243,#1013,#1014);
#965=AXIS2_PLACEMENT_3D('',#1244,#1015,#1016);
#966=AXIS2_PLACEMENT_3D('',#1253,#1021,#1022);
#967=AXIS2_PLACEMENT_3D('',#1262,#1027,#1028);
#968=AXIS2_PLACEMENT_3D('',#1265,#1031,#1032);
#969=AXIS2_PLACEMENT_3D('',#1274,#1037,#1038);
#970=AXIS2_PLACEMENT_3D('',#1283,#1043,#1044);
#971=AXIS2_PLACEMENT_3D('',#1286,#1047,#1048);
#972=AXIS2_PLACEMENT_3D('',#1295,#1053,#1054);
#973=AXIS2_PLACEMENT_3D('',#1304,#1059,#1060);
#974=AXIS2_PLACEMENT_3D('',#1307,#1063,#1064);
#975=AXIS2_PLACEMENT_3D('',#1316,#1069,#1070);
#976=AXIS2_PLACEMENT_3D('',#1325,#1075,#1076);
#977=AXIS2_PLACEMENT_3D('',#1328,#1079,#1080);
#978=AXIS2_PLACEMENT_3D('',#1338,#1086,#1087);
#979=AXIS2_PLACEMENT_3D('',#1348,#1093,#1094);
#980=AXIS2_PLACEMENT_3D('',#1358,#1100,#1101);
#981=AXIS2_PLACEMENT_3D('',#1365,#1106,#1107);
#982=AXIS2_PLACEMENT_3D('',#1394,#1124,#1125);
#983=AXIS2_PLACEMENT_3D('',#1403,#1130,#1131);
#984=AXIS2_PLACEMENT_3D('',#1409,#1135,#1136);
#985=AXIS2_PLACEMENT_3D('',#1415,#1140,#1141);
#986=AXIS2_PLACEMENT_3D('',#1424,#1146,#1147);
#987=AXIS2_PLACEMENT_3D('',#1433,#1152,#1153);
#988=AXIS2_PLACEMENT_3D('',#1439,#1157,#1158);
#989=AXIS2_PLACEMENT_3D('',#1443,#1161,#1162);
#990=AXIS2_PLACEMENT_3D('',#1447,#1165,#1166);
#991=AXIS2_PLACEMENT_3D('',#1453,#1170,#1171);
#992=AXIS2_PLACEMENT_3D('',#1456,#1174,#1175);
#993=AXIS2_PLACEMENT_3D('',#1465,#1180,#1181);
#994=AXIS2_PLACEMENT_3D('',#1468,#1184,#1185);
#995=AXIS2_PLACEMENT_3D('',#1472,#1188,#1189);
#996=AXIS2_PLACEMENT_3D('',#1476,#1192,#1193);
#997=AXIS2_PLACEMENT_3D('',#1478,#1195,#1196);
#998=AXIS2_PLACEMENT_3D('',#1484,#1200,#1201);
#999=AXIS2_PLACEMENT_3D('',#1486,#1203,#1204);
#1000=AXIS2_PLACEMENT_3D('',#1488,#1206,#1207);
#1001=AXIS2_PLACEMENT_3D('',#1489,#1208,#1209);
#1002=AXIS2_PLACEMENT_3D('',#1491,#1211,#1212);
#1003=AXIS2_PLACEMENT_3D('',#1493,#1214,#1215);
#1004=AXIS2_PLACEMENT_3D('',#1495,#1217,#1218);
#1005=AXIS2_PLACEMENT_3D('',#1497,#1220,#1221);
#1006=AXIS2_PLACEMENT_3D('',#1498,#1222,#1223);
#1007=AXIS2_PLACEMENT_3D('',#1501,#1226,#1227);
#1008=AXIS2_PLACEMENT_3D('',#1503,#1229,#1230);
#1009=AXIS2_PLACEMENT_3D('',#1505,#1232,#1233);
#1010=AXIS2_PLACEMENT_3D('',#1508,#1236,#1237);
#1011=AXIS2_PLACEMENT_3D('',#1510,#1239,#1240);
#1012=AXIS2_PLACEMENT_3D('',#1511,#1241,#1242);
#1013=DIRECTION('axis',(0.,0.,1.));
#1014=DIRECTION('refdir',(1.,0.,0.));
#1015=DIRECTION('center_axis',(-1.,0.,0.));
#1016=DIRECTION('ref_axis',(0.,-1.,0.));
#1017=DIRECTION('',(0.,-1.,0.));
#1018=DIRECTION('',(0.,0.,-1.));
#1019=DIRECTION('',(0.,1.,0.));
#1020=DIRECTION('',(0.,0.,1.));
#1021=DIRECTION('center_axis',(1.,0.,0.));
#1022=DIRECTION('ref_axis',(0.,1.,0.));
#1023=DIRECTION('',(0.,1.,0.));
#1024=DIRECTION('',(0.,0.,-1.));
#1025=DIRECTION('',(0.,-1.,0.));
#1026=DIRECTION('',(0.,0.,1.));
#1027=DIRECTION('center_axis',(0.,0.,1.));
#1028=DIRECTION('ref_axis',(1.,0.,0.));
#1029=DIRECTION('',(1.,0.,0.));
#1030=DIRECTION('',(-1.,0.,0.));
#1031=DIRECTION('center_axis',(0.,-1.,0.));
#1032=DIRECTION('ref_axis',(1.,0.,0.));
#1033=DIRECTION('',(-1.,0.,0.));
#1034=DIRECTION('',(0.,0.,-1.));
#1035=DIRECTION('',(-1.,0.,0.));
#1036=DIRECTION('',(0.,0.,1.));
#1037=DIRECTION('center_axis',(0.,1.,0.));
#1038=DIRECTION('ref_axis',(-1.,0.,0.));
#1039=DIRECTION('',(1.,0.,0.));
#1040=DIRECTION('',(0.,0.,-1.));
#1041=DIRECTION('',(1.,0.,0.));
#1042=DIRECTION('',(0.,0.,1.));
#1043=DIRECTION('center_axis',(0.,0.,1.));
#1044=DIRECTION('ref_axis',(1.,0.,0.));
#1045=DIRECTION('',(0.,1.,0.));
#1046=DIRECTION('',(0.,-1.,0.));
#1047=DIRECTION('center_axis',(0.,-1.,0.));
#1048=DIRECTION('ref_axis',(1.,0.,0.));
#1049=DIRECTION('',(-1.,0.,0.));
#1050=DIRECTION('',(0.,0.,-1.));
#1051=DIRECTION('',(-1.,0.,0.));
#1052=DIRECTION('',(0.,0.,1.));
#1053=DIRECTION('center_axis',(0.,1.,0.));
#1054=DIRECTION('ref_axis',(-1.,0.,0.));
#1055=DIRECTION('',(1.,0.,0.));
#1056=DIRECTION('',(0.,0.,-1.));
#1057=DIRECTION('',(1.,0.,0.));
#1058=DIRECTION('',(0.,0.,1.));
#1059=DIRECTION('center_axis',(0.,0.,1.));
#1060=DIRECTION('ref_axis',(1.,0.,0.));
#1061=DIRECTION('',(0.,1.,0.));
#1062=DIRECTION('',(0.,-1.,0.));
#1063=DIRECTION('center_axis',(1.,0.,0.));
#1064=DIRECTION('ref_axis',(0.,1.,0.));
#1065=DIRECTION('',(0.,-1.,0.));
#1066=DIRECTION('',(0.,0.,-1.));
#1067=DIRECTION('',(0.,-1.,0.));
#1068=DIRECTION('',(0.,0.,1.));
#1069=DIRECTION('center_axis',(-1.,0.,0.));
#1070=DIRECTION('ref_axis',(0.,-1.,0.));
#1071=DIRECTION('',(0.,1.,0.));
#1072=DIRECTION('',(0.,0.,-1.));
#1073=DIRECTION('',(0.,1.,0.));
#1074=DIRECTION('',(0.,0.,1.));
#1075=DIRECTION('center_axis',(0.,0.,1.));
#1076=DIRECTION('ref_axis',(1.,0.,0.));
#1077=DIRECTION('',(1.,0.,0.));
#1078=DIRECTION('',(-1.,0.,0.));
#1079=DIRECTION('center_axis',(0.,-1.,0.));
#1080=DIRECTION('ref_axis',(1.,0.,0.));
#1081=DIRECTION('',(1.,0.,0.));
#1082=DIRECTION('',(0.,0.,1.));
#1083=DIRECTION('',(1.,0.,0.));
#1084=DIRECTION('',(0.,0.,1.));
#1085=DIRECTION('',(1.,0.,0.));
#1086=DIRECTION('center_axis',(1.,0.,0.));
#1087=DIRECTION('ref_axis',(0.,1.,0.));
#1088=DIRECTION('',(0.,1.,0.));
#1089=DIRECTION('',(0.,0.,1.));
#1090=DIRECTION('',(0.,1.,0.));
#1091=DIRECTION('',(0.,0.,1.));
#1092=DIRECTION('',(0.,1.,0.));
#1093=DIRECTION('center_axis',(1.,0.,0.));
#1094=DIRECTION('ref_axis',(0.,1.,0.));
#1095=DIRECTION('',(0.,1.,0.));
#1096=DIRECTION('',(0.,0.,1.));
#1097=DIRECTION('',(0.,1.,0.));
#1098=DIRECTION('',(0.,0.,1.));
#1099=DIRECTION('',(0.,1.,0.));
#1100=DIRECTION('center_axis',(0.,-1.,0.));
#1101=DIRECTION('ref_axis',(1.,0.,0.));
#1102=DIRECTION('',(1.,0.,0.));
#1103=DIRECTION('',(1.,0.,0.));
#1104=DIRECTION('',(0.,0.,1.));
#1105=DIRECTION('',(1.,0.,0.));
#1106=DIRECTION('center_axis',(0.,0.,1.));
#1107=DIRECTION('ref_axis',(1.,0.,0.));
#1108=DIRECTION('',(1.,0.,0.));
#1109=DIRECTION('',(0.,1.,0.));
#1110=DIRECTION('',(-1.,0.,0.));
#1111=DIRECTION('',(0.,-1.,0.));
#1112=DIRECTION('',(-1.,0.,0.));
#1113=DIRECTION('',(0.,1.,0.));
#1114=DIRECTION('',(1.,0.,0.));
#1115=DIRECTION('',(0.,-1.,0.));
#1116=DIRECTION('',(1.,0.,0.));
#1117=DIRECTION('',(0.,-1.,0.));
#1118=DIRECTION('',(-1.,0.,0.));
#1119=DIRECTION('',(0.,-1.,0.));
#1120=DIRECTION('',(-1.,0.,0.));
#1121=DIRECTION('',(0.,-1.,0.));
#1122=DIRECTION('',(-1.,0.,0.));
#1123=DIRECTION('',(0.,1.,0.));
#1124=DIRECTION('center_axis',(0.,0.,1.));
#1125=DIRECTION('ref_axis',(1.,0.,0.));
#1126=DIRECTION('',(-1.,0.,0.));
#1127=DIRECTION('',(0.,-1.,0.));
#1128=DIRECTION('',(1.,0.,0.));
#1129=DIRECTION('',(0.,1.,0.));
#1130=DIRECTION('center_axis',(1.,0.,0.));
#1131=DIRECTION('ref_axis',(0.,1.,0.));
#1132=DIRECTION('',(0.,0.,1.));
#1133=DIRECTION('',(0.,1.,0.));
#1134=DIRECTION('',(0.,0.,1.));
#1135=DIRECTION('center_axis',(0.,0.,1.));
#1136=DIRECTION('ref_axis',(1.,0.,0.));
#1137=DIRECTION('',(1.,0.,0.));
#1138=DIRECTION('',(0.,-1.,0.));
#1139=DIRECTION('',(-1.,0.,0.));
#1140=DIRECTION('center_axis',(0.,0.,1.));
#1141=DIRECTION('ref_axis',(1.,0.,0.));
#1142=DIRECTION('',(-1.,0.,0.));
#1143=DIRECTION('',(0.,1.,0.));
#1144=DIRECTION('',(1.,0.,0.));
#1145=DIRECTION('',(0.,-1.,0.));
#1146=DIRECTION('center_axis',(0.,0.,1.));
#1147=DIRECTION('ref_axis',(1.,0.,0.));
#1148=DIRECTION('',(-1.,0.,0.));
#1149=DIRECTION('',(0.,-1.,0.));
#1150=DIRECTION('',(1.,0.,0.));
#1151=DIRECTION('',(0.,1.,0.));
#1152=DIRECTION('center_axis',(1.,0.,0.));
#1153=DIRECTION('ref_axis',(0.,1.,0.));
#1154=DIRECTION('',(0.,0.,1.));
#1155=DIRECTION('',(0.,1.,0.));
#1156=DIRECTION('',(0.,0.,1.));
#1157=DIRECTION('center_axis',(0.,-1.,0.));
#1158=DIRECTION('ref_axis',(1.,0.,0.));
#1159=DIRECTION('',(0.,0.,1.));
#1160=DIRECTION('',(1.,0.,0.));
#1161=DIRECTION('center_axis',(-1.,0.,0.));
#1162=DIRECTION('ref_axis',(0.,-1.,0.));
#1163=DIRECTION('',(0.,0.,1.));
#1164=DIRECTION('',(0.,-1.,0.));
#1165=DIRECTION('center_axis',(0.,0.,1.));
#1166=DIRECTION('ref_axis',(1.,0.,0.));
#1167=DIRECTION('',(-1.,0.,0.));
#1168=DIRECTION('',(0.,-1.,0.));
#1169=DIRECTION('',(0.,1.,0.));
#1170=DIRECTION('center_axis',(-1.,0.,0.));
#1171=DIRECTION('ref_axis',(0.,-1.,0.));
#1172=DIRECTION('',(0.,-1.,0.));
#1173=DIRECTION('',(0.,0.,1.));
#1174=DIRECTION('center_axis',(0.,0.,1.));
#1175=DIRECTION('ref_axis',(1.,0.,0.));
#1176=DIRECTION('',(-1.,0.,0.));
#1177=DIRECTION('',(0.,-1.,0.));
#1178=DIRECTION('',(1.,0.,0.));
#1179=DIRECTION('',(0.,1.,0.));
#1180=DIRECTION('center_axis',(0.,-1.,0.));
#1181=DIRECTION('ref_axis',(1.,0.,0.));
#1182=DIRECTION('',(0.,0.,1.));
#1183=DIRECTION('',(0.,0.,1.));
#1184=DIRECTION('center_axis',(-1.,0.,0.));
#1185=DIRECTION('ref_axis',(0.,-1.,0.));
#1186=DIRECTION('',(0.,0.,1.));
#1187=DIRECTION('',(0.,-1.,0.));
#1188=DIRECTION('center_axis',(0.,0.,1.));
#1189=DIRECTION('ref_axis',(1.,0.,0.));
#1190=DIRECTION('',(-1.,0.,0.));
#1191=DIRECTION('',(0.,-1.,0.));
#1192=DIRECTION('center_axis',(-1.,0.,0.));
#1193=DIRECTION('ref_axis',(0.,-1.,0.));
#1194=DIRECTION('',(0.,0.,1.));
#1195=DIRECTION('center_axis',(0.,0.,1.));
#1196=DIRECTION('ref_axis',(1.,0.,0.));
#1197=DIRECTION('',(-1.,0.,0.));
#1198=DIRECTION('',(0.,-1.,0.));
#1199=DIRECTION('',(1.,0.,0.));
#1200=DIRECTION('center_axis',(0.,-1.,0.));
#1201=DIRECTION('ref_axis',(1.,0.,0.));
#1202=DIRECTION('',(0.,0.,1.));
#1203=DIRECTION('center_axis',(-1.,0.,0.));
#1204=DIRECTION('ref_axis',(0.,-1.,0.));
#1205=DIRECTION('',(0.,0.,1.));
#1206=DIRECTION('center_axis',(0.,1.,0.));
#1207=DIRECTION('ref_axis',(-1.,0.,0.));
#1208=DIRECTION('center_axis',(0.,1.,0.));
#1209=DIRECTION('ref_axis',(-1.,0.,0.));
#1210=DIRECTION('',(-1.,0.,0.));
#1211=DIRECTION('center_axis',(1.,0.,0.));
#1212=DIRECTION('ref_axis',(0.,1.,0.));
#1213=DIRECTION('',(0.,0.,1.));
#1214=DIRECTION('center_axis',(0.,1.,0.));
#1215=DIRECTION('ref_axis',(-1.,0.,0.));
#1216=DIRECTION('',(-1.,0.,0.));
#1217=DIRECTION('center_axis',(1.,0.,0.));
#1218=DIRECTION('ref_axis',(0.,1.,0.));
#1219=DIRECTION('',(0.,0.,1.));
#1220=DIRECTION('center_axis',(0.,1.,0.));
#1221=DIRECTION('ref_axis',(-1.,0.,0.));
#1222=DIRECTION('center_axis',(-1.,0.,0.));
#1223=DIRECTION('ref_axis',(0.,-1.,0.));
#1224=DIRECTION('',(0.,0.,1.));
#1225=DIRECTION('',(0.,0.,1.));
#1226=DIRECTION('center_axis',(0.,1.,0.));
#1227=DIRECTION('ref_axis',(-1.,0.,0.));
#1228=DIRECTION('',(0.,0.,1.));
#1229=DIRECTION('center_axis',(1.,0.,0.));
#1230=DIRECTION('ref_axis',(0.,1.,0.));
#1231=DIRECTION('',(0.,0.,1.));
#1232=DIRECTION('center_axis',(-1.,0.,0.));
#1233=DIRECTION('ref_axis',(0.,-1.,0.));
#1234=DIRECTION('',(0.,0.,1.));
#1235=DIRECTION('',(0.,0.,1.));
#1236=DIRECTION('center_axis',(0.,1.,0.));
#1237=DIRECTION('ref_axis',(-1.,0.,0.));
#1238=DIRECTION('',(-1.,0.,0.));
#1239=DIRECTION('center_axis',(0.,-1.,0.));
#1240=DIRECTION('ref_axis',(1.,0.,0.));
#1241=DIRECTION('center_axis',(0.,0.,1.));
#1242=DIRECTION('ref_axis',(1.,0.,0.));
#1243=CARTESIAN_POINT('',(0.,0.,0.));
#1244=CARTESIAN_POINT('Origin',(-124.448892148057,-68.0145373432528,13.));
#1245=CARTESIAN_POINT('',(-124.448892148057,-68.0145373432528,13.));
#1246=CARTESIAN_POINT('',(-124.448892148057,-135.514537343253,13.));
#1247=CARTESIAN_POINT('',(-124.448892148057,-68.0145373432528,13.));
#1248=CARTESIAN_POINT('',(-124.448892148057,-68.0145373432528,15.));
#1249=CARTESIAN_POINT('',(-124.448892148057,-68.0145373432528,6.5));
#1250=CARTESIAN_POINT('',(-124.448892148057,-135.514537343253,15.));
#1251=CARTESIAN_POINT('',(-124.448892148057,-84.8895373432529,15.));
#1252=CARTESIAN_POINT('',(-124.448892148057,-135.514537343253,6.5));
#1253=CARTESIAN_POINT('Origin',(-122.448892148057,-135.514537343253,13.));
#1254=CARTESIAN_POINT('',(-122.448892148057,-135.514537343253,13.));
#1255=CARTESIAN_POINT('',(-122.448892148057,-68.0145373432528,13.));
#1256=CARTESIAN_POINT('',(-122.448892148057,-135.514537343253,13.));
#1257=CARTESIAN_POINT('',(-122.448892148057,-135.514537343253,15.));
#1258=CARTESIAN_POINT('',(-122.448892148057,-135.514537343253,6.5));
#1259=CARTESIAN_POINT('',(-122.448892148057,-68.0145373432528,15.));
#1260=CARTESIAN_POINT('',(-122.448892148057,-118.639537343253,15.));
#1261=CARTESIAN_POINT('',(-122.448892148057,-68.0145373432528,6.5));
#1262=CARTESIAN_POINT('Origin',(-123.448892148057,-101.764537343253,13.));
#1263=CARTESIAN_POINT('',(-121.573892148057,-68.0145373432528,13.));
#1264=CARTESIAN_POINT('',(-125.323892148057,-135.514537343253,13.));
#1265=CARTESIAN_POINT('Origin',(-119.698892148057,-65.2645373432528,13.));
#1266=CARTESIAN_POINT('',(-52.1988921480572,-65.2645373432528,13.));
#1267=CARTESIAN_POINT('',(-119.698892148057,-65.2645373432528,13.));
#1268=CARTESIAN_POINT('',(-52.1988921480572,-65.2645373432528,13.));
#1269=CARTESIAN_POINT('',(-119.698892148057,-65.2645373432528,15.));
#1270=CARTESIAN_POINT('',(-119.698892148057,-65.2645373432528,6.5));
#1271=CARTESIAN_POINT('',(-52.1988921480572,-65.2645373432528,15.));
#1272=CARTESIAN_POINT('',(-102.823892148057,-65.2645373432528,15.));
#1273=CARTESIAN_POINT('',(-52.1988921480572,-65.2645373432528,6.5));
#1274=CARTESIAN_POINT('Origin',(-52.1988921480572,-63.2645373432528,13.));
#1275=CARTESIAN_POINT('',(-119.698892148057,-63.2645373432528,13.));
#1276=CARTESIAN_POINT('',(-52.1988921480572,-63.2645373432528,13.));
#1277=CARTESIAN_POINT('',(-119.698892148057,-63.2645373432528,13.));
#1278=CARTESIAN_POINT('',(-52.1988921480572,-63.2645373432528,15.));
#1279=CARTESIAN_POINT('',(-52.1988921480572,-63.2645373432528,6.5));
#1280=CARTESIAN_POINT('',(-119.698892148057,-63.2645373432528,15.));
#1281=CARTESIAN_POINT('',(-69.0738921480572,-63.2645373432528,15.));
#1282=CARTESIAN_POINT('',(-119.698892148057,-63.2645373432528,6.5));
#1283=CARTESIAN_POINT('Origin',(-85.9488921480572,-64.2645373432528,13.));
#1284=CARTESIAN_POINT('',(-119.698892148057,-62.3895373432528,13.));
#1285=CARTESIAN_POINT('',(-52.1988921480572,-66.1395373432528,13.));
#1286=CARTESIAN_POINT('Origin',(-119.698892148057,-140.264537343253,13.));
#1287=CARTESIAN_POINT('',(-52.1988921480572,-140.264537343253,13.));
#1288=CARTESIAN_POINT('',(-119.698892148057,-140.264537343253,13.));
#1289=CARTESIAN_POINT('',(-52.1988921480572,-140.264537343253,13.));
#1290=CARTESIAN_POINT('',(-119.698892148057,-140.264537343253,15.));
#1291=CARTESIAN_POINT('',(-119.698892148057,-140.264537343253,6.5));
#1292=CARTESIAN_POINT('',(-52.1988921480572,-140.264537343253,15.));
#1293=CARTESIAN_POINT('',(-102.823892148057,-140.264537343253,15.));
#1294=CARTESIAN_POINT('',(-52.1988921480572,-140.264537343253,6.5));
#1295=CARTESIAN_POINT('Origin',(-52.1988921480572,-138.264537343253,13.));
#1296=CARTESIAN_POINT('',(-119.698892148057,-138.264537343253,13.));
#1297=CARTESIAN_POINT('',(-52.1988921480572,-138.264537343253,13.));
#1298=CARTESIAN_POINT('',(-119.698892148057,-138.264537343253,13.));
#1299=CARTESIAN_POINT('',(-52.1988921480572,-138.264537343253,15.));
#1300=CARTESIAN_POINT('',(-52.1988921480572,-138.264537343253,6.5));
#1301=CARTESIAN_POINT('',(-119.698892148057,-138.264537343253,15.));
#1302=CARTESIAN_POINT('',(-69.0738921480572,-138.264537343253,15.));
#1303=CARTESIAN_POINT('',(-119.698892148057,-138.264537343253,6.5));
#1304=CARTESIAN_POINT('Origin',(-85.9488921480572,-139.264537343253,13.));
#1305=CARTESIAN_POINT('',(-119.698892148057,-137.389537343253,13.));
#1306=CARTESIAN_POINT('',(-52.1988921480572,-141.139537343253,13.));
#1307=CARTESIAN_POINT('Origin',(-47.4488921480572,-135.514537343253,13.));
#1308=CARTESIAN_POINT('',(-47.4488921480572,-68.0145373432528,13.));
#1309=CARTESIAN_POINT('',(-47.4488921480572,-135.514537343253,13.));
#1310=CARTESIAN_POINT('',(-47.4488921480572,-68.0145373432528,13.));
#1311=CARTESIAN_POINT('',(-47.4488921480572,-135.514537343253,15.));
#1312=CARTESIAN_POINT('',(-47.4488921480572,-135.514537343253,6.5));
#1313=CARTESIAN_POINT('',(-47.4488921480572,-68.0145373432528,15.));
#1314=CARTESIAN_POINT('',(-47.4488921480572,-118.639537343253,15.));
#1315=CARTESIAN_POINT('',(-47.4488921480572,-68.0145373432528,6.5));
#1316=CARTESIAN_POINT('Origin',(-49.4488921480572,-68.0145373432528,13.));
#1317=CARTESIAN_POINT('',(-49.4488921480572,-135.514537343253,13.));
#1318=CARTESIAN_POINT('',(-49.4488921480572,-68.0145373432528,13.));
#1319=CARTESIAN_POINT('',(-49.4488921480572,-135.514537343253,13.));
#1320=CARTESIAN_POINT('',(-49.4488921480572,-68.0145373432528,15.));
#1321=CARTESIAN_POINT('',(-49.4488921480572,-68.0145373432528,6.5));
#1322=CARTESIAN_POINT('',(-49.4488921480572,-135.514537343253,15.));
#1323=CARTESIAN_POINT('',(-49.4488921480572,-84.8895373432529,15.));
#1324=CARTESIAN_POINT('',(-49.4488921480572,-135.514537343253,6.5));
#1325=CARTESIAN_POINT('Origin',(-48.4488921480572,-101.764537343253,13.));
#1326=CARTESIAN_POINT('',(-46.5738921480572,-68.0145373432528,13.));
#1327=CARTESIAN_POINT('',(-50.3238921480572,-135.514537343253,13.));
#1328=CARTESIAN_POINT('Origin',(-127.198892148057,-135.514537343253,0.));
#1329=CARTESIAN_POINT('',(-127.198892148057,-135.514537343253,15.));
#1330=CARTESIAN_POINT('',(-127.198892148057,-135.514537343253,15.));
#1331=CARTESIAN_POINT('',(-127.198892148057,-135.514537343253,7.5));
#1332=CARTESIAN_POINT('',(-127.198892148057,-135.514537343253,0.));
#1333=CARTESIAN_POINT('',(-119.698892148057,-135.514537343253,7.5));
#1334=CARTESIAN_POINT('',(-125.323892148057,-135.514537343253,7.5));
#1335=CARTESIAN_POINT('',(-119.698892148057,-135.514537343253,15.));
#1336=CARTESIAN_POINT('',(-119.698892148057,-135.514537343253,0.));
#1337=CARTESIAN_POINT('',(-127.198892148057,-135.514537343253,15.));
#1338=CARTESIAN_POINT('Origin',(-52.1988921480572,-68.0145373432528,0.));
#1339=CARTESIAN_POINT('',(-52.1988921480572,-68.0145373432528,15.));
#1340=CARTESIAN_POINT('',(-52.1988921480572,-68.0145373432528,15.));
#1341=CARTESIAN_POINT('',(-52.1988921480572,-68.0145373432528,7.5));
#1342=CARTESIAN_POINT('',(-52.1988921480572,-68.0145373432528,0.));
#1343=CARTESIAN_POINT('',(-52.1988921480572,-60.5145373432528,7.5));
#1344=CARTESIAN_POINT('',(-52.1988921480572,-66.1395373432528,7.5));
#1345=CARTESIAN_POINT('',(-52.1988921480572,-60.5145373432528,15.));
#1346=CARTESIAN_POINT('',(-52.1988921480572,-60.5145373432528,0.));
#1347=CARTESIAN_POINT('',(-52.1988921480572,-68.0145373432528,15.));
#1348=CARTESIAN_POINT('Origin',(-52.1988921480572,-143.014537343253,0.));
#1349=CARTESIAN_POINT('',(-52.1988921480572,-143.014537343253,15.));
#1350=CARTESIAN_POINT('',(-52.1988921480572,-143.014537343253,15.));
#1351=CARTESIAN_POINT('',(-52.1988921480572,-143.014537343253,7.5));
#1352=CARTESIAN_POINT('',(-52.1988921480572,-143.014537343253,0.));
#1353=CARTESIAN_POINT('',(-52.1988921480572,-135.514537343253,7.5));
#1354=CARTESIAN_POINT('',(-52.1988921480572,-141.139537343253,7.5));
#1355=CARTESIAN_POINT('',(-52.1988921480572,-135.514537343253,15.));
#1356=CARTESIAN_POINT('',(-52.1988921480572,-135.514537343253,0.));
#1357=CARTESIAN_POINT('',(-52.1988921480572,-143.014537343253,15.));
#1358=CARTESIAN_POINT('Origin',(-52.1988921480572,-135.514537343253,0.));
#1359=CARTESIAN_POINT('',(-52.1988921480572,-135.514537343253,15.));
#1360=CARTESIAN_POINT('',(-44.6988921480572,-135.514537343253,7.5));
#1361=CARTESIAN_POINT('',(-50.3238921480572,-135.514537343253,7.5));
#1362=CARTESIAN_POINT('',(-44.6988921480572,-135.514537343253,15.));
#1363=CARTESIAN_POINT('',(-44.6988921480572,-135.514537343253,0.));
#1364=CARTESIAN_POINT('',(-52.1988921480572,-135.514537343253,15.));
#1365=CARTESIAN_POINT('Origin',(-85.9488921480572,-101.764537343253,15.));
#1366=CARTESIAN_POINT('',(-130.948892148057,-146.764537343253,15.));
#1367=CARTESIAN_POINT('',(-40.9488921480572,-146.764537343253,15.));
#1368=CARTESIAN_POINT('',(-40.9488921480572,-146.764537343253,15.));
#1369=CARTESIAN_POINT('',(-40.9488921480572,-56.7645373432528,15.));
#1370=CARTESIAN_POINT('',(-40.9488921480572,-56.7645373432528,15.));
#1371=CARTESIAN_POINT('',(-130.948892148057,-56.7645373432528,15.));
#1372=CARTESIAN_POINT('',(-130.948892148057,-56.7645373432528,15.));
#1373=CARTESIAN_POINT('',(-130.948892148057,-146.764537343253,15.));
#1374=CARTESIAN_POINT('',(-127.198892148057,-68.0145373432528,15.));
#1375=CARTESIAN_POINT('',(-119.698892148057,-68.0145373432528,15.));
#1376=CARTESIAN_POINT('',(-127.198892148057,-60.5145373432528,15.));
#1377=CARTESIAN_POINT('',(-127.198892148057,-68.0145373432528,15.));
#1378=CARTESIAN_POINT('',(-119.698892148057,-60.5145373432528,15.));
#1379=CARTESIAN_POINT('',(-127.198892148057,-60.5145373432528,15.));
#1380=CARTESIAN_POINT('',(-119.698892148057,-60.5145373432528,15.));
#1381=CARTESIAN_POINT('',(-44.6988921480572,-60.5145373432528,15.));
#1382=CARTESIAN_POINT('',(-52.1988921480572,-60.5145373432528,15.));
#1383=CARTESIAN_POINT('',(-44.6988921480572,-68.0145373432528,15.));
#1384=CARTESIAN_POINT('',(-44.6988921480572,-60.5145373432528,15.));
#1385=CARTESIAN_POINT('',(-44.6988921480572,-68.0145373432528,15.));
#1386=CARTESIAN_POINT('',(-44.6988921480572,-143.014537343253,15.));
#1387=CARTESIAN_POINT('',(-44.6988921480572,-135.514537343253,15.));
#1388=CARTESIAN_POINT('',(-44.6988921480572,-143.014537343253,15.));
#1389=CARTESIAN_POINT('',(-119.698892148057,-143.014537343253,15.));
#1390=CARTESIAN_POINT('',(-119.698892148057,-135.514537343253,15.));
#1391=CARTESIAN_POINT('',(-127.198892148057,-143.014537343253,15.));
#1392=CARTESIAN_POINT('',(-119.698892148057,-143.014537343253,15.));
#1393=CARTESIAN_POINT('',(-127.198892148057,-143.014537343253,15.));
#1394=CARTESIAN_POINT('Origin',(-85.9488921480572,-139.264537343253,11.5));
#1395=CARTESIAN_POINT('',(-79.9488921480572,-146.764537343253,11.5));
#1396=CARTESIAN_POINT('',(-91.9488921480572,-146.764537343253,11.5));
#1397=CARTESIAN_POINT('',(-79.9488921480572,-146.764537343253,11.5));
#1398=CARTESIAN_POINT('',(-91.9488921480572,-131.764537343253,11.5));
#1399=CARTESIAN_POINT('',(-91.9488921480572,-143.014537343253,11.5));
#1400=CARTESIAN_POINT('',(-79.9488921480572,-131.764537343253,11.5));
#1401=CARTESIAN_POINT('',(-91.9488921480572,-131.764537343253,11.5));
#1402=CARTESIAN_POINT('',(-79.9488921480572,-135.514537343253,11.5));
#1403=CARTESIAN_POINT('Origin',(-91.9488921480572,-146.764537343253,0.));
#1404=CARTESIAN_POINT('',(-91.9488921480572,-146.764537343253,7.5));
#1405=CARTESIAN_POINT('',(-91.9488921480572,-146.764537343253,0.));
#1406=CARTESIAN_POINT('',(-91.9488921480572,-131.764537343253,7.5));
#1407=CARTESIAN_POINT('',(-91.9488921480572,-143.014537343253,7.5));
#1408=CARTESIAN_POINT('',(-91.9488921480572,-131.764537343253,0.));
#1409=CARTESIAN_POINT('Origin',(-85.9488921480572,-139.264537343253,7.5));
#1410=CARTESIAN_POINT('',(-79.9488921480572,-146.764537343253,7.5));
#1411=CARTESIAN_POINT('',(-79.9488921480572,-146.764537343253,7.5));
#1412=CARTESIAN_POINT('',(-79.9488921480572,-131.764537343253,7.5));
#1413=CARTESIAN_POINT('',(-79.9488921480572,-135.514537343253,7.5));
#1414=CARTESIAN_POINT('',(-91.9488921480572,-131.764537343253,7.5));
#1415=CARTESIAN_POINT('Origin',(-85.9488921480572,-101.764537343253,0.));
#1416=CARTESIAN_POINT('',(-40.9488921480572,-146.764537343253,0.));
#1417=CARTESIAN_POINT('',(-130.948892148057,-146.764537343253,0.));
#1418=CARTESIAN_POINT('',(-40.9488921480572,-146.764537343253,0.));
#1419=CARTESIAN_POINT('',(-130.948892148057,-56.7645373432528,0.));
#1420=CARTESIAN_POINT('',(-130.948892148057,-146.764537343253,0.));
#1421=CARTESIAN_POINT('',(-40.9488921480572,-56.7645373432528,0.));
#1422=CARTESIAN_POINT('',(-130.948892148057,-56.7645373432528,0.));
#1423=CARTESIAN_POINT('',(-40.9488921480572,-56.7645373432528,0.));
#1424=CARTESIAN_POINT('Origin',(-85.9488921480572,-109.264537343253,5.));
#1425=CARTESIAN_POINT('',(-55.9488921480572,-131.764537343253,5.));
#1426=CARTESIAN_POINT('',(-115.948892148057,-131.764537343253,5.));
#1427=CARTESIAN_POINT('',(-88.9488921480572,-131.764537343253,5.));
#1428=CARTESIAN_POINT('',(-55.9488921480572,-71.7645373432528,5.));
#1429=CARTESIAN_POINT('',(-55.9488921480572,-90.5145373432528,5.));
#1430=CARTESIAN_POINT('',(-115.948892148057,-71.7645373432528,5.));
#1431=CARTESIAN_POINT('',(-100.948892148057,-71.7645373432528,5.));
#1432=CARTESIAN_POINT('',(-115.948892148057,-120.514537343253,5.));
#1433=CARTESIAN_POINT('Origin',(-115.948892148057,-131.764537343253,0.));
#1434=CARTESIAN_POINT('',(-115.948892148057,-71.7645373432528,15.));
#1435=CARTESIAN_POINT('',(-115.948892148057,-71.7645373432528,0.));
#1436=CARTESIAN_POINT('',(-115.948892148057,-131.764537343253,15.));
#1437=CARTESIAN_POINT('',(-115.948892148057,-71.7645373432528,15.));
#1438=CARTESIAN_POINT('',(-115.948892148057,-131.764537343253,0.));
#1439=CARTESIAN_POINT('Origin',(-115.948892148057,-71.7645373432528,0.));
#1440=CARTESIAN_POINT('',(-55.9488921480572,-71.7645373432528,15.));
#1441=CARTESIAN_POINT('',(-55.9488921480572,-71.7645373432528,0.));
#1442=CARTESIAN_POINT('',(-55.9488921480572,-71.7645373432528,15.));
#1443=CARTESIAN_POINT('Origin',(-55.9488921480572,-71.7645373432528,0.));
#1444=CARTESIAN_POINT('',(-55.9488921480572,-131.764537343253,15.));
#1445=CARTESIAN_POINT('',(-55.9488921480572,-131.764537343253,0.));
#1446=CARTESIAN_POINT('',(-55.9488921480572,-131.764537343253,15.));
#1447=CARTESIAN_POINT('Origin',(-123.448892148057,-139.264537343253,7.5));
#1448=CARTESIAN_POINT('',(-119.698892148057,-143.014537343253,7.5));
#1449=CARTESIAN_POINT('',(-127.198892148057,-143.014537343253,7.5));
#1450=CARTESIAN_POINT('',(-121.573892148057,-143.014537343253,7.5));
#1451=CARTESIAN_POINT('',(-119.698892148057,-137.389537343253,7.5));
#1452=CARTESIAN_POINT('',(-127.198892148057,-141.139537343253,7.5));
#1453=CARTESIAN_POINT('Origin',(-119.698892148057,-135.514537343253,0.));
#1454=CARTESIAN_POINT('',(-119.698892148057,-135.514537343253,15.));
#1455=CARTESIAN_POINT('',(-119.698892148057,-143.014537343253,0.));
#1456=CARTESIAN_POINT('Origin',(-123.448892148057,-64.2645373432528,7.5));
#1457=CARTESIAN_POINT('',(-119.698892148057,-68.0145373432528,7.5));
#1458=CARTESIAN_POINT('',(-127.198892148057,-68.0145373432528,7.5));
#1459=CARTESIAN_POINT('',(-121.573892148057,-68.0145373432528,7.5));
#1460=CARTESIAN_POINT('',(-119.698892148057,-60.5145373432528,7.5));
#1461=CARTESIAN_POINT('',(-119.698892148057,-62.3895373432528,7.5));
#1462=CARTESIAN_POINT('',(-127.198892148057,-60.5145373432528,7.5));
#1463=CARTESIAN_POINT('',(-125.323892148057,-60.5145373432528,7.5));
#1464=CARTESIAN_POINT('',(-127.198892148057,-66.1395373432528,7.5));
#1465=CARTESIAN_POINT('Origin',(-127.198892148057,-60.5145373432528,0.));
#1466=CARTESIAN_POINT('',(-119.698892148057,-60.5145373432528,0.));
#1467=CARTESIAN_POINT('',(-127.198892148057,-60.5145373432528,0.));
#1468=CARTESIAN_POINT('Origin',(-119.698892148057,-60.5145373432528,0.));
#1469=CARTESIAN_POINT('',(-119.698892148057,-68.0145373432528,15.));
#1470=CARTESIAN_POINT('',(-119.698892148057,-68.0145373432528,0.));
#1471=CARTESIAN_POINT('',(-119.698892148057,-60.5145373432528,15.));
#1472=CARTESIAN_POINT('Origin',(-48.4488921480572,-139.264537343253,7.5));
#1473=CARTESIAN_POINT('',(-44.6988921480572,-143.014537343253,7.5));
#1474=CARTESIAN_POINT('',(-46.5738921480572,-143.014537343253,7.5));
#1475=CARTESIAN_POINT('',(-44.6988921480572,-137.389537343253,7.5));
#1476=CARTESIAN_POINT('Origin',(-44.6988921480572,-135.514537343253,0.));
#1477=CARTESIAN_POINT('',(-44.6988921480572,-143.014537343253,0.));
#1478=CARTESIAN_POINT('Origin',(-48.4488921480572,-64.2645373432528,7.5));
#1479=CARTESIAN_POINT('',(-44.6988921480572,-68.0145373432528,7.5));
#1480=CARTESIAN_POINT('',(-46.5738921480572,-68.0145373432528,7.5));
#1481=CARTESIAN_POINT('',(-44.6988921480572,-60.5145373432528,7.5));
#1482=CARTESIAN_POINT('',(-44.6988921480572,-62.3895373432528,7.5));
#1483=CARTESIAN_POINT('',(-50.3238921480572,-60.5145373432528,7.5));
#1484=CARTESIAN_POINT('Origin',(-52.1988921480572,-60.5145373432528,0.));
#1485=CARTESIAN_POINT('',(-44.6988921480572,-60.5145373432528,0.));
#1486=CARTESIAN_POINT('Origin',(-44.6988921480572,-60.5145373432528,0.));
#1487=CARTESIAN_POINT('',(-44.6988921480572,-68.0145373432528,0.));
#1488=CARTESIAN_POINT('Origin',(-44.6988921480572,-143.014537343253,0.));
#1489=CARTESIAN_POINT('Origin',(-44.6988921480572,-68.0145373432528,0.));
#1490=CARTESIAN_POINT('',(-44.6988921480572,-68.0145373432528,15.));
#1491=CARTESIAN_POINT('Origin',(-127.198892148057,-68.0145373432528,0.));
#1492=CARTESIAN_POINT('',(-127.198892148057,-68.0145373432528,0.));
#1493=CARTESIAN_POINT('Origin',(-119.698892148057,-68.0145373432528,0.));
#1494=CARTESIAN_POINT('',(-119.698892148057,-68.0145373432528,15.));
#1495=CARTESIAN_POINT('Origin',(-127.198892148057,-143.014537343253,0.));
#1496=CARTESIAN_POINT('',(-127.198892148057,-143.014537343253,0.));
#1497=CARTESIAN_POINT('Origin',(-119.698892148057,-143.014537343253,0.));
#1498=CARTESIAN_POINT('Origin',(-130.948892148057,-56.7645373432528,0.));
#1499=CARTESIAN_POINT('',(-130.948892148057,-146.764537343253,0.));
#1500=CARTESIAN_POINT('',(-130.948892148057,-56.7645373432528,0.));
#1501=CARTESIAN_POINT('Origin',(-40.9488921480572,-56.7645373432528,0.));
#1502=CARTESIAN_POINT('',(-40.9488921480572,-56.7645373432528,0.));
#1503=CARTESIAN_POINT('Origin',(-40.9488921480572,-146.764537343253,0.));
#1504=CARTESIAN_POINT('',(-40.9488921480572,-146.764537343253,0.));
#1505=CARTESIAN_POINT('Origin',(-79.9488921480572,-131.764537343253,0.));
#1506=CARTESIAN_POINT('',(-79.9488921480572,-131.764537343253,0.));
#1507=CARTESIAN_POINT('',(-79.9488921480572,-146.764537343253,0.));
#1508=CARTESIAN_POINT('Origin',(-55.9488921480572,-131.764537343253,0.));
#1509=CARTESIAN_POINT('',(-115.948892148057,-131.764537343253,15.));
#1510=CARTESIAN_POINT('Origin',(-130.948892148057,-146.764537343253,0.));
#1511=CARTESIAN_POINT('Origin',(-85.9488921480572,-101.764537343253,15.));
#1512=UNCERTAINTY_MEASURE_WITH_UNIT(LENGTH_MEASURE(0.01),#1516,
'DISTANCE_ACCURACY_VALUE',
'Maximum model space distance between geometric entities at asserted c
onnectivities');
#1513=UNCERTAINTY_MEASURE_WITH_UNIT(LENGTH_MEASURE(0.01),#1516,
'DISTANCE_ACCURACY_VALUE',
'Maximum model space distance between geometric entities at asserted c
onnectivities');
#1514=(
GEOMETRIC_REPRESENTATION_CONTEXT(3)
GLOBAL_UNCERTAINTY_ASSIGNED_CONTEXT((#1512))
GLOBAL_UNIT_ASSIGNED_CONTEXT((#1516,#1517,#1518))
REPRESENTATION_CONTEXT('','3D')
);
#1515=(
GEOMETRIC_REPRESENTATION_CONTEXT(3)
GLOBAL_UNCERTAINTY_ASSIGNED_CONTEXT((#1513))
GLOBAL_UNIT_ASSIGNED_CONTEXT((#1516,#1517,#1518))
REPRESENTATION_CONTEXT('','3D')
);
#1516=(
LENGTH_UNIT()
NAMED_UNIT(*)
SI_UNIT(.MILLI.,.METRE.)
);
#1517=(
NAMED_UNIT(*)
PLANE_ANGLE_UNIT()
SI_UNIT($,.RADIAN.)
);
#1518=(
NAMED_UNIT(*)
SI_UNIT($,.STERADIAN.)
SOLID_ANGLE_UNIT()
);
#1519=SHAPE_DEFINITION_REPRESENTATION(#1520,#1521);
#1520=PRODUCT_DEFINITION_SHAPE('',$,#1523);
#1521=SHAPE_REPRESENTATION('',(#964),#1514);
#1522=PRODUCT_DEFINITION_CONTEXT('part definition',#1527,'design');
#1523=PRODUCT_DEFINITION('Luma','Luma v27',#1524,#1522);
#1524=PRODUCT_DEFINITION_FORMATION('',$,#1529);
#1525=PRODUCT_RELATED_PRODUCT_CATEGORY('Luma v27','Luma v27',(#1529));
#1526=APPLICATION_PROTOCOL_DEFINITION('international standard',
'automotive_design',2009,#1527);
#1527=APPLICATION_CONTEXT(
'Core Data for Automotive Mechanical Design Process');
#1528=PRODUCT_CONTEXT('part definition',#1527,'mechanical');
#1529=PRODUCT('Luma','Luma v27',$,(#1528));
#1530=PRESENTATION_STYLE_ASSIGNMENT((#1545));
#1531=PRESENTATION_STYLE_ASSIGNMENT((#1546));
#1532=PRESENTATION_STYLE_ASSIGNMENT((#1547));
#1533=PRESENTATION_STYLE_ASSIGNMENT((#1548));
#1534=PRESENTATION_STYLE_ASSIGNMENT((#1549));
#1535=PRESENTATION_STYLE_ASSIGNMENT((#1550));
#1536=PRESENTATION_STYLE_ASSIGNMENT((#1551));
#1537=PRESENTATION_STYLE_ASSIGNMENT((#1552));
#1538=PRESENTATION_STYLE_ASSIGNMENT((#1553));
#1539=PRESENTATION_STYLE_ASSIGNMENT((#1554));
#1540=PRESENTATION_STYLE_ASSIGNMENT((#1555));
#1541=PRESENTATION_STYLE_ASSIGNMENT((#1556));
#1542=PRESENTATION_STYLE_ASSIGNMENT((#1557));
#1543=PRESENTATION_STYLE_ASSIGNMENT((#1558));
#1544=PRESENTATION_STYLE_ASSIGNMENT((#1559));
#1545=SURFACE_STYLE_USAGE(.BOTH.,#1560);
#1546=SURFACE_STYLE_USAGE(.BOTH.,#1561);
#1547=SURFACE_STYLE_USAGE(.BOTH.,#1562);
#1548=SURFACE_STYLE_USAGE(.BOTH.,#1563);
#1549=SURFACE_STYLE_USAGE(.BOTH.,#1564);
#1550=SURFACE_STYLE_USAGE(.BOTH.,#1565);
#1551=SURFACE_STYLE_USAGE(.BOTH.,#1566);
#1552=SURFACE_STYLE_USAGE(.BOTH.,#1567);
#1553=SURFACE_STYLE_USAGE(.BOTH.,#1568);
#1554=SURFACE_STYLE_USAGE(.BOTH.,#1569);
#1555=SURFACE_STYLE_USAGE(.BOTH.,#1570);
#1556=SURFACE_STYLE_USAGE(.BOTH.,#1571);
#1557=SURFACE_STYLE_USAGE(.BOTH.,#1572);
#1558=SURFACE_STYLE_USAGE(.BOTH.,#1573);
#1559=SURFACE_STYLE_USAGE(.BOTH.,#1574);
#1560=SURFACE_SIDE_STYLE('',(#1575));
#1561=SURFACE_SIDE_STYLE('',(#1576));
#1562=SURFACE_SIDE_STYLE('',(#1577));
#1563=SURFACE_SIDE_STYLE('',(#1578));
#1564=SURFACE_SIDE_STYLE('',(#1579));
#1565=SURFACE_SIDE_STYLE('',(#1580));
#1566=SURFACE_SIDE_STYLE('',(#1581));
#1567=SURFACE_SIDE_STYLE('',(#1582));
#1568=SURFACE_SIDE_STYLE('',(#1583));
#1569=SURFACE_SIDE_STYLE('',(#1584));
#1570=SURFACE_SIDE_STYLE('',(#1585));
#1571=SURFACE_SIDE_STYLE('',(#1586));
#1572=SURFACE_SIDE_STYLE('',(#1587));
#1573=SURFACE_SIDE_STYLE('',(#1588));
#1574=SURFACE_SIDE_STYLE('',(#1589));
#1575=SURFACE_STYLE_FILL_AREA(#1590);
#1576=SURFACE_STYLE_FILL_AREA(#1591);
#1577=SURFACE_STYLE_FILL_AREA(#1592);
#1578=SURFACE_STYLE_FILL_AREA(#1593);
#1579=SURFACE_STYLE_FILL_AREA(#1594);
#1580=SURFACE_STYLE_FILL_AREA(#1595);
#1581=SURFACE_STYLE_FILL_AREA(#1596);
#1582=SURFACE_STYLE_FILL_AREA(#1597);
#1583=SURFACE_STYLE_FILL_AREA(#1598);
#1584=SURFACE_STYLE_FILL_AREA(#1599);
#1585=SURFACE_STYLE_FILL_AREA(#1600);
#1586=SURFACE_STYLE_FILL_AREA(#1601);
#1587=SURFACE_STYLE_FILL_AREA(#1602);
#1588=SURFACE_STYLE_FILL_AREA(#1603);
#1589=SURFACE_STYLE_FILL_AREA(#1604);
#1590=FILL_AREA_STYLE('Opaque(246,179,39)',(#1605));
#1591=FILL_AREA_STYLE('Opaque(160,160,160)',(#1606));
#1592=FILL_AREA_STYLE('Opaque(246,246,243)',(#1607));
#1593=FILL_AREA_STYLE('Opaque(245,245,246)',(#1608));
#1594=FILL_AREA_STYLE('Opaque(255,255,255)',(#1609));
#1595=FILL_AREA_STYLE('Opaque(202,209,238)',(#1610));
#1596=FILL_AREA_STYLE('Opaque(146,134,121)',(#1611));
#1597=FILL_AREA_STYLE('Opaque(203,203,203)',(#1612));
#1598=FILL_AREA_STYLE('Opaque(251,250,245)',(#1613));
#1599=FILL_AREA_STYLE('Opaque(25,25,25)',(#1614));
#1600=FILL_AREA_STYLE('Opaque(63,63,63)',(#1615));
#1601=FILL_AREA_STYLE('Steel - Satin',(#1616));
#1602=FILL_AREA_STYLE('LED (Blue)',(#1617));
#1603=FILL_AREA_STYLE('ABS (Black)',(#1618));
#1604=FILL_AREA_STYLE('Acrylic (Opaque)',(#1619));
#1605=FILL_AREA_STYLE_COLOUR('Opaque(246,179,39)',#1620);
#1606=FILL_AREA_STYLE_COLOUR('Opaque(160,160,160)',#1621);
#1607=FILL_AREA_STYLE_COLOUR('Opaque(246,246,243)',#1622);
#1608=FILL_AREA_STYLE_COLOUR('Opaque(245,245,246)',#1623);
#1609=FILL_AREA_STYLE_COLOUR('Opaque(255,255,255)',#1624);
#1610=FILL_AREA_STYLE_COLOUR('Opaque(202,209,238)',#1625);
#1611=FILL_AREA_STYLE_COLOUR('Opaque(146,134,121)',#1626);
#1612=FILL_AREA_STYLE_COLOUR('Opaque(203,203,203)',#1627);
#1613=FILL_AREA_STYLE_COLOUR('Opaque(251,250,245)',#1628);
#1614=FILL_AREA_STYLE_COLOUR('Opaque(25,25,25)',#1629);
#1615=FILL_AREA_STYLE_COLOUR('Opaque(63,63,63)',#1630);
#1616=FILL_AREA_STYLE_COLOUR('Steel - Satin',#1631);
#1617=FILL_AREA_STYLE_COLOUR('LED (Blue)',#1632);
#1618=FILL_AREA_STYLE_COLOUR('ABS (Black)',#1633);
#1619=FILL_AREA_STYLE_COLOUR('Acrylic (Opaque)',#1634);
#1620=COLOUR_RGB('Opaque(246,179,39)',0.964705882352941,0.701960784313725,
0.152941176470588);
#1621=COLOUR_RGB('Opaque(160,160,160)',0.627450980392157,0.627450980392157,
0.627450980392157);
#1622=COLOUR_RGB('Opaque(246,246,243)',0.964705882352941,0.964705882352941,
0.952941176470588);
#1623=COLOUR_RGB('Opaque(245,245,246)',0.96078431372549,0.96078431372549,
0.964705882352941);
#1624=COLOUR_RGB('Opaque(255,255,255)',1.,1.,1.);
#1625=COLOUR_RGB('Opaque(202,209,238)',0.792156862745098,0.819607843137255,
0.933333333333333);
#1626=COLOUR_RGB('Opaque(146,134,121)',0.572549019607843,0.525490196078431,
0.474509803921569);
#1627=COLOUR_RGB('Opaque(203,203,203)',0.796078431372549,0.796078431372549,
0.796078431372549);
#1628=COLOUR_RGB('Opaque(251,250,245)',0.984313725490196,0.980392156862745,
0.96078431372549);
#1629=COLOUR_RGB('Opaque(25,25,25)',0.0980392156862745,0.0980392156862745,
0.0980392156862745);
#1630=COLOUR_RGB('Opaque(63,63,63)',0.250980392156863,0.250980392156863,
0.250980392156863);
#1631=COLOUR_RGB('Steel - Satin',0.627450980392157,0.627450980392157,0.627450980392157);
#1632=COLOUR_RGB('LED (Blue)',0.188235294117647,0.231372549019608,0.588235294117647);
#1633=COLOUR_RGB('ABS (Black)',0.00784313725490196,0.00784313725490196,
0.00784313725490196);
#1634=COLOUR_RGB('Acrylic (Opaque)',0.964705882352941,0.964705882352941,
0.952941176470588);
ENDSEC;
END-ISO-10303-21;
