ISO-10303-21;
HEADER;
/* Generated by software containing ST-Developer
 * from STEP Tools, Inc. (www.steptools.com) 
 */

FILE_DESCRIPTION(
/* description */ (''),
/* implementation_level */ '2;1');

FILE_NAME(
/* name */ 'Chain_Bottom.step',
/* time_stamp */ '2025-07-20T20:37:03-05:00',
/* author */ (''),
/* organization */ (''),
/* preprocessor_version */ 'ST-DEVELOPER v20.1',
/* originating_system */ 'Autodesk Translation Framework v14.10.0.0',
/* authorisation */ '');

FILE_SCHEMA (('AUTOMOTIVE_DESIGN { 1 0 10303 214 3 1 1 }'));
ENDSEC;

DATA;
#10=MECHANICAL_DESIGN_GEOMETRIC_PRESENTATION_REPRESENTATION('',(#13),#587);
#11=SHAPE_REPRESENTATION_RELATIONSHIP('SRR','None',#593,#12);
#12=ADVANCED_BREP_SHAPE_REPRESENTATION('',(#14),#586);
#13=STYLED_ITEM('',(#610),#14);
#14=MANIFOLD_SOLID_BREP('Chain Bottom',#371);
#15=FACE_BOUND('',#49,.T.);
#16=FACE_BOUND('',#54,.T.);
#17=FACE_OUTER_BOUND('',#37,.T.);
#18=FACE_OUTER_BOUND('',#38,.T.);
#19=FACE_OUTER_BOUND('',#39,.T.);
#20=FACE_OUTER_BOUND('',#40,.T.);
#21=FACE_OUTER_BOUND('',#41,.T.);
#22=FACE_OUTER_BOUND('',#42,.T.);
#23=FACE_OUTER_BOUND('',#43,.T.);
#24=FACE_OUTER_BOUND('',#44,.T.);
#25=FACE_OUTER_BOUND('',#45,.T.);
#26=FACE_OUTER_BOUND('',#46,.T.);
#27=FACE_OUTER_BOUND('',#47,.T.);
#28=FACE_OUTER_BOUND('',#48,.T.);
#29=FACE_OUTER_BOUND('',#50,.T.);
#30=FACE_OUTER_BOUND('',#51,.T.);
#31=FACE_OUTER_BOUND('',#52,.T.);
#32=FACE_OUTER_BOUND('',#53,.T.);
#33=FACE_OUTER_BOUND('',#55,.T.);
#34=FACE_OUTER_BOUND('',#56,.T.);
#35=FACE_OUTER_BOUND('',#57,.T.);
#36=FACE_OUTER_BOUND('',#58,.T.);
#37=EDGE_LOOP('',(#235,#236,#237,#238));
#38=EDGE_LOOP('',(#239,#240,#241,#242));
#39=EDGE_LOOP('',(#243,#244,#245,#246));
#40=EDGE_LOOP('',(#247,#248,#249,#250));
#41=EDGE_LOOP('',(#251,#252,#253,#254));
#42=EDGE_LOOP('',(#255,#256,#257,#258));
#43=EDGE_LOOP('',(#259,#260,#261,#262));
#44=EDGE_LOOP('',(#263,#264,#265,#266));
#45=EDGE_LOOP('',(#267,#268,#269,#270));
#46=EDGE_LOOP('',(#271,#272,#273,#274));
#47=EDGE_LOOP('',(#275,#276,#277,#278));
#48=EDGE_LOOP('',(#279,#280,#281,#282));
#49=EDGE_LOOP('',(#283,#284,#285,#286));
#50=EDGE_LOOP('',(#287,#288,#289,#290));
#51=EDGE_LOOP('',(#291,#292,#293,#294));
#52=EDGE_LOOP('',(#295,#296,#297,#298));
#53=EDGE_LOOP('',(#299,#300,#301,#302));
#54=EDGE_LOOP('',(#303,#304,#305,#306));
#55=EDGE_LOOP('',(#307,#308,#309,#310));
#56=EDGE_LOOP('',(#311,#312,#313,#314));
#57=EDGE_LOOP('',(#315,#316,#317,#318,#319,#320,#321,#322));
#58=EDGE_LOOP('',(#323,#324,#325,#326,#327,#328,#329,#330));
#59=LINE('',#487,#107);
#60=LINE('',#489,#108);
#61=LINE('',#491,#109);
#62=LINE('',#492,#110);
#63=LINE('',#496,#111);
#64=LINE('',#498,#112);
#65=LINE('',#500,#113);
#66=LINE('',#501,#114);
#67=LINE('',#503,#115);
#68=LINE('',#504,#116);
#69=LINE('',#506,#117);
#70=LINE('',#508,#118);
#71=LINE('',#512,#119);
#72=LINE('',#514,#120);
#73=LINE('',#516,#121);
#74=LINE('',#517,#122);
#75=LINE('',#521,#123);
#76=LINE('',#523,#124);
#77=LINE('',#525,#125);
#78=LINE('',#526,#126);
#79=LINE('',#528,#127);
#80=LINE('',#529,#128);
#81=LINE('',#531,#129);
#82=LINE('',#533,#130);
#83=LINE('',#537,#131);
#84=LINE('',#539,#132);
#85=LINE('',#541,#133);
#86=LINE('',#542,#134);
#87=LINE('',#545,#135);
#88=LINE('',#547,#136);
#89=LINE('',#548,#137);
#90=LINE('',#551,#138);
#91=LINE('',#553,#139);
#92=LINE('',#554,#140);
#93=LINE('',#557,#141);
#94=LINE('',#559,#142);
#95=LINE('',#560,#143);
#96=LINE('',#563,#144);
#97=LINE('',#565,#145);
#98=LINE('',#566,#146);
#99=LINE('',#569,#147);
#100=LINE('',#571,#148);
#101=LINE('',#572,#149);
#102=LINE('',#575,#150);
#103=LINE('',#577,#151);
#104=LINE('',#578,#152);
#105=LINE('',#580,#153);
#106=LINE('',#581,#154);
#107=VECTOR('',#397,10.);
#108=VECTOR('',#398,10.);
#109=VECTOR('',#399,10.);
#110=VECTOR('',#400,10.);
#111=VECTOR('',#403,10.);
#112=VECTOR('',#404,10.);
#113=VECTOR('',#405,10.);
#114=VECTOR('',#406,10.);
#115=VECTOR('',#409,10.);
#116=VECTOR('',#410,10.);
#117=VECTOR('',#413,10.);
#118=VECTOR('',#416,10.);
#119=VECTOR('',#419,10.);
#120=VECTOR('',#420,10.);
#121=VECTOR('',#421,10.);
#122=VECTOR('',#422,10.);
#123=VECTOR('',#425,10.);
#124=VECTOR('',#426,10.);
#125=VECTOR('',#427,10.);
#126=VECTOR('',#428,10.);
#127=VECTOR('',#431,10.);
#128=VECTOR('',#432,10.);
#129=VECTOR('',#435,10.);
#130=VECTOR('',#438,10.);
#131=VECTOR('',#441,10.);
#132=VECTOR('',#442,10.);
#133=VECTOR('',#443,10.);
#134=VECTOR('',#444,10.);
#135=VECTOR('',#447,10.);
#136=VECTOR('',#448,10.);
#137=VECTOR('',#449,10.);
#138=VECTOR('',#452,10.);
#139=VECTOR('',#453,10.);
#140=VECTOR('',#454,10.);
#141=VECTOR('',#457,10.);
#142=VECTOR('',#458,10.);
#143=VECTOR('',#459,10.);
#144=VECTOR('',#462,10.);
#145=VECTOR('',#463,10.);
#146=VECTOR('',#464,10.);
#147=VECTOR('',#467,10.);
#148=VECTOR('',#468,10.);
#149=VECTOR('',#469,10.);
#150=VECTOR('',#472,10.);
#151=VECTOR('',#473,10.);
#152=VECTOR('',#474,10.);
#153=VECTOR('',#477,10.);
#154=VECTOR('',#478,10.);
#155=VERTEX_POINT('',#485);
#156=VERTEX_POINT('',#486);
#157=VERTEX_POINT('',#488);
#158=VERTEX_POINT('',#490);
#159=VERTEX_POINT('',#494);
#160=VERTEX_POINT('',#495);
#161=VERTEX_POINT('',#497);
#162=VERTEX_POINT('',#499);
#163=VERTEX_POINT('',#510);
#164=VERTEX_POINT('',#511);
#165=VERTEX_POINT('',#513);
#166=VERTEX_POINT('',#515);
#167=VERTEX_POINT('',#519);
#168=VERTEX_POINT('',#520);
#169=VERTEX_POINT('',#522);
#170=VERTEX_POINT('',#524);
#171=VERTEX_POINT('',#535);
#172=VERTEX_POINT('',#536);
#173=VERTEX_POINT('',#538);
#174=VERTEX_POINT('',#540);
#175=VERTEX_POINT('',#544);
#176=VERTEX_POINT('',#546);
#177=VERTEX_POINT('',#550);
#178=VERTEX_POINT('',#552);
#179=VERTEX_POINT('',#556);
#180=VERTEX_POINT('',#558);
#181=VERTEX_POINT('',#562);
#182=VERTEX_POINT('',#564);
#183=VERTEX_POINT('',#568);
#184=VERTEX_POINT('',#570);
#185=VERTEX_POINT('',#574);
#186=VERTEX_POINT('',#576);
#187=EDGE_CURVE('',#155,#156,#59,.T.);
#188=EDGE_CURVE('',#157,#156,#60,.T.);
#189=EDGE_CURVE('',#157,#158,#61,.T.);
#190=EDGE_CURVE('',#155,#158,#62,.T.);
#191=EDGE_CURVE('',#159,#160,#63,.T.);
#192=EDGE_CURVE('',#160,#161,#64,.T.);
#193=EDGE_CURVE('',#161,#162,#65,.T.);
#194=EDGE_CURVE('',#159,#162,#66,.T.);
#195=EDGE_CURVE('',#160,#155,#67,.T.);
#196=EDGE_CURVE('',#158,#161,#68,.T.);
#197=EDGE_CURVE('',#162,#157,#69,.T.);
#198=EDGE_CURVE('',#156,#159,#70,.T.);
#199=EDGE_CURVE('',#163,#164,#71,.T.);
#200=EDGE_CURVE('',#165,#164,#72,.T.);
#201=EDGE_CURVE('',#165,#166,#73,.T.);
#202=EDGE_CURVE('',#163,#166,#74,.T.);
#203=EDGE_CURVE('',#167,#168,#75,.T.);
#204=EDGE_CURVE('',#168,#169,#76,.T.);
#205=EDGE_CURVE('',#169,#170,#77,.T.);
#206=EDGE_CURVE('',#167,#170,#78,.T.);
#207=EDGE_CURVE('',#168,#163,#79,.T.);
#208=EDGE_CURVE('',#166,#169,#80,.T.);
#209=EDGE_CURVE('',#170,#165,#81,.T.);
#210=EDGE_CURVE('',#164,#167,#82,.T.);
#211=EDGE_CURVE('',#171,#172,#83,.T.);
#212=EDGE_CURVE('',#171,#173,#84,.T.);
#213=EDGE_CURVE('',#174,#173,#85,.T.);
#214=EDGE_CURVE('',#172,#174,#86,.T.);
#215=EDGE_CURVE('',#172,#175,#87,.T.);
#216=EDGE_CURVE('',#176,#174,#88,.T.);
#217=EDGE_CURVE('',#175,#176,#89,.T.);
#218=EDGE_CURVE('',#175,#177,#90,.T.);
#219=EDGE_CURVE('',#178,#176,#91,.T.);
#220=EDGE_CURVE('',#177,#178,#92,.T.);
#221=EDGE_CURVE('',#179,#177,#93,.T.);
#222=EDGE_CURVE('',#180,#178,#94,.T.);
#223=EDGE_CURVE('',#179,#180,#95,.T.);
#224=EDGE_CURVE('',#181,#179,#96,.T.);
#225=EDGE_CURVE('',#182,#180,#97,.T.);
#226=EDGE_CURVE('',#181,#182,#98,.T.);
#227=EDGE_CURVE('',#181,#183,#99,.T.);
#228=EDGE_CURVE('',#184,#182,#100,.T.);
#229=EDGE_CURVE('',#183,#184,#101,.T.);
#230=EDGE_CURVE('',#185,#183,#102,.T.);
#231=EDGE_CURVE('',#186,#184,#103,.T.);
#232=EDGE_CURVE('',#185,#186,#104,.T.);
#233=EDGE_CURVE('',#171,#185,#105,.T.);
#234=EDGE_CURVE('',#173,#186,#106,.T.);
#235=ORIENTED_EDGE('',*,*,#187,.T.);
#236=ORIENTED_EDGE('',*,*,#188,.F.);
#237=ORIENTED_EDGE('',*,*,#189,.T.);
#238=ORIENTED_EDGE('',*,*,#190,.F.);
#239=ORIENTED_EDGE('',*,*,#191,.T.);
#240=ORIENTED_EDGE('',*,*,#192,.T.);
#241=ORIENTED_EDGE('',*,*,#193,.T.);
#242=ORIENTED_EDGE('',*,*,#194,.F.);
#243=ORIENTED_EDGE('',*,*,#195,.T.);
#244=ORIENTED_EDGE('',*,*,#190,.T.);
#245=ORIENTED_EDGE('',*,*,#196,.T.);
#246=ORIENTED_EDGE('',*,*,#192,.F.);
#247=ORIENTED_EDGE('',*,*,#196,.F.);
#248=ORIENTED_EDGE('',*,*,#189,.F.);
#249=ORIENTED_EDGE('',*,*,#197,.F.);
#250=ORIENTED_EDGE('',*,*,#193,.F.);
#251=ORIENTED_EDGE('',*,*,#195,.F.);
#252=ORIENTED_EDGE('',*,*,#191,.F.);
#253=ORIENTED_EDGE('',*,*,#198,.F.);
#254=ORIENTED_EDGE('',*,*,#187,.F.);
#255=ORIENTED_EDGE('',*,*,#199,.T.);
#256=ORIENTED_EDGE('',*,*,#200,.F.);
#257=ORIENTED_EDGE('',*,*,#201,.T.);
#258=ORIENTED_EDGE('',*,*,#202,.F.);
#259=ORIENTED_EDGE('',*,*,#203,.T.);
#260=ORIENTED_EDGE('',*,*,#204,.T.);
#261=ORIENTED_EDGE('',*,*,#205,.T.);
#262=ORIENTED_EDGE('',*,*,#206,.F.);
#263=ORIENTED_EDGE('',*,*,#207,.T.);
#264=ORIENTED_EDGE('',*,*,#202,.T.);
#265=ORIENTED_EDGE('',*,*,#208,.T.);
#266=ORIENTED_EDGE('',*,*,#204,.F.);
#267=ORIENTED_EDGE('',*,*,#208,.F.);
#268=ORIENTED_EDGE('',*,*,#201,.F.);
#269=ORIENTED_EDGE('',*,*,#209,.F.);
#270=ORIENTED_EDGE('',*,*,#205,.F.);
#271=ORIENTED_EDGE('',*,*,#207,.F.);
#272=ORIENTED_EDGE('',*,*,#203,.F.);
#273=ORIENTED_EDGE('',*,*,#210,.F.);
#274=ORIENTED_EDGE('',*,*,#199,.F.);
#275=ORIENTED_EDGE('',*,*,#211,.F.);
#276=ORIENTED_EDGE('',*,*,#212,.T.);
#277=ORIENTED_EDGE('',*,*,#213,.F.);
#278=ORIENTED_EDGE('',*,*,#214,.F.);
#279=ORIENTED_EDGE('',*,*,#215,.F.);
#280=ORIENTED_EDGE('',*,*,#214,.T.);
#281=ORIENTED_EDGE('',*,*,#216,.F.);
#282=ORIENTED_EDGE('',*,*,#217,.F.);
#283=ORIENTED_EDGE('',*,*,#194,.T.);
#284=ORIENTED_EDGE('',*,*,#197,.T.);
#285=ORIENTED_EDGE('',*,*,#188,.T.);
#286=ORIENTED_EDGE('',*,*,#198,.T.);
#287=ORIENTED_EDGE('',*,*,#218,.F.);
#288=ORIENTED_EDGE('',*,*,#217,.T.);
#289=ORIENTED_EDGE('',*,*,#219,.F.);
#290=ORIENTED_EDGE('',*,*,#220,.F.);
#291=ORIENTED_EDGE('',*,*,#221,.T.);
#292=ORIENTED_EDGE('',*,*,#220,.T.);
#293=ORIENTED_EDGE('',*,*,#222,.F.);
#294=ORIENTED_EDGE('',*,*,#223,.F.);
#295=ORIENTED_EDGE('',*,*,#224,.T.);
#296=ORIENTED_EDGE('',*,*,#223,.T.);
#297=ORIENTED_EDGE('',*,*,#225,.F.);
#298=ORIENTED_EDGE('',*,*,#226,.F.);
#299=ORIENTED_EDGE('',*,*,#227,.F.);
#300=ORIENTED_EDGE('',*,*,#226,.T.);
#301=ORIENTED_EDGE('',*,*,#228,.F.);
#302=ORIENTED_EDGE('',*,*,#229,.F.);
#303=ORIENTED_EDGE('',*,*,#206,.T.);
#304=ORIENTED_EDGE('',*,*,#209,.T.);
#305=ORIENTED_EDGE('',*,*,#200,.T.);
#306=ORIENTED_EDGE('',*,*,#210,.T.);
#307=ORIENTED_EDGE('',*,*,#230,.T.);
#308=ORIENTED_EDGE('',*,*,#229,.T.);
#309=ORIENTED_EDGE('',*,*,#231,.F.);
#310=ORIENTED_EDGE('',*,*,#232,.F.);
#311=ORIENTED_EDGE('',*,*,#233,.T.);
#312=ORIENTED_EDGE('',*,*,#232,.T.);
#313=ORIENTED_EDGE('',*,*,#234,.F.);
#314=ORIENTED_EDGE('',*,*,#212,.F.);
#315=ORIENTED_EDGE('',*,*,#234,.T.);
#316=ORIENTED_EDGE('',*,*,#231,.T.);
#317=ORIENTED_EDGE('',*,*,#228,.T.);
#318=ORIENTED_EDGE('',*,*,#225,.T.);
#319=ORIENTED_EDGE('',*,*,#222,.T.);
#320=ORIENTED_EDGE('',*,*,#219,.T.);
#321=ORIENTED_EDGE('',*,*,#216,.T.);
#322=ORIENTED_EDGE('',*,*,#213,.T.);
#323=ORIENTED_EDGE('',*,*,#233,.F.);
#324=ORIENTED_EDGE('',*,*,#211,.T.);
#325=ORIENTED_EDGE('',*,*,#215,.T.);
#326=ORIENTED_EDGE('',*,*,#218,.T.);
#327=ORIENTED_EDGE('',*,*,#221,.F.);
#328=ORIENTED_EDGE('',*,*,#224,.F.);
#329=ORIENTED_EDGE('',*,*,#227,.T.);
#330=ORIENTED_EDGE('',*,*,#230,.F.);
#331=PLANE('',#373);
#332=PLANE('',#374);
#333=PLANE('',#375);
#334=PLANE('',#376);
#335=PLANE('',#377);
#336=PLANE('',#378);
#337=PLANE('',#379);
#338=PLANE('',#380);
#339=PLANE('',#381);
#340=PLANE('',#382);
#341=PLANE('',#383);
#342=PLANE('',#384);
#343=PLANE('',#385);
#344=PLANE('',#386);
#345=PLANE('',#387);
#346=PLANE('',#388);
#347=PLANE('',#389);
#348=PLANE('',#390);
#349=PLANE('',#391);
#350=PLANE('',#392);
#351=ADVANCED_FACE('',(#17),#331,.F.);
#352=ADVANCED_FACE('',(#18),#332,.F.);
#353=ADVANCED_FACE('',(#19),#333,.F.);
#354=ADVANCED_FACE('',(#20),#334,.F.);
#355=ADVANCED_FACE('',(#21),#335,.T.);
#356=ADVANCED_FACE('',(#22),#336,.F.);
#357=ADVANCED_FACE('',(#23),#337,.F.);
#358=ADVANCED_FACE('',(#24),#338,.F.);
#359=ADVANCED_FACE('',(#25),#339,.F.);
#360=ADVANCED_FACE('',(#26),#340,.T.);
#361=ADVANCED_FACE('',(#27),#341,.T.);
#362=ADVANCED_FACE('',(#28,#15),#342,.T.);
#363=ADVANCED_FACE('',(#29),#343,.T.);
#364=ADVANCED_FACE('',(#30),#344,.T.);
#365=ADVANCED_FACE('',(#31),#345,.T.);
#366=ADVANCED_FACE('',(#32,#16),#346,.T.);
#367=ADVANCED_FACE('',(#33),#347,.T.);
#368=ADVANCED_FACE('',(#34),#348,.T.);
#369=ADVANCED_FACE('',(#35),#349,.T.);
#370=ADVANCED_FACE('',(#36),#350,.F.);
#371=CLOSED_SHELL('',(#351,#352,#353,#354,#355,#356,#357,#358,#359,#360,
#361,#362,#363,#364,#365,#366,#367,#368,#369,#370));
#372=AXIS2_PLACEMENT_3D('',#483,#393,#394);
#373=AXIS2_PLACEMENT_3D('',#484,#395,#396);
#374=AXIS2_PLACEMENT_3D('',#493,#401,#402);
#375=AXIS2_PLACEMENT_3D('',#502,#407,#408);
#376=AXIS2_PLACEMENT_3D('',#505,#411,#412);
#377=AXIS2_PLACEMENT_3D('',#507,#414,#415);
#378=AXIS2_PLACEMENT_3D('',#509,#417,#418);
#379=AXIS2_PLACEMENT_3D('',#518,#423,#424);
#380=AXIS2_PLACEMENT_3D('',#527,#429,#430);
#381=AXIS2_PLACEMENT_3D('',#530,#433,#434);
#382=AXIS2_PLACEMENT_3D('',#532,#436,#437);
#383=AXIS2_PLACEMENT_3D('',#534,#439,#440);
#384=AXIS2_PLACEMENT_3D('',#543,#445,#446);
#385=AXIS2_PLACEMENT_3D('',#549,#450,#451);
#386=AXIS2_PLACEMENT_3D('',#555,#455,#456);
#387=AXIS2_PLACEMENT_3D('',#561,#460,#461);
#388=AXIS2_PLACEMENT_3D('',#567,#465,#466);
#389=AXIS2_PLACEMENT_3D('',#573,#470,#471);
#390=AXIS2_PLACEMENT_3D('',#579,#475,#476);
#391=AXIS2_PLACEMENT_3D('',#582,#479,#480);
#392=AXIS2_PLACEMENT_3D('',#583,#481,#482);
#393=DIRECTION('axis',(0.,0.,1.));
#394=DIRECTION('refdir',(1.,0.,0.));
#395=DIRECTION('center_axis',(0.707106781186545,0.70710678118655,0.));
#396=DIRECTION('ref_axis',(0.,0.,-1.));
#397=DIRECTION('',(0.,0.,1.));
#398=DIRECTION('',(0.70710678118655,-0.707106781186545,0.));
#399=DIRECTION('',(0.,0.,-1.));
#400=DIRECTION('',(-0.70710678118655,0.707106781186545,0.));
#401=DIRECTION('center_axis',(-0.707106781186545,-0.70710678118655,0.));
#402=DIRECTION('ref_axis',(0.,0.,1.));
#403=DIRECTION('',(0.,0.,-1.));
#404=DIRECTION('',(-0.70710678118655,0.707106781186545,0.));
#405=DIRECTION('',(0.,0.,1.));
#406=DIRECTION('',(-0.70710678118655,0.707106781186545,0.));
#407=DIRECTION('center_axis',(0.,0.,-1.));
#408=DIRECTION('ref_axis',(-0.707106781186545,-0.707106781186551,0.));
#409=DIRECTION('',(0.707106781186545,0.707106781186551,0.));
#410=DIRECTION('',(-0.707106781186545,-0.707106781186551,0.));
#411=DIRECTION('center_axis',(-0.70710678118655,0.707106781186545,0.));
#412=DIRECTION('ref_axis',(0.,0.,1.));
#413=DIRECTION('',(0.707106781186545,0.70710678118655,0.));
#414=DIRECTION('center_axis',(-0.707106781186551,0.707106781186544,0.));
#415=DIRECTION('ref_axis',(-0.707106781186544,-0.707106781186551,0.));
#416=DIRECTION('',(-0.707106781186544,-0.707106781186551,0.));
#417=DIRECTION('center_axis',(0.707106781186543,0.707106781186552,0.));
#418=DIRECTION('ref_axis',(0.,0.,-1.));
#419=DIRECTION('',(0.,0.,1.));
#420=DIRECTION('',(0.707106781186552,-0.707106781186543,0.));
#421=DIRECTION('',(0.,0.,-1.));
#422=DIRECTION('',(-0.707106781186552,0.707106781186543,0.));
#423=DIRECTION('center_axis',(-0.707106781186543,-0.707106781186552,0.));
#424=DIRECTION('ref_axis',(0.,0.,1.));
#425=DIRECTION('',(0.,0.,-1.));
#426=DIRECTION('',(-0.707106781186552,0.707106781186543,0.));
#427=DIRECTION('',(0.,0.,1.));
#428=DIRECTION('',(-0.707106781186552,0.707106781186543,0.));
#429=DIRECTION('center_axis',(0.,0.,-1.));
#430=DIRECTION('ref_axis',(-0.707106781186545,-0.707106781186551,0.));
#431=DIRECTION('',(0.707106781186545,0.707106781186551,0.));
#432=DIRECTION('',(-0.707106781186545,-0.707106781186551,0.));
#433=DIRECTION('center_axis',(-0.707106781186552,0.707106781186543,0.));
#434=DIRECTION('ref_axis',(0.,0.,1.));
#435=DIRECTION('',(0.707106781186543,0.707106781186552,0.));
#436=DIRECTION('center_axis',(-0.707106781186551,0.707106781186544,0.));
#437=DIRECTION('ref_axis',(-0.707106781186544,-0.707106781186551,0.));
#438=DIRECTION('',(-0.707106781186544,-0.707106781186551,0.));
#439=DIRECTION('center_axis',(0.707106781186545,0.70710678118655,-1.3684555315672E-48));
#440=DIRECTION('ref_axis',(-1.54946915415205E-32,1.54946915415204E-32,-1.));
#441=DIRECTION('',(1.54946915415205E-32,-1.54946915415204E-32,1.));
#442=DIRECTION('',(-0.70710678118655,0.707106781186545,0.));
#443=DIRECTION('',(-1.54946915415205E-32,1.54946915415204E-32,-1.));
#444=DIRECTION('',(-0.70710678118655,0.707106781186545,0.));
#445=DIRECTION('center_axis',(0.,0.,1.));
#446=DIRECTION('ref_axis',(0.707106781186544,0.707106781186551,0.));
#447=DIRECTION('',(-0.707106781186544,-0.707106781186551,0.));
#448=DIRECTION('',(0.707106781186544,0.707106781186551,0.));
#449=DIRECTION('',(-0.70710678118655,0.707106781186545,0.));
#450=DIRECTION('center_axis',(-0.707106781186545,-0.70710678118655,-2.46519032881566E-32));
#451=DIRECTION('ref_axis',(-2.11724582635995E-16,2.11724582635994E-16,1.));
#452=DIRECTION('',(2.11724582635995E-16,-2.11724582635994E-16,-1.));
#453=DIRECTION('',(-2.11724582635995E-16,2.11724582635994E-16,1.));
#454=DIRECTION('',(-0.70710678118655,0.707106781186545,0.));
#455=DIRECTION('center_axis',(0.,0.,1.));
#456=DIRECTION('ref_axis',(0.707106781186545,0.707106781186551,0.));
#457=DIRECTION('',(0.707106781186545,0.707106781186551,0.));
#458=DIRECTION('',(0.707106781186545,0.707106781186551,0.));
#459=DIRECTION('',(-0.70710678118655,0.707106781186545,0.));
#460=DIRECTION('center_axis',(0.707106781186545,0.70710678118655,2.46519032881566E-32));
#461=DIRECTION('ref_axis',(1.78662344152019E-16,-1.78662344152018E-16,-1.));
#462=DIRECTION('',(1.78662344152019E-16,-1.78662344152018E-16,-1.));
#463=DIRECTION('',(1.78662344152019E-16,-1.78662344152018E-16,-1.));
#464=DIRECTION('',(-0.70710678118655,0.707106781186545,0.));
#465=DIRECTION('center_axis',(0.,0.,1.));
#466=DIRECTION('ref_axis',(0.707106781186544,0.707106781186551,0.));
#467=DIRECTION('',(-0.707106781186544,-0.707106781186551,0.));
#468=DIRECTION('',(0.707106781186544,0.707106781186551,0.));
#469=DIRECTION('',(-0.70710678118655,0.707106781186545,0.));
#470=DIRECTION('center_axis',(-0.707106781186545,-0.70710678118655,-1.3684555315672E-48));
#471=DIRECTION('ref_axis',(-1.54946915415205E-32,1.54946915415204E-32,1.));
#472=DIRECTION('',(-1.54946915415205E-32,1.54946915415204E-32,1.));
#473=DIRECTION('',(-1.54946915415205E-32,1.54946915415204E-32,1.));
#474=DIRECTION('',(-0.70710678118655,0.707106781186545,0.));
#475=DIRECTION('center_axis',(0.,0.,-1.));
#476=DIRECTION('ref_axis',(-0.707106781186545,-0.70710678118655,0.));
#477=DIRECTION('',(-0.707106781186545,-0.70710678118655,0.));
#478=DIRECTION('',(-0.707106781186545,-0.70710678118655,0.));
#479=DIRECTION('center_axis',(-0.70710678118655,0.707106781186545,0.));
#480=DIRECTION('ref_axis',(0.,0.,1.));
#481=DIRECTION('center_axis',(-0.707106781186551,0.707106781186545,3.70074341541718E-17));
#482=DIRECTION('ref_axis',(-0.707106781186545,-0.707106781186551,0.));
#483=CARTESIAN_POINT('',(0.,0.,0.));
#484=CARTESIAN_POINT('Origin',(-75.0479816310645,-93.8686989422807,185.5));
#485=CARTESIAN_POINT('',(-75.0479816310645,-93.8686989422807,181.75));
#486=CARTESIAN_POINT('',(-75.0479816310645,-93.8686989422807,185.5));
#487=CARTESIAN_POINT('',(-75.0479816310645,-93.8686989422807,181.75));
#488=CARTESIAN_POINT('',(-77.699632060514,-91.2170485128312,185.5));
#489=CARTESIAN_POINT('',(-74.3850690237021,-94.5316115496431,185.5));
#490=CARTESIAN_POINT('',(-77.699632060514,-91.2170485128312,181.75));
#491=CARTESIAN_POINT('',(-77.699632060514,-91.2170485128312,181.75));
#492=CARTESIAN_POINT('',(-75.0479816310645,-93.8686989422807,181.75));
#493=CARTESIAN_POINT('Origin',(-77.8174993040305,-96.6382166152468,181.75));
#494=CARTESIAN_POINT('',(-77.8174993040305,-96.6382166152468,185.5));
#495=CARTESIAN_POINT('',(-77.8174993040305,-96.6382166152468,181.75));
#496=CARTESIAN_POINT('',(-77.8174993040305,-96.6382166152468,189.25));
#497=CARTESIAN_POINT('',(-80.4691497334801,-93.9865661857972,181.75));
#498=CARTESIAN_POINT('',(-77.8174993040305,-96.6382166152468,181.75));
#499=CARTESIAN_POINT('',(-80.4691497334801,-93.9865661857972,185.5));
#500=CARTESIAN_POINT('',(-80.4691497334801,-93.9865661857972,189.25));
#501=CARTESIAN_POINT('',(-77.1545866966681,-97.3011292226092,185.5));
#502=CARTESIAN_POINT('Origin',(-75.0479816310645,-93.8686989422807,181.75));
#503=CARTESIAN_POINT('',(-77.8174993040305,-96.6382166152468,181.75));
#504=CARTESIAN_POINT('',(-80.4691497334801,-93.9865661857972,181.75));
#505=CARTESIAN_POINT('Origin',(-79.084390896997,-92.6018073493142,183.625));
#506=CARTESIAN_POINT('',(-80.4396829226009,-93.9570993749181,185.5));
#507=CARTESIAN_POINT('Origin',(-76.4327404675475,-95.2534577787637,183.625));
#508=CARTESIAN_POINT('',(-77.7880324931514,-96.6087498043676,185.5));
#509=CARTESIAN_POINT('Origin',(-90.9876639676861,-109.808381278902,185.5));
#510=CARTESIAN_POINT('',(-90.9876639676861,-109.808381278902,181.75));
#511=CARTESIAN_POINT('',(-90.9876639676861,-109.808381278902,185.5));
#512=CARTESIAN_POINT('',(-90.9876639676861,-109.808381278902,181.75));
#513=CARTESIAN_POINT('',(-93.6393143971357,-107.156730849453,185.5));
#514=CARTESIAN_POINT('',(-90.3247513603237,-110.471293886265,185.5));
#515=CARTESIAN_POINT('',(-93.6393143971357,-107.156730849453,181.75));
#516=CARTESIAN_POINT('',(-93.6393143971357,-107.156730849453,181.75));
#517=CARTESIAN_POINT('',(-90.9876639676861,-109.808381278902,181.75));
#518=CARTESIAN_POINT('Origin',(-93.7274018807278,-112.548119191944,181.75));
#519=CARTESIAN_POINT('',(-93.7274018807278,-112.548119191944,185.5));
#520=CARTESIAN_POINT('',(-93.7274018807278,-112.548119191944,181.75));
#521=CARTESIAN_POINT('',(-93.7274018807278,-112.548119191944,189.25));
#522=CARTESIAN_POINT('',(-96.3790523101773,-109.896468762495,181.75));
#523=CARTESIAN_POINT('',(-93.7274018807278,-112.548119191944,181.75));
#524=CARTESIAN_POINT('',(-96.3790523101773,-109.896468762495,185.5));
#525=CARTESIAN_POINT('',(-96.3790523101773,-109.896468762495,189.25));
#526=CARTESIAN_POINT('',(-93.0644892733654,-113.211031799307,185.5));
#527=CARTESIAN_POINT('Origin',(-90.9876639676861,-109.808381278902,181.75));
#528=CARTESIAN_POINT('',(-93.7274018807278,-112.548119191944,181.75));
#529=CARTESIAN_POINT('',(-96.3790523101773,-109.896468762495,181.75));
#530=CARTESIAN_POINT('Origin',(-95.0091833536565,-108.526599805974,183.625));
#531=CARTESIAN_POINT('',(-96.3570304392793,-109.874446891597,185.5));
#532=CARTESIAN_POINT('Origin',(-92.3575329242069,-111.178250235423,183.625));
#533=CARTESIAN_POINT('',(-93.7053800098297,-112.526097321046,185.5));
#534=CARTESIAN_POINT('Origin',(-72.5141984451314,-93.9865661857972,185.5));
#535=CARTESIAN_POINT('',(-72.5141984451314,-93.9865661857972,140.5));
#536=CARTESIAN_POINT('',(-72.5141984451314,-93.9865661857972,185.5));
#537=CARTESIAN_POINT('',(-72.5141984451314,-93.9865661857972,140.5));
#538=CARTESIAN_POINT('',(-77.8174993040305,-88.6832653268981,140.5));
#539=CARTESIAN_POINT('',(-72.5141984451314,-93.9865661857972,140.5));
#540=CARTESIAN_POINT('',(-77.8174993040305,-88.6832653268981,185.5));
#541=CARTESIAN_POINT('',(-77.8174993040305,-88.6832653268981,140.5));
#542=CARTESIAN_POINT('',(-72.5141984451314,-93.9865661857972,185.5));
#543=CARTESIAN_POINT('Origin',(-77.8174993040305,-99.2898670446963,185.5));
#544=CARTESIAN_POINT('',(-77.8174993040305,-99.2898670446963,185.5));
#545=CARTESIAN_POINT('',(-72.5141984451314,-93.9865661857972,185.5));
#546=CARTESIAN_POINT('',(-83.1208001629296,-93.9865661857972,185.5));
#547=CARTESIAN_POINT('',(-77.8174993040305,-88.6832653268981,185.5));
#548=CARTESIAN_POINT('',(-77.8174993040305,-99.2898670446963,185.5));
#549=CARTESIAN_POINT('Origin',(-77.8174993040305,-99.2898670446963,148.));
#550=CARTESIAN_POINT('',(-77.8174993040305,-99.2898670446963,148.));
#551=CARTESIAN_POINT('',(-77.8174993040305,-99.2898670446963,185.5));
#552=CARTESIAN_POINT('',(-83.1208001629296,-93.9865661857972,148.));
#553=CARTESIAN_POINT('',(-83.1208001629296,-93.9865661857972,185.5));
#554=CARTESIAN_POINT('',(-77.8174993040305,-99.2898670446963,148.));
#555=CARTESIAN_POINT('Origin',(-88.4241010218286,-109.896468762495,148.));
#556=CARTESIAN_POINT('',(-88.4241010218286,-109.896468762495,148.));
#557=CARTESIAN_POINT('',(-88.4241010218287,-109.896468762495,148.));
#558=CARTESIAN_POINT('',(-93.7274018807278,-104.593167903595,148.));
#559=CARTESIAN_POINT('',(-93.7274018807278,-104.593167903595,148.));
#560=CARTESIAN_POINT('',(-88.4241010218286,-109.896468762495,148.));
#561=CARTESIAN_POINT('Origin',(-88.4241010218286,-109.896468762495,185.5));
#562=CARTESIAN_POINT('',(-88.4241010218286,-109.896468762495,185.5));
#563=CARTESIAN_POINT('',(-88.4241010218286,-109.896468762495,185.5));
#564=CARTESIAN_POINT('',(-93.7274018807278,-104.593167903595,185.5));
#565=CARTESIAN_POINT('',(-93.7274018807278,-104.593167903595,185.5));
#566=CARTESIAN_POINT('',(-88.4241010218286,-109.896468762495,185.5));
#567=CARTESIAN_POINT('Origin',(-93.7274018807277,-115.199769621394,185.5));
#568=CARTESIAN_POINT('',(-93.7274018807277,-115.199769621394,185.5));
#569=CARTESIAN_POINT('',(-72.5141984451314,-93.9865661857972,185.5));
#570=CARTESIAN_POINT('',(-99.0307027396269,-109.896468762495,185.5));
#571=CARTESIAN_POINT('',(-77.8174993040305,-88.6832653268981,185.5));
#572=CARTESIAN_POINT('',(-93.7274018807277,-115.199769621394,185.5));
#573=CARTESIAN_POINT('Origin',(-93.7274018807277,-115.199769621394,140.5));
#574=CARTESIAN_POINT('',(-93.7274018807277,-115.199769621394,140.5));
#575=CARTESIAN_POINT('',(-93.7274018807277,-115.199769621394,140.5));
#576=CARTESIAN_POINT('',(-99.0307027396269,-109.896468762495,140.5));
#577=CARTESIAN_POINT('',(-99.0307027396269,-109.896468762495,140.5));
#578=CARTESIAN_POINT('',(-93.7274018807277,-115.199769621394,140.5));
#579=CARTESIAN_POINT('Origin',(-72.5141984451314,-93.9865661857972,140.5));
#580=CARTESIAN_POINT('',(-77.8174993040305,-99.2898670446963,140.5));
#581=CARTESIAN_POINT('',(-83.1208001629296,-93.9865661857972,140.5));
#582=CARTESIAN_POINT('Origin',(-88.4241010218287,-99.2898670446964,163.));
#583=CARTESIAN_POINT('Origin',(-83.1208001629296,-104.593167903595,163.));
#584=UNCERTAINTY_MEASURE_WITH_UNIT(LENGTH_MEASURE(0.01),#588,
'DISTANCE_ACCURACY_VALUE',
'Maximum model space distance between geometric entities at asserted c
onnectivities');
#585=UNCERTAINTY_MEASURE_WITH_UNIT(LENGTH_MEASURE(0.01),#588,
'DISTANCE_ACCURACY_VALUE',
'Maximum model space distance between geometric entities at asserted c
onnectivities');
#586=(
GEOMETRIC_REPRESENTATION_CONTEXT(3)
GLOBAL_UNCERTAINTY_ASSIGNED_CONTEXT((#584))
GLOBAL_UNIT_ASSIGNED_CONTEXT((#588,#589,#590))
REPRESENTATION_CONTEXT('','3D')
);
#587=(
GEOMETRIC_REPRESENTATION_CONTEXT(3)
GLOBAL_UNCERTAINTY_ASSIGNED_CONTEXT((#585))
GLOBAL_UNIT_ASSIGNED_CONTEXT((#588,#589,#590))
REPRESENTATION_CONTEXT('','3D')
);
#588=(
LENGTH_UNIT()
NAMED_UNIT(*)
SI_UNIT(.MILLI.,.METRE.)
);
#589=(
NAMED_UNIT(*)
PLANE_ANGLE_UNIT()
SI_UNIT($,.RADIAN.)
);
#590=(
NAMED_UNIT(*)
SI_UNIT($,.STERADIAN.)
SOLID_ANGLE_UNIT()
);
#591=SHAPE_DEFINITION_REPRESENTATION(#592,#593);
#592=PRODUCT_DEFINITION_SHAPE('',$,#595);
#593=SHAPE_REPRESENTATION('',(#372),#586);
#594=PRODUCT_DEFINITION_CONTEXT('part definition',#599,'design');
#595=PRODUCT_DEFINITION('Luma','Luma v23',#596,#594);
#596=PRODUCT_DEFINITION_FORMATION('',$,#601);
#597=PRODUCT_RELATED_PRODUCT_CATEGORY('Luma v23','Luma v23',(#601));
#598=APPLICATION_PROTOCOL_DEFINITION('international standard',
'automotive_design',2009,#599);
#599=APPLICATION_CONTEXT(
'Core Data for Automotive Mechanical Design Process');
#600=PRODUCT_CONTEXT('part definition',#599,'mechanical');
#601=PRODUCT('Luma','Luma v23',$,(#600));
#602=PRESENTATION_STYLE_ASSIGNMENT((#612));
#603=PRESENTATION_STYLE_ASSIGNMENT((#613));
#604=PRESENTATION_STYLE_ASSIGNMENT((#614));
#605=PRESENTATION_STYLE_ASSIGNMENT((#615));
#606=PRESENTATION_STYLE_ASSIGNMENT((#616));
#607=PRESENTATION_STYLE_ASSIGNMENT((#617));
#608=PRESENTATION_STYLE_ASSIGNMENT((#618));
#609=PRESENTATION_STYLE_ASSIGNMENT((#619));
#610=PRESENTATION_STYLE_ASSIGNMENT((#620));
#611=PRESENTATION_STYLE_ASSIGNMENT((#621));
#612=SURFACE_STYLE_USAGE(.BOTH.,#622);
#613=SURFACE_STYLE_USAGE(.BOTH.,#623);
#614=SURFACE_STYLE_USAGE(.BOTH.,#624);
#615=SURFACE_STYLE_USAGE(.BOTH.,#625);
#616=SURFACE_STYLE_USAGE(.BOTH.,#626);
#617=SURFACE_STYLE_USAGE(.BOTH.,#627);
#618=SURFACE_STYLE_USAGE(.BOTH.,#628);
#619=SURFACE_STYLE_USAGE(.BOTH.,#629);
#620=SURFACE_STYLE_USAGE(.BOTH.,#630);
#621=SURFACE_STYLE_USAGE(.BOTH.,#631);
#622=SURFACE_SIDE_STYLE('',(#632));
#623=SURFACE_SIDE_STYLE('',(#633));
#624=SURFACE_SIDE_STYLE('',(#634));
#625=SURFACE_SIDE_STYLE('',(#635));
#626=SURFACE_SIDE_STYLE('',(#636));
#627=SURFACE_SIDE_STYLE('',(#637));
#628=SURFACE_SIDE_STYLE('',(#638));
#629=SURFACE_SIDE_STYLE('',(#639));
#630=SURFACE_SIDE_STYLE('',(#640));
#631=SURFACE_SIDE_STYLE('',(#641));
#632=SURFACE_STYLE_FILL_AREA(#642);
#633=SURFACE_STYLE_FILL_AREA(#643);
#634=SURFACE_STYLE_FILL_AREA(#644);
#635=SURFACE_STYLE_FILL_AREA(#645);
#636=SURFACE_STYLE_FILL_AREA(#646);
#637=SURFACE_STYLE_FILL_AREA(#647);
#638=SURFACE_STYLE_FILL_AREA(#648);
#639=SURFACE_STYLE_FILL_AREA(#649);
#640=SURFACE_STYLE_FILL_AREA(#650);
#641=SURFACE_STYLE_FILL_AREA(#651);
#642=FILL_AREA_STYLE('Opaque(246,179,39)',(#652));
#643=FILL_AREA_STYLE('Opaque(160,160,160)',(#653));
#644=FILL_AREA_STYLE('Opaque(246,246,243)',(#654));
#645=FILL_AREA_STYLE('Opaque(245,245,246)',(#655));
#646=FILL_AREA_STYLE('Opaque(255,255,255)',(#656));
#647=FILL_AREA_STYLE('Opaque(202,209,238)',(#657));
#648=FILL_AREA_STYLE('Opaque(80,124,105)',(#658));
#649=FILL_AREA_STYLE('Steel - Satin',(#659));
#650=FILL_AREA_STYLE('ABS (Black)',(#660));
#651=FILL_AREA_STYLE('Acrylic (Opaque)',(#661));
#652=FILL_AREA_STYLE_COLOUR('Opaque(246,179,39)',#662);
#653=FILL_AREA_STYLE_COLOUR('Opaque(160,160,160)',#663);
#654=FILL_AREA_STYLE_COLOUR('Opaque(246,246,243)',#664);
#655=FILL_AREA_STYLE_COLOUR('Opaque(245,245,246)',#665);
#656=FILL_AREA_STYLE_COLOUR('Opaque(255,255,255)',#666);
#657=FILL_AREA_STYLE_COLOUR('Opaque(202,209,238)',#667);
#658=FILL_AREA_STYLE_COLOUR('Opaque(80,124,105)',#668);
#659=FILL_AREA_STYLE_COLOUR('Steel - Satin',#669);
#660=FILL_AREA_STYLE_COLOUR('ABS (Black)',#670);
#661=FILL_AREA_STYLE_COLOUR('Acrylic (Opaque)',#671);
#662=COLOUR_RGB('Opaque(246,179,39)',0.964705882352941,0.701960784313725,
0.152941176470588);
#663=COLOUR_RGB('Opaque(160,160,160)',0.627450980392157,0.627450980392157,
0.627450980392157);
#664=COLOUR_RGB('Opaque(246,246,243)',0.964705882352941,0.964705882352941,
0.952941176470588);
#665=COLOUR_RGB('Opaque(245,245,246)',0.96078431372549,0.96078431372549,
0.964705882352941);
#666=COLOUR_RGB('Opaque(255,255,255)',1.,1.,1.);
#667=COLOUR_RGB('Opaque(202,209,238)',0.792156862745098,0.819607843137255,
0.933333333333333);
#668=COLOUR_RGB('Opaque(80,124,105)',0.313725490196078,0.486274509803922,
0.411764705882353);
#669=COLOUR_RGB('Steel - Satin',0.627450980392157,0.627450980392157,0.627450980392157);
#670=COLOUR_RGB('ABS (Black)',0.00784313725490196,0.00784313725490196,0.00784313725490196);
#671=COLOUR_RGB('Acrylic (Opaque)',0.964705882352941,0.964705882352941,
0.952941176470588);
ENDSEC;
END-ISO-10303-21;
