ISO-10303-21;
HEADER;
/* Generated by software containing ST-Developer
 * from STEP Tools, Inc. (www.steptools.com) 
 */

FILE_DESCRIPTION(
/* description */ (''),
/* implementation_level */ '2;1');

FILE_NAME(
/* name */ 'Chain_Top.step',
/* time_stamp */ '2025-07-20T20:37:20-05:00',
/* author */ (''),
/* organization */ (''),
/* preprocessor_version */ 'ST-DEVELOPER v20.1',
/* originating_system */ 'Autodesk Translation Framework v14.10.0.0',
/* authorisation */ '');

FILE_SCHEMA (('AUTOMOTIVE_DESIGN { 1 0 10303 214 3 1 1 }'));
ENDSEC;

DATA;
#10=MECHANICAL_DESIGN_GEOMETRIC_PRESENTATION_REPRESENTATION('',(#13),#455);
#11=SHAPE_REPRESENTATION_RELATIONSHIP('SRR','None',#461,#12);
#12=ADVANCED_BREP_SHAPE_REPRESENTATION('',(#14),#454);
#13=STYLED_ITEM('',(#478),#14);
#14=MANIFOLD_SOLID_BREP('Chain Top',#287);
#15=FACE_BOUND('',#46,.T.);
#16=FACE_BOUND('',#47,.T.);
#17=FACE_OUTER_BOUND('',#33,.T.);
#18=FACE_OUTER_BOUND('',#34,.T.);
#19=FACE_OUTER_BOUND('',#35,.T.);
#20=FACE_OUTER_BOUND('',#36,.T.);
#21=FACE_OUTER_BOUND('',#37,.T.);
#22=FACE_OUTER_BOUND('',#38,.T.);
#23=FACE_OUTER_BOUND('',#39,.T.);
#24=FACE_OUTER_BOUND('',#40,.T.);
#25=FACE_OUTER_BOUND('',#41,.T.);
#26=FACE_OUTER_BOUND('',#42,.T.);
#27=FACE_OUTER_BOUND('',#43,.T.);
#28=FACE_OUTER_BOUND('',#44,.T.);
#29=FACE_OUTER_BOUND('',#45,.T.);
#30=FACE_OUTER_BOUND('',#48,.T.);
#31=FACE_OUTER_BOUND('',#49,.T.);
#32=FACE_OUTER_BOUND('',#50,.T.);
#33=EDGE_LOOP('',(#183,#184,#185,#186));
#34=EDGE_LOOP('',(#187,#188,#189,#190));
#35=EDGE_LOOP('',(#191,#192,#193,#194));
#36=EDGE_LOOP('',(#195,#196,#197,#198));
#37=EDGE_LOOP('',(#199,#200,#201,#202));
#38=EDGE_LOOP('',(#203,#204,#205,#206));
#39=EDGE_LOOP('',(#207,#208,#209,#210));
#40=EDGE_LOOP('',(#211,#212,#213,#214));
#41=EDGE_LOOP('',(#215,#216,#217,#218));
#42=EDGE_LOOP('',(#219,#220,#221,#222));
#43=EDGE_LOOP('',(#223,#224,#225,#226));
#44=EDGE_LOOP('',(#227,#228,#229,#230));
#45=EDGE_LOOP('',(#231,#232,#233,#234));
#46=EDGE_LOOP('',(#235,#236,#237,#238));
#47=EDGE_LOOP('',(#239,#240,#241,#242));
#48=EDGE_LOOP('',(#243,#244,#245,#246));
#49=EDGE_LOOP('',(#247,#248,#249,#250));
#50=EDGE_LOOP('',(#251,#252,#253,#254));
#51=LINE('',#379,#87);
#52=LINE('',#381,#88);
#53=LINE('',#383,#89);
#54=LINE('',#384,#90);
#55=LINE('',#388,#91);
#56=LINE('',#390,#92);
#57=LINE('',#392,#93);
#58=LINE('',#393,#94);
#59=LINE('',#395,#95);
#60=LINE('',#396,#96);
#61=LINE('',#398,#97);
#62=LINE('',#400,#98);
#63=LINE('',#404,#99);
#64=LINE('',#406,#100);
#65=LINE('',#408,#101);
#66=LINE('',#409,#102);
#67=LINE('',#413,#103);
#68=LINE('',#415,#104);
#69=LINE('',#417,#105);
#70=LINE('',#418,#106);
#71=LINE('',#420,#107);
#72=LINE('',#421,#108);
#73=LINE('',#423,#109);
#74=LINE('',#425,#110);
#75=LINE('',#429,#111);
#76=LINE('',#431,#112);
#77=LINE('',#433,#113);
#78=LINE('',#434,#114);
#79=LINE('',#437,#115);
#80=LINE('',#439,#116);
#81=LINE('',#440,#117);
#82=LINE('',#443,#118);
#83=LINE('',#445,#119);
#84=LINE('',#446,#120);
#85=LINE('',#448,#121);
#86=LINE('',#449,#122);
#87=VECTOR('',#309,10.);
#88=VECTOR('',#310,10.);
#89=VECTOR('',#311,10.);
#90=VECTOR('',#312,10.);
#91=VECTOR('',#315,10.);
#92=VECTOR('',#316,10.);
#93=VECTOR('',#317,10.);
#94=VECTOR('',#318,10.);
#95=VECTOR('',#321,10.);
#96=VECTOR('',#322,10.);
#97=VECTOR('',#325,10.);
#98=VECTOR('',#328,10.);
#99=VECTOR('',#331,10.);
#100=VECTOR('',#332,10.);
#101=VECTOR('',#333,10.);
#102=VECTOR('',#334,10.);
#103=VECTOR('',#337,10.);
#104=VECTOR('',#338,10.);
#105=VECTOR('',#339,10.);
#106=VECTOR('',#340,10.);
#107=VECTOR('',#343,10.);
#108=VECTOR('',#344,10.);
#109=VECTOR('',#347,10.);
#110=VECTOR('',#350,10.);
#111=VECTOR('',#353,10.);
#112=VECTOR('',#354,10.);
#113=VECTOR('',#355,10.);
#114=VECTOR('',#356,10.);
#115=VECTOR('',#359,10.);
#116=VECTOR('',#360,10.);
#117=VECTOR('',#361,10.);
#118=VECTOR('',#364,10.);
#119=VECTOR('',#365,10.);
#120=VECTOR('',#366,10.);
#121=VECTOR('',#369,10.);
#122=VECTOR('',#370,10.);
#123=VERTEX_POINT('',#377);
#124=VERTEX_POINT('',#378);
#125=VERTEX_POINT('',#380);
#126=VERTEX_POINT('',#382);
#127=VERTEX_POINT('',#386);
#128=VERTEX_POINT('',#387);
#129=VERTEX_POINT('',#389);
#130=VERTEX_POINT('',#391);
#131=VERTEX_POINT('',#402);
#132=VERTEX_POINT('',#403);
#133=VERTEX_POINT('',#405);
#134=VERTEX_POINT('',#407);
#135=VERTEX_POINT('',#411);
#136=VERTEX_POINT('',#412);
#137=VERTEX_POINT('',#414);
#138=VERTEX_POINT('',#416);
#139=VERTEX_POINT('',#427);
#140=VERTEX_POINT('',#428);
#141=VERTEX_POINT('',#430);
#142=VERTEX_POINT('',#432);
#143=VERTEX_POINT('',#436);
#144=VERTEX_POINT('',#438);
#145=VERTEX_POINT('',#442);
#146=VERTEX_POINT('',#444);
#147=EDGE_CURVE('',#123,#124,#51,.T.);
#148=EDGE_CURVE('',#123,#125,#52,.T.);
#149=EDGE_CURVE('',#126,#125,#53,.T.);
#150=EDGE_CURVE('',#124,#126,#54,.T.);
#151=EDGE_CURVE('',#127,#128,#55,.T.);
#152=EDGE_CURVE('',#129,#127,#56,.T.);
#153=EDGE_CURVE('',#130,#129,#57,.T.);
#154=EDGE_CURVE('',#128,#130,#58,.T.);
#155=EDGE_CURVE('',#128,#123,#59,.T.);
#156=EDGE_CURVE('',#125,#130,#60,.T.);
#157=EDGE_CURVE('',#126,#129,#61,.T.);
#158=EDGE_CURVE('',#127,#124,#62,.T.);
#159=EDGE_CURVE('',#131,#132,#63,.T.);
#160=EDGE_CURVE('',#131,#133,#64,.T.);
#161=EDGE_CURVE('',#134,#133,#65,.T.);
#162=EDGE_CURVE('',#132,#134,#66,.T.);
#163=EDGE_CURVE('',#135,#136,#67,.T.);
#164=EDGE_CURVE('',#137,#135,#68,.T.);
#165=EDGE_CURVE('',#138,#137,#69,.T.);
#166=EDGE_CURVE('',#136,#138,#70,.T.);
#167=EDGE_CURVE('',#136,#131,#71,.T.);
#168=EDGE_CURVE('',#133,#138,#72,.T.);
#169=EDGE_CURVE('',#134,#137,#73,.T.);
#170=EDGE_CURVE('',#135,#132,#74,.T.);
#171=EDGE_CURVE('',#139,#140,#75,.T.);
#172=EDGE_CURVE('',#140,#141,#76,.T.);
#173=EDGE_CURVE('',#142,#141,#77,.T.);
#174=EDGE_CURVE('',#139,#142,#78,.T.);
#175=EDGE_CURVE('',#143,#139,#79,.T.);
#176=EDGE_CURVE('',#144,#142,#80,.T.);
#177=EDGE_CURVE('',#143,#144,#81,.T.);
#178=EDGE_CURVE('',#145,#143,#82,.T.);
#179=EDGE_CURVE('',#146,#144,#83,.T.);
#180=EDGE_CURVE('',#145,#146,#84,.T.);
#181=EDGE_CURVE('',#140,#145,#85,.T.);
#182=EDGE_CURVE('',#141,#146,#86,.T.);
#183=ORIENTED_EDGE('',*,*,#147,.F.);
#184=ORIENTED_EDGE('',*,*,#148,.T.);
#185=ORIENTED_EDGE('',*,*,#149,.F.);
#186=ORIENTED_EDGE('',*,*,#150,.F.);
#187=ORIENTED_EDGE('',*,*,#151,.F.);
#188=ORIENTED_EDGE('',*,*,#152,.F.);
#189=ORIENTED_EDGE('',*,*,#153,.F.);
#190=ORIENTED_EDGE('',*,*,#154,.F.);
#191=ORIENTED_EDGE('',*,*,#155,.F.);
#192=ORIENTED_EDGE('',*,*,#154,.T.);
#193=ORIENTED_EDGE('',*,*,#156,.F.);
#194=ORIENTED_EDGE('',*,*,#148,.F.);
#195=ORIENTED_EDGE('',*,*,#156,.T.);
#196=ORIENTED_EDGE('',*,*,#153,.T.);
#197=ORIENTED_EDGE('',*,*,#157,.F.);
#198=ORIENTED_EDGE('',*,*,#149,.T.);
#199=ORIENTED_EDGE('',*,*,#155,.T.);
#200=ORIENTED_EDGE('',*,*,#147,.T.);
#201=ORIENTED_EDGE('',*,*,#158,.F.);
#202=ORIENTED_EDGE('',*,*,#151,.T.);
#203=ORIENTED_EDGE('',*,*,#159,.F.);
#204=ORIENTED_EDGE('',*,*,#160,.T.);
#205=ORIENTED_EDGE('',*,*,#161,.F.);
#206=ORIENTED_EDGE('',*,*,#162,.F.);
#207=ORIENTED_EDGE('',*,*,#163,.F.);
#208=ORIENTED_EDGE('',*,*,#164,.F.);
#209=ORIENTED_EDGE('',*,*,#165,.F.);
#210=ORIENTED_EDGE('',*,*,#166,.F.);
#211=ORIENTED_EDGE('',*,*,#167,.F.);
#212=ORIENTED_EDGE('',*,*,#166,.T.);
#213=ORIENTED_EDGE('',*,*,#168,.F.);
#214=ORIENTED_EDGE('',*,*,#160,.F.);
#215=ORIENTED_EDGE('',*,*,#168,.T.);
#216=ORIENTED_EDGE('',*,*,#165,.T.);
#217=ORIENTED_EDGE('',*,*,#169,.F.);
#218=ORIENTED_EDGE('',*,*,#161,.T.);
#219=ORIENTED_EDGE('',*,*,#167,.T.);
#220=ORIENTED_EDGE('',*,*,#159,.T.);
#221=ORIENTED_EDGE('',*,*,#170,.F.);
#222=ORIENTED_EDGE('',*,*,#163,.T.);
#223=ORIENTED_EDGE('',*,*,#171,.T.);
#224=ORIENTED_EDGE('',*,*,#172,.T.);
#225=ORIENTED_EDGE('',*,*,#173,.F.);
#226=ORIENTED_EDGE('',*,*,#174,.F.);
#227=ORIENTED_EDGE('',*,*,#175,.T.);
#228=ORIENTED_EDGE('',*,*,#174,.T.);
#229=ORIENTED_EDGE('',*,*,#176,.F.);
#230=ORIENTED_EDGE('',*,*,#177,.F.);
#231=ORIENTED_EDGE('',*,*,#178,.T.);
#232=ORIENTED_EDGE('',*,*,#177,.T.);
#233=ORIENTED_EDGE('',*,*,#179,.F.);
#234=ORIENTED_EDGE('',*,*,#180,.F.);
#235=ORIENTED_EDGE('',*,*,#152,.T.);
#236=ORIENTED_EDGE('',*,*,#158,.T.);
#237=ORIENTED_EDGE('',*,*,#150,.T.);
#238=ORIENTED_EDGE('',*,*,#157,.T.);
#239=ORIENTED_EDGE('',*,*,#164,.T.);
#240=ORIENTED_EDGE('',*,*,#170,.T.);
#241=ORIENTED_EDGE('',*,*,#162,.T.);
#242=ORIENTED_EDGE('',*,*,#169,.T.);
#243=ORIENTED_EDGE('',*,*,#181,.T.);
#244=ORIENTED_EDGE('',*,*,#180,.T.);
#245=ORIENTED_EDGE('',*,*,#182,.F.);
#246=ORIENTED_EDGE('',*,*,#172,.F.);
#247=ORIENTED_EDGE('',*,*,#182,.T.);
#248=ORIENTED_EDGE('',*,*,#179,.T.);
#249=ORIENTED_EDGE('',*,*,#176,.T.);
#250=ORIENTED_EDGE('',*,*,#173,.T.);
#251=ORIENTED_EDGE('',*,*,#181,.F.);
#252=ORIENTED_EDGE('',*,*,#171,.F.);
#253=ORIENTED_EDGE('',*,*,#175,.F.);
#254=ORIENTED_EDGE('',*,*,#178,.F.);
#255=PLANE('',#289);
#256=PLANE('',#290);
#257=PLANE('',#291);
#258=PLANE('',#292);
#259=PLANE('',#293);
#260=PLANE('',#294);
#261=PLANE('',#295);
#262=PLANE('',#296);
#263=PLANE('',#297);
#264=PLANE('',#298);
#265=PLANE('',#299);
#266=PLANE('',#300);
#267=PLANE('',#301);
#268=PLANE('',#302);
#269=PLANE('',#303);
#270=PLANE('',#304);
#271=ADVANCED_FACE('',(#17),#255,.T.);
#272=ADVANCED_FACE('',(#18),#256,.T.);
#273=ADVANCED_FACE('',(#19),#257,.T.);
#274=ADVANCED_FACE('',(#20),#258,.T.);
#275=ADVANCED_FACE('',(#21),#259,.F.);
#276=ADVANCED_FACE('',(#22),#260,.T.);
#277=ADVANCED_FACE('',(#23),#261,.T.);
#278=ADVANCED_FACE('',(#24),#262,.T.);
#279=ADVANCED_FACE('',(#25),#263,.T.);
#280=ADVANCED_FACE('',(#26),#264,.F.);
#281=ADVANCED_FACE('',(#27),#265,.T.);
#282=ADVANCED_FACE('',(#28),#266,.T.);
#283=ADVANCED_FACE('',(#29,#15,#16),#267,.T.);
#284=ADVANCED_FACE('',(#30),#268,.T.);
#285=ADVANCED_FACE('',(#31),#269,.T.);
#286=ADVANCED_FACE('',(#32),#270,.F.);
#287=CLOSED_SHELL('',(#271,#272,#273,#274,#275,#276,#277,#278,#279,#280,
#281,#282,#283,#284,#285,#286));
#288=AXIS2_PLACEMENT_3D('',#375,#305,#306);
#289=AXIS2_PLACEMENT_3D('',#376,#307,#308);
#290=AXIS2_PLACEMENT_3D('',#385,#313,#314);
#291=AXIS2_PLACEMENT_3D('',#394,#319,#320);
#292=AXIS2_PLACEMENT_3D('',#397,#323,#324);
#293=AXIS2_PLACEMENT_3D('',#399,#326,#327);
#294=AXIS2_PLACEMENT_3D('',#401,#329,#330);
#295=AXIS2_PLACEMENT_3D('',#410,#335,#336);
#296=AXIS2_PLACEMENT_3D('',#419,#341,#342);
#297=AXIS2_PLACEMENT_3D('',#422,#345,#346);
#298=AXIS2_PLACEMENT_3D('',#424,#348,#349);
#299=AXIS2_PLACEMENT_3D('',#426,#351,#352);
#300=AXIS2_PLACEMENT_3D('',#435,#357,#358);
#301=AXIS2_PLACEMENT_3D('',#441,#362,#363);
#302=AXIS2_PLACEMENT_3D('',#447,#367,#368);
#303=AXIS2_PLACEMENT_3D('',#450,#371,#372);
#304=AXIS2_PLACEMENT_3D('',#451,#373,#374);
#305=DIRECTION('axis',(0.,0.,1.));
#306=DIRECTION('refdir',(1.,0.,0.));
#307=DIRECTION('center_axis',(0.707106781186543,0.707106781186552,0.));
#308=DIRECTION('ref_axis',(0.,0.,-1.));
#309=DIRECTION('',(0.,0.,1.));
#310=DIRECTION('',(-0.707106781186552,0.707106781186543,0.));
#311=DIRECTION('',(0.,0.,-1.));
#312=DIRECTION('',(-0.707106781186552,0.707106781186543,0.));
#313=DIRECTION('center_axis',(-0.707106781186543,-0.707106781186552,0.));
#314=DIRECTION('ref_axis',(0.,0.,1.));
#315=DIRECTION('',(0.,0.,-1.));
#316=DIRECTION('',(0.707106781186552,-0.707106781186543,0.));
#317=DIRECTION('',(0.,0.,1.));
#318=DIRECTION('',(-0.707106781186552,0.707106781186543,0.));
#319=DIRECTION('center_axis',(0.,0.,-1.));
#320=DIRECTION('ref_axis',(-0.707106781186545,-0.707106781186551,0.));
#321=DIRECTION('',(0.707106781186545,0.707106781186551,0.));
#322=DIRECTION('',(-0.707106781186545,-0.707106781186551,0.));
#323=DIRECTION('center_axis',(-0.707106781186552,0.707106781186543,0.));
#324=DIRECTION('ref_axis',(0.,0.,1.));
#325=DIRECTION('',(-0.707106781186543,-0.707106781186552,0.));
#326=DIRECTION('center_axis',(-0.707106781186551,0.707106781186544,0.));
#327=DIRECTION('ref_axis',(-0.707106781186544,-0.707106781186551,0.));
#328=DIRECTION('',(0.707106781186544,0.707106781186551,0.));
#329=DIRECTION('center_axis',(0.707106781186545,0.70710678118655,0.));
#330=DIRECTION('ref_axis',(0.,0.,-1.));
#331=DIRECTION('',(0.,0.,1.));
#332=DIRECTION('',(-0.70710678118655,0.707106781186545,0.));
#333=DIRECTION('',(0.,0.,-1.));
#334=DIRECTION('',(-0.70710678118655,0.707106781186545,0.));
#335=DIRECTION('center_axis',(-0.707106781186545,-0.70710678118655,0.));
#336=DIRECTION('ref_axis',(0.,0.,1.));
#337=DIRECTION('',(0.,0.,-1.));
#338=DIRECTION('',(0.70710678118655,-0.707106781186545,0.));
#339=DIRECTION('',(0.,0.,1.));
#340=DIRECTION('',(-0.70710678118655,0.707106781186545,0.));
#341=DIRECTION('center_axis',(0.,0.,-1.));
#342=DIRECTION('ref_axis',(-0.707106781186545,-0.707106781186551,0.));
#343=DIRECTION('',(0.707106781186545,0.707106781186551,0.));
#344=DIRECTION('',(-0.707106781186545,-0.707106781186551,0.));
#345=DIRECTION('center_axis',(-0.70710678118655,0.707106781186545,0.));
#346=DIRECTION('ref_axis',(0.,0.,1.));
#347=DIRECTION('',(-0.707106781186545,-0.70710678118655,0.));
#348=DIRECTION('center_axis',(-0.707106781186551,0.707106781186544,0.));
#349=DIRECTION('ref_axis',(-0.707106781186544,-0.707106781186551,0.));
#350=DIRECTION('',(0.707106781186544,0.707106781186551,0.));
#351=DIRECTION('center_axis',(0.,0.,1.));
#352=DIRECTION('ref_axis',(0.707106781186545,0.707106781186551,0.));
#353=DIRECTION('',(0.707106781186545,0.707106781186551,0.));
#354=DIRECTION('',(-0.707106781186551,0.707106781186544,0.));
#355=DIRECTION('',(0.707106781186545,0.707106781186551,0.));
#356=DIRECTION('',(-0.707106781186551,0.707106781186544,0.));
#357=DIRECTION('center_axis',(-0.707106781186544,-0.707106781186551,0.));
#358=DIRECTION('ref_axis',(0.,0.,1.));
#359=DIRECTION('',(0.,0.,1.));
#360=DIRECTION('',(0.,0.,1.));
#361=DIRECTION('',(-0.707106781186551,0.707106781186544,0.));
#362=DIRECTION('center_axis',(0.,0.,-1.));
#363=DIRECTION('ref_axis',(-0.707106781186544,-0.707106781186551,0.));
#364=DIRECTION('',(-0.707106781186544,-0.707106781186551,0.));
#365=DIRECTION('',(-0.707106781186544,-0.707106781186551,0.));
#366=DIRECTION('',(-0.707106781186551,0.707106781186544,0.));
#367=DIRECTION('center_axis',(0.707106781186544,0.707106781186551,1.4791141972894E-30));
#368=DIRECTION('ref_axis',(-1.24447640679869E-15,1.24447640679868E-15,-1.));
#369=DIRECTION('',(-1.24447640679869E-15,1.24447640679868E-15,-1.));
#370=DIRECTION('',(-1.24447640679869E-15,1.24447640679868E-15,-1.));
#371=DIRECTION('center_axis',(-0.707106781186551,0.707106781186544,0.));
#372=DIRECTION('ref_axis',(0.,0.,1.));
#373=DIRECTION('center_axis',(-0.707106781186551,0.707106781186544,0.));
#374=DIRECTION('ref_axis',(-0.707106781186544,-0.707106781186551,0.));
#375=CARTESIAN_POINT('',(0.,0.,0.));
#376=CARTESIAN_POINT('Origin',(-90.9876639676861,-109.808381278902,185.5));
#377=CARTESIAN_POINT('',(-90.9876639676861,-109.808381278902,181.75));
#378=CARTESIAN_POINT('',(-90.9876639676861,-109.808381278902,185.5));
#379=CARTESIAN_POINT('',(-90.9876639676861,-109.808381278902,181.75));
#380=CARTESIAN_POINT('',(-93.6393143971357,-107.156730849453,181.75));
#381=CARTESIAN_POINT('',(-90.9876639676861,-109.808381278902,181.75));
#382=CARTESIAN_POINT('',(-93.6393143971357,-107.156730849453,185.5));
#383=CARTESIAN_POINT('',(-93.6393143971357,-107.156730849453,181.75));
#384=CARTESIAN_POINT('',(-90.3247513603237,-110.471293886265,185.5));
#385=CARTESIAN_POINT('Origin',(-93.7274018807278,-112.548119191944,181.75));
#386=CARTESIAN_POINT('',(-93.7274018807278,-112.548119191944,185.5));
#387=CARTESIAN_POINT('',(-93.7274018807278,-112.548119191944,181.75));
#388=CARTESIAN_POINT('',(-93.7274018807278,-112.548119191944,189.25));
#389=CARTESIAN_POINT('',(-96.3790523101773,-109.896468762495,185.5));
#390=CARTESIAN_POINT('',(-93.0644892733653,-113.211031799307,185.5));
#391=CARTESIAN_POINT('',(-96.3790523101773,-109.896468762495,181.75));
#392=CARTESIAN_POINT('',(-96.3790523101773,-109.896468762495,189.25));
#393=CARTESIAN_POINT('',(-93.7274018807278,-112.548119191944,181.75));
#394=CARTESIAN_POINT('Origin',(-90.9876639676861,-109.808381278902,181.75));
#395=CARTESIAN_POINT('',(-93.7274018807278,-112.548119191944,181.75));
#396=CARTESIAN_POINT('',(-96.3790523101773,-109.896468762495,181.75));
#397=CARTESIAN_POINT('Origin',(-95.0091833536565,-108.526599805974,183.625));
#398=CARTESIAN_POINT('',(-85.7504287214812,-99.2678451737983,185.5));
#399=CARTESIAN_POINT('Origin',(-92.3575329242069,-111.178250235423,183.625));
#400=CARTESIAN_POINT('',(-83.0987782920316,-101.919495603248,185.5));
#401=CARTESIAN_POINT('Origin',(-75.0479816310645,-93.8686989422807,185.5));
#402=CARTESIAN_POINT('',(-75.0479816310645,-93.8686989422807,181.75));
#403=CARTESIAN_POINT('',(-75.0479816310645,-93.8686989422807,185.5));
#404=CARTESIAN_POINT('',(-75.0479816310645,-93.8686989422807,181.75));
#405=CARTESIAN_POINT('',(-77.699632060514,-91.2170485128312,181.75));
#406=CARTESIAN_POINT('',(-75.0479816310645,-93.8686989422807,181.75));
#407=CARTESIAN_POINT('',(-77.699632060514,-91.2170485128312,185.5));
#408=CARTESIAN_POINT('',(-77.699632060514,-91.2170485128312,181.75));
#409=CARTESIAN_POINT('',(-74.3850690237021,-94.5316115496431,185.5));
#410=CARTESIAN_POINT('Origin',(-77.8174993040305,-96.6382166152468,181.75));
#411=CARTESIAN_POINT('',(-77.8174993040305,-96.6382166152468,185.5));
#412=CARTESIAN_POINT('',(-77.8174993040305,-96.6382166152468,181.75));
#413=CARTESIAN_POINT('',(-77.8174993040305,-96.6382166152468,189.25));
#414=CARTESIAN_POINT('',(-80.4691497334801,-93.9865661857972,185.5));
#415=CARTESIAN_POINT('',(-77.1545866966681,-97.3011292226091,185.5));
#416=CARTESIAN_POINT('',(-80.4691497334801,-93.9865661857972,181.75));
#417=CARTESIAN_POINT('',(-80.4691497334801,-93.9865661857972,189.25));
#418=CARTESIAN_POINT('',(-77.8174993040305,-96.6382166152468,181.75));
#419=CARTESIAN_POINT('Origin',(-75.0479816310645,-93.8686989422807,181.75));
#420=CARTESIAN_POINT('',(-77.8174993040305,-96.6382166152468,181.75));
#421=CARTESIAN_POINT('',(-80.4691497334801,-93.9865661857972,181.75));
#422=CARTESIAN_POINT('Origin',(-79.084390896997,-92.6018073493142,183.625));
#423=CARTESIAN_POINT('',(-77.7880324931514,-91.3054489454685,185.5));
#424=CARTESIAN_POINT('Origin',(-76.4327404675475,-95.2534577787637,183.625));
#425=CARTESIAN_POINT('',(-75.1363820637019,-93.9570993749181,185.5));
#426=CARTESIAN_POINT('Origin',(-93.7274018807277,-115.199769621394,193.));
#427=CARTESIAN_POINT('',(-93.7274018807277,-115.199769621394,193.));
#428=CARTESIAN_POINT('',(-72.5141984451314,-93.9865661857972,193.));
#429=CARTESIAN_POINT('',(-93.7274018807277,-115.199769621394,193.));
#430=CARTESIAN_POINT('',(-77.8174993040305,-88.6832653268981,193.));
#431=CARTESIAN_POINT('',(-72.5141984451314,-93.9865661857972,193.));
#432=CARTESIAN_POINT('',(-99.0307027396269,-109.896468762495,193.));
#433=CARTESIAN_POINT('',(-99.0307027396269,-109.896468762495,193.));
#434=CARTESIAN_POINT('',(-93.7274018807277,-115.199769621394,193.));
#435=CARTESIAN_POINT('Origin',(-93.7274018807277,-115.199769621394,185.5));
#436=CARTESIAN_POINT('',(-93.7274018807277,-115.199769621394,185.5));
#437=CARTESIAN_POINT('',(-93.7274018807277,-115.199769621394,185.5));
#438=CARTESIAN_POINT('',(-99.0307027396269,-109.896468762495,185.5));
#439=CARTESIAN_POINT('',(-99.0307027396269,-109.896468762495,185.5));
#440=CARTESIAN_POINT('',(-93.7274018807277,-115.199769621394,185.5));
#441=CARTESIAN_POINT('Origin',(-72.5141984451314,-93.9865661857972,185.5));
#442=CARTESIAN_POINT('',(-72.5141984451314,-93.9865661857972,185.5));
#443=CARTESIAN_POINT('',(-72.5141984451314,-93.9865661857972,185.5));
#444=CARTESIAN_POINT('',(-77.8174993040305,-88.6832653268981,185.5));
#445=CARTESIAN_POINT('',(-77.8174993040305,-88.6832653268981,185.5));
#446=CARTESIAN_POINT('',(-72.5141984451314,-93.9865661857972,185.5));
#447=CARTESIAN_POINT('Origin',(-72.5141984451314,-93.9865661857972,193.));
#448=CARTESIAN_POINT('',(-72.5141984451314,-93.9865661857972,193.));
#449=CARTESIAN_POINT('',(-77.8174993040305,-88.6832653268981,193.));
#450=CARTESIAN_POINT('Origin',(-88.4241010218287,-99.2898670446964,189.25));
#451=CARTESIAN_POINT('Origin',(-83.1208001629296,-104.593167903595,189.25));
#452=UNCERTAINTY_MEASURE_WITH_UNIT(LENGTH_MEASURE(0.01),#456,
'DISTANCE_ACCURACY_VALUE',
'Maximum model space distance between geometric entities at asserted c
onnectivities');
#453=UNCERTAINTY_MEASURE_WITH_UNIT(LENGTH_MEASURE(0.01),#456,
'DISTANCE_ACCURACY_VALUE',
'Maximum model space distance between geometric entities at asserted c
onnectivities');
#454=(
GEOMETRIC_REPRESENTATION_CONTEXT(3)
GLOBAL_UNCERTAINTY_ASSIGNED_CONTEXT((#452))
GLOBAL_UNIT_ASSIGNED_CONTEXT((#456,#457,#458))
REPRESENTATION_CONTEXT('','3D')
);
#455=(
GEOMETRIC_REPRESENTATION_CONTEXT(3)
GLOBAL_UNCERTAINTY_ASSIGNED_CONTEXT((#453))
GLOBAL_UNIT_ASSIGNED_CONTEXT((#456,#457,#458))
REPRESENTATION_CONTEXT('','3D')
);
#456=(
LENGTH_UNIT()
NAMED_UNIT(*)
SI_UNIT(.MILLI.,.METRE.)
);
#457=(
NAMED_UNIT(*)
PLANE_ANGLE_UNIT()
SI_UNIT($,.RADIAN.)
);
#458=(
NAMED_UNIT(*)
SI_UNIT($,.STERADIAN.)
SOLID_ANGLE_UNIT()
);
#459=SHAPE_DEFINITION_REPRESENTATION(#460,#461);
#460=PRODUCT_DEFINITION_SHAPE('',$,#463);
#461=SHAPE_REPRESENTATION('',(#288),#454);
#462=PRODUCT_DEFINITION_CONTEXT('part definition',#467,'design');
#463=PRODUCT_DEFINITION('Luma','Luma v23',#464,#462);
#464=PRODUCT_DEFINITION_FORMATION('',$,#469);
#465=PRODUCT_RELATED_PRODUCT_CATEGORY('Luma v23','Luma v23',(#469));
#466=APPLICATION_PROTOCOL_DEFINITION('international standard',
'automotive_design',2009,#467);
#467=APPLICATION_CONTEXT(
'Core Data for Automotive Mechanical Design Process');
#468=PRODUCT_CONTEXT('part definition',#467,'mechanical');
#469=PRODUCT('Luma','Luma v23',$,(#468));
#470=PRESENTATION_STYLE_ASSIGNMENT((#480));
#471=PRESENTATION_STYLE_ASSIGNMENT((#481));
#472=PRESENTATION_STYLE_ASSIGNMENT((#482));
#473=PRESENTATION_STYLE_ASSIGNMENT((#483));
#474=PRESENTATION_STYLE_ASSIGNMENT((#484));
#475=PRESENTATION_STYLE_ASSIGNMENT((#485));
#476=PRESENTATION_STYLE_ASSIGNMENT((#486));
#477=PRESENTATION_STYLE_ASSIGNMENT((#487));
#478=PRESENTATION_STYLE_ASSIGNMENT((#488));
#479=PRESENTATION_STYLE_ASSIGNMENT((#489));
#480=SURFACE_STYLE_USAGE(.BOTH.,#490);
#481=SURFACE_STYLE_USAGE(.BOTH.,#491);
#482=SURFACE_STYLE_USAGE(.BOTH.,#492);
#483=SURFACE_STYLE_USAGE(.BOTH.,#493);
#484=SURFACE_STYLE_USAGE(.BOTH.,#494);
#485=SURFACE_STYLE_USAGE(.BOTH.,#495);
#486=SURFACE_STYLE_USAGE(.BOTH.,#496);
#487=SURFACE_STYLE_USAGE(.BOTH.,#497);
#488=SURFACE_STYLE_USAGE(.BOTH.,#498);
#489=SURFACE_STYLE_USAGE(.BOTH.,#499);
#490=SURFACE_SIDE_STYLE('',(#500));
#491=SURFACE_SIDE_STYLE('',(#501));
#492=SURFACE_SIDE_STYLE('',(#502));
#493=SURFACE_SIDE_STYLE('',(#503));
#494=SURFACE_SIDE_STYLE('',(#504));
#495=SURFACE_SIDE_STYLE('',(#505));
#496=SURFACE_SIDE_STYLE('',(#506));
#497=SURFACE_SIDE_STYLE('',(#507));
#498=SURFACE_SIDE_STYLE('',(#508));
#499=SURFACE_SIDE_STYLE('',(#509));
#500=SURFACE_STYLE_FILL_AREA(#510);
#501=SURFACE_STYLE_FILL_AREA(#511);
#502=SURFACE_STYLE_FILL_AREA(#512);
#503=SURFACE_STYLE_FILL_AREA(#513);
#504=SURFACE_STYLE_FILL_AREA(#514);
#505=SURFACE_STYLE_FILL_AREA(#515);
#506=SURFACE_STYLE_FILL_AREA(#516);
#507=SURFACE_STYLE_FILL_AREA(#517);
#508=SURFACE_STYLE_FILL_AREA(#518);
#509=SURFACE_STYLE_FILL_AREA(#519);
#510=FILL_AREA_STYLE('Opaque(246,179,39)',(#520));
#511=FILL_AREA_STYLE('Opaque(160,160,160)',(#521));
#512=FILL_AREA_STYLE('Opaque(246,246,243)',(#522));
#513=FILL_AREA_STYLE('Opaque(245,245,246)',(#523));
#514=FILL_AREA_STYLE('Opaque(255,255,255)',(#524));
#515=FILL_AREA_STYLE('Opaque(202,209,238)',(#525));
#516=FILL_AREA_STYLE('Opaque(80,124,105)',(#526));
#517=FILL_AREA_STYLE('Steel - Satin',(#527));
#518=FILL_AREA_STYLE('ABS (Black)',(#528));
#519=FILL_AREA_STYLE('Acrylic (Opaque)',(#529));
#520=FILL_AREA_STYLE_COLOUR('Opaque(246,179,39)',#530);
#521=FILL_AREA_STYLE_COLOUR('Opaque(160,160,160)',#531);
#522=FILL_AREA_STYLE_COLOUR('Opaque(246,246,243)',#532);
#523=FILL_AREA_STYLE_COLOUR('Opaque(245,245,246)',#533);
#524=FILL_AREA_STYLE_COLOUR('Opaque(255,255,255)',#534);
#525=FILL_AREA_STYLE_COLOUR('Opaque(202,209,238)',#535);
#526=FILL_AREA_STYLE_COLOUR('Opaque(80,124,105)',#536);
#527=FILL_AREA_STYLE_COLOUR('Steel - Satin',#537);
#528=FILL_AREA_STYLE_COLOUR('ABS (Black)',#538);
#529=FILL_AREA_STYLE_COLOUR('Acrylic (Opaque)',#539);
#530=COLOUR_RGB('Opaque(246,179,39)',0.964705882352941,0.701960784313725,
0.152941176470588);
#531=COLOUR_RGB('Opaque(160,160,160)',0.627450980392157,0.627450980392157,
0.627450980392157);
#532=COLOUR_RGB('Opaque(246,246,243)',0.964705882352941,0.964705882352941,
0.952941176470588);
#533=COLOUR_RGB('Opaque(245,245,246)',0.96078431372549,0.96078431372549,
0.964705882352941);
#534=COLOUR_RGB('Opaque(255,255,255)',1.,1.,1.);
#535=COLOUR_RGB('Opaque(202,209,238)',0.792156862745098,0.819607843137255,
0.933333333333333);
#536=COLOUR_RGB('Opaque(80,124,105)',0.313725490196078,0.486274509803922,
0.411764705882353);
#537=COLOUR_RGB('Steel - Satin',0.627450980392157,0.627450980392157,0.627450980392157);
#538=COLOUR_RGB('ABS (Black)',0.00784313725490196,0.00784313725490196,0.00784313725490196);
#539=COLOUR_RGB('Acrylic (Opaque)',0.964705882352941,0.964705882352941,
0.952941176470588);
ENDSEC;
END-ISO-10303-21;
