ISO-10303-21;
HEADER;
/* Generated by software containing ST-Developer
 * from STEP Tools, Inc. (www.steptools.com) 
 */

FILE_DESCRIPTION(
/* description */ (''),
/* implementation_level */ '2;1');

FILE_NAME(
/* name */ 'Handle.step',
/* time_stamp */ '2025-07-20T20:36:47-05:00',
/* author */ (''),
/* organization */ (''),
/* preprocessor_version */ 'ST-DEVELOPER v20.1',
/* originating_system */ 'Autodesk Translation Framework v14.10.0.0',
/* authorisation */ '');

FILE_SCHEMA (('AUTOMOTIVE_DESIGN { 1 0 10303 214 3 1 1 }'));
ENDSEC;

DATA;
#10=MECHANICAL_DESIGN_GEOMETRIC_PRESENTATION_REPRESENTATION('',(#13),#587);
#11=SHAPE_REPRESENTATION_RELATIONSHIP('SRR','None',#593,#12);
#12=ADVANCED_BREP_SHAPE_REPRESENTATION('',(#14),#586);
#13=STYLED_ITEM('',(#610),#14);
#14=MANIFOLD_SOLID_BREP('Handle',#371);
#15=FACE_BOUND('',#52,.T.);
#16=FACE_BOUND('',#58,.T.);
#17=FACE_OUTER_BOUND('',#37,.T.);
#18=FACE_OUTER_BOUND('',#38,.T.);
#19=FACE_OUTER_BOUND('',#39,.T.);
#20=FACE_OUTER_BOUND('',#40,.T.);
#21=FACE_OUTER_BOUND('',#41,.T.);
#22=FACE_OUTER_BOUND('',#42,.T.);
#23=FACE_OUTER_BOUND('',#43,.T.);
#24=FACE_OUTER_BOUND('',#44,.T.);
#25=FACE_OUTER_BOUND('',#45,.T.);
#26=FACE_OUTER_BOUND('',#46,.T.);
#27=FACE_OUTER_BOUND('',#47,.T.);
#28=FACE_OUTER_BOUND('',#48,.T.);
#29=FACE_OUTER_BOUND('',#49,.T.);
#30=FACE_OUTER_BOUND('',#50,.T.);
#31=FACE_OUTER_BOUND('',#51,.T.);
#32=FACE_OUTER_BOUND('',#53,.T.);
#33=FACE_OUTER_BOUND('',#54,.T.);
#34=FACE_OUTER_BOUND('',#55,.T.);
#35=FACE_OUTER_BOUND('',#56,.T.);
#36=FACE_OUTER_BOUND('',#57,.T.);
#37=EDGE_LOOP('',(#235,#236,#237,#238));
#38=EDGE_LOOP('',(#239,#240,#241,#242));
#39=EDGE_LOOP('',(#243,#244,#245,#246));
#40=EDGE_LOOP('',(#247,#248,#249,#250));
#41=EDGE_LOOP('',(#251,#252,#253,#254));
#42=EDGE_LOOP('',(#255,#256,#257,#258));
#43=EDGE_LOOP('',(#259,#260,#261,#262));
#44=EDGE_LOOP('',(#263,#264,#265,#266));
#45=EDGE_LOOP('',(#267,#268,#269,#270));
#46=EDGE_LOOP('',(#271,#272,#273,#274));
#47=EDGE_LOOP('',(#275,#276,#277,#278));
#48=EDGE_LOOP('',(#279,#280,#281,#282));
#49=EDGE_LOOP('',(#283,#284,#285,#286));
#50=EDGE_LOOP('',(#287,#288,#289,#290));
#51=EDGE_LOOP('',(#291,#292,#293,#294));
#52=EDGE_LOOP('',(#295,#296,#297,#298));
#53=EDGE_LOOP('',(#299,#300,#301,#302));
#54=EDGE_LOOP('',(#303,#304,#305,#306,#307,#308,#309,#310));
#55=EDGE_LOOP('',(#311,#312,#313,#314));
#56=EDGE_LOOP('',(#315,#316,#317,#318,#319,#320,#321,#322));
#57=EDGE_LOOP('',(#323,#324,#325,#326));
#58=EDGE_LOOP('',(#327,#328,#329,#330));
#59=LINE('',#487,#107);
#60=LINE('',#489,#108);
#61=LINE('',#491,#109);
#62=LINE('',#492,#110);
#63=LINE('',#495,#111);
#64=LINE('',#497,#112);
#65=LINE('',#498,#113);
#66=LINE('',#501,#114);
#67=LINE('',#503,#115);
#68=LINE('',#504,#116);
#69=LINE('',#506,#117);
#70=LINE('',#507,#118);
#71=LINE('',#512,#119);
#72=LINE('',#514,#120);
#73=LINE('',#516,#121);
#74=LINE('',#517,#122);
#75=LINE('',#520,#123);
#76=LINE('',#522,#124);
#77=LINE('',#523,#125);
#78=LINE('',#526,#126);
#79=LINE('',#528,#127);
#80=LINE('',#529,#128);
#81=LINE('',#531,#129);
#82=LINE('',#532,#130);
#83=LINE('',#537,#131);
#84=LINE('',#539,#132);
#85=LINE('',#541,#133);
#86=LINE('',#542,#134);
#87=LINE('',#546,#135);
#88=LINE('',#548,#136);
#89=LINE('',#550,#137);
#90=LINE('',#551,#138);
#91=LINE('',#555,#139);
#92=LINE('',#556,#140);
#93=LINE('',#557,#141);
#94=LINE('',#561,#142);
#95=LINE('',#562,#143);
#96=LINE('',#563,#144);
#97=LINE('',#565,#145);
#98=LINE('',#566,#146);
#99=LINE('',#570,#147);
#100=LINE('',#571,#148);
#101=LINE('',#572,#149);
#102=LINE('',#575,#150);
#103=LINE('',#576,#151);
#104=LINE('',#579,#152);
#105=LINE('',#580,#153);
#106=LINE('',#582,#154);
#107=VECTOR('',#397,10.);
#108=VECTOR('',#398,10.);
#109=VECTOR('',#399,10.);
#110=VECTOR('',#400,10.);
#111=VECTOR('',#403,10.);
#112=VECTOR('',#404,10.);
#113=VECTOR('',#405,10.);
#114=VECTOR('',#408,10.);
#115=VECTOR('',#409,10.);
#116=VECTOR('',#410,10.);
#117=VECTOR('',#413,10.);
#118=VECTOR('',#414,10.);
#119=VECTOR('',#419,10.);
#120=VECTOR('',#420,10.);
#121=VECTOR('',#421,10.);
#122=VECTOR('',#422,10.);
#123=VECTOR('',#425,10.);
#124=VECTOR('',#426,10.);
#125=VECTOR('',#427,10.);
#126=VECTOR('',#430,10.);
#127=VECTOR('',#431,10.);
#128=VECTOR('',#432,10.);
#129=VECTOR('',#435,10.);
#130=VECTOR('',#436,10.);
#131=VECTOR('',#441,10.);
#132=VECTOR('',#442,10.);
#133=VECTOR('',#443,10.);
#134=VECTOR('',#444,10.);
#135=VECTOR('',#447,10.);
#136=VECTOR('',#448,10.);
#137=VECTOR('',#449,10.);
#138=VECTOR('',#450,10.);
#139=VECTOR('',#453,10.);
#140=VECTOR('',#454,10.);
#141=VECTOR('',#455,10.);
#142=VECTOR('',#458,10.);
#143=VECTOR('',#459,10.);
#144=VECTOR('',#460,10.);
#145=VECTOR('',#463,10.);
#146=VECTOR('',#464,10.);
#147=VECTOR('',#467,10.);
#148=VECTOR('',#468,10.);
#149=VECTOR('',#469,10.);
#150=VECTOR('',#472,10.);
#151=VECTOR('',#473,10.);
#152=VECTOR('',#476,10.);
#153=VECTOR('',#477,10.);
#154=VECTOR('',#480,10.);
#155=VERTEX_POINT('',#485);
#156=VERTEX_POINT('',#486);
#157=VERTEX_POINT('',#488);
#158=VERTEX_POINT('',#490);
#159=VERTEX_POINT('',#494);
#160=VERTEX_POINT('',#496);
#161=VERTEX_POINT('',#500);
#162=VERTEX_POINT('',#502);
#163=VERTEX_POINT('',#510);
#164=VERTEX_POINT('',#511);
#165=VERTEX_POINT('',#513);
#166=VERTEX_POINT('',#515);
#167=VERTEX_POINT('',#519);
#168=VERTEX_POINT('',#521);
#169=VERTEX_POINT('',#525);
#170=VERTEX_POINT('',#527);
#171=VERTEX_POINT('',#535);
#172=VERTEX_POINT('',#536);
#173=VERTEX_POINT('',#538);
#174=VERTEX_POINT('',#540);
#175=VERTEX_POINT('',#544);
#176=VERTEX_POINT('',#545);
#177=VERTEX_POINT('',#547);
#178=VERTEX_POINT('',#549);
#179=VERTEX_POINT('',#553);
#180=VERTEX_POINT('',#554);
#181=VERTEX_POINT('',#559);
#182=VERTEX_POINT('',#560);
#183=VERTEX_POINT('',#568);
#184=VERTEX_POINT('',#569);
#185=VERTEX_POINT('',#574);
#186=VERTEX_POINT('',#578);
#187=EDGE_CURVE('',#155,#156,#59,.T.);
#188=EDGE_CURVE('',#155,#157,#60,.T.);
#189=EDGE_CURVE('',#158,#157,#61,.T.);
#190=EDGE_CURVE('',#156,#158,#62,.T.);
#191=EDGE_CURVE('',#156,#159,#63,.T.);
#192=EDGE_CURVE('',#160,#158,#64,.T.);
#193=EDGE_CURVE('',#159,#160,#65,.T.);
#194=EDGE_CURVE('',#159,#161,#66,.T.);
#195=EDGE_CURVE('',#162,#160,#67,.T.);
#196=EDGE_CURVE('',#161,#162,#68,.T.);
#197=EDGE_CURVE('',#161,#155,#69,.T.);
#198=EDGE_CURVE('',#157,#162,#70,.T.);
#199=EDGE_CURVE('',#163,#164,#71,.T.);
#200=EDGE_CURVE('',#163,#165,#72,.T.);
#201=EDGE_CURVE('',#166,#165,#73,.T.);
#202=EDGE_CURVE('',#164,#166,#74,.T.);
#203=EDGE_CURVE('',#164,#167,#75,.T.);
#204=EDGE_CURVE('',#168,#166,#76,.T.);
#205=EDGE_CURVE('',#167,#168,#77,.T.);
#206=EDGE_CURVE('',#167,#169,#78,.T.);
#207=EDGE_CURVE('',#170,#168,#79,.T.);
#208=EDGE_CURVE('',#169,#170,#80,.T.);
#209=EDGE_CURVE('',#169,#163,#81,.T.);
#210=EDGE_CURVE('',#165,#170,#82,.T.);
#211=EDGE_CURVE('',#171,#172,#83,.T.);
#212=EDGE_CURVE('',#172,#173,#84,.T.);
#213=EDGE_CURVE('',#173,#174,#85,.T.);
#214=EDGE_CURVE('',#174,#171,#86,.T.);
#215=EDGE_CURVE('',#175,#176,#87,.T.);
#216=EDGE_CURVE('',#176,#177,#88,.T.);
#217=EDGE_CURVE('',#177,#178,#89,.T.);
#218=EDGE_CURVE('',#175,#178,#90,.T.);
#219=EDGE_CURVE('',#179,#180,#91,.T.);
#220=EDGE_CURVE('',#179,#173,#92,.T.);
#221=EDGE_CURVE('',#180,#172,#93,.T.);
#222=EDGE_CURVE('',#181,#182,#94,.T.);
#223=EDGE_CURVE('',#181,#178,#95,.T.);
#224=EDGE_CURVE('',#182,#177,#96,.T.);
#225=EDGE_CURVE('',#182,#179,#97,.T.);
#226=EDGE_CURVE('',#180,#181,#98,.T.);
#227=EDGE_CURVE('',#183,#184,#99,.T.);
#228=EDGE_CURVE('',#183,#176,#100,.T.);
#229=EDGE_CURVE('',#184,#175,#101,.T.);
#230=EDGE_CURVE('',#184,#185,#102,.T.);
#231=EDGE_CURVE('',#185,#171,#103,.T.);
#232=EDGE_CURVE('',#185,#186,#104,.T.);
#233=EDGE_CURVE('',#186,#174,#105,.T.);
#234=EDGE_CURVE('',#186,#183,#106,.T.);
#235=ORIENTED_EDGE('',*,*,#187,.F.);
#236=ORIENTED_EDGE('',*,*,#188,.T.);
#237=ORIENTED_EDGE('',*,*,#189,.F.);
#238=ORIENTED_EDGE('',*,*,#190,.F.);
#239=ORIENTED_EDGE('',*,*,#191,.F.);
#240=ORIENTED_EDGE('',*,*,#190,.T.);
#241=ORIENTED_EDGE('',*,*,#192,.F.);
#242=ORIENTED_EDGE('',*,*,#193,.F.);
#243=ORIENTED_EDGE('',*,*,#194,.F.);
#244=ORIENTED_EDGE('',*,*,#193,.T.);
#245=ORIENTED_EDGE('',*,*,#195,.F.);
#246=ORIENTED_EDGE('',*,*,#196,.F.);
#247=ORIENTED_EDGE('',*,*,#197,.F.);
#248=ORIENTED_EDGE('',*,*,#196,.T.);
#249=ORIENTED_EDGE('',*,*,#198,.F.);
#250=ORIENTED_EDGE('',*,*,#188,.F.);
#251=ORIENTED_EDGE('',*,*,#198,.T.);
#252=ORIENTED_EDGE('',*,*,#195,.T.);
#253=ORIENTED_EDGE('',*,*,#192,.T.);
#254=ORIENTED_EDGE('',*,*,#189,.T.);
#255=ORIENTED_EDGE('',*,*,#199,.F.);
#256=ORIENTED_EDGE('',*,*,#200,.T.);
#257=ORIENTED_EDGE('',*,*,#201,.F.);
#258=ORIENTED_EDGE('',*,*,#202,.F.);
#259=ORIENTED_EDGE('',*,*,#203,.F.);
#260=ORIENTED_EDGE('',*,*,#202,.T.);
#261=ORIENTED_EDGE('',*,*,#204,.F.);
#262=ORIENTED_EDGE('',*,*,#205,.F.);
#263=ORIENTED_EDGE('',*,*,#206,.F.);
#264=ORIENTED_EDGE('',*,*,#205,.T.);
#265=ORIENTED_EDGE('',*,*,#207,.F.);
#266=ORIENTED_EDGE('',*,*,#208,.F.);
#267=ORIENTED_EDGE('',*,*,#209,.F.);
#268=ORIENTED_EDGE('',*,*,#208,.T.);
#269=ORIENTED_EDGE('',*,*,#210,.F.);
#270=ORIENTED_EDGE('',*,*,#200,.F.);
#271=ORIENTED_EDGE('',*,*,#210,.T.);
#272=ORIENTED_EDGE('',*,*,#207,.T.);
#273=ORIENTED_EDGE('',*,*,#204,.T.);
#274=ORIENTED_EDGE('',*,*,#201,.T.);
#275=ORIENTED_EDGE('',*,*,#211,.T.);
#276=ORIENTED_EDGE('',*,*,#212,.T.);
#277=ORIENTED_EDGE('',*,*,#213,.T.);
#278=ORIENTED_EDGE('',*,*,#214,.T.);
#279=ORIENTED_EDGE('',*,*,#215,.T.);
#280=ORIENTED_EDGE('',*,*,#216,.T.);
#281=ORIENTED_EDGE('',*,*,#217,.T.);
#282=ORIENTED_EDGE('',*,*,#218,.F.);
#283=ORIENTED_EDGE('',*,*,#219,.F.);
#284=ORIENTED_EDGE('',*,*,#220,.T.);
#285=ORIENTED_EDGE('',*,*,#212,.F.);
#286=ORIENTED_EDGE('',*,*,#221,.F.);
#287=ORIENTED_EDGE('',*,*,#222,.F.);
#288=ORIENTED_EDGE('',*,*,#223,.T.);
#289=ORIENTED_EDGE('',*,*,#217,.F.);
#290=ORIENTED_EDGE('',*,*,#224,.F.);
#291=ORIENTED_EDGE('',*,*,#225,.T.);
#292=ORIENTED_EDGE('',*,*,#219,.T.);
#293=ORIENTED_EDGE('',*,*,#226,.T.);
#294=ORIENTED_EDGE('',*,*,#222,.T.);
#295=ORIENTED_EDGE('',*,*,#187,.T.);
#296=ORIENTED_EDGE('',*,*,#191,.T.);
#297=ORIENTED_EDGE('',*,*,#194,.T.);
#298=ORIENTED_EDGE('',*,*,#197,.T.);
#299=ORIENTED_EDGE('',*,*,#227,.F.);
#300=ORIENTED_EDGE('',*,*,#228,.T.);
#301=ORIENTED_EDGE('',*,*,#215,.F.);
#302=ORIENTED_EDGE('',*,*,#229,.F.);
#303=ORIENTED_EDGE('',*,*,#230,.F.);
#304=ORIENTED_EDGE('',*,*,#229,.T.);
#305=ORIENTED_EDGE('',*,*,#218,.T.);
#306=ORIENTED_EDGE('',*,*,#223,.F.);
#307=ORIENTED_EDGE('',*,*,#226,.F.);
#308=ORIENTED_EDGE('',*,*,#221,.T.);
#309=ORIENTED_EDGE('',*,*,#211,.F.);
#310=ORIENTED_EDGE('',*,*,#231,.F.);
#311=ORIENTED_EDGE('',*,*,#232,.F.);
#312=ORIENTED_EDGE('',*,*,#231,.T.);
#313=ORIENTED_EDGE('',*,*,#214,.F.);
#314=ORIENTED_EDGE('',*,*,#233,.F.);
#315=ORIENTED_EDGE('',*,*,#234,.F.);
#316=ORIENTED_EDGE('',*,*,#233,.T.);
#317=ORIENTED_EDGE('',*,*,#213,.F.);
#318=ORIENTED_EDGE('',*,*,#220,.F.);
#319=ORIENTED_EDGE('',*,*,#225,.F.);
#320=ORIENTED_EDGE('',*,*,#224,.T.);
#321=ORIENTED_EDGE('',*,*,#216,.F.);
#322=ORIENTED_EDGE('',*,*,#228,.F.);
#323=ORIENTED_EDGE('',*,*,#234,.T.);
#324=ORIENTED_EDGE('',*,*,#227,.T.);
#325=ORIENTED_EDGE('',*,*,#230,.T.);
#326=ORIENTED_EDGE('',*,*,#232,.T.);
#327=ORIENTED_EDGE('',*,*,#199,.T.);
#328=ORIENTED_EDGE('',*,*,#203,.T.);
#329=ORIENTED_EDGE('',*,*,#206,.T.);
#330=ORIENTED_EDGE('',*,*,#209,.T.);
#331=PLANE('',#373);
#332=PLANE('',#374);
#333=PLANE('',#375);
#334=PLANE('',#376);
#335=PLANE('',#377);
#336=PLANE('',#378);
#337=PLANE('',#379);
#338=PLANE('',#380);
#339=PLANE('',#381);
#340=PLANE('',#382);
#341=PLANE('',#383);
#342=PLANE('',#384);
#343=PLANE('',#385);
#344=PLANE('',#386);
#345=PLANE('',#387);
#346=PLANE('',#388);
#347=PLANE('',#389);
#348=PLANE('',#390);
#349=PLANE('',#391);
#350=PLANE('',#392);
#351=ADVANCED_FACE('',(#17),#331,.T.);
#352=ADVANCED_FACE('',(#18),#332,.T.);
#353=ADVANCED_FACE('',(#19),#333,.T.);
#354=ADVANCED_FACE('',(#20),#334,.T.);
#355=ADVANCED_FACE('',(#21),#335,.T.);
#356=ADVANCED_FACE('',(#22),#336,.T.);
#357=ADVANCED_FACE('',(#23),#337,.T.);
#358=ADVANCED_FACE('',(#24),#338,.T.);
#359=ADVANCED_FACE('',(#25),#339,.T.);
#360=ADVANCED_FACE('',(#26),#340,.T.);
#361=ADVANCED_FACE('',(#27),#341,.T.);
#362=ADVANCED_FACE('',(#28),#342,.F.);
#363=ADVANCED_FACE('',(#29),#343,.T.);
#364=ADVANCED_FACE('',(#30),#344,.T.);
#365=ADVANCED_FACE('',(#31,#15),#345,.F.);
#366=ADVANCED_FACE('',(#32),#346,.T.);
#367=ADVANCED_FACE('',(#33),#347,.T.);
#368=ADVANCED_FACE('',(#34),#348,.T.);
#369=ADVANCED_FACE('',(#35),#349,.T.);
#370=ADVANCED_FACE('',(#36,#16),#350,.F.);
#371=CLOSED_SHELL('',(#351,#352,#353,#354,#355,#356,#357,#358,#359,#360,
#361,#362,#363,#364,#365,#366,#367,#368,#369,#370));
#372=AXIS2_PLACEMENT_3D('',#483,#393,#394);
#373=AXIS2_PLACEMENT_3D('',#484,#395,#396);
#374=AXIS2_PLACEMENT_3D('',#493,#401,#402);
#375=AXIS2_PLACEMENT_3D('',#499,#406,#407);
#376=AXIS2_PLACEMENT_3D('',#505,#411,#412);
#377=AXIS2_PLACEMENT_3D('',#508,#415,#416);
#378=AXIS2_PLACEMENT_3D('',#509,#417,#418);
#379=AXIS2_PLACEMENT_3D('',#518,#423,#424);
#380=AXIS2_PLACEMENT_3D('',#524,#428,#429);
#381=AXIS2_PLACEMENT_3D('',#530,#433,#434);
#382=AXIS2_PLACEMENT_3D('',#533,#437,#438);
#383=AXIS2_PLACEMENT_3D('',#534,#439,#440);
#384=AXIS2_PLACEMENT_3D('',#543,#445,#446);
#385=AXIS2_PLACEMENT_3D('',#552,#451,#452);
#386=AXIS2_PLACEMENT_3D('',#558,#456,#457);
#387=AXIS2_PLACEMENT_3D('',#564,#461,#462);
#388=AXIS2_PLACEMENT_3D('',#567,#465,#466);
#389=AXIS2_PLACEMENT_3D('',#573,#470,#471);
#390=AXIS2_PLACEMENT_3D('',#577,#474,#475);
#391=AXIS2_PLACEMENT_3D('',#581,#478,#479);
#392=AXIS2_PLACEMENT_3D('',#583,#481,#482);
#393=DIRECTION('axis',(0.,0.,1.));
#394=DIRECTION('refdir',(1.,0.,0.));
#395=DIRECTION('center_axis',(0.707106781186549,0.707106781186546,0.));
#396=DIRECTION('ref_axis',(0.707106781186546,-0.707106781186549,0.));
#397=DIRECTION('',(-0.707106781186546,0.707106781186549,0.));
#398=DIRECTION('',(0.,0.,-1.));
#399=DIRECTION('',(0.707106781186546,-0.707106781186549,0.));
#400=DIRECTION('',(0.,0.,-1.));
#401=DIRECTION('center_axis',(-0.707106781186547,0.707106781186548,0.));
#402=DIRECTION('ref_axis',(0.707106781186548,0.707106781186547,0.));
#403=DIRECTION('',(-0.707106781186548,-0.707106781186547,0.));
#404=DIRECTION('',(0.707106781186548,0.707106781186547,0.));
#405=DIRECTION('',(0.,0.,-1.));
#406=DIRECTION('center_axis',(-0.70710678118655,-0.707106781186545,0.));
#407=DIRECTION('ref_axis',(-0.707106781186545,0.70710678118655,0.));
#408=DIRECTION('',(0.707106781186545,-0.70710678118655,0.));
#409=DIRECTION('',(-0.707106781186545,0.70710678118655,0.));
#410=DIRECTION('',(0.,0.,-1.));
#411=DIRECTION('center_axis',(0.707106781186546,-0.707106781186549,0.));
#412=DIRECTION('ref_axis',(-0.707106781186549,-0.707106781186546,0.));
#413=DIRECTION('',(0.707106781186549,0.707106781186546,0.));
#414=DIRECTION('',(-0.707106781186549,-0.707106781186546,0.));
#415=DIRECTION('center_axis',(0.,0.,-1.));
#416=DIRECTION('ref_axis',(-1.,0.,0.));
#417=DIRECTION('center_axis',(-0.707106781186545,0.70710678118655,0.));
#418=DIRECTION('ref_axis',(0.70710678118655,0.707106781186545,0.));
#419=DIRECTION('',(-0.70710678118655,-0.707106781186545,0.));
#420=DIRECTION('',(0.,0.,-1.));
#421=DIRECTION('',(0.70710678118655,0.707106781186545,0.));
#422=DIRECTION('',(0.,0.,-1.));
#423=DIRECTION('center_axis',(-0.707106781186548,-0.707106781186548,0.));
#424=DIRECTION('ref_axis',(-0.707106781186548,0.707106781186548,0.));
#425=DIRECTION('',(0.707106781186548,-0.707106781186548,0.));
#426=DIRECTION('',(-0.707106781186548,0.707106781186548,0.));
#427=DIRECTION('',(0.,0.,-1.));
#428=DIRECTION('center_axis',(0.707106781186547,-0.707106781186548,0.));
#429=DIRECTION('ref_axis',(-0.707106781186548,-0.707106781186547,0.));
#430=DIRECTION('',(0.707106781186548,0.707106781186547,0.));
#431=DIRECTION('',(-0.707106781186548,-0.707106781186547,0.));
#432=DIRECTION('',(0.,0.,-1.));
#433=DIRECTION('center_axis',(0.707106781186549,0.707106781186546,0.));
#434=DIRECTION('ref_axis',(0.707106781186546,-0.707106781186549,0.));
#435=DIRECTION('',(-0.707106781186546,0.707106781186549,0.));
#436=DIRECTION('',(0.707106781186546,-0.707106781186549,0.));
#437=DIRECTION('center_axis',(0.,0.,-1.));
#438=DIRECTION('ref_axis',(-1.,0.,0.));
#439=DIRECTION('center_axis',(0.,0.,1.));
#440=DIRECTION('ref_axis',(1.,0.,0.));
#441=DIRECTION('',(0.707106781186543,-0.707106781186552,0.));
#442=DIRECTION('',(0.707106781186549,0.707106781186546,0.));
#443=DIRECTION('',(-0.707106781186542,0.707106781186553,0.));
#444=DIRECTION('',(-0.707106781186545,-0.707106781186551,0.));
#445=DIRECTION('center_axis',(0.,0.,1.));
#446=DIRECTION('ref_axis',(-1.,0.,0.));
#447=DIRECTION('',(0.707106781186546,0.707106781186549,0.));
#448=DIRECTION('',(0.707106781186542,-0.707106781186553,0.));
#449=DIRECTION('',(-0.707106781186551,-0.707106781186544,0.));
#450=DIRECTION('',(0.707106781186543,-0.707106781186552,0.));
#451=DIRECTION('center_axis',(0.707106781186546,-0.707106781186549,0.));
#452=DIRECTION('ref_axis',(0.707106781186549,0.707106781186546,0.));
#453=DIRECTION('',(-0.707106781186549,-0.707106781186546,0.));
#454=DIRECTION('',(0.,0.,1.));
#455=DIRECTION('',(0.,0.,1.));
#456=DIRECTION('center_axis',(-0.707106781186544,0.707106781186551,0.));
#457=DIRECTION('ref_axis',(-0.707106781186551,-0.707106781186544,0.));
#458=DIRECTION('',(0.707106781186551,0.707106781186544,0.));
#459=DIRECTION('',(0.,0.,1.));
#460=DIRECTION('',(0.,0.,1.));
#461=DIRECTION('center_axis',(0.,0.,1.));
#462=DIRECTION('ref_axis',(-1.,0.,0.));
#463=DIRECTION('',(0.707106781186542,-0.707106781186553,0.));
#464=DIRECTION('',(-0.707106781186549,0.707106781186546,0.));
#465=DIRECTION('center_axis',(0.707106781186549,-0.707106781186546,0.));
#466=DIRECTION('ref_axis',(0.707106781186546,0.707106781186549,0.));
#467=DIRECTION('',(-0.707106781186546,-0.707106781186549,0.));
#468=DIRECTION('',(0.,0.,1.));
#469=DIRECTION('',(0.,0.,1.));
#470=DIRECTION('center_axis',(-0.707106781186548,-0.707106781186548,0.));
#471=DIRECTION('ref_axis',(0.707106781186548,-0.707106781186548,0.));
#472=DIRECTION('',(-0.707106781186548,0.707106781186548,0.));
#473=DIRECTION('',(0.,0.,1.));
#474=DIRECTION('center_axis',(-0.707106781186551,0.707106781186545,0.));
#475=DIRECTION('ref_axis',(-0.707106781186545,-0.707106781186551,0.));
#476=DIRECTION('',(0.707106781186545,0.707106781186551,0.));
#477=DIRECTION('',(0.,0.,1.));
#478=DIRECTION('center_axis',(0.707106781186552,0.707106781186543,0.));
#479=DIRECTION('ref_axis',(-0.707106781186543,0.707106781186552,0.));
#480=DIRECTION('',(0.707106781186543,-0.707106781186552,0.));
#481=DIRECTION('center_axis',(0.,0.,1.));
#482=DIRECTION('ref_axis',(-1.,0.,0.));
#483=CARTESIAN_POINT('',(0.,0.,0.));
#484=CARTESIAN_POINT('Origin',(-75.3426255698776,-107.068041637749,135.));
#485=CARTESIAN_POINT('',(-70.0393247109785,-112.371342496648,135.));
#486=CARTESIAN_POINT('',(-75.3426255698776,-107.068041637749,135.));
#487=CARTESIAN_POINT('',(-74.0168003551529,-108.393866852473,135.));
#488=CARTESIAN_POINT('',(-70.0393247109785,-112.371342496648,127.5));
#489=CARTESIAN_POINT('',(-70.0393247109785,-112.371342496648,135.));
#490=CARTESIAN_POINT('',(-75.3426255698776,-107.068041637749,127.5));
#491=CARTESIAN_POINT('',(-70.0393247109785,-112.371342496648,127.5));
#492=CARTESIAN_POINT('',(-75.3426255698776,-107.068041637749,135.));
#493=CARTESIAN_POINT('Origin',(-80.6459264287767,-112.371342496648,135.));
#494=CARTESIAN_POINT('',(-80.6459264287767,-112.371342496648,135.));
#495=CARTESIAN_POINT('',(-79.3201012140519,-111.045517281923,135.));
#496=CARTESIAN_POINT('',(-80.6459264287767,-112.371342496648,127.5));
#497=CARTESIAN_POINT('',(-75.3426255698776,-107.068041637749,127.5));
#498=CARTESIAN_POINT('',(-80.6459264287767,-112.371342496648,135.));
#499=CARTESIAN_POINT('Origin',(-75.3426255698776,-117.674643355547,135.));
#500=CARTESIAN_POINT('',(-75.3426255698776,-117.674643355547,135.));
#501=CARTESIAN_POINT('',(-76.6684507846024,-116.348818140822,135.));
#502=CARTESIAN_POINT('',(-75.3426255698776,-117.674643355547,127.5));
#503=CARTESIAN_POINT('',(-75.3426255698776,-117.674643355547,127.5));
#504=CARTESIAN_POINT('',(-75.3426255698776,-117.674643355547,135.));
#505=CARTESIAN_POINT('Origin',(-70.0393247109785,-112.371342496648,135.));
#506=CARTESIAN_POINT('',(-71.3651499257033,-113.697167711372,135.));
#507=CARTESIAN_POINT('',(-75.3426255698776,-117.674643355547,127.5));
#508=CARTESIAN_POINT('Origin',(-75.3426255698776,-112.371342496648,127.5));
#509=CARTESIAN_POINT('Origin',(-101.859129864373,-91.1581390610511,135.));
#510=CARTESIAN_POINT('',(-96.555829005474,-85.854838202152,135.));
#511=CARTESIAN_POINT('',(-101.859129864373,-91.1581390610511,135.));
#512=CARTESIAN_POINT('',(-100.533304649648,-89.8323138463263,135.));
#513=CARTESIAN_POINT('',(-96.555829005474,-85.854838202152,127.5));
#514=CARTESIAN_POINT('',(-96.555829005474,-85.854838202152,135.));
#515=CARTESIAN_POINT('',(-101.859129864373,-91.1581390610511,127.5));
#516=CARTESIAN_POINT('',(-101.859129864373,-91.1581390610511,127.5));
#517=CARTESIAN_POINT('',(-101.859129864373,-91.1581390610511,135.));
#518=CARTESIAN_POINT('Origin',(-96.555829005474,-96.4614399199503,135.));
#519=CARTESIAN_POINT('',(-96.555829005474,-96.4614399199503,135.));
#520=CARTESIAN_POINT('',(-97.8816542201988,-95.1356147052255,135.));
#521=CARTESIAN_POINT('',(-96.555829005474,-96.4614399199503,127.5));
#522=CARTESIAN_POINT('',(-101.859129864373,-91.1581390610511,127.5));
#523=CARTESIAN_POINT('',(-96.555829005474,-96.4614399199503,135.));
#524=CARTESIAN_POINT('Origin',(-91.2525281465749,-91.1581390610512,135.));
#525=CARTESIAN_POINT('',(-91.2525281465749,-91.1581390610512,135.));
#526=CARTESIAN_POINT('',(-92.5783533612997,-92.4839642757759,135.));
#527=CARTESIAN_POINT('',(-91.2525281465749,-91.1581390610512,127.5));
#528=CARTESIAN_POINT('',(-91.2525281465749,-91.1581390610512,127.5));
#529=CARTESIAN_POINT('',(-91.2525281465749,-91.1581390610512,135.));
#530=CARTESIAN_POINT('Origin',(-96.555829005474,-85.854838202152,135.));
#531=CARTESIAN_POINT('',(-95.2300037907493,-87.1806634168768,135.));
#532=CARTESIAN_POINT('',(-96.555829005474,-85.854838202152,127.5));
#533=CARTESIAN_POINT('Origin',(-96.555829005474,-91.1581390610511,127.5));
#534=CARTESIAN_POINT('Origin',(-85.9492272876758,-101.764740778849,165.));
#535=CARTESIAN_POINT('',(-107.162430723272,-91.1581390610511,165.));
#536=CARTESIAN_POINT('',(-75.3426255698776,-122.977944214446,165.));
#537=CARTESIAN_POINT('',(-96.555829005474,-101.764740778849,165.));
#538=CARTESIAN_POINT('',(-64.7360238520795,-112.371342496648,165.));
#539=CARTESIAN_POINT('',(-64.7360238520795,-112.371342496648,165.));
#540=CARTESIAN_POINT('',(-96.555829005474,-80.5515373432528,165.));
#541=CARTESIAN_POINT('',(-75.3426255698775,-101.764740778849,165.));
#542=CARTESIAN_POINT('',(-107.162430723272,-91.1581390610511,165.));
#543=CARTESIAN_POINT('Origin',(-85.9492272876758,-101.764740778849,150.));
#544=CARTESIAN_POINT('',(-96.555829005474,-101.764740778849,150.));
#545=CARTESIAN_POINT('',(-85.9492272876759,-91.1581390610512,150.));
#546=CARTESIAN_POINT('',(-85.9492272876759,-91.1581390610512,150.));
#547=CARTESIAN_POINT('',(-75.3426255698775,-101.764740778849,150.));
#548=CARTESIAN_POINT('',(-75.3426255698775,-101.764740778849,150.));
#549=CARTESIAN_POINT('',(-85.9492272876759,-112.371342496648,150.));
#550=CARTESIAN_POINT('',(-85.9492272876759,-112.371342496648,150.));
#551=CARTESIAN_POINT('',(-96.555829005474,-101.764740778849,150.));
#552=CARTESIAN_POINT('Origin',(-75.3426255698776,-122.977944214446,135.));
#553=CARTESIAN_POINT('',(-64.7360238520795,-112.371342496648,135.));
#554=CARTESIAN_POINT('',(-75.3426255698776,-122.977944214446,135.));
#555=CARTESIAN_POINT('',(-64.7360238520795,-112.371342496648,135.));
#556=CARTESIAN_POINT('',(-64.7360238520795,-112.371342496648,135.));
#557=CARTESIAN_POINT('',(-75.3426255698776,-122.977944214446,135.));
#558=CARTESIAN_POINT('Origin',(-75.3426255698775,-101.764740778849,135.));
#559=CARTESIAN_POINT('',(-85.9492272876759,-112.371342496648,135.));
#560=CARTESIAN_POINT('',(-75.3426255698775,-101.764740778849,135.));
#561=CARTESIAN_POINT('',(-85.9492272876759,-112.371342496648,135.));
#562=CARTESIAN_POINT('',(-85.9492272876759,-112.371342496648,135.));
#563=CARTESIAN_POINT('',(-75.3426255698775,-101.764740778849,135.));
#564=CARTESIAN_POINT('Origin',(-75.3426255698777,-112.371342496648,135.));
#565=CARTESIAN_POINT('',(-75.3426255698775,-101.764740778849,135.));
#566=CARTESIAN_POINT('',(-75.3426255698776,-122.977944214446,135.));
#567=CARTESIAN_POINT('Origin',(-96.555829005474,-101.764740778849,135.));
#568=CARTESIAN_POINT('',(-85.9492272876759,-91.1581390610512,135.));
#569=CARTESIAN_POINT('',(-96.555829005474,-101.764740778849,135.));
#570=CARTESIAN_POINT('',(-85.9492272876759,-91.1581390610512,135.));
#571=CARTESIAN_POINT('',(-85.9492272876759,-91.1581390610512,135.));
#572=CARTESIAN_POINT('',(-96.555829005474,-101.764740778849,135.));
#573=CARTESIAN_POINT('Origin',(-107.162430723272,-91.1581390610511,135.));
#574=CARTESIAN_POINT('',(-107.162430723272,-91.1581390610511,135.));
#575=CARTESIAN_POINT('',(-96.555829005474,-101.764740778849,135.));
#576=CARTESIAN_POINT('',(-107.162430723272,-91.1581390610511,135.));
#577=CARTESIAN_POINT('Origin',(-96.555829005474,-80.5515373432528,135.));
#578=CARTESIAN_POINT('',(-96.555829005474,-80.5515373432528,135.));
#579=CARTESIAN_POINT('',(-107.162430723272,-91.1581390610511,135.));
#580=CARTESIAN_POINT('',(-96.555829005474,-80.5515373432528,135.));
#581=CARTESIAN_POINT('Origin',(-85.9492272876759,-91.1581390610512,135.));
#582=CARTESIAN_POINT('',(-96.555829005474,-80.5515373432528,135.));
#583=CARTESIAN_POINT('Origin',(-96.555829005474,-91.1581390610511,135.));
#584=UNCERTAINTY_MEASURE_WITH_UNIT(LENGTH_MEASURE(0.01),#588,
'DISTANCE_ACCURACY_VALUE',
'Maximum model space distance between geometric entities at asserted c
onnectivities');
#585=UNCERTAINTY_MEASURE_WITH_UNIT(LENGTH_MEASURE(0.01),#588,
'DISTANCE_ACCURACY_VALUE',
'Maximum model space distance between geometric entities at asserted c
onnectivities');
#586=(
GEOMETRIC_REPRESENTATION_CONTEXT(3)
GLOBAL_UNCERTAINTY_ASSIGNED_CONTEXT((#584))
GLOBAL_UNIT_ASSIGNED_CONTEXT((#588,#589,#590))
REPRESENTATION_CONTEXT('','3D')
);
#587=(
GEOMETRIC_REPRESENTATION_CONTEXT(3)
GLOBAL_UNCERTAINTY_ASSIGNED_CONTEXT((#585))
GLOBAL_UNIT_ASSIGNED_CONTEXT((#588,#589,#590))
REPRESENTATION_CONTEXT('','3D')
);
#588=(
LENGTH_UNIT()
NAMED_UNIT(*)
SI_UNIT(.MILLI.,.METRE.)
);
#589=(
NAMED_UNIT(*)
PLANE_ANGLE_UNIT()
SI_UNIT($,.RADIAN.)
);
#590=(
NAMED_UNIT(*)
SI_UNIT($,.STERADIAN.)
SOLID_ANGLE_UNIT()
);
#591=SHAPE_DEFINITION_REPRESENTATION(#592,#593);
#592=PRODUCT_DEFINITION_SHAPE('',$,#595);
#593=SHAPE_REPRESENTATION('',(#372),#586);
#594=PRODUCT_DEFINITION_CONTEXT('part definition',#599,'design');
#595=PRODUCT_DEFINITION('Luma','Luma v23',#596,#594);
#596=PRODUCT_DEFINITION_FORMATION('',$,#601);
#597=PRODUCT_RELATED_PRODUCT_CATEGORY('Luma v23','Luma v23',(#601));
#598=APPLICATION_PROTOCOL_DEFINITION('international standard',
'automotive_design',2009,#599);
#599=APPLICATION_CONTEXT(
'Core Data for Automotive Mechanical Design Process');
#600=PRODUCT_CONTEXT('part definition',#599,'mechanical');
#601=PRODUCT('Luma','Luma v23',$,(#600));
#602=PRESENTATION_STYLE_ASSIGNMENT((#612));
#603=PRESENTATION_STYLE_ASSIGNMENT((#613));
#604=PRESENTATION_STYLE_ASSIGNMENT((#614));
#605=PRESENTATION_STYLE_ASSIGNMENT((#615));
#606=PRESENTATION_STYLE_ASSIGNMENT((#616));
#607=PRESENTATION_STYLE_ASSIGNMENT((#617));
#608=PRESENTATION_STYLE_ASSIGNMENT((#618));
#609=PRESENTATION_STYLE_ASSIGNMENT((#619));
#610=PRESENTATION_STYLE_ASSIGNMENT((#620));
#611=PRESENTATION_STYLE_ASSIGNMENT((#621));
#612=SURFACE_STYLE_USAGE(.BOTH.,#622);
#613=SURFACE_STYLE_USAGE(.BOTH.,#623);
#614=SURFACE_STYLE_USAGE(.BOTH.,#624);
#615=SURFACE_STYLE_USAGE(.BOTH.,#625);
#616=SURFACE_STYLE_USAGE(.BOTH.,#626);
#617=SURFACE_STYLE_USAGE(.BOTH.,#627);
#618=SURFACE_STYLE_USAGE(.BOTH.,#628);
#619=SURFACE_STYLE_USAGE(.BOTH.,#629);
#620=SURFACE_STYLE_USAGE(.BOTH.,#630);
#621=SURFACE_STYLE_USAGE(.BOTH.,#631);
#622=SURFACE_SIDE_STYLE('',(#632));
#623=SURFACE_SIDE_STYLE('',(#633));
#624=SURFACE_SIDE_STYLE('',(#634));
#625=SURFACE_SIDE_STYLE('',(#635));
#626=SURFACE_SIDE_STYLE('',(#636));
#627=SURFACE_SIDE_STYLE('',(#637));
#628=SURFACE_SIDE_STYLE('',(#638));
#629=SURFACE_SIDE_STYLE('',(#639));
#630=SURFACE_SIDE_STYLE('',(#640));
#631=SURFACE_SIDE_STYLE('',(#641));
#632=SURFACE_STYLE_FILL_AREA(#642);
#633=SURFACE_STYLE_FILL_AREA(#643);
#634=SURFACE_STYLE_FILL_AREA(#644);
#635=SURFACE_STYLE_FILL_AREA(#645);
#636=SURFACE_STYLE_FILL_AREA(#646);
#637=SURFACE_STYLE_FILL_AREA(#647);
#638=SURFACE_STYLE_FILL_AREA(#648);
#639=SURFACE_STYLE_FILL_AREA(#649);
#640=SURFACE_STYLE_FILL_AREA(#650);
#641=SURFACE_STYLE_FILL_AREA(#651);
#642=FILL_AREA_STYLE('Opaque(246,179,39)',(#652));
#643=FILL_AREA_STYLE('Opaque(160,160,160)',(#653));
#644=FILL_AREA_STYLE('Opaque(246,246,243)',(#654));
#645=FILL_AREA_STYLE('Opaque(245,245,246)',(#655));
#646=FILL_AREA_STYLE('Opaque(255,255,255)',(#656));
#647=FILL_AREA_STYLE('Opaque(202,209,238)',(#657));
#648=FILL_AREA_STYLE('Opaque(80,124,105)',(#658));
#649=FILL_AREA_STYLE('Steel - Satin',(#659));
#650=FILL_AREA_STYLE('ABS (Black)',(#660));
#651=FILL_AREA_STYLE('Acrylic (Opaque)',(#661));
#652=FILL_AREA_STYLE_COLOUR('Opaque(246,179,39)',#662);
#653=FILL_AREA_STYLE_COLOUR('Opaque(160,160,160)',#663);
#654=FILL_AREA_STYLE_COLOUR('Opaque(246,246,243)',#664);
#655=FILL_AREA_STYLE_COLOUR('Opaque(245,245,246)',#665);
#656=FILL_AREA_STYLE_COLOUR('Opaque(255,255,255)',#666);
#657=FILL_AREA_STYLE_COLOUR('Opaque(202,209,238)',#667);
#658=FILL_AREA_STYLE_COLOUR('Opaque(80,124,105)',#668);
#659=FILL_AREA_STYLE_COLOUR('Steel - Satin',#669);
#660=FILL_AREA_STYLE_COLOUR('ABS (Black)',#670);
#661=FILL_AREA_STYLE_COLOUR('Acrylic (Opaque)',#671);
#662=COLOUR_RGB('Opaque(246,179,39)',0.964705882352941,0.701960784313725,
0.152941176470588);
#663=COLOUR_RGB('Opaque(160,160,160)',0.627450980392157,0.627450980392157,
0.627450980392157);
#664=COLOUR_RGB('Opaque(246,246,243)',0.964705882352941,0.964705882352941,
0.952941176470588);
#665=COLOUR_RGB('Opaque(245,245,246)',0.96078431372549,0.96078431372549,
0.964705882352941);
#666=COLOUR_RGB('Opaque(255,255,255)',1.,1.,1.);
#667=COLOUR_RGB('Opaque(202,209,238)',0.792156862745098,0.819607843137255,
0.933333333333333);
#668=COLOUR_RGB('Opaque(80,124,105)',0.313725490196078,0.486274509803922,
0.411764705882353);
#669=COLOUR_RGB('Steel - Satin',0.627450980392157,0.627450980392157,0.627450980392157);
#670=COLOUR_RGB('ABS (Black)',0.00784313725490196,0.00784313725490196,0.00784313725490196);
#671=COLOUR_RGB('Acrylic (Opaque)',0.964705882352941,0.964705882352941,
0.952941176470588);
ENDSEC;
END-ISO-10303-21;
