ISO-10303-21;
HEADER;
/* Generated by software containing ST-Developer
 * from STEP Tools, Inc. (www.steptools.com) 
 */

FILE_DESCRIPTION(
/* description */ (''),
/* implementation_level */ '2;1');

FILE_NAME(
/* name */ 'Leg.step',
/* time_stamp */ '2025-07-20T20:19:43-05:00',
/* author */ (''),
/* organization */ (''),
/* preprocessor_version */ 'ST-DEVELOPER v20.1',
/* originating_system */ 'Autodesk Translation Framework v14.10.0.0',
/* authorisation */ '');

FILE_SCHEMA (('AUTOMOTIVE_DESIGN { 1 0 10303 214 3 1 1 }'));
ENDSEC;

DATA;
#10=MECHANICAL_DESIGN_GEOMETRIC_PRESENTATION_REPRESENTATION('',(#13),#795);
#11=SHAPE_REPRESENTATION_RELATIONSHIP('SRR','None',#801,#12);
#12=ADVANCED_BREP_SHAPE_REPRESENTATION('',(#14),#794);
#13=STYLED_ITEM('',(#818),#14);
#14=MANIFOLD_SOLID_BREP('Leg',#503);
#15=FACE_OUTER_BOUND('',#41,.T.);
#16=FACE_OUTER_BOUND('',#42,.T.);
#17=FACE_OUTER_BOUND('',#43,.T.);
#18=FACE_OUTER_BOUND('',#44,.T.);
#19=FACE_OUTER_BOUND('',#45,.T.);
#20=FACE_OUTER_BOUND('',#46,.T.);
#21=FACE_OUTER_BOUND('',#47,.T.);
#22=FACE_OUTER_BOUND('',#48,.T.);
#23=FACE_OUTER_BOUND('',#49,.T.);
#24=FACE_OUTER_BOUND('',#50,.T.);
#25=FACE_OUTER_BOUND('',#51,.T.);
#26=FACE_OUTER_BOUND('',#52,.T.);
#27=FACE_OUTER_BOUND('',#53,.T.);
#28=FACE_OUTER_BOUND('',#54,.T.);
#29=FACE_OUTER_BOUND('',#55,.T.);
#30=FACE_OUTER_BOUND('',#56,.T.);
#31=FACE_OUTER_BOUND('',#57,.T.);
#32=FACE_OUTER_BOUND('',#58,.T.);
#33=FACE_OUTER_BOUND('',#59,.T.);
#34=FACE_OUTER_BOUND('',#60,.T.);
#35=FACE_OUTER_BOUND('',#61,.T.);
#36=FACE_OUTER_BOUND('',#62,.T.);
#37=FACE_OUTER_BOUND('',#63,.T.);
#38=FACE_OUTER_BOUND('',#64,.T.);
#39=FACE_OUTER_BOUND('',#65,.T.);
#40=FACE_OUTER_BOUND('',#66,.T.);
#41=EDGE_LOOP('',(#315,#316,#317,#318));
#42=EDGE_LOOP('',(#319,#320,#321,#322));
#43=EDGE_LOOP('',(#323,#324,#325,#326));
#44=EDGE_LOOP('',(#327,#328,#329,#330));
#45=EDGE_LOOP('',(#331,#332,#333,#334));
#46=EDGE_LOOP('',(#335,#336,#337,#338));
#47=EDGE_LOOP('',(#339,#340,#341,#342,#343,#344,#345,#346));
#48=EDGE_LOOP('',(#347,#348,#349,#350,#351,#352,#353,#354));
#49=EDGE_LOOP('',(#355,#356,#357,#358,#359,#360));
#50=EDGE_LOOP('',(#361,#362,#363,#364,#365,#366,#367,#368));
#51=EDGE_LOOP('',(#369,#370,#371,#372,#373,#374,#375,#376,#377,#378));
#52=EDGE_LOOP('',(#379,#380,#381,#382));
#53=EDGE_LOOP('',(#383,#384,#385,#386));
#54=EDGE_LOOP('',(#387,#388,#389,#390));
#55=EDGE_LOOP('',(#391,#392,#393,#394));
#56=EDGE_LOOP('',(#395,#396,#397,#398,#399));
#57=EDGE_LOOP('',(#400,#401,#402,#403,#404));
#58=EDGE_LOOP('',(#405,#406,#407,#408));
#59=EDGE_LOOP('',(#409,#410,#411,#412));
#60=EDGE_LOOP('',(#413,#414,#415,#416,#417));
#61=EDGE_LOOP('',(#418,#419,#420,#421,#422));
#62=EDGE_LOOP('',(#423,#424,#425,#426,#427,#428,#429,#430,#431,#432));
#63=EDGE_LOOP('',(#433,#434,#435,#436,#437,#438));
#64=EDGE_LOOP('',(#439,#440,#441,#442));
#65=EDGE_LOOP('',(#443,#444,#445,#446));
#66=EDGE_LOOP('',(#447,#448,#449,#450));
#67=LINE('',#657,#135);
#68=LINE('',#659,#136);
#69=LINE('',#661,#137);
#70=LINE('',#662,#138);
#71=LINE('',#666,#139);
#72=LINE('',#668,#140);
#73=LINE('',#670,#141);
#74=LINE('',#671,#142);
#75=LINE('',#675,#143);
#76=LINE('',#676,#144);
#77=LINE('',#677,#145);
#78=LINE('',#680,#146);
#79=LINE('',#682,#147);
#80=LINE('',#683,#148);
#81=LINE('',#686,#149);
#82=LINE('',#688,#150);
#83=LINE('',#689,#151);
#84=LINE('',#693,#152);
#85=LINE('',#694,#153);
#86=LINE('',#695,#154);
#87=LINE('',#697,#155);
#88=LINE('',#698,#156);
#89=LINE('',#701,#157);
#90=LINE('',#703,#158);
#91=LINE('',#705,#159);
#92=LINE('',#707,#160);
#93=LINE('',#709,#161);
#94=LINE('',#711,#162);
#95=LINE('',#712,#163);
#96=LINE('',#715,#164);
#97=LINE('',#717,#165);
#98=LINE('',#719,#166);
#99=LINE('',#720,#167);
#100=LINE('',#723,#168);
#101=LINE('',#725,#169);
#102=LINE('',#727,#170);
#103=LINE('',#728,#171);
#104=LINE('',#730,#172);
#105=LINE('',#731,#173);
#106=LINE('',#734,#174);
#107=LINE('',#735,#175);
#108=LINE('',#737,#176);
#109=LINE('',#739,#177);
#110=LINE('',#741,#178);
#111=LINE('',#743,#179);
#112=LINE('',#745,#180);
#113=LINE('',#746,#181);
#114=LINE('',#749,#182);
#115=LINE('',#751,#183);
#116=LINE('',#752,#184);
#117=LINE('',#755,#185);
#118=LINE('',#756,#186);
#119=LINE('',#759,#187);
#120=LINE('',#760,#188);
#121=LINE('',#763,#189);
#122=LINE('',#764,#190);
#123=LINE('',#766,#191);
#124=LINE('',#769,#192);
#125=LINE('',#770,#193);
#126=LINE('',#773,#194);
#127=LINE('',#774,#195);
#128=LINE('',#777,#196);
#129=LINE('',#778,#197);
#130=LINE('',#780,#198);
#131=LINE('',#782,#199);
#132=LINE('',#787,#200);
#133=LINE('',#788,#201);
#134=LINE('',#790,#202);
#135=VECTOR('',#535,10.);
#136=VECTOR('',#536,10.);
#137=VECTOR('',#537,10.);
#138=VECTOR('',#538,10.);
#139=VECTOR('',#541,10.);
#140=VECTOR('',#542,10.);
#141=VECTOR('',#543,10.);
#142=VECTOR('',#544,10.);
#143=VECTOR('',#547,10.);
#144=VECTOR('',#548,10.);
#145=VECTOR('',#549,10.);
#146=VECTOR('',#552,10.);
#147=VECTOR('',#553,10.);
#148=VECTOR('',#554,10.);
#149=VECTOR('',#557,10.);
#150=VECTOR('',#558,10.);
#151=VECTOR('',#559,10.);
#152=VECTOR('',#562,10.);
#153=VECTOR('',#563,10.);
#154=VECTOR('',#564,10.);
#155=VECTOR('',#567,10.);
#156=VECTOR('',#568,10.);
#157=VECTOR('',#571,10.);
#158=VECTOR('',#572,10.);
#159=VECTOR('',#573,10.);
#160=VECTOR('',#574,10.);
#161=VECTOR('',#575,10.);
#162=VECTOR('',#576,10.);
#163=VECTOR('',#577,10.);
#164=VECTOR('',#580,10.);
#165=VECTOR('',#581,10.);
#166=VECTOR('',#582,10.);
#167=VECTOR('',#583,10.);
#168=VECTOR('',#586,10.);
#169=VECTOR('',#587,10.);
#170=VECTOR('',#588,10.);
#171=VECTOR('',#589,10.);
#172=VECTOR('',#590,10.);
#173=VECTOR('',#591,10.);
#174=VECTOR('',#594,10.);
#175=VECTOR('',#595,10.);
#176=VECTOR('',#596,10.);
#177=VECTOR('',#597,10.);
#178=VECTOR('',#598,10.);
#179=VECTOR('',#599,10.);
#180=VECTOR('',#600,10.);
#181=VECTOR('',#601,10.);
#182=VECTOR('',#604,10.);
#183=VECTOR('',#605,10.);
#184=VECTOR('',#606,10.);
#185=VECTOR('',#609,10.);
#186=VECTOR('',#610,10.);
#187=VECTOR('',#613,10.);
#188=VECTOR('',#614,10.);
#189=VECTOR('',#617,10.);
#190=VECTOR('',#618,10.);
#191=VECTOR('',#621,10.);
#192=VECTOR('',#624,10.);
#193=VECTOR('',#625,10.);
#194=VECTOR('',#628,10.);
#195=VECTOR('',#629,10.);
#196=VECTOR('',#632,10.);
#197=VECTOR('',#633,10.);
#198=VECTOR('',#636,10.);
#199=VECTOR('',#639,10.);
#200=VECTOR('',#646,10.);
#201=VECTOR('',#647,10.);
#202=VECTOR('',#650,10.);
#203=VERTEX_POINT('',#655);
#204=VERTEX_POINT('',#656);
#205=VERTEX_POINT('',#658);
#206=VERTEX_POINT('',#660);
#207=VERTEX_POINT('',#664);
#208=VERTEX_POINT('',#665);
#209=VERTEX_POINT('',#667);
#210=VERTEX_POINT('',#669);
#211=VERTEX_POINT('',#673);
#212=VERTEX_POINT('',#674);
#213=VERTEX_POINT('',#679);
#214=VERTEX_POINT('',#681);
#215=VERTEX_POINT('',#685);
#216=VERTEX_POINT('',#687);
#217=VERTEX_POINT('',#691);
#218=VERTEX_POINT('',#692);
#219=VERTEX_POINT('',#700);
#220=VERTEX_POINT('',#702);
#221=VERTEX_POINT('',#704);
#222=VERTEX_POINT('',#706);
#223=VERTEX_POINT('',#708);
#224=VERTEX_POINT('',#710);
#225=VERTEX_POINT('',#714);
#226=VERTEX_POINT('',#716);
#227=VERTEX_POINT('',#718);
#228=VERTEX_POINT('',#722);
#229=VERTEX_POINT('',#724);
#230=VERTEX_POINT('',#726);
#231=VERTEX_POINT('',#729);
#232=VERTEX_POINT('',#733);
#233=VERTEX_POINT('',#736);
#234=VERTEX_POINT('',#738);
#235=VERTEX_POINT('',#740);
#236=VERTEX_POINT('',#742);
#237=VERTEX_POINT('',#744);
#238=VERTEX_POINT('',#748);
#239=VERTEX_POINT('',#750);
#240=VERTEX_POINT('',#754);
#241=VERTEX_POINT('',#758);
#242=VERTEX_POINT('',#762);
#243=VERTEX_POINT('',#768);
#244=VERTEX_POINT('',#772);
#245=VERTEX_POINT('',#776);
#246=VERTEX_POINT('',#786);
#247=EDGE_CURVE('',#203,#204,#67,.T.);
#248=EDGE_CURVE('',#203,#205,#68,.T.);
#249=EDGE_CURVE('',#205,#206,#69,.T.);
#250=EDGE_CURVE('',#204,#206,#70,.T.);
#251=EDGE_CURVE('',#207,#208,#71,.T.);
#252=EDGE_CURVE('',#209,#207,#72,.T.);
#253=EDGE_CURVE('',#209,#210,#73,.T.);
#254=EDGE_CURVE('',#208,#210,#74,.T.);
#255=EDGE_CURVE('',#211,#212,#75,.T.);
#256=EDGE_CURVE('',#206,#212,#76,.T.);
#257=EDGE_CURVE('',#211,#205,#77,.T.);
#258=EDGE_CURVE('',#209,#213,#78,.T.);
#259=EDGE_CURVE('',#213,#214,#79,.T.);
#260=EDGE_CURVE('',#210,#214,#80,.T.);
#261=EDGE_CURVE('',#213,#215,#81,.T.);
#262=EDGE_CURVE('',#215,#216,#82,.T.);
#263=EDGE_CURVE('',#214,#216,#83,.T.);
#264=EDGE_CURVE('',#217,#218,#84,.T.);
#265=EDGE_CURVE('',#216,#218,#85,.T.);
#266=EDGE_CURVE('',#215,#217,#86,.T.);
#267=EDGE_CURVE('',#211,#207,#87,.T.);
#268=EDGE_CURVE('',#217,#203,#88,.T.);
#269=EDGE_CURVE('',#219,#203,#89,.T.);
#270=EDGE_CURVE('',#220,#219,#90,.T.);
#271=EDGE_CURVE('',#221,#220,#91,.T.);
#272=EDGE_CURVE('',#222,#221,#92,.T.);
#273=EDGE_CURVE('',#222,#223,#93,.T.);
#274=EDGE_CURVE('',#224,#223,#94,.T.);
#275=EDGE_CURVE('',#224,#217,#95,.T.);
#276=EDGE_CURVE('',#212,#225,#96,.T.);
#277=EDGE_CURVE('',#225,#226,#97,.T.);
#278=EDGE_CURVE('',#226,#227,#98,.T.);
#279=EDGE_CURVE('',#227,#204,#99,.T.);
#280=EDGE_CURVE('',#228,#207,#100,.T.);
#281=EDGE_CURVE('',#229,#228,#101,.T.);
#282=EDGE_CURVE('',#230,#229,#102,.T.);
#283=EDGE_CURVE('',#230,#221,#103,.T.);
#284=EDGE_CURVE('',#231,#220,#104,.T.);
#285=EDGE_CURVE('',#231,#211,#105,.T.);
#286=EDGE_CURVE('',#223,#232,#106,.T.);
#287=EDGE_CURVE('',#232,#229,#107,.T.);
#288=EDGE_CURVE('',#233,#228,#108,.T.);
#289=EDGE_CURVE('',#233,#234,#109,.T.);
#290=EDGE_CURVE('',#234,#235,#110,.T.);
#291=EDGE_CURVE('',#235,#236,#111,.T.);
#292=EDGE_CURVE('',#236,#237,#112,.T.);
#293=EDGE_CURVE('',#237,#224,#113,.T.);
#294=EDGE_CURVE('',#233,#238,#114,.T.);
#295=EDGE_CURVE('',#239,#238,#115,.T.);
#296=EDGE_CURVE('',#234,#239,#116,.T.);
#297=EDGE_CURVE('',#240,#239,#117,.T.);
#298=EDGE_CURVE('',#235,#240,#118,.T.);
#299=EDGE_CURVE('',#241,#240,#119,.T.);
#300=EDGE_CURVE('',#236,#241,#120,.T.);
#301=EDGE_CURVE('',#242,#241,#121,.T.);
#302=EDGE_CURVE('',#237,#242,#122,.T.);
#303=EDGE_CURVE('',#218,#242,#123,.T.);
#304=EDGE_CURVE('',#219,#243,#124,.T.);
#305=EDGE_CURVE('',#243,#227,#125,.T.);
#306=EDGE_CURVE('',#243,#244,#126,.T.);
#307=EDGE_CURVE('',#244,#226,#127,.T.);
#308=EDGE_CURVE('',#244,#245,#128,.T.);
#309=EDGE_CURVE('',#245,#225,#129,.T.);
#310=EDGE_CURVE('',#231,#245,#130,.T.);
#311=EDGE_CURVE('',#238,#208,#131,.T.);
#312=EDGE_CURVE('',#230,#246,#132,.T.);
#313=EDGE_CURVE('',#246,#232,#133,.T.);
#314=EDGE_CURVE('',#246,#222,#134,.T.);
#315=ORIENTED_EDGE('',*,*,#247,.F.);
#316=ORIENTED_EDGE('',*,*,#248,.T.);
#317=ORIENTED_EDGE('',*,*,#249,.T.);
#318=ORIENTED_EDGE('',*,*,#250,.F.);
#319=ORIENTED_EDGE('',*,*,#251,.F.);
#320=ORIENTED_EDGE('',*,*,#252,.F.);
#321=ORIENTED_EDGE('',*,*,#253,.T.);
#322=ORIENTED_EDGE('',*,*,#254,.F.);
#323=ORIENTED_EDGE('',*,*,#255,.T.);
#324=ORIENTED_EDGE('',*,*,#256,.F.);
#325=ORIENTED_EDGE('',*,*,#249,.F.);
#326=ORIENTED_EDGE('',*,*,#257,.F.);
#327=ORIENTED_EDGE('',*,*,#258,.T.);
#328=ORIENTED_EDGE('',*,*,#259,.T.);
#329=ORIENTED_EDGE('',*,*,#260,.F.);
#330=ORIENTED_EDGE('',*,*,#253,.F.);
#331=ORIENTED_EDGE('',*,*,#261,.T.);
#332=ORIENTED_EDGE('',*,*,#262,.T.);
#333=ORIENTED_EDGE('',*,*,#263,.F.);
#334=ORIENTED_EDGE('',*,*,#259,.F.);
#335=ORIENTED_EDGE('',*,*,#264,.T.);
#336=ORIENTED_EDGE('',*,*,#265,.F.);
#337=ORIENTED_EDGE('',*,*,#262,.F.);
#338=ORIENTED_EDGE('',*,*,#266,.T.);
#339=ORIENTED_EDGE('',*,*,#252,.T.);
#340=ORIENTED_EDGE('',*,*,#267,.F.);
#341=ORIENTED_EDGE('',*,*,#257,.T.);
#342=ORIENTED_EDGE('',*,*,#248,.F.);
#343=ORIENTED_EDGE('',*,*,#268,.F.);
#344=ORIENTED_EDGE('',*,*,#266,.F.);
#345=ORIENTED_EDGE('',*,*,#261,.F.);
#346=ORIENTED_EDGE('',*,*,#258,.F.);
#347=ORIENTED_EDGE('',*,*,#268,.T.);
#348=ORIENTED_EDGE('',*,*,#269,.F.);
#349=ORIENTED_EDGE('',*,*,#270,.F.);
#350=ORIENTED_EDGE('',*,*,#271,.F.);
#351=ORIENTED_EDGE('',*,*,#272,.F.);
#352=ORIENTED_EDGE('',*,*,#273,.T.);
#353=ORIENTED_EDGE('',*,*,#274,.F.);
#354=ORIENTED_EDGE('',*,*,#275,.T.);
#355=ORIENTED_EDGE('',*,*,#250,.T.);
#356=ORIENTED_EDGE('',*,*,#256,.T.);
#357=ORIENTED_EDGE('',*,*,#276,.T.);
#358=ORIENTED_EDGE('',*,*,#277,.T.);
#359=ORIENTED_EDGE('',*,*,#278,.T.);
#360=ORIENTED_EDGE('',*,*,#279,.T.);
#361=ORIENTED_EDGE('',*,*,#267,.T.);
#362=ORIENTED_EDGE('',*,*,#280,.F.);
#363=ORIENTED_EDGE('',*,*,#281,.F.);
#364=ORIENTED_EDGE('',*,*,#282,.F.);
#365=ORIENTED_EDGE('',*,*,#283,.T.);
#366=ORIENTED_EDGE('',*,*,#271,.T.);
#367=ORIENTED_EDGE('',*,*,#284,.F.);
#368=ORIENTED_EDGE('',*,*,#285,.T.);
#369=ORIENTED_EDGE('',*,*,#274,.T.);
#370=ORIENTED_EDGE('',*,*,#286,.T.);
#371=ORIENTED_EDGE('',*,*,#287,.T.);
#372=ORIENTED_EDGE('',*,*,#281,.T.);
#373=ORIENTED_EDGE('',*,*,#288,.F.);
#374=ORIENTED_EDGE('',*,*,#289,.T.);
#375=ORIENTED_EDGE('',*,*,#290,.T.);
#376=ORIENTED_EDGE('',*,*,#291,.T.);
#377=ORIENTED_EDGE('',*,*,#292,.T.);
#378=ORIENTED_EDGE('',*,*,#293,.T.);
#379=ORIENTED_EDGE('',*,*,#289,.F.);
#380=ORIENTED_EDGE('',*,*,#294,.T.);
#381=ORIENTED_EDGE('',*,*,#295,.F.);
#382=ORIENTED_EDGE('',*,*,#296,.F.);
#383=ORIENTED_EDGE('',*,*,#290,.F.);
#384=ORIENTED_EDGE('',*,*,#296,.T.);
#385=ORIENTED_EDGE('',*,*,#297,.F.);
#386=ORIENTED_EDGE('',*,*,#298,.F.);
#387=ORIENTED_EDGE('',*,*,#291,.F.);
#388=ORIENTED_EDGE('',*,*,#298,.T.);
#389=ORIENTED_EDGE('',*,*,#299,.F.);
#390=ORIENTED_EDGE('',*,*,#300,.F.);
#391=ORIENTED_EDGE('',*,*,#292,.F.);
#392=ORIENTED_EDGE('',*,*,#300,.T.);
#393=ORIENTED_EDGE('',*,*,#301,.F.);
#394=ORIENTED_EDGE('',*,*,#302,.F.);
#395=ORIENTED_EDGE('',*,*,#293,.F.);
#396=ORIENTED_EDGE('',*,*,#302,.T.);
#397=ORIENTED_EDGE('',*,*,#303,.F.);
#398=ORIENTED_EDGE('',*,*,#264,.F.);
#399=ORIENTED_EDGE('',*,*,#275,.F.);
#400=ORIENTED_EDGE('',*,*,#304,.F.);
#401=ORIENTED_EDGE('',*,*,#269,.T.);
#402=ORIENTED_EDGE('',*,*,#247,.T.);
#403=ORIENTED_EDGE('',*,*,#279,.F.);
#404=ORIENTED_EDGE('',*,*,#305,.F.);
#405=ORIENTED_EDGE('',*,*,#306,.F.);
#406=ORIENTED_EDGE('',*,*,#305,.T.);
#407=ORIENTED_EDGE('',*,*,#278,.F.);
#408=ORIENTED_EDGE('',*,*,#307,.F.);
#409=ORIENTED_EDGE('',*,*,#308,.F.);
#410=ORIENTED_EDGE('',*,*,#307,.T.);
#411=ORIENTED_EDGE('',*,*,#277,.F.);
#412=ORIENTED_EDGE('',*,*,#309,.F.);
#413=ORIENTED_EDGE('',*,*,#310,.T.);
#414=ORIENTED_EDGE('',*,*,#309,.T.);
#415=ORIENTED_EDGE('',*,*,#276,.F.);
#416=ORIENTED_EDGE('',*,*,#255,.F.);
#417=ORIENTED_EDGE('',*,*,#285,.F.);
#418=ORIENTED_EDGE('',*,*,#288,.T.);
#419=ORIENTED_EDGE('',*,*,#280,.T.);
#420=ORIENTED_EDGE('',*,*,#251,.T.);
#421=ORIENTED_EDGE('',*,*,#311,.F.);
#422=ORIENTED_EDGE('',*,*,#294,.F.);
#423=ORIENTED_EDGE('',*,*,#265,.T.);
#424=ORIENTED_EDGE('',*,*,#303,.T.);
#425=ORIENTED_EDGE('',*,*,#301,.T.);
#426=ORIENTED_EDGE('',*,*,#299,.T.);
#427=ORIENTED_EDGE('',*,*,#297,.T.);
#428=ORIENTED_EDGE('',*,*,#295,.T.);
#429=ORIENTED_EDGE('',*,*,#311,.T.);
#430=ORIENTED_EDGE('',*,*,#254,.T.);
#431=ORIENTED_EDGE('',*,*,#260,.T.);
#432=ORIENTED_EDGE('',*,*,#263,.T.);
#433=ORIENTED_EDGE('',*,*,#270,.T.);
#434=ORIENTED_EDGE('',*,*,#304,.T.);
#435=ORIENTED_EDGE('',*,*,#306,.T.);
#436=ORIENTED_EDGE('',*,*,#308,.T.);
#437=ORIENTED_EDGE('',*,*,#310,.F.);
#438=ORIENTED_EDGE('',*,*,#284,.T.);
#439=ORIENTED_EDGE('',*,*,#312,.F.);
#440=ORIENTED_EDGE('',*,*,#282,.T.);
#441=ORIENTED_EDGE('',*,*,#287,.F.);
#442=ORIENTED_EDGE('',*,*,#313,.F.);
#443=ORIENTED_EDGE('',*,*,#314,.F.);
#444=ORIENTED_EDGE('',*,*,#313,.T.);
#445=ORIENTED_EDGE('',*,*,#286,.F.);
#446=ORIENTED_EDGE('',*,*,#273,.F.);
#447=ORIENTED_EDGE('',*,*,#283,.F.);
#448=ORIENTED_EDGE('',*,*,#312,.T.);
#449=ORIENTED_EDGE('',*,*,#314,.T.);
#450=ORIENTED_EDGE('',*,*,#272,.T.);
#451=PLANE('',#505);
#452=PLANE('',#506);
#453=PLANE('',#507);
#454=PLANE('',#508);
#455=PLANE('',#509);
#456=PLANE('',#510);
#457=PLANE('',#511);
#458=PLANE('',#512);
#459=PLANE('',#513);
#460=PLANE('',#514);
#461=PLANE('',#515);
#462=PLANE('',#516);
#463=PLANE('',#517);
#464=PLANE('',#518);
#465=PLANE('',#519);
#466=PLANE('',#520);
#467=PLANE('',#521);
#468=PLANE('',#522);
#469=PLANE('',#523);
#470=PLANE('',#524);
#471=PLANE('',#525);
#472=PLANE('',#526);
#473=PLANE('',#527);
#474=PLANE('',#528);
#475=PLANE('',#529);
#476=PLANE('',#530);
#477=ADVANCED_FACE('',(#15),#451,.F.);
#478=ADVANCED_FACE('',(#16),#452,.F.);
#479=ADVANCED_FACE('',(#17),#453,.F.);
#480=ADVANCED_FACE('',(#18),#454,.F.);
#481=ADVANCED_FACE('',(#19),#455,.F.);
#482=ADVANCED_FACE('',(#20),#456,.F.);
#483=ADVANCED_FACE('',(#21),#457,.T.);
#484=ADVANCED_FACE('',(#22),#458,.T.);
#485=ADVANCED_FACE('',(#23),#459,.T.);
#486=ADVANCED_FACE('',(#24),#460,.T.);
#487=ADVANCED_FACE('',(#25),#461,.F.);
#488=ADVANCED_FACE('',(#26),#462,.T.);
#489=ADVANCED_FACE('',(#27),#463,.T.);
#490=ADVANCED_FACE('',(#28),#464,.T.);
#491=ADVANCED_FACE('',(#29),#465,.T.);
#492=ADVANCED_FACE('',(#30),#466,.T.);
#493=ADVANCED_FACE('',(#31),#467,.T.);
#494=ADVANCED_FACE('',(#32),#468,.T.);
#495=ADVANCED_FACE('',(#33),#469,.T.);
#496=ADVANCED_FACE('',(#34),#470,.T.);
#497=ADVANCED_FACE('',(#35),#471,.T.);
#498=ADVANCED_FACE('',(#36),#472,.T.);
#499=ADVANCED_FACE('',(#37),#473,.F.);
#500=ADVANCED_FACE('',(#38),#474,.T.);
#501=ADVANCED_FACE('',(#39),#475,.T.);
#502=ADVANCED_FACE('',(#40),#476,.F.);
#503=CLOSED_SHELL('',(#477,#478,#479,#480,#481,#482,#483,#484,#485,#486,
#487,#488,#489,#490,#491,#492,#493,#494,#495,#496,#497,#498,#499,#500,#501,
#502));
#504=AXIS2_PLACEMENT_3D('',#653,#531,#532);
#505=AXIS2_PLACEMENT_3D('',#654,#533,#534);
#506=AXIS2_PLACEMENT_3D('',#663,#539,#540);
#507=AXIS2_PLACEMENT_3D('',#672,#545,#546);
#508=AXIS2_PLACEMENT_3D('',#678,#550,#551);
#509=AXIS2_PLACEMENT_3D('',#684,#555,#556);
#510=AXIS2_PLACEMENT_3D('',#690,#560,#561);
#511=AXIS2_PLACEMENT_3D('',#696,#565,#566);
#512=AXIS2_PLACEMENT_3D('',#699,#569,#570);
#513=AXIS2_PLACEMENT_3D('',#713,#578,#579);
#514=AXIS2_PLACEMENT_3D('',#721,#584,#585);
#515=AXIS2_PLACEMENT_3D('',#732,#592,#593);
#516=AXIS2_PLACEMENT_3D('',#747,#602,#603);
#517=AXIS2_PLACEMENT_3D('',#753,#607,#608);
#518=AXIS2_PLACEMENT_3D('',#757,#611,#612);
#519=AXIS2_PLACEMENT_3D('',#761,#615,#616);
#520=AXIS2_PLACEMENT_3D('',#765,#619,#620);
#521=AXIS2_PLACEMENT_3D('',#767,#622,#623);
#522=AXIS2_PLACEMENT_3D('',#771,#626,#627);
#523=AXIS2_PLACEMENT_3D('',#775,#630,#631);
#524=AXIS2_PLACEMENT_3D('',#779,#634,#635);
#525=AXIS2_PLACEMENT_3D('',#781,#637,#638);
#526=AXIS2_PLACEMENT_3D('',#783,#640,#641);
#527=AXIS2_PLACEMENT_3D('',#784,#642,#643);
#528=AXIS2_PLACEMENT_3D('',#785,#644,#645);
#529=AXIS2_PLACEMENT_3D('',#789,#648,#649);
#530=AXIS2_PLACEMENT_3D('',#791,#651,#652);
#531=DIRECTION('axis',(0.,0.,1.));
#532=DIRECTION('refdir',(1.,0.,0.));
#533=DIRECTION('center_axis',(2.22044604925031E-16,-1.,0.));
#534=DIRECTION('ref_axis',(1.,2.22044604925031E-16,0.));
#535=DIRECTION('',(0.,0.,1.));
#536=DIRECTION('',(-1.,-2.22044604925031E-16,0.));
#537=DIRECTION('',(0.,0.,1.));
#538=DIRECTION('',(-1.,-2.22044604925031E-16,0.));
#539=DIRECTION('center_axis',(-1.,-2.22044604925031E-16,0.));
#540=DIRECTION('ref_axis',(2.22044604925031E-16,-1.,0.));
#541=DIRECTION('',(0.,0.,1.));
#542=DIRECTION('',(2.22044604925031E-16,-1.,0.));
#543=DIRECTION('',(0.,0.,1.));
#544=DIRECTION('',(-2.22044604925031E-16,1.,0.));
#545=DIRECTION('center_axis',(-1.,-2.22044604925031E-16,0.));
#546=DIRECTION('ref_axis',(2.22044604925031E-16,-1.,0.));
#547=DIRECTION('',(0.,0.,1.));
#548=DIRECTION('',(-2.22044604925031E-16,1.,0.));
#549=DIRECTION('',(2.22044604925031E-16,-1.,0.));
#550=DIRECTION('center_axis',(-2.22044604925031E-16,1.,0.));
#551=DIRECTION('ref_axis',(-1.,-2.22044604925031E-16,0.));
#552=DIRECTION('',(1.,2.22044604925031E-16,0.));
#553=DIRECTION('',(0.,0.,1.));
#554=DIRECTION('',(1.,2.22044604925031E-16,0.));
#555=DIRECTION('center_axis',(1.,2.22044604925031E-16,0.));
#556=DIRECTION('ref_axis',(-2.22044604925031E-16,1.,0.));
#557=DIRECTION('',(2.22044604925031E-16,-1.,0.));
#558=DIRECTION('',(0.,0.,1.));
#559=DIRECTION('',(2.22044604925031E-16,-1.,0.));
#560=DIRECTION('center_axis',(2.22044604925031E-16,-1.,0.));
#561=DIRECTION('ref_axis',(1.,2.22044604925031E-16,0.));
#562=DIRECTION('',(0.,0.,1.));
#563=DIRECTION('',(-1.,-2.22044604925031E-16,0.));
#564=DIRECTION('',(-1.,-2.22044604925031E-16,0.));
#565=DIRECTION('center_axis',(0.,0.,1.));
#566=DIRECTION('ref_axis',(-2.22044604925031E-16,1.,0.));
#567=DIRECTION('',(-2.22044604925031E-16,1.,0.));
#568=DIRECTION('',(-1.,-2.22044604925031E-16,0.));
#569=DIRECTION('center_axis',(2.22044604925031E-16,-1.,0.));
#570=DIRECTION('ref_axis',(1.,2.22044604925031E-16,0.));
#571=DIRECTION('',(0.,0.,1.));
#572=DIRECTION('',(1.,2.22044604925031E-16,0.));
#573=DIRECTION('',(0.,0.,1.));
#574=DIRECTION('',(-1.,-2.22044604925031E-16,0.));
#575=DIRECTION('',(0.,0.,1.));
#576=DIRECTION('',(1.,2.22044604925031E-16,0.));
#577=DIRECTION('',(0.,0.,1.));
#578=DIRECTION('center_axis',(0.,0.,1.));
#579=DIRECTION('ref_axis',(-2.22044604925031E-16,1.,0.));
#580=DIRECTION('',(-1.,-2.22044604925031E-16,0.));
#581=DIRECTION('',(2.22044604925031E-16,-1.,0.));
#582=DIRECTION('',(1.,2.22044604925031E-16,0.));
#583=DIRECTION('',(-2.22044604925031E-16,1.,0.));
#584=DIRECTION('center_axis',(-1.,-2.22044604925031E-16,0.));
#585=DIRECTION('ref_axis',(2.22044604925031E-16,-1.,0.));
#586=DIRECTION('',(0.,0.,1.));
#587=DIRECTION('',(2.22044604925031E-16,-1.,0.));
#588=DIRECTION('',(0.,0.,1.));
#589=DIRECTION('',(2.22044604925031E-16,-1.,0.));
#590=DIRECTION('',(2.22044604925031E-16,-1.,0.));
#591=DIRECTION('',(0.,0.,1.));
#592=DIRECTION('center_axis',(0.,0.,1.));
#593=DIRECTION('ref_axis',(-2.22044604925031E-16,1.,0.));
#594=DIRECTION('',(-2.22044604925031E-16,1.,0.));
#595=DIRECTION('',(-1.,-2.22044604925031E-16,0.));
#596=DIRECTION('',(1.,2.22044604925031E-16,0.));
#597=DIRECTION('',(-2.22044604925031E-16,1.,0.));
#598=DIRECTION('',(1.,2.22044604925031E-16,0.));
#599=DIRECTION('',(2.22044604925031E-16,-1.,0.));
#600=DIRECTION('',(-1.,-2.22044604925031E-16,0.));
#601=DIRECTION('',(-2.22044604925031E-16,1.,0.));
#602=DIRECTION('center_axis',(-1.,-2.22044604925031E-16,0.));
#603=DIRECTION('ref_axis',(2.22044604925031E-16,-1.,0.));
#604=DIRECTION('',(0.,0.,1.));
#605=DIRECTION('',(2.22044604925031E-16,-1.,0.));
#606=DIRECTION('',(0.,0.,1.));
#607=DIRECTION('center_axis',(-2.22044604925031E-16,1.,0.));
#608=DIRECTION('ref_axis',(-1.,-2.22044604925031E-16,0.));
#609=DIRECTION('',(-1.,-2.22044604925031E-16,0.));
#610=DIRECTION('',(0.,0.,1.));
#611=DIRECTION('center_axis',(1.,2.22044604925031E-16,0.));
#612=DIRECTION('ref_axis',(-2.22044604925031E-16,1.,0.));
#613=DIRECTION('',(-2.22044604925031E-16,1.,0.));
#614=DIRECTION('',(0.,0.,1.));
#615=DIRECTION('center_axis',(2.22044604925031E-16,-1.,0.));
#616=DIRECTION('ref_axis',(1.,2.22044604925031E-16,0.));
#617=DIRECTION('',(1.,2.22044604925031E-16,0.));
#618=DIRECTION('',(0.,0.,1.));
#619=DIRECTION('center_axis',(-1.,-2.22044604925031E-16,0.));
#620=DIRECTION('ref_axis',(2.22044604925031E-16,-1.,0.));
#621=DIRECTION('',(2.22044604925031E-16,-1.,0.));
#622=DIRECTION('center_axis',(1.,2.22044604925031E-16,0.));
#623=DIRECTION('ref_axis',(-2.22044604925031E-16,1.,0.));
#624=DIRECTION('',(2.22044604925031E-16,-1.,0.));
#625=DIRECTION('',(0.,0.,1.));
#626=DIRECTION('center_axis',(2.22044604925031E-16,-1.,0.));
#627=DIRECTION('ref_axis',(1.,2.22044604925031E-16,0.));
#628=DIRECTION('',(-1.,-2.22044604925031E-16,0.));
#629=DIRECTION('',(0.,0.,1.));
#630=DIRECTION('center_axis',(-1.,-2.22044604925031E-16,0.));
#631=DIRECTION('ref_axis',(2.22044604925031E-16,-1.,0.));
#632=DIRECTION('',(-2.22044604925031E-16,1.,0.));
#633=DIRECTION('',(0.,0.,1.));
#634=DIRECTION('center_axis',(-2.22044604925031E-16,1.,0.));
#635=DIRECTION('ref_axis',(-1.,-2.22044604925031E-16,0.));
#636=DIRECTION('',(-1.,-2.22044604925031E-16,0.));
#637=DIRECTION('center_axis',(2.22044604925031E-16,-1.,0.));
#638=DIRECTION('ref_axis',(1.,2.22044604925031E-16,0.));
#639=DIRECTION('',(1.,2.22044604925031E-16,0.));
#640=DIRECTION('center_axis',(0.,0.,1.));
#641=DIRECTION('ref_axis',(-2.22044604925031E-16,1.,0.));
#642=DIRECTION('center_axis',(0.,0.,1.));
#643=DIRECTION('ref_axis',(-2.22044604925031E-16,1.,0.));
#644=DIRECTION('center_axis',(-2.22044604925031E-16,1.,0.));
#645=DIRECTION('ref_axis',(-1.,-2.22044604925031E-16,0.));
#646=DIRECTION('',(1.,2.22044604925031E-16,0.));
#647=DIRECTION('',(0.,0.,1.));
#648=DIRECTION('center_axis',(1.,2.22044604925031E-16,0.));
#649=DIRECTION('ref_axis',(-2.22044604925031E-16,1.,0.));
#650=DIRECTION('',(2.22044604925031E-16,-1.,0.));
#651=DIRECTION('center_axis',(0.,0.,1.));
#652=DIRECTION('ref_axis',(-2.22044604925031E-16,1.,0.));
#653=CARTESIAN_POINT('',(0.,0.,0.));
#654=CARTESIAN_POINT('Origin',(-52.1990003576279,-68.0150004321337,82.5));
#655=CARTESIAN_POINT('',(-49.4490003576279,-68.0150004321337,82.5));
#656=CARTESIAN_POINT('',(-49.4490003576279,-68.0150004321337,90.));
#657=CARTESIAN_POINT('',(-49.4490003576279,-68.0150004321337,15.));
#658=CARTESIAN_POINT('',(-52.1990003576279,-68.0150004321337,82.5));
#659=CARTESIAN_POINT('',(-44.6990003576279,-68.0150004321337,82.5));
#660=CARTESIAN_POINT('',(-52.1990003576279,-68.0150004321337,90.));
#661=CARTESIAN_POINT('',(-52.1990003576279,-68.0150004321337,82.5));
#662=CARTESIAN_POINT('',(-50.3240003576279,-68.0150004321337,90.));
#663=CARTESIAN_POINT('Origin',(-52.1990003576279,-60.5150004321337,82.5));
#664=CARTESIAN_POINT('',(-52.1990003576279,-63.2650004321337,82.5));
#665=CARTESIAN_POINT('',(-52.1990003576279,-63.2650004321337,90.));
#666=CARTESIAN_POINT('',(-52.1990003576279,-63.2650004321337,15.));
#667=CARTESIAN_POINT('',(-52.1990003576279,-60.5150004321337,82.5));
#668=CARTESIAN_POINT('',(-52.1990003576279,-63.2650004321337,82.5));
#669=CARTESIAN_POINT('',(-52.1990003576279,-60.5150004321337,90.));
#670=CARTESIAN_POINT('',(-52.1990003576279,-60.5150004321337,82.5));
#671=CARTESIAN_POINT('',(-52.1990003576279,-62.390000488013,90.));
#672=CARTESIAN_POINT('Origin',(-52.1990003576279,-60.5150004321337,82.5));
#673=CARTESIAN_POINT('',(-52.1990003576279,-65.2650004321337,82.5));
#674=CARTESIAN_POINT('',(-52.1990003576279,-65.2650004321337,90.));
#675=CARTESIAN_POINT('',(-52.1990003576279,-65.2650004321337,15.));
#676=CARTESIAN_POINT('',(-52.1990003576279,-62.390000488013,90.));
#677=CARTESIAN_POINT('',(-52.1990003576279,-63.2650004321337,82.5));
#678=CARTESIAN_POINT('Origin',(-44.6990003576279,-60.5150004321337,82.5));
#679=CARTESIAN_POINT('',(-44.6990003576279,-60.5150004321337,82.5));
#680=CARTESIAN_POINT('',(-52.1990003576279,-60.5150004321337,82.5));
#681=CARTESIAN_POINT('',(-44.6990003576279,-60.5150004321337,90.));
#682=CARTESIAN_POINT('',(-44.6990003576279,-60.5150004321337,82.5));
#683=CARTESIAN_POINT('',(-46.5740003576279,-60.5150004321337,90.));
#684=CARTESIAN_POINT('Origin',(-44.6990003576279,-68.0150004321337,82.5));
#685=CARTESIAN_POINT('',(-44.6990003576279,-68.0150004321337,82.5));
#686=CARTESIAN_POINT('',(-44.6990003576279,-60.5150004321337,82.5));
#687=CARTESIAN_POINT('',(-44.6990003576279,-68.0150004321337,90.));
#688=CARTESIAN_POINT('',(-44.6990003576279,-68.0150004321337,82.5));
#689=CARTESIAN_POINT('',(-44.6990003576279,-66.140000488013,90.));
#690=CARTESIAN_POINT('Origin',(-52.1990003576279,-68.0150004321337,82.5));
#691=CARTESIAN_POINT('',(-47.4490003576279,-68.0150004321337,82.5));
#692=CARTESIAN_POINT('',(-47.4490003576279,-68.0150004321337,90.));
#693=CARTESIAN_POINT('',(-47.4490003576279,-68.0150004321337,15.));
#694=CARTESIAN_POINT('',(-50.3240003576279,-68.0150004321337,90.));
#695=CARTESIAN_POINT('',(-44.6990003576279,-68.0150004321337,82.5));
#696=CARTESIAN_POINT('Origin',(-48.4490003576279,-64.2650004321337,82.5));
#697=CARTESIAN_POINT('',(-52.1990003576279,-62.3900004321337,82.5));
#698=CARTESIAN_POINT('',(-50.3240003576279,-68.0150004321337,82.5));
#699=CARTESIAN_POINT('Origin',(-52.1990003576279,-68.0150004321337,7.5));
#700=CARTESIAN_POINT('',(-49.4490003576279,-68.0150004321337,15.));
#701=CARTESIAN_POINT('',(-49.4490003576279,-68.0150004321337,15.));
#702=CARTESIAN_POINT('',(-52.1990003576279,-68.0150004321337,15.));
#703=CARTESIAN_POINT('',(-44.6990003576279,-68.0150004321337,15.));
#704=CARTESIAN_POINT('',(-52.1990003576279,-68.0150004321337,7.5));
#705=CARTESIAN_POINT('',(-52.1990003576279,-68.0150004321337,7.5));
#706=CARTESIAN_POINT('',(-44.6990003576279,-68.0150004321337,7.5));
#707=CARTESIAN_POINT('',(-44.6990003576279,-68.0150004321337,7.5));
#708=CARTESIAN_POINT('',(-44.6990003576279,-68.0150004321337,15.));
#709=CARTESIAN_POINT('',(-44.6990003576279,-68.0150004321337,7.5));
#710=CARTESIAN_POINT('',(-47.4490003576279,-68.0150004321337,15.));
#711=CARTESIAN_POINT('',(-44.6990003576279,-68.0150004321337,15.));
#712=CARTESIAN_POINT('',(-47.4490003576279,-68.0150004321337,15.));
#713=CARTESIAN_POINT('Origin',(-48.4490003576279,-64.2650005438924,90.));
#714=CARTESIAN_POINT('',(-55.9490003576279,-65.2650004321337,90.));
#715=CARTESIAN_POINT('',(-52.1990003576279,-65.2650004321337,90.));
#716=CARTESIAN_POINT('',(-55.9490003576279,-71.7650004321337,90.));
#717=CARTESIAN_POINT('',(-55.9490003576279,-71.7650004321337,90.));
#718=CARTESIAN_POINT('',(-49.4490003576279,-71.7650006556511,90.));
#719=CARTESIAN_POINT('',(-40.9490003576279,-71.7650004321337,90.));
#720=CARTESIAN_POINT('',(-49.4490003576279,-68.0150004321337,90.));
#721=CARTESIAN_POINT('Origin',(-52.1990003576279,-60.5150004321337,7.5));
#722=CARTESIAN_POINT('',(-52.1990003576279,-63.2650004321337,15.));
#723=CARTESIAN_POINT('',(-52.1990003576279,-63.2650004321337,15.));
#724=CARTESIAN_POINT('',(-52.1990003576279,-60.5150004321337,15.));
#725=CARTESIAN_POINT('',(-52.1990003576279,-63.2650004321337,15.));
#726=CARTESIAN_POINT('',(-52.1990003576279,-60.5150004321337,7.5));
#727=CARTESIAN_POINT('',(-52.1990003576279,-60.5150004321337,7.5));
#728=CARTESIAN_POINT('',(-52.1990003576279,-63.2650004321337,7.5));
#729=CARTESIAN_POINT('',(-52.1990003576279,-65.2650004321337,15.));
#730=CARTESIAN_POINT('',(-52.1990003576279,-63.2650004321337,15.));
#731=CARTESIAN_POINT('',(-52.1990003576279,-65.2650004321337,15.));
#732=CARTESIAN_POINT('Origin',(-48.4490003576279,-64.2650005438924,15.));
#733=CARTESIAN_POINT('',(-44.6990003576279,-60.5150004321337,15.));
#734=CARTESIAN_POINT('',(-44.6990003576279,-60.5150004321337,15.));
#735=CARTESIAN_POINT('',(-52.1990003576279,-60.5150004321337,15.));
#736=CARTESIAN_POINT('',(-55.9490003576279,-63.2650004321337,15.));
#737=CARTESIAN_POINT('',(-55.9490003576279,-63.2650004321337,15.));
#738=CARTESIAN_POINT('',(-55.9490003576279,-56.7650004321337,15.));
#739=CARTESIAN_POINT('',(-55.9490003576279,-71.7650004321337,15.));
#740=CARTESIAN_POINT('',(-40.9490003576279,-56.7650004321337,15.));
#741=CARTESIAN_POINT('',(-55.9490003576279,-56.7650004321337,15.));
#742=CARTESIAN_POINT('',(-40.9490003576279,-71.7650004321337,15.));
#743=CARTESIAN_POINT('',(-40.9490003576279,-56.7650004321337,15.));
#744=CARTESIAN_POINT('',(-47.4490003576279,-71.7650006556511,15.));
#745=CARTESIAN_POINT('',(-40.9490003576279,-71.7650004321337,15.));
#746=CARTESIAN_POINT('',(-47.4490003576279,-71.7650006556511,15.));
#747=CARTESIAN_POINT('Origin',(-55.9490003576279,-56.7650004321337,15.));
#748=CARTESIAN_POINT('',(-55.9490003576279,-63.2650004321337,90.));
#749=CARTESIAN_POINT('',(-55.9490003576279,-63.2650004321337,15.));
#750=CARTESIAN_POINT('',(-55.9490003576279,-56.7650004321337,90.));
#751=CARTESIAN_POINT('',(-55.9490003576279,-71.7650004321337,90.));
#752=CARTESIAN_POINT('',(-55.9490003576279,-56.7650004321337,15.));
#753=CARTESIAN_POINT('Origin',(-40.9490003576279,-56.7650004321337,15.));
#754=CARTESIAN_POINT('',(-40.9490003576279,-56.7650004321337,90.));
#755=CARTESIAN_POINT('',(-55.9490003576279,-56.7650004321337,90.));
#756=CARTESIAN_POINT('',(-40.9490003576279,-56.7650004321337,15.));
#757=CARTESIAN_POINT('Origin',(-40.9490003576279,-71.7650004321337,15.));
#758=CARTESIAN_POINT('',(-40.9490003576279,-71.7650004321337,90.));
#759=CARTESIAN_POINT('',(-40.9490003576279,-56.7650004321337,90.));
#760=CARTESIAN_POINT('',(-40.9490003576279,-71.7650004321337,15.));
#761=CARTESIAN_POINT('Origin',(-47.4490003576279,-71.7650004321337,15.));
#762=CARTESIAN_POINT('',(-47.4490003576279,-71.7650006556511,90.));
#763=CARTESIAN_POINT('',(-40.9490003576279,-71.7650004321337,90.));
#764=CARTESIAN_POINT('',(-47.4490003576279,-71.7650006556511,15.));
#765=CARTESIAN_POINT('Origin',(-47.4490003576279,-68.0150004321337,15.));
#766=CARTESIAN_POINT('',(-47.4490003576279,-71.7650006556511,90.));
#767=CARTESIAN_POINT('Origin',(-49.4490003576279,-71.7650006556511,15.));
#768=CARTESIAN_POINT('',(-49.4490003576279,-71.7650006556511,15.));
#769=CARTESIAN_POINT('',(-49.4490003576279,-68.0150004321337,15.));
#770=CARTESIAN_POINT('',(-49.4490003576279,-71.7650006556511,15.));
#771=CARTESIAN_POINT('Origin',(-55.9490003576279,-71.7650004321337,15.));
#772=CARTESIAN_POINT('',(-55.9490003576279,-71.7650004321337,15.));
#773=CARTESIAN_POINT('',(-40.9490003576279,-71.7650004321337,15.));
#774=CARTESIAN_POINT('',(-55.9490003576279,-71.7650004321337,15.));
#775=CARTESIAN_POINT('Origin',(-55.9490003576279,-65.2650004321337,15.));
#776=CARTESIAN_POINT('',(-55.9490003576279,-65.2650004321337,15.));
#777=CARTESIAN_POINT('',(-55.9490003576279,-71.7650004321337,15.));
#778=CARTESIAN_POINT('',(-55.9490003576279,-65.2650004321337,15.));
#779=CARTESIAN_POINT('Origin',(-52.1990003576279,-65.2650004321337,15.));
#780=CARTESIAN_POINT('',(-52.1990003576279,-65.2650004321337,15.));
#781=CARTESIAN_POINT('Origin',(-55.9490003576279,-63.2650004321337,15.));
#782=CARTESIAN_POINT('',(-55.9490003576279,-63.2650004321337,90.));
#783=CARTESIAN_POINT('Origin',(-48.4490003576279,-64.2650005438924,90.));
#784=CARTESIAN_POINT('Origin',(-48.4490003576279,-64.2650005438924,15.));
#785=CARTESIAN_POINT('Origin',(-44.6990003576279,-60.5150004321337,7.5));
#786=CARTESIAN_POINT('',(-44.6990003576279,-60.5150004321337,7.5));
#787=CARTESIAN_POINT('',(-52.1990003576279,-60.5150004321337,7.5));
#788=CARTESIAN_POINT('',(-44.6990003576279,-60.5150004321337,7.5));
#789=CARTESIAN_POINT('Origin',(-44.6990003576279,-68.0150004321337,7.5));
#790=CARTESIAN_POINT('',(-44.6990003576279,-60.5150004321337,7.5));
#791=CARTESIAN_POINT('Origin',(-48.4490003576279,-64.2650004321337,7.5));
#792=UNCERTAINTY_MEASURE_WITH_UNIT(LENGTH_MEASURE(0.01),#796,
'DISTANCE_ACCURACY_VALUE',
'Maximum model space distance between geometric entities at asserted c
onnectivities');
#793=UNCERTAINTY_MEASURE_WITH_UNIT(LENGTH_MEASURE(0.01),#796,
'DISTANCE_ACCURACY_VALUE',
'Maximum model space distance between geometric entities at asserted c
onnectivities');
#794=(
GEOMETRIC_REPRESENTATION_CONTEXT(3)
GLOBAL_UNCERTAINTY_ASSIGNED_CONTEXT((#792))
GLOBAL_UNIT_ASSIGNED_CONTEXT((#796,#797,#798))
REPRESENTATION_CONTEXT('','3D')
);
#795=(
GEOMETRIC_REPRESENTATION_CONTEXT(3)
GLOBAL_UNCERTAINTY_ASSIGNED_CONTEXT((#793))
GLOBAL_UNIT_ASSIGNED_CONTEXT((#796,#797,#798))
REPRESENTATION_CONTEXT('','3D')
);
#796=(
LENGTH_UNIT()
NAMED_UNIT(*)
SI_UNIT(.MILLI.,.METRE.)
);
#797=(
NAMED_UNIT(*)
PLANE_ANGLE_UNIT()
SI_UNIT($,.RADIAN.)
);
#798=(
NAMED_UNIT(*)
SI_UNIT($,.STERADIAN.)
SOLID_ANGLE_UNIT()
);
#799=SHAPE_DEFINITION_REPRESENTATION(#800,#801);
#800=PRODUCT_DEFINITION_SHAPE('',$,#803);
#801=SHAPE_REPRESENTATION('',(#504),#794);
#802=PRODUCT_DEFINITION_CONTEXT('part definition',#807,'design');
#803=PRODUCT_DEFINITION('Luma','Luma v20',#804,#802);
#804=PRODUCT_DEFINITION_FORMATION('',$,#809);
#805=PRODUCT_RELATED_PRODUCT_CATEGORY('Luma v20','Luma v20',(#809));
#806=APPLICATION_PROTOCOL_DEFINITION('international standard',
'automotive_design',2009,#807);
#807=APPLICATION_CONTEXT(
'Core Data for Automotive Mechanical Design Process');
#808=PRODUCT_CONTEXT('part definition',#807,'mechanical');
#809=PRODUCT('Luma','Luma v20',$,(#808));
#810=PRESENTATION_STYLE_ASSIGNMENT((#820));
#811=PRESENTATION_STYLE_ASSIGNMENT((#821));
#812=PRESENTATION_STYLE_ASSIGNMENT((#822));
#813=PRESENTATION_STYLE_ASSIGNMENT((#823));
#814=PRESENTATION_STYLE_ASSIGNMENT((#824));
#815=PRESENTATION_STYLE_ASSIGNMENT((#825));
#816=PRESENTATION_STYLE_ASSIGNMENT((#826));
#817=PRESENTATION_STYLE_ASSIGNMENT((#827));
#818=PRESENTATION_STYLE_ASSIGNMENT((#828));
#819=PRESENTATION_STYLE_ASSIGNMENT((#829));
#820=SURFACE_STYLE_USAGE(.BOTH.,#830);
#821=SURFACE_STYLE_USAGE(.BOTH.,#831);
#822=SURFACE_STYLE_USAGE(.BOTH.,#832);
#823=SURFACE_STYLE_USAGE(.BOTH.,#833);
#824=SURFACE_STYLE_USAGE(.BOTH.,#834);
#825=SURFACE_STYLE_USAGE(.BOTH.,#835);
#826=SURFACE_STYLE_USAGE(.BOTH.,#836);
#827=SURFACE_STYLE_USAGE(.BOTH.,#837);
#828=SURFACE_STYLE_USAGE(.BOTH.,#838);
#829=SURFACE_STYLE_USAGE(.BOTH.,#839);
#830=SURFACE_SIDE_STYLE('',(#840));
#831=SURFACE_SIDE_STYLE('',(#841));
#832=SURFACE_SIDE_STYLE('',(#842));
#833=SURFACE_SIDE_STYLE('',(#843));
#834=SURFACE_SIDE_STYLE('',(#844));
#835=SURFACE_SIDE_STYLE('',(#845));
#836=SURFACE_SIDE_STYLE('',(#846));
#837=SURFACE_SIDE_STYLE('',(#847));
#838=SURFACE_SIDE_STYLE('',(#848));
#839=SURFACE_SIDE_STYLE('',(#849));
#840=SURFACE_STYLE_FILL_AREA(#850);
#841=SURFACE_STYLE_FILL_AREA(#851);
#842=SURFACE_STYLE_FILL_AREA(#852);
#843=SURFACE_STYLE_FILL_AREA(#853);
#844=SURFACE_STYLE_FILL_AREA(#854);
#845=SURFACE_STYLE_FILL_AREA(#855);
#846=SURFACE_STYLE_FILL_AREA(#856);
#847=SURFACE_STYLE_FILL_AREA(#857);
#848=SURFACE_STYLE_FILL_AREA(#858);
#849=SURFACE_STYLE_FILL_AREA(#859);
#850=FILL_AREA_STYLE('Opaque(246,179,39)',(#860));
#851=FILL_AREA_STYLE('Opaque(160,160,160)',(#861));
#852=FILL_AREA_STYLE('Opaque(246,246,243)',(#862));
#853=FILL_AREA_STYLE('Opaque(245,245,246)',(#863));
#854=FILL_AREA_STYLE('Opaque(255,255,255)',(#864));
#855=FILL_AREA_STYLE('Opaque(202,209,238)',(#865));
#856=FILL_AREA_STYLE('Opaque(80,124,105)',(#866));
#857=FILL_AREA_STYLE('Steel - Satin',(#867));
#858=FILL_AREA_STYLE('ABS (Black)',(#868));
#859=FILL_AREA_STYLE('Acrylic (Opaque)',(#869));
#860=FILL_AREA_STYLE_COLOUR('Opaque(246,179,39)',#870);
#861=FILL_AREA_STYLE_COLOUR('Opaque(160,160,160)',#871);
#862=FILL_AREA_STYLE_COLOUR('Opaque(246,246,243)',#872);
#863=FILL_AREA_STYLE_COLOUR('Opaque(245,245,246)',#873);
#864=FILL_AREA_STYLE_COLOUR('Opaque(255,255,255)',#874);
#865=FILL_AREA_STYLE_COLOUR('Opaque(202,209,238)',#875);
#866=FILL_AREA_STYLE_COLOUR('Opaque(80,124,105)',#876);
#867=FILL_AREA_STYLE_COLOUR('Steel - Satin',#877);
#868=FILL_AREA_STYLE_COLOUR('ABS (Black)',#878);
#869=FILL_AREA_STYLE_COLOUR('Acrylic (Opaque)',#879);
#870=COLOUR_RGB('Opaque(246,179,39)',0.964705882352941,0.701960784313725,
0.152941176470588);
#871=COLOUR_RGB('Opaque(160,160,160)',0.627450980392157,0.627450980392157,
0.627450980392157);
#872=COLOUR_RGB('Opaque(246,246,243)',0.964705882352941,0.964705882352941,
0.952941176470588);
#873=COLOUR_RGB('Opaque(245,245,246)',0.96078431372549,0.96078431372549,
0.964705882352941);
#874=COLOUR_RGB('Opaque(255,255,255)',1.,1.,1.);
#875=COLOUR_RGB('Opaque(202,209,238)',0.792156862745098,0.819607843137255,
0.933333333333333);
#876=COLOUR_RGB('Opaque(80,124,105)',0.313725490196078,0.486274509803922,
0.411764705882353);
#877=COLOUR_RGB('Steel - Satin',0.627450980392157,0.627450980392157,0.627450980392157);
#878=COLOUR_RGB('ABS (Black)',0.00784313725490196,0.00784313725490196,0.00784313725490196);
#879=COLOUR_RGB('Acrylic (Opaque)',0.964705882352941,0.964705882352941,
0.952941176470588);
ENDSEC;
END-ISO-10303-21;
