ISO-10303-21;
HEADER;
/* Generated by software containing ST-Developer
 * from STEP Tools, Inc. (www.steptools.com) 
 */

FILE_DESCRIPTION(
/* description */ (''),
/* implementation_level */ '2;1');

FILE_NAME(
/* name */ 'Top.step',
/* time_stamp */ '2025-07-30T12:12:40-05:00',
/* author */ (''),
/* organization */ (''),
/* preprocessor_version */ 'ST-DEVELOPER v20.1',
/* originating_system */ 'Autodesk Translation Framework v14.10.0.0',
/* authorisation */ '');

FILE_SCHEMA (('AUTOMOTIVE_DESIGN { 1 0 10303 214 3 1 1 }'));
ENDSEC;

DATA;
#10=MECHANICAL_DESIGN_GEOMETRIC_PRESENTATION_REPRESENTATION('',(#13),#1663);
#11=SHAPE_REPRESENTATION_RELATIONSHIP('SRR','None',#1669,#12);
#12=ADVANCED_BREP_SHAPE_REPRESENTATION('',(#14),#1662);
#13=STYLED_ITEM('',(#1691),#14);
#14=MANIFOLD_SOLID_BREP('Top',#1055);
#15=FACE_BOUND('',#93,.T.);
#16=FACE_BOUND('',#107,.T.);
#17=FACE_BOUND('',#108,.T.);
#18=FACE_BOUND('',#130,.T.);
#19=FACE_OUTER_BOUND('',#73,.T.);
#20=FACE_OUTER_BOUND('',#74,.T.);
#21=FACE_OUTER_BOUND('',#75,.T.);
#22=FACE_OUTER_BOUND('',#76,.T.);
#23=FACE_OUTER_BOUND('',#77,.T.);
#24=FACE_OUTER_BOUND('',#78,.T.);
#25=FACE_OUTER_BOUND('',#79,.T.);
#26=FACE_OUTER_BOUND('',#80,.T.);
#27=FACE_OUTER_BOUND('',#81,.T.);
#28=FACE_OUTER_BOUND('',#82,.T.);
#29=FACE_OUTER_BOUND('',#83,.T.);
#30=FACE_OUTER_BOUND('',#84,.T.);
#31=FACE_OUTER_BOUND('',#85,.T.);
#32=FACE_OUTER_BOUND('',#86,.T.);
#33=FACE_OUTER_BOUND('',#87,.T.);
#34=FACE_OUTER_BOUND('',#88,.T.);
#35=FACE_OUTER_BOUND('',#89,.T.);
#36=FACE_OUTER_BOUND('',#90,.T.);
#37=FACE_OUTER_BOUND('',#91,.T.);
#38=FACE_OUTER_BOUND('',#92,.T.);
#39=FACE_OUTER_BOUND('',#94,.T.);
#40=FACE_OUTER_BOUND('',#95,.T.);
#41=FACE_OUTER_BOUND('',#96,.T.);
#42=FACE_OUTER_BOUND('',#97,.T.);
#43=FACE_OUTER_BOUND('',#98,.T.);
#44=FACE_OUTER_BOUND('',#99,.T.);
#45=FACE_OUTER_BOUND('',#100,.T.);
#46=FACE_OUTER_BOUND('',#101,.T.);
#47=FACE_OUTER_BOUND('',#102,.T.);
#48=FACE_OUTER_BOUND('',#103,.T.);
#49=FACE_OUTER_BOUND('',#104,.T.);
#50=FACE_OUTER_BOUND('',#105,.T.);
#51=FACE_OUTER_BOUND('',#106,.T.);
#52=FACE_OUTER_BOUND('',#109,.T.);
#53=FACE_OUTER_BOUND('',#110,.T.);
#54=FACE_OUTER_BOUND('',#111,.T.);
#55=FACE_OUTER_BOUND('',#112,.T.);
#56=FACE_OUTER_BOUND('',#113,.T.);
#57=FACE_OUTER_BOUND('',#114,.T.);
#58=FACE_OUTER_BOUND('',#115,.T.);
#59=FACE_OUTER_BOUND('',#116,.T.);
#60=FACE_OUTER_BOUND('',#117,.T.);
#61=FACE_OUTER_BOUND('',#118,.T.);
#62=FACE_OUTER_BOUND('',#119,.T.);
#63=FACE_OUTER_BOUND('',#120,.T.);
#64=FACE_OUTER_BOUND('',#121,.T.);
#65=FACE_OUTER_BOUND('',#122,.T.);
#66=FACE_OUTER_BOUND('',#123,.T.);
#67=FACE_OUTER_BOUND('',#124,.T.);
#68=FACE_OUTER_BOUND('',#125,.T.);
#69=FACE_OUTER_BOUND('',#126,.T.);
#70=FACE_OUTER_BOUND('',#127,.T.);
#71=FACE_OUTER_BOUND('',#128,.T.);
#72=FACE_OUTER_BOUND('',#129,.T.);
#73=EDGE_LOOP('',(#659,#660,#661,#662));
#74=EDGE_LOOP('',(#663,#664,#665,#666));
#75=EDGE_LOOP('',(#667,#668,#669,#670));
#76=EDGE_LOOP('',(#671,#672,#673,#674));
#77=EDGE_LOOP('',(#675,#676,#677,#678));
#78=EDGE_LOOP('',(#679,#680,#681,#682));
#79=EDGE_LOOP('',(#683,#684,#685,#686));
#80=EDGE_LOOP('',(#687,#688,#689,#690));
#81=EDGE_LOOP('',(#691,#692,#693,#694));
#82=EDGE_LOOP('',(#695,#696,#697,#698));
#83=EDGE_LOOP('',(#699,#700,#701,#702));
#84=EDGE_LOOP('',(#703,#704,#705,#706));
#85=EDGE_LOOP('',(#707,#708,#709,#710,#711,#712,#713,#714));
#86=EDGE_LOOP('',(#715,#716,#717,#718,#719,#720,#721,#722));
#87=EDGE_LOOP('',(#723,#724,#725,#726,#727,#728,#729,#730));
#88=EDGE_LOOP('',(#731,#732,#733,#734,#735,#736,#737,#738));
#89=EDGE_LOOP('',(#739,#740,#741,#742,#743,#744,#745,#746));
#90=EDGE_LOOP('',(#747,#748,#749,#750,#751,#752,#753,#754));
#91=EDGE_LOOP('',(#755,#756,#757,#758,#759,#760,#761,#762));
#92=EDGE_LOOP('',(#763,#764,#765,#766));
#93=EDGE_LOOP('',(#767,#768,#769,#770,#771,#772,#773,#774,#775,#776,#777,
#778,#779,#780,#781,#782,#783,#784,#785,#786));
#94=EDGE_LOOP('',(#787,#788,#789,#790,#791,#792,#793,#794,#795,#796,#797,
#798));
#95=EDGE_LOOP('',(#799,#800,#801,#802,#803,#804,#805,#806));
#96=EDGE_LOOP('',(#807,#808,#809,#810));
#97=EDGE_LOOP('',(#811,#812,#813,#814));
#98=EDGE_LOOP('',(#815,#816,#817,#818));
#99=EDGE_LOOP('',(#819,#820,#821,#822));
#100=EDGE_LOOP('',(#823,#824,#825,#826));
#101=EDGE_LOOP('',(#827,#828,#829,#830));
#102=EDGE_LOOP('',(#831,#832,#833,#834));
#103=EDGE_LOOP('',(#835,#836,#837,#838));
#104=EDGE_LOOP('',(#839,#840,#841,#842));
#105=EDGE_LOOP('',(#843,#844,#845,#846));
#106=EDGE_LOOP('',(#847,#848,#849,#850));
#107=EDGE_LOOP('',(#851,#852,#853,#854));
#108=EDGE_LOOP('',(#855,#856,#857,#858));
#109=EDGE_LOOP('',(#859,#860,#861,#862));
#110=EDGE_LOOP('',(#863,#864,#865,#866));
#111=EDGE_LOOP('',(#867,#868,#869,#870));
#112=EDGE_LOOP('',(#871,#872,#873,#874));
#113=EDGE_LOOP('',(#875,#876,#877,#878));
#114=EDGE_LOOP('',(#879,#880,#881,#882));
#115=EDGE_LOOP('',(#883,#884,#885,#886));
#116=EDGE_LOOP('',(#887,#888,#889,#890));
#117=EDGE_LOOP('',(#891,#892,#893,#894));
#118=EDGE_LOOP('',(#895,#896,#897,#898));
#119=EDGE_LOOP('',(#899,#900,#901,#902));
#120=EDGE_LOOP('',(#903,#904,#905,#906));
#121=EDGE_LOOP('',(#907,#908,#909,#910));
#122=EDGE_LOOP('',(#911,#912,#913,#914));
#123=EDGE_LOOP('',(#915,#916,#917,#918));
#124=EDGE_LOOP('',(#919,#920,#921,#922));
#125=EDGE_LOOP('',(#923,#924,#925,#926));
#126=EDGE_LOOP('',(#927,#928,#929,#930));
#127=EDGE_LOOP('',(#931,#932,#933,#934));
#128=EDGE_LOOP('',(#935,#936,#937,#938));
#129=EDGE_LOOP('',(#939,#940,#941,#942));
#130=EDGE_LOOP('',(#943,#944,#945,#946));
#131=LINE('',#1369,#275);
#132=LINE('',#1371,#276);
#133=LINE('',#1373,#277);
#134=LINE('',#1374,#278);
#135=LINE('',#1378,#279);
#136=LINE('',#1380,#280);
#137=LINE('',#1382,#281);
#138=LINE('',#1383,#282);
#139=LINE('',#1385,#283);
#140=LINE('',#1386,#284);
#141=LINE('',#1390,#285);
#142=LINE('',#1392,#286);
#143=LINE('',#1394,#287);
#144=LINE('',#1395,#288);
#145=LINE('',#1399,#289);
#146=LINE('',#1401,#290);
#147=LINE('',#1403,#291);
#148=LINE('',#1404,#292);
#149=LINE('',#1406,#293);
#150=LINE('',#1407,#294);
#151=LINE('',#1411,#295);
#152=LINE('',#1413,#296);
#153=LINE('',#1415,#297);
#154=LINE('',#1416,#298);
#155=LINE('',#1420,#299);
#156=LINE('',#1422,#300);
#157=LINE('',#1424,#301);
#158=LINE('',#1425,#302);
#159=LINE('',#1427,#303);
#160=LINE('',#1428,#304);
#161=LINE('',#1432,#305);
#162=LINE('',#1434,#306);
#163=LINE('',#1436,#307);
#164=LINE('',#1437,#308);
#165=LINE('',#1441,#309);
#166=LINE('',#1443,#310);
#167=LINE('',#1445,#311);
#168=LINE('',#1446,#312);
#169=LINE('',#1448,#313);
#170=LINE('',#1449,#314);
#171=LINE('',#1452,#315);
#172=LINE('',#1454,#316);
#173=LINE('',#1456,#317);
#174=LINE('',#1458,#318);
#175=LINE('',#1459,#319);
#176=LINE('',#1463,#320);
#177=LINE('',#1465,#321);
#178=LINE('',#1466,#322);
#179=LINE('',#1468,#323);
#180=LINE('',#1469,#324);
#181=LINE('',#1472,#325);
#182=LINE('',#1474,#326);
#183=LINE('',#1476,#327);
#184=LINE('',#1478,#328);
#185=LINE('',#1479,#329);
#186=LINE('',#1483,#330);
#187=LINE('',#1485,#331);
#188=LINE('',#1486,#332);
#189=LINE('',#1488,#333);
#190=LINE('',#1489,#334);
#191=LINE('',#1492,#335);
#192=LINE('',#1494,#336);
#193=LINE('',#1495,#337);
#194=LINE('',#1496,#338);
#195=LINE('',#1499,#339);
#196=LINE('',#1501,#340);
#197=LINE('',#1502,#341);
#198=LINE('',#1503,#342);
#199=LINE('',#1505,#343);
#200=LINE('',#1507,#344);
#201=LINE('',#1509,#345);
#202=LINE('',#1510,#346);
#203=LINE('',#1514,#347);
#204=LINE('',#1516,#348);
#205=LINE('',#1518,#349);
#206=LINE('',#1519,#350);
#207=LINE('',#1521,#351);
#208=LINE('',#1522,#352);
#209=LINE('',#1524,#353);
#210=LINE('',#1525,#354);
#211=LINE('',#1527,#355);
#212=LINE('',#1529,#356);
#213=LINE('',#1530,#357);
#214=LINE('',#1532,#358);
#215=LINE('',#1533,#359);
#216=LINE('',#1535,#360);
#217=LINE('',#1538,#361);
#218=LINE('',#1539,#362);
#219=LINE('',#1543,#363);
#220=LINE('',#1545,#364);
#221=LINE('',#1547,#365);
#222=LINE('',#1548,#366);
#223=LINE('',#1551,#367);
#224=LINE('',#1553,#368);
#225=LINE('',#1554,#369);
#226=LINE('',#1557,#370);
#227=LINE('',#1559,#371);
#228=LINE('',#1560,#372);
#229=LINE('',#1562,#373);
#230=LINE('',#1563,#374);
#231=LINE('',#1568,#375);
#232=LINE('',#1570,#376);
#233=LINE('',#1572,#377);
#234=LINE('',#1573,#378);
#235=LINE('',#1576,#379);
#236=LINE('',#1578,#380);
#237=LINE('',#1579,#381);
#238=LINE('',#1582,#382);
#239=LINE('',#1584,#383);
#240=LINE('',#1585,#384);
#241=LINE('',#1587,#385);
#242=LINE('',#1588,#386);
#243=LINE('',#1593,#387);
#244=LINE('',#1595,#388);
#245=LINE('',#1597,#389);
#246=LINE('',#1598,#390);
#247=LINE('',#1602,#391);
#248=LINE('',#1603,#392);
#249=LINE('',#1604,#393);
#250=LINE('',#1607,#394);
#251=LINE('',#1608,#395);
#252=LINE('',#1611,#396);
#253=LINE('',#1612,#397);
#254=LINE('',#1614,#398);
#255=LINE('',#1617,#399);
#256=LINE('',#1618,#400);
#257=LINE('',#1620,#401);
#258=LINE('',#1624,#402);
#259=LINE('',#1625,#403);
#260=LINE('',#1627,#404);
#261=LINE('',#1631,#405);
#262=LINE('',#1632,#406);
#263=LINE('',#1634,#407);
#264=LINE('',#1638,#408);
#265=LINE('',#1639,#409);
#266=LINE('',#1641,#410);
#267=LINE('',#1645,#411);
#268=LINE('',#1647,#412);
#269=LINE('',#1648,#413);
#270=LINE('',#1651,#414);
#271=LINE('',#1652,#415);
#272=LINE('',#1655,#416);
#273=LINE('',#1656,#417);
#274=LINE('',#1658,#418);
#275=VECTOR('',#1115,10.);
#276=VECTOR('',#1116,10.);
#277=VECTOR('',#1117,10.);
#278=VECTOR('',#1118,10.);
#279=VECTOR('',#1121,10.);
#280=VECTOR('',#1122,10.);
#281=VECTOR('',#1123,10.);
#282=VECTOR('',#1124,10.);
#283=VECTOR('',#1127,10.);
#284=VECTOR('',#1128,10.);
#285=VECTOR('',#1131,10.);
#286=VECTOR('',#1132,10.);
#287=VECTOR('',#1133,10.);
#288=VECTOR('',#1134,10.);
#289=VECTOR('',#1137,10.);
#290=VECTOR('',#1138,10.);
#291=VECTOR('',#1139,10.);
#292=VECTOR('',#1140,10.);
#293=VECTOR('',#1143,10.);
#294=VECTOR('',#1144,10.);
#295=VECTOR('',#1147,10.);
#296=VECTOR('',#1148,10.);
#297=VECTOR('',#1149,10.);
#298=VECTOR('',#1150,10.);
#299=VECTOR('',#1153,10.);
#300=VECTOR('',#1154,10.);
#301=VECTOR('',#1155,10.);
#302=VECTOR('',#1156,10.);
#303=VECTOR('',#1159,10.);
#304=VECTOR('',#1160,10.);
#305=VECTOR('',#1163,10.);
#306=VECTOR('',#1164,10.);
#307=VECTOR('',#1165,10.);
#308=VECTOR('',#1166,10.);
#309=VECTOR('',#1169,10.);
#310=VECTOR('',#1170,10.);
#311=VECTOR('',#1171,10.);
#312=VECTOR('',#1172,10.);
#313=VECTOR('',#1175,10.);
#314=VECTOR('',#1176,10.);
#315=VECTOR('',#1179,10.);
#316=VECTOR('',#1180,10.);
#317=VECTOR('',#1181,10.);
#318=VECTOR('',#1182,10.);
#319=VECTOR('',#1183,10.);
#320=VECTOR('',#1186,10.);
#321=VECTOR('',#1187,10.);
#322=VECTOR('',#1188,10.);
#323=VECTOR('',#1189,10.);
#324=VECTOR('',#1190,10.);
#325=VECTOR('',#1193,10.);
#326=VECTOR('',#1194,10.);
#327=VECTOR('',#1195,10.);
#328=VECTOR('',#1196,10.);
#329=VECTOR('',#1197,10.);
#330=VECTOR('',#1200,10.);
#331=VECTOR('',#1201,10.);
#332=VECTOR('',#1202,10.);
#333=VECTOR('',#1203,10.);
#334=VECTOR('',#1204,10.);
#335=VECTOR('',#1207,10.);
#336=VECTOR('',#1208,10.);
#337=VECTOR('',#1209,10.);
#338=VECTOR('',#1210,10.);
#339=VECTOR('',#1213,10.);
#340=VECTOR('',#1214,10.);
#341=VECTOR('',#1215,10.);
#342=VECTOR('',#1216,10.);
#343=VECTOR('',#1219,10.);
#344=VECTOR('',#1220,10.);
#345=VECTOR('',#1221,10.);
#346=VECTOR('',#1222,10.);
#347=VECTOR('',#1225,10.);
#348=VECTOR('',#1226,10.);
#349=VECTOR('',#1227,10.);
#350=VECTOR('',#1228,10.);
#351=VECTOR('',#1229,10.);
#352=VECTOR('',#1230,10.);
#353=VECTOR('',#1231,10.);
#354=VECTOR('',#1232,10.);
#355=VECTOR('',#1233,10.);
#356=VECTOR('',#1234,10.);
#357=VECTOR('',#1235,10.);
#358=VECTOR('',#1236,10.);
#359=VECTOR('',#1237,10.);
#360=VECTOR('',#1240,10.);
#361=VECTOR('',#1243,10.);
#362=VECTOR('',#1244,10.);
#363=VECTOR('',#1247,10.);
#364=VECTOR('',#1248,10.);
#365=VECTOR('',#1249,10.);
#366=VECTOR('',#1250,10.);
#367=VECTOR('',#1253,10.);
#368=VECTOR('',#1254,10.);
#369=VECTOR('',#1255,10.);
#370=VECTOR('',#1258,10.);
#371=VECTOR('',#1259,10.);
#372=VECTOR('',#1260,10.);
#373=VECTOR('',#1263,10.);
#374=VECTOR('',#1264,10.);
#375=VECTOR('',#1269,10.);
#376=VECTOR('',#1270,10.);
#377=VECTOR('',#1271,10.);
#378=VECTOR('',#1272,10.);
#379=VECTOR('',#1275,10.);
#380=VECTOR('',#1276,10.);
#381=VECTOR('',#1277,10.);
#382=VECTOR('',#1280,10.);
#383=VECTOR('',#1281,10.);
#384=VECTOR('',#1282,10.);
#385=VECTOR('',#1285,10.);
#386=VECTOR('',#1286,10.);
#387=VECTOR('',#1291,10.);
#388=VECTOR('',#1292,10.);
#389=VECTOR('',#1293,10.);
#390=VECTOR('',#1294,10.);
#391=VECTOR('',#1297,10.);
#392=VECTOR('',#1298,10.);
#393=VECTOR('',#1299,10.);
#394=VECTOR('',#1302,10.);
#395=VECTOR('',#1303,10.);
#396=VECTOR('',#1306,10.);
#397=VECTOR('',#1307,10.);
#398=VECTOR('',#1310,10.);
#399=VECTOR('',#1313,10.);
#400=VECTOR('',#1314,10.);
#401=VECTOR('',#1317,10.);
#402=VECTOR('',#1322,10.);
#403=VECTOR('',#1323,10.);
#404=VECTOR('',#1326,10.);
#405=VECTOR('',#1331,10.);
#406=VECTOR('',#1332,10.);
#407=VECTOR('',#1335,10.);
#408=VECTOR('',#1340,10.);
#409=VECTOR('',#1341,10.);
#410=VECTOR('',#1344,10.);
#411=VECTOR('',#1349,10.);
#412=VECTOR('',#1350,10.);
#413=VECTOR('',#1351,10.);
#414=VECTOR('',#1354,10.);
#415=VECTOR('',#1355,10.);
#416=VECTOR('',#1358,10.);
#417=VECTOR('',#1359,10.);
#418=VECTOR('',#1362,10.);
#419=VERTEX_POINT('',#1367);
#420=VERTEX_POINT('',#1368);
#421=VERTEX_POINT('',#1370);
#422=VERTEX_POINT('',#1372);
#423=VERTEX_POINT('',#1376);
#424=VERTEX_POINT('',#1377);
#425=VERTEX_POINT('',#1379);
#426=VERTEX_POINT('',#1381);
#427=VERTEX_POINT('',#1388);
#428=VERTEX_POINT('',#1389);
#429=VERTEX_POINT('',#1391);
#430=VERTEX_POINT('',#1393);
#431=VERTEX_POINT('',#1397);
#432=VERTEX_POINT('',#1398);
#433=VERTEX_POINT('',#1400);
#434=VERTEX_POINT('',#1402);
#435=VERTEX_POINT('',#1409);
#436=VERTEX_POINT('',#1410);
#437=VERTEX_POINT('',#1412);
#438=VERTEX_POINT('',#1414);
#439=VERTEX_POINT('',#1418);
#440=VERTEX_POINT('',#1419);
#441=VERTEX_POINT('',#1421);
#442=VERTEX_POINT('',#1423);
#443=VERTEX_POINT('',#1430);
#444=VERTEX_POINT('',#1431);
#445=VERTEX_POINT('',#1433);
#446=VERTEX_POINT('',#1435);
#447=VERTEX_POINT('',#1439);
#448=VERTEX_POINT('',#1440);
#449=VERTEX_POINT('',#1442);
#450=VERTEX_POINT('',#1444);
#451=VERTEX_POINT('',#1451);
#452=VERTEX_POINT('',#1453);
#453=VERTEX_POINT('',#1455);
#454=VERTEX_POINT('',#1457);
#455=VERTEX_POINT('',#1461);
#456=VERTEX_POINT('',#1462);
#457=VERTEX_POINT('',#1464);
#458=VERTEX_POINT('',#1467);
#459=VERTEX_POINT('',#1471);
#460=VERTEX_POINT('',#1473);
#461=VERTEX_POINT('',#1475);
#462=VERTEX_POINT('',#1477);
#463=VERTEX_POINT('',#1481);
#464=VERTEX_POINT('',#1482);
#465=VERTEX_POINT('',#1484);
#466=VERTEX_POINT('',#1487);
#467=VERTEX_POINT('',#1491);
#468=VERTEX_POINT('',#1493);
#469=VERTEX_POINT('',#1498);
#470=VERTEX_POINT('',#1500);
#471=VERTEX_POINT('',#1506);
#472=VERTEX_POINT('',#1508);
#473=VERTEX_POINT('',#1512);
#474=VERTEX_POINT('',#1513);
#475=VERTEX_POINT('',#1515);
#476=VERTEX_POINT('',#1517);
#477=VERTEX_POINT('',#1520);
#478=VERTEX_POINT('',#1523);
#479=VERTEX_POINT('',#1526);
#480=VERTEX_POINT('',#1528);
#481=VERTEX_POINT('',#1531);
#482=VERTEX_POINT('',#1537);
#483=VERTEX_POINT('',#1541);
#484=VERTEX_POINT('',#1542);
#485=VERTEX_POINT('',#1544);
#486=VERTEX_POINT('',#1546);
#487=VERTEX_POINT('',#1550);
#488=VERTEX_POINT('',#1552);
#489=VERTEX_POINT('',#1556);
#490=VERTEX_POINT('',#1558);
#491=VERTEX_POINT('',#1566);
#492=VERTEX_POINT('',#1567);
#493=VERTEX_POINT('',#1569);
#494=VERTEX_POINT('',#1571);
#495=VERTEX_POINT('',#1575);
#496=VERTEX_POINT('',#1577);
#497=VERTEX_POINT('',#1581);
#498=VERTEX_POINT('',#1583);
#499=VERTEX_POINT('',#1591);
#500=VERTEX_POINT('',#1592);
#501=VERTEX_POINT('',#1594);
#502=VERTEX_POINT('',#1596);
#503=VERTEX_POINT('',#1600);
#504=VERTEX_POINT('',#1601);
#505=VERTEX_POINT('',#1606);
#506=VERTEX_POINT('',#1610);
#507=VERTEX_POINT('',#1616);
#508=VERTEX_POINT('',#1623);
#509=VERTEX_POINT('',#1630);
#510=VERTEX_POINT('',#1637);
#511=VERTEX_POINT('',#1644);
#512=VERTEX_POINT('',#1646);
#513=VERTEX_POINT('',#1650);
#514=VERTEX_POINT('',#1654);
#515=EDGE_CURVE('',#419,#420,#131,.T.);
#516=EDGE_CURVE('',#419,#421,#132,.T.);
#517=EDGE_CURVE('',#421,#422,#133,.T.);
#518=EDGE_CURVE('',#420,#422,#134,.T.);
#519=EDGE_CURVE('',#423,#424,#135,.T.);
#520=EDGE_CURVE('',#423,#425,#136,.T.);
#521=EDGE_CURVE('',#425,#426,#137,.T.);
#522=EDGE_CURVE('',#424,#426,#138,.T.);
#523=EDGE_CURVE('',#426,#421,#139,.T.);
#524=EDGE_CURVE('',#422,#425,#140,.T.);
#525=EDGE_CURVE('',#427,#428,#141,.T.);
#526=EDGE_CURVE('',#427,#429,#142,.T.);
#527=EDGE_CURVE('',#429,#430,#143,.T.);
#528=EDGE_CURVE('',#428,#430,#144,.T.);
#529=EDGE_CURVE('',#431,#432,#145,.T.);
#530=EDGE_CURVE('',#431,#433,#146,.T.);
#531=EDGE_CURVE('',#433,#434,#147,.T.);
#532=EDGE_CURVE('',#432,#434,#148,.T.);
#533=EDGE_CURVE('',#434,#429,#149,.T.);
#534=EDGE_CURVE('',#430,#433,#150,.T.);
#535=EDGE_CURVE('',#435,#436,#151,.T.);
#536=EDGE_CURVE('',#435,#437,#152,.T.);
#537=EDGE_CURVE('',#437,#438,#153,.T.);
#538=EDGE_CURVE('',#436,#438,#154,.T.);
#539=EDGE_CURVE('',#439,#440,#155,.T.);
#540=EDGE_CURVE('',#439,#441,#156,.T.);
#541=EDGE_CURVE('',#441,#442,#157,.T.);
#542=EDGE_CURVE('',#440,#442,#158,.T.);
#543=EDGE_CURVE('',#438,#441,#159,.T.);
#544=EDGE_CURVE('',#442,#437,#160,.T.);
#545=EDGE_CURVE('',#443,#444,#161,.T.);
#546=EDGE_CURVE('',#443,#445,#162,.T.);
#547=EDGE_CURVE('',#445,#446,#163,.T.);
#548=EDGE_CURVE('',#444,#446,#164,.T.);
#549=EDGE_CURVE('',#447,#448,#165,.T.);
#550=EDGE_CURVE('',#447,#449,#166,.T.);
#551=EDGE_CURVE('',#449,#450,#167,.T.);
#552=EDGE_CURVE('',#448,#450,#168,.T.);
#553=EDGE_CURVE('',#450,#445,#169,.T.);
#554=EDGE_CURVE('',#446,#449,#170,.T.);
#555=EDGE_CURVE('',#419,#451,#171,.T.);
#556=EDGE_CURVE('',#451,#452,#172,.T.);
#557=EDGE_CURVE('',#453,#452,#173,.T.);
#558=EDGE_CURVE('',#454,#453,#174,.T.);
#559=EDGE_CURVE('',#454,#424,#175,.T.);
#560=EDGE_CURVE('',#455,#456,#176,.T.);
#561=EDGE_CURVE('',#457,#455,#177,.T.);
#562=EDGE_CURVE('',#457,#420,#178,.T.);
#563=EDGE_CURVE('',#423,#458,#179,.T.);
#564=EDGE_CURVE('',#458,#456,#180,.T.);
#565=EDGE_CURVE('',#427,#459,#181,.T.);
#566=EDGE_CURVE('',#459,#460,#182,.T.);
#567=EDGE_CURVE('',#461,#460,#183,.T.);
#568=EDGE_CURVE('',#462,#461,#184,.T.);
#569=EDGE_CURVE('',#462,#432,#185,.T.);
#570=EDGE_CURVE('',#463,#464,#186,.T.);
#571=EDGE_CURVE('',#465,#463,#187,.T.);
#572=EDGE_CURVE('',#465,#428,#188,.T.);
#573=EDGE_CURVE('',#431,#466,#189,.T.);
#574=EDGE_CURVE('',#466,#464,#190,.T.);
#575=EDGE_CURVE('',#435,#467,#191,.T.);
#576=EDGE_CURVE('',#467,#468,#192,.T.);
#577=EDGE_CURVE('',#452,#468,#193,.T.);
#578=EDGE_CURVE('',#451,#440,#194,.T.);
#579=EDGE_CURVE('',#469,#461,#195,.T.);
#580=EDGE_CURVE('',#470,#469,#196,.T.);
#581=EDGE_CURVE('',#470,#436,#197,.T.);
#582=EDGE_CURVE('',#439,#462,#198,.T.);
#583=EDGE_CURVE('',#443,#457,#199,.T.);
#584=EDGE_CURVE('',#471,#455,#200,.T.);
#585=EDGE_CURVE('',#472,#471,#201,.T.);
#586=EDGE_CURVE('',#472,#448,#202,.T.);
#587=EDGE_CURVE('',#473,#474,#203,.T.);
#588=EDGE_CURVE('',#474,#475,#204,.T.);
#589=EDGE_CURVE('',#475,#476,#205,.T.);
#590=EDGE_CURVE('',#476,#473,#206,.T.);
#591=EDGE_CURVE('',#477,#454,#207,.T.);
#592=EDGE_CURVE('',#467,#477,#208,.T.);
#593=EDGE_CURVE('',#478,#470,#209,.T.);
#594=EDGE_CURVE('',#459,#478,#210,.T.);
#595=EDGE_CURVE('',#479,#465,#211,.T.);
#596=EDGE_CURVE('',#480,#479,#212,.T.);
#597=EDGE_CURVE('',#447,#480,#213,.T.);
#598=EDGE_CURVE('',#481,#472,#214,.T.);
#599=EDGE_CURVE('',#458,#481,#215,.T.);
#600=EDGE_CURVE('',#466,#444,#216,.T.);
#601=EDGE_CURVE('',#464,#482,#217,.T.);
#602=EDGE_CURVE('',#480,#482,#218,.T.);
#603=EDGE_CURVE('',#483,#484,#219,.T.);
#604=EDGE_CURVE('',#483,#485,#220,.T.);
#605=EDGE_CURVE('',#485,#486,#221,.T.);
#606=EDGE_CURVE('',#484,#486,#222,.T.);
#607=EDGE_CURVE('',#487,#483,#223,.T.);
#608=EDGE_CURVE('',#487,#488,#224,.T.);
#609=EDGE_CURVE('',#488,#485,#225,.T.);
#610=EDGE_CURVE('',#489,#487,#226,.T.);
#611=EDGE_CURVE('',#489,#490,#227,.T.);
#612=EDGE_CURVE('',#490,#488,#228,.T.);
#613=EDGE_CURVE('',#484,#489,#229,.T.);
#614=EDGE_CURVE('',#486,#490,#230,.T.);
#615=EDGE_CURVE('',#491,#492,#231,.T.);
#616=EDGE_CURVE('',#491,#493,#232,.T.);
#617=EDGE_CURVE('',#493,#494,#233,.T.);
#618=EDGE_CURVE('',#492,#494,#234,.T.);
#619=EDGE_CURVE('',#495,#491,#235,.T.);
#620=EDGE_CURVE('',#495,#496,#236,.T.);
#621=EDGE_CURVE('',#496,#493,#237,.T.);
#622=EDGE_CURVE('',#497,#495,#238,.T.);
#623=EDGE_CURVE('',#497,#498,#239,.T.);
#624=EDGE_CURVE('',#498,#496,#240,.T.);
#625=EDGE_CURVE('',#492,#497,#241,.T.);
#626=EDGE_CURVE('',#494,#498,#242,.T.);
#627=EDGE_CURVE('',#499,#500,#243,.T.);
#628=EDGE_CURVE('',#500,#501,#244,.T.);
#629=EDGE_CURVE('',#501,#502,#245,.T.);
#630=EDGE_CURVE('',#502,#499,#246,.T.);
#631=EDGE_CURVE('',#503,#504,#247,.T.);
#632=EDGE_CURVE('',#503,#499,#248,.T.);
#633=EDGE_CURVE('',#504,#502,#249,.T.);
#634=EDGE_CURVE('',#505,#503,#250,.T.);
#635=EDGE_CURVE('',#505,#500,#251,.T.);
#636=EDGE_CURVE('',#504,#506,#252,.T.);
#637=EDGE_CURVE('',#506,#501,#253,.T.);
#638=EDGE_CURVE('',#506,#505,#254,.T.);
#639=EDGE_CURVE('',#477,#507,#255,.T.);
#640=EDGE_CURVE('',#468,#507,#256,.T.);
#641=EDGE_CURVE('',#507,#453,#257,.T.);
#642=EDGE_CURVE('',#508,#469,#258,.T.);
#643=EDGE_CURVE('',#478,#508,#259,.T.);
#644=EDGE_CURVE('',#460,#508,#260,.T.);
#645=EDGE_CURVE('',#481,#509,#261,.T.);
#646=EDGE_CURVE('',#456,#509,#262,.T.);
#647=EDGE_CURVE('',#509,#471,#263,.T.);
#648=EDGE_CURVE('',#510,#463,#264,.T.);
#649=EDGE_CURVE('',#479,#510,#265,.T.);
#650=EDGE_CURVE('',#482,#510,#266,.T.);
#651=EDGE_CURVE('',#474,#511,#267,.T.);
#652=EDGE_CURVE('',#512,#511,#268,.T.);
#653=EDGE_CURVE('',#475,#512,#269,.T.);
#654=EDGE_CURVE('',#513,#512,#270,.T.);
#655=EDGE_CURVE('',#476,#513,#271,.T.);
#656=EDGE_CURVE('',#514,#513,#272,.T.);
#657=EDGE_CURVE('',#473,#514,#273,.T.);
#658=EDGE_CURVE('',#511,#514,#274,.T.);
#659=ORIENTED_EDGE('',*,*,#515,.F.);
#660=ORIENTED_EDGE('',*,*,#516,.T.);
#661=ORIENTED_EDGE('',*,*,#517,.T.);
#662=ORIENTED_EDGE('',*,*,#518,.F.);
#663=ORIENTED_EDGE('',*,*,#519,.F.);
#664=ORIENTED_EDGE('',*,*,#520,.T.);
#665=ORIENTED_EDGE('',*,*,#521,.T.);
#666=ORIENTED_EDGE('',*,*,#522,.F.);
#667=ORIENTED_EDGE('',*,*,#517,.F.);
#668=ORIENTED_EDGE('',*,*,#523,.F.);
#669=ORIENTED_EDGE('',*,*,#521,.F.);
#670=ORIENTED_EDGE('',*,*,#524,.F.);
#671=ORIENTED_EDGE('',*,*,#525,.F.);
#672=ORIENTED_EDGE('',*,*,#526,.T.);
#673=ORIENTED_EDGE('',*,*,#527,.T.);
#674=ORIENTED_EDGE('',*,*,#528,.F.);
#675=ORIENTED_EDGE('',*,*,#529,.F.);
#676=ORIENTED_EDGE('',*,*,#530,.T.);
#677=ORIENTED_EDGE('',*,*,#531,.T.);
#678=ORIENTED_EDGE('',*,*,#532,.F.);
#679=ORIENTED_EDGE('',*,*,#527,.F.);
#680=ORIENTED_EDGE('',*,*,#533,.F.);
#681=ORIENTED_EDGE('',*,*,#531,.F.);
#682=ORIENTED_EDGE('',*,*,#534,.F.);
#683=ORIENTED_EDGE('',*,*,#535,.F.);
#684=ORIENTED_EDGE('',*,*,#536,.T.);
#685=ORIENTED_EDGE('',*,*,#537,.T.);
#686=ORIENTED_EDGE('',*,*,#538,.F.);
#687=ORIENTED_EDGE('',*,*,#539,.F.);
#688=ORIENTED_EDGE('',*,*,#540,.T.);
#689=ORIENTED_EDGE('',*,*,#541,.T.);
#690=ORIENTED_EDGE('',*,*,#542,.F.);
#691=ORIENTED_EDGE('',*,*,#543,.F.);
#692=ORIENTED_EDGE('',*,*,#537,.F.);
#693=ORIENTED_EDGE('',*,*,#544,.F.);
#694=ORIENTED_EDGE('',*,*,#541,.F.);
#695=ORIENTED_EDGE('',*,*,#545,.F.);
#696=ORIENTED_EDGE('',*,*,#546,.T.);
#697=ORIENTED_EDGE('',*,*,#547,.T.);
#698=ORIENTED_EDGE('',*,*,#548,.F.);
#699=ORIENTED_EDGE('',*,*,#549,.F.);
#700=ORIENTED_EDGE('',*,*,#550,.T.);
#701=ORIENTED_EDGE('',*,*,#551,.T.);
#702=ORIENTED_EDGE('',*,*,#552,.F.);
#703=ORIENTED_EDGE('',*,*,#547,.F.);
#704=ORIENTED_EDGE('',*,*,#553,.F.);
#705=ORIENTED_EDGE('',*,*,#551,.F.);
#706=ORIENTED_EDGE('',*,*,#554,.F.);
#707=ORIENTED_EDGE('',*,*,#555,.T.);
#708=ORIENTED_EDGE('',*,*,#556,.T.);
#709=ORIENTED_EDGE('',*,*,#557,.F.);
#710=ORIENTED_EDGE('',*,*,#558,.F.);
#711=ORIENTED_EDGE('',*,*,#559,.T.);
#712=ORIENTED_EDGE('',*,*,#522,.T.);
#713=ORIENTED_EDGE('',*,*,#523,.T.);
#714=ORIENTED_EDGE('',*,*,#516,.F.);
#715=ORIENTED_EDGE('',*,*,#560,.F.);
#716=ORIENTED_EDGE('',*,*,#561,.F.);
#717=ORIENTED_EDGE('',*,*,#562,.T.);
#718=ORIENTED_EDGE('',*,*,#518,.T.);
#719=ORIENTED_EDGE('',*,*,#524,.T.);
#720=ORIENTED_EDGE('',*,*,#520,.F.);
#721=ORIENTED_EDGE('',*,*,#563,.T.);
#722=ORIENTED_EDGE('',*,*,#564,.T.);
#723=ORIENTED_EDGE('',*,*,#565,.T.);
#724=ORIENTED_EDGE('',*,*,#566,.T.);
#725=ORIENTED_EDGE('',*,*,#567,.F.);
#726=ORIENTED_EDGE('',*,*,#568,.F.);
#727=ORIENTED_EDGE('',*,*,#569,.T.);
#728=ORIENTED_EDGE('',*,*,#532,.T.);
#729=ORIENTED_EDGE('',*,*,#533,.T.);
#730=ORIENTED_EDGE('',*,*,#526,.F.);
#731=ORIENTED_EDGE('',*,*,#570,.F.);
#732=ORIENTED_EDGE('',*,*,#571,.F.);
#733=ORIENTED_EDGE('',*,*,#572,.T.);
#734=ORIENTED_EDGE('',*,*,#528,.T.);
#735=ORIENTED_EDGE('',*,*,#534,.T.);
#736=ORIENTED_EDGE('',*,*,#530,.F.);
#737=ORIENTED_EDGE('',*,*,#573,.T.);
#738=ORIENTED_EDGE('',*,*,#574,.T.);
#739=ORIENTED_EDGE('',*,*,#575,.T.);
#740=ORIENTED_EDGE('',*,*,#576,.T.);
#741=ORIENTED_EDGE('',*,*,#577,.F.);
#742=ORIENTED_EDGE('',*,*,#556,.F.);
#743=ORIENTED_EDGE('',*,*,#578,.T.);
#744=ORIENTED_EDGE('',*,*,#542,.T.);
#745=ORIENTED_EDGE('',*,*,#544,.T.);
#746=ORIENTED_EDGE('',*,*,#536,.F.);
#747=ORIENTED_EDGE('',*,*,#579,.F.);
#748=ORIENTED_EDGE('',*,*,#580,.F.);
#749=ORIENTED_EDGE('',*,*,#581,.T.);
#750=ORIENTED_EDGE('',*,*,#538,.T.);
#751=ORIENTED_EDGE('',*,*,#543,.T.);
#752=ORIENTED_EDGE('',*,*,#540,.F.);
#753=ORIENTED_EDGE('',*,*,#582,.T.);
#754=ORIENTED_EDGE('',*,*,#568,.T.);
#755=ORIENTED_EDGE('',*,*,#583,.T.);
#756=ORIENTED_EDGE('',*,*,#561,.T.);
#757=ORIENTED_EDGE('',*,*,#584,.F.);
#758=ORIENTED_EDGE('',*,*,#585,.F.);
#759=ORIENTED_EDGE('',*,*,#586,.T.);
#760=ORIENTED_EDGE('',*,*,#552,.T.);
#761=ORIENTED_EDGE('',*,*,#553,.T.);
#762=ORIENTED_EDGE('',*,*,#546,.F.);
#763=ORIENTED_EDGE('',*,*,#587,.T.);
#764=ORIENTED_EDGE('',*,*,#588,.T.);
#765=ORIENTED_EDGE('',*,*,#589,.T.);
#766=ORIENTED_EDGE('',*,*,#590,.T.);
#767=ORIENTED_EDGE('',*,*,#519,.T.);
#768=ORIENTED_EDGE('',*,*,#559,.F.);
#769=ORIENTED_EDGE('',*,*,#591,.F.);
#770=ORIENTED_EDGE('',*,*,#592,.F.);
#771=ORIENTED_EDGE('',*,*,#575,.F.);
#772=ORIENTED_EDGE('',*,*,#535,.T.);
#773=ORIENTED_EDGE('',*,*,#581,.F.);
#774=ORIENTED_EDGE('',*,*,#593,.F.);
#775=ORIENTED_EDGE('',*,*,#594,.F.);
#776=ORIENTED_EDGE('',*,*,#565,.F.);
#777=ORIENTED_EDGE('',*,*,#525,.T.);
#778=ORIENTED_EDGE('',*,*,#572,.F.);
#779=ORIENTED_EDGE('',*,*,#595,.F.);
#780=ORIENTED_EDGE('',*,*,#596,.F.);
#781=ORIENTED_EDGE('',*,*,#597,.F.);
#782=ORIENTED_EDGE('',*,*,#549,.T.);
#783=ORIENTED_EDGE('',*,*,#586,.F.);
#784=ORIENTED_EDGE('',*,*,#598,.F.);
#785=ORIENTED_EDGE('',*,*,#599,.F.);
#786=ORIENTED_EDGE('',*,*,#563,.F.);
#787=ORIENTED_EDGE('',*,*,#515,.T.);
#788=ORIENTED_EDGE('',*,*,#562,.F.);
#789=ORIENTED_EDGE('',*,*,#583,.F.);
#790=ORIENTED_EDGE('',*,*,#545,.T.);
#791=ORIENTED_EDGE('',*,*,#600,.F.);
#792=ORIENTED_EDGE('',*,*,#573,.F.);
#793=ORIENTED_EDGE('',*,*,#529,.T.);
#794=ORIENTED_EDGE('',*,*,#569,.F.);
#795=ORIENTED_EDGE('',*,*,#582,.F.);
#796=ORIENTED_EDGE('',*,*,#539,.T.);
#797=ORIENTED_EDGE('',*,*,#578,.F.);
#798=ORIENTED_EDGE('',*,*,#555,.F.);
#799=ORIENTED_EDGE('',*,*,#601,.F.);
#800=ORIENTED_EDGE('',*,*,#574,.F.);
#801=ORIENTED_EDGE('',*,*,#600,.T.);
#802=ORIENTED_EDGE('',*,*,#548,.T.);
#803=ORIENTED_EDGE('',*,*,#554,.T.);
#804=ORIENTED_EDGE('',*,*,#550,.F.);
#805=ORIENTED_EDGE('',*,*,#597,.T.);
#806=ORIENTED_EDGE('',*,*,#602,.T.);
#807=ORIENTED_EDGE('',*,*,#603,.F.);
#808=ORIENTED_EDGE('',*,*,#604,.T.);
#809=ORIENTED_EDGE('',*,*,#605,.T.);
#810=ORIENTED_EDGE('',*,*,#606,.F.);
#811=ORIENTED_EDGE('',*,*,#607,.F.);
#812=ORIENTED_EDGE('',*,*,#608,.T.);
#813=ORIENTED_EDGE('',*,*,#609,.T.);
#814=ORIENTED_EDGE('',*,*,#604,.F.);
#815=ORIENTED_EDGE('',*,*,#610,.F.);
#816=ORIENTED_EDGE('',*,*,#611,.T.);
#817=ORIENTED_EDGE('',*,*,#612,.T.);
#818=ORIENTED_EDGE('',*,*,#608,.F.);
#819=ORIENTED_EDGE('',*,*,#613,.F.);
#820=ORIENTED_EDGE('',*,*,#606,.T.);
#821=ORIENTED_EDGE('',*,*,#614,.T.);
#822=ORIENTED_EDGE('',*,*,#611,.F.);
#823=ORIENTED_EDGE('',*,*,#614,.F.);
#824=ORIENTED_EDGE('',*,*,#605,.F.);
#825=ORIENTED_EDGE('',*,*,#609,.F.);
#826=ORIENTED_EDGE('',*,*,#612,.F.);
#827=ORIENTED_EDGE('',*,*,#615,.F.);
#828=ORIENTED_EDGE('',*,*,#616,.T.);
#829=ORIENTED_EDGE('',*,*,#617,.T.);
#830=ORIENTED_EDGE('',*,*,#618,.F.);
#831=ORIENTED_EDGE('',*,*,#619,.F.);
#832=ORIENTED_EDGE('',*,*,#620,.T.);
#833=ORIENTED_EDGE('',*,*,#621,.T.);
#834=ORIENTED_EDGE('',*,*,#616,.F.);
#835=ORIENTED_EDGE('',*,*,#622,.F.);
#836=ORIENTED_EDGE('',*,*,#623,.T.);
#837=ORIENTED_EDGE('',*,*,#624,.T.);
#838=ORIENTED_EDGE('',*,*,#620,.F.);
#839=ORIENTED_EDGE('',*,*,#625,.F.);
#840=ORIENTED_EDGE('',*,*,#618,.T.);
#841=ORIENTED_EDGE('',*,*,#626,.T.);
#842=ORIENTED_EDGE('',*,*,#623,.F.);
#843=ORIENTED_EDGE('',*,*,#626,.F.);
#844=ORIENTED_EDGE('',*,*,#617,.F.);
#845=ORIENTED_EDGE('',*,*,#621,.F.);
#846=ORIENTED_EDGE('',*,*,#624,.F.);
#847=ORIENTED_EDGE('',*,*,#627,.T.);
#848=ORIENTED_EDGE('',*,*,#628,.T.);
#849=ORIENTED_EDGE('',*,*,#629,.T.);
#850=ORIENTED_EDGE('',*,*,#630,.T.);
#851=ORIENTED_EDGE('',*,*,#603,.T.);
#852=ORIENTED_EDGE('',*,*,#613,.T.);
#853=ORIENTED_EDGE('',*,*,#610,.T.);
#854=ORIENTED_EDGE('',*,*,#607,.T.);
#855=ORIENTED_EDGE('',*,*,#615,.T.);
#856=ORIENTED_EDGE('',*,*,#625,.T.);
#857=ORIENTED_EDGE('',*,*,#622,.T.);
#858=ORIENTED_EDGE('',*,*,#619,.T.);
#859=ORIENTED_EDGE('',*,*,#631,.F.);
#860=ORIENTED_EDGE('',*,*,#632,.T.);
#861=ORIENTED_EDGE('',*,*,#630,.F.);
#862=ORIENTED_EDGE('',*,*,#633,.F.);
#863=ORIENTED_EDGE('',*,*,#634,.F.);
#864=ORIENTED_EDGE('',*,*,#635,.T.);
#865=ORIENTED_EDGE('',*,*,#627,.F.);
#866=ORIENTED_EDGE('',*,*,#632,.F.);
#867=ORIENTED_EDGE('',*,*,#636,.F.);
#868=ORIENTED_EDGE('',*,*,#633,.T.);
#869=ORIENTED_EDGE('',*,*,#629,.F.);
#870=ORIENTED_EDGE('',*,*,#637,.F.);
#871=ORIENTED_EDGE('',*,*,#638,.F.);
#872=ORIENTED_EDGE('',*,*,#637,.T.);
#873=ORIENTED_EDGE('',*,*,#628,.F.);
#874=ORIENTED_EDGE('',*,*,#635,.F.);
#875=ORIENTED_EDGE('',*,*,#592,.T.);
#876=ORIENTED_EDGE('',*,*,#639,.T.);
#877=ORIENTED_EDGE('',*,*,#640,.F.);
#878=ORIENTED_EDGE('',*,*,#576,.F.);
#879=ORIENTED_EDGE('',*,*,#591,.T.);
#880=ORIENTED_EDGE('',*,*,#558,.T.);
#881=ORIENTED_EDGE('',*,*,#641,.F.);
#882=ORIENTED_EDGE('',*,*,#639,.F.);
#883=ORIENTED_EDGE('',*,*,#641,.T.);
#884=ORIENTED_EDGE('',*,*,#557,.T.);
#885=ORIENTED_EDGE('',*,*,#577,.T.);
#886=ORIENTED_EDGE('',*,*,#640,.T.);
#887=ORIENTED_EDGE('',*,*,#593,.T.);
#888=ORIENTED_EDGE('',*,*,#580,.T.);
#889=ORIENTED_EDGE('',*,*,#642,.F.);
#890=ORIENTED_EDGE('',*,*,#643,.F.);
#891=ORIENTED_EDGE('',*,*,#594,.T.);
#892=ORIENTED_EDGE('',*,*,#643,.T.);
#893=ORIENTED_EDGE('',*,*,#644,.F.);
#894=ORIENTED_EDGE('',*,*,#566,.F.);
#895=ORIENTED_EDGE('',*,*,#579,.T.);
#896=ORIENTED_EDGE('',*,*,#567,.T.);
#897=ORIENTED_EDGE('',*,*,#644,.T.);
#898=ORIENTED_EDGE('',*,*,#642,.T.);
#899=ORIENTED_EDGE('',*,*,#599,.T.);
#900=ORIENTED_EDGE('',*,*,#645,.T.);
#901=ORIENTED_EDGE('',*,*,#646,.F.);
#902=ORIENTED_EDGE('',*,*,#564,.F.);
#903=ORIENTED_EDGE('',*,*,#598,.T.);
#904=ORIENTED_EDGE('',*,*,#585,.T.);
#905=ORIENTED_EDGE('',*,*,#647,.F.);
#906=ORIENTED_EDGE('',*,*,#645,.F.);
#907=ORIENTED_EDGE('',*,*,#646,.T.);
#908=ORIENTED_EDGE('',*,*,#647,.T.);
#909=ORIENTED_EDGE('',*,*,#584,.T.);
#910=ORIENTED_EDGE('',*,*,#560,.T.);
#911=ORIENTED_EDGE('',*,*,#595,.T.);
#912=ORIENTED_EDGE('',*,*,#571,.T.);
#913=ORIENTED_EDGE('',*,*,#648,.F.);
#914=ORIENTED_EDGE('',*,*,#649,.F.);
#915=ORIENTED_EDGE('',*,*,#596,.T.);
#916=ORIENTED_EDGE('',*,*,#649,.T.);
#917=ORIENTED_EDGE('',*,*,#650,.F.);
#918=ORIENTED_EDGE('',*,*,#602,.F.);
#919=ORIENTED_EDGE('',*,*,#601,.T.);
#920=ORIENTED_EDGE('',*,*,#650,.T.);
#921=ORIENTED_EDGE('',*,*,#648,.T.);
#922=ORIENTED_EDGE('',*,*,#570,.T.);
#923=ORIENTED_EDGE('',*,*,#588,.F.);
#924=ORIENTED_EDGE('',*,*,#651,.T.);
#925=ORIENTED_EDGE('',*,*,#652,.F.);
#926=ORIENTED_EDGE('',*,*,#653,.F.);
#927=ORIENTED_EDGE('',*,*,#589,.F.);
#928=ORIENTED_EDGE('',*,*,#653,.T.);
#929=ORIENTED_EDGE('',*,*,#654,.F.);
#930=ORIENTED_EDGE('',*,*,#655,.F.);
#931=ORIENTED_EDGE('',*,*,#590,.F.);
#932=ORIENTED_EDGE('',*,*,#655,.T.);
#933=ORIENTED_EDGE('',*,*,#656,.F.);
#934=ORIENTED_EDGE('',*,*,#657,.F.);
#935=ORIENTED_EDGE('',*,*,#587,.F.);
#936=ORIENTED_EDGE('',*,*,#657,.T.);
#937=ORIENTED_EDGE('',*,*,#658,.F.);
#938=ORIENTED_EDGE('',*,*,#651,.F.);
#939=ORIENTED_EDGE('',*,*,#658,.T.);
#940=ORIENTED_EDGE('',*,*,#656,.T.);
#941=ORIENTED_EDGE('',*,*,#654,.T.);
#942=ORIENTED_EDGE('',*,*,#652,.T.);
#943=ORIENTED_EDGE('',*,*,#634,.T.);
#944=ORIENTED_EDGE('',*,*,#631,.T.);
#945=ORIENTED_EDGE('',*,*,#636,.T.);
#946=ORIENTED_EDGE('',*,*,#638,.T.);
#947=PLANE('',#1057);
#948=PLANE('',#1058);
#949=PLANE('',#1059);
#950=PLANE('',#1060);
#951=PLANE('',#1061);
#952=PLANE('',#1062);
#953=PLANE('',#1063);
#954=PLANE('',#1064);
#955=PLANE('',#1065);
#956=PLANE('',#1066);
#957=PLANE('',#1067);
#958=PLANE('',#1068);
#959=PLANE('',#1069);
#960=PLANE('',#1070);
#961=PLANE('',#1071);
#962=PLANE('',#1072);
#963=PLANE('',#1073);
#964=PLANE('',#1074);
#965=PLANE('',#1075);
#966=PLANE('',#1076);
#967=PLANE('',#1077);
#968=PLANE('',#1078);
#969=PLANE('',#1079);
#970=PLANE('',#1080);
#971=PLANE('',#1081);
#972=PLANE('',#1082);
#973=PLANE('',#1083);
#974=PLANE('',#1084);
#975=PLANE('',#1085);
#976=PLANE('',#1086);
#977=PLANE('',#1087);
#978=PLANE('',#1088);
#979=PLANE('',#1089);
#980=PLANE('',#1090);
#981=PLANE('',#1091);
#982=PLANE('',#1092);
#983=PLANE('',#1093);
#984=PLANE('',#1094);
#985=PLANE('',#1095);
#986=PLANE('',#1096);
#987=PLANE('',#1097);
#988=PLANE('',#1098);
#989=PLANE('',#1099);
#990=PLANE('',#1100);
#991=PLANE('',#1101);
#992=PLANE('',#1102);
#993=PLANE('',#1103);
#994=PLANE('',#1104);
#995=PLANE('',#1105);
#996=PLANE('',#1106);
#997=PLANE('',#1107);
#998=PLANE('',#1108);
#999=PLANE('',#1109);
#1000=PLANE('',#1110);
#1001=ADVANCED_FACE('',(#19),#947,.F.);
#1002=ADVANCED_FACE('',(#20),#948,.F.);
#1003=ADVANCED_FACE('',(#21),#949,.F.);
#1004=ADVANCED_FACE('',(#22),#950,.F.);
#1005=ADVANCED_FACE('',(#23),#951,.F.);
#1006=ADVANCED_FACE('',(#24),#952,.F.);
#1007=ADVANCED_FACE('',(#25),#953,.F.);
#1008=ADVANCED_FACE('',(#26),#954,.F.);
#1009=ADVANCED_FACE('',(#27),#955,.F.);
#1010=ADVANCED_FACE('',(#28),#956,.F.);
#1011=ADVANCED_FACE('',(#29),#957,.F.);
#1012=ADVANCED_FACE('',(#30),#958,.F.);
#1013=ADVANCED_FACE('',(#31),#959,.T.);
#1014=ADVANCED_FACE('',(#32),#960,.T.);
#1015=ADVANCED_FACE('',(#33),#961,.T.);
#1016=ADVANCED_FACE('',(#34),#962,.T.);
#1017=ADVANCED_FACE('',(#35),#963,.T.);
#1018=ADVANCED_FACE('',(#36),#964,.T.);
#1019=ADVANCED_FACE('',(#37),#965,.T.);
#1020=ADVANCED_FACE('',(#38,#15),#966,.F.);
#1021=ADVANCED_FACE('',(#39),#967,.F.);
#1022=ADVANCED_FACE('',(#40),#968,.T.);
#1023=ADVANCED_FACE('',(#41),#969,.F.);
#1024=ADVANCED_FACE('',(#42),#970,.F.);
#1025=ADVANCED_FACE('',(#43),#971,.F.);
#1026=ADVANCED_FACE('',(#44),#972,.F.);
#1027=ADVANCED_FACE('',(#45),#973,.F.);
#1028=ADVANCED_FACE('',(#46),#974,.F.);
#1029=ADVANCED_FACE('',(#47),#975,.F.);
#1030=ADVANCED_FACE('',(#48),#976,.F.);
#1031=ADVANCED_FACE('',(#49),#977,.F.);
#1032=ADVANCED_FACE('',(#50),#978,.F.);
#1033=ADVANCED_FACE('',(#51,#16,#17),#979,.T.);
#1034=ADVANCED_FACE('',(#52),#980,.T.);
#1035=ADVANCED_FACE('',(#53),#981,.T.);
#1036=ADVANCED_FACE('',(#54),#982,.T.);
#1037=ADVANCED_FACE('',(#55),#983,.T.);
#1038=ADVANCED_FACE('',(#56),#984,.T.);
#1039=ADVANCED_FACE('',(#57),#985,.T.);
#1040=ADVANCED_FACE('',(#58),#986,.T.);
#1041=ADVANCED_FACE('',(#59),#987,.T.);
#1042=ADVANCED_FACE('',(#60),#988,.T.);
#1043=ADVANCED_FACE('',(#61),#989,.T.);
#1044=ADVANCED_FACE('',(#62),#990,.T.);
#1045=ADVANCED_FACE('',(#63),#991,.T.);
#1046=ADVANCED_FACE('',(#64),#992,.T.);
#1047=ADVANCED_FACE('',(#65),#993,.T.);
#1048=ADVANCED_FACE('',(#66),#994,.T.);
#1049=ADVANCED_FACE('',(#67),#995,.T.);
#1050=ADVANCED_FACE('',(#68),#996,.T.);
#1051=ADVANCED_FACE('',(#69),#997,.T.);
#1052=ADVANCED_FACE('',(#70),#998,.T.);
#1053=ADVANCED_FACE('',(#71),#999,.T.);
#1054=ADVANCED_FACE('',(#72,#18),#1000,.T.);
#1055=CLOSED_SHELL('',(#1001,#1002,#1003,#1004,#1005,#1006,#1007,#1008,
#1009,#1010,#1011,#1012,#1013,#1014,#1015,#1016,#1017,#1018,#1019,#1020,
#1021,#1022,#1023,#1024,#1025,#1026,#1027,#1028,#1029,#1030,#1031,#1032,
#1033,#1034,#1035,#1036,#1037,#1038,#1039,#1040,#1041,#1042,#1043,#1044,
#1045,#1046,#1047,#1048,#1049,#1050,#1051,#1052,#1053,#1054));
#1056=AXIS2_PLACEMENT_3D('',#1365,#1111,#1112);
#1057=AXIS2_PLACEMENT_3D('',#1366,#1113,#1114);
#1058=AXIS2_PLACEMENT_3D('',#1375,#1119,#1120);
#1059=AXIS2_PLACEMENT_3D('',#1384,#1125,#1126);
#1060=AXIS2_PLACEMENT_3D('',#1387,#1129,#1130);
#1061=AXIS2_PLACEMENT_3D('',#1396,#1135,#1136);
#1062=AXIS2_PLACEMENT_3D('',#1405,#1141,#1142);
#1063=AXIS2_PLACEMENT_3D('',#1408,#1145,#1146);
#1064=AXIS2_PLACEMENT_3D('',#1417,#1151,#1152);
#1065=AXIS2_PLACEMENT_3D('',#1426,#1157,#1158);
#1066=AXIS2_PLACEMENT_3D('',#1429,#1161,#1162);
#1067=AXIS2_PLACEMENT_3D('',#1438,#1167,#1168);
#1068=AXIS2_PLACEMENT_3D('',#1447,#1173,#1174);
#1069=AXIS2_PLACEMENT_3D('',#1450,#1177,#1178);
#1070=AXIS2_PLACEMENT_3D('',#1460,#1184,#1185);
#1071=AXIS2_PLACEMENT_3D('',#1470,#1191,#1192);
#1072=AXIS2_PLACEMENT_3D('',#1480,#1198,#1199);
#1073=AXIS2_PLACEMENT_3D('',#1490,#1205,#1206);
#1074=AXIS2_PLACEMENT_3D('',#1497,#1211,#1212);
#1075=AXIS2_PLACEMENT_3D('',#1504,#1217,#1218);
#1076=AXIS2_PLACEMENT_3D('',#1511,#1223,#1224);
#1077=AXIS2_PLACEMENT_3D('',#1534,#1238,#1239);
#1078=AXIS2_PLACEMENT_3D('',#1536,#1241,#1242);
#1079=AXIS2_PLACEMENT_3D('',#1540,#1245,#1246);
#1080=AXIS2_PLACEMENT_3D('',#1549,#1251,#1252);
#1081=AXIS2_PLACEMENT_3D('',#1555,#1256,#1257);
#1082=AXIS2_PLACEMENT_3D('',#1561,#1261,#1262);
#1083=AXIS2_PLACEMENT_3D('',#1564,#1265,#1266);
#1084=AXIS2_PLACEMENT_3D('',#1565,#1267,#1268);
#1085=AXIS2_PLACEMENT_3D('',#1574,#1273,#1274);
#1086=AXIS2_PLACEMENT_3D('',#1580,#1278,#1279);
#1087=AXIS2_PLACEMENT_3D('',#1586,#1283,#1284);
#1088=AXIS2_PLACEMENT_3D('',#1589,#1287,#1288);
#1089=AXIS2_PLACEMENT_3D('',#1590,#1289,#1290);
#1090=AXIS2_PLACEMENT_3D('',#1599,#1295,#1296);
#1091=AXIS2_PLACEMENT_3D('',#1605,#1300,#1301);
#1092=AXIS2_PLACEMENT_3D('',#1609,#1304,#1305);
#1093=AXIS2_PLACEMENT_3D('',#1613,#1308,#1309);
#1094=AXIS2_PLACEMENT_3D('',#1615,#1311,#1312);
#1095=AXIS2_PLACEMENT_3D('',#1619,#1315,#1316);
#1096=AXIS2_PLACEMENT_3D('',#1621,#1318,#1319);
#1097=AXIS2_PLACEMENT_3D('',#1622,#1320,#1321);
#1098=AXIS2_PLACEMENT_3D('',#1626,#1324,#1325);
#1099=AXIS2_PLACEMENT_3D('',#1628,#1327,#1328);
#1100=AXIS2_PLACEMENT_3D('',#1629,#1329,#1330);
#1101=AXIS2_PLACEMENT_3D('',#1633,#1333,#1334);
#1102=AXIS2_PLACEMENT_3D('',#1635,#1336,#1337);
#1103=AXIS2_PLACEMENT_3D('',#1636,#1338,#1339);
#1104=AXIS2_PLACEMENT_3D('',#1640,#1342,#1343);
#1105=AXIS2_PLACEMENT_3D('',#1642,#1345,#1346);
#1106=AXIS2_PLACEMENT_3D('',#1643,#1347,#1348);
#1107=AXIS2_PLACEMENT_3D('',#1649,#1352,#1353);
#1108=AXIS2_PLACEMENT_3D('',#1653,#1356,#1357);
#1109=AXIS2_PLACEMENT_3D('',#1657,#1360,#1361);
#1110=AXIS2_PLACEMENT_3D('',#1659,#1363,#1364);
#1111=DIRECTION('axis',(0.,0.,1.));
#1112=DIRECTION('refdir',(1.,0.,0.));
#1113=DIRECTION('center_axis',(0.,1.,0.));
#1114=DIRECTION('ref_axis',(-1.,0.,0.));
#1115=DIRECTION('',(-1.,0.,0.));
#1116=DIRECTION('',(0.,0.,1.));
#1117=DIRECTION('',(-1.,0.,0.));
#1118=DIRECTION('',(0.,0.,1.));
#1119=DIRECTION('center_axis',(0.,-1.,0.));
#1120=DIRECTION('ref_axis',(1.,0.,0.));
#1121=DIRECTION('',(1.,0.,0.));
#1122=DIRECTION('',(0.,0.,1.));
#1123=DIRECTION('',(1.,0.,0.));
#1124=DIRECTION('',(0.,0.,1.));
#1125=DIRECTION('center_axis',(0.,0.,1.));
#1126=DIRECTION('ref_axis',(1.,0.,0.));
#1127=DIRECTION('',(0.,1.,0.));
#1128=DIRECTION('',(0.,-1.,0.));
#1129=DIRECTION('center_axis',(0.,1.,0.));
#1130=DIRECTION('ref_axis',(-1.,0.,0.));
#1131=DIRECTION('',(-1.,0.,0.));
#1132=DIRECTION('',(0.,0.,1.));
#1133=DIRECTION('',(-1.,0.,0.));
#1134=DIRECTION('',(0.,0.,1.));
#1135=DIRECTION('center_axis',(0.,-1.,0.));
#1136=DIRECTION('ref_axis',(1.,0.,0.));
#1137=DIRECTION('',(1.,0.,0.));
#1138=DIRECTION('',(0.,0.,1.));
#1139=DIRECTION('',(1.,0.,0.));
#1140=DIRECTION('',(0.,0.,1.));
#1141=DIRECTION('center_axis',(0.,0.,1.));
#1142=DIRECTION('ref_axis',(1.,0.,0.));
#1143=DIRECTION('',(0.,1.,0.));
#1144=DIRECTION('',(0.,-1.,0.));
#1145=DIRECTION('center_axis',(1.,0.,0.));
#1146=DIRECTION('ref_axis',(0.,1.,0.));
#1147=DIRECTION('',(0.,1.,0.));
#1148=DIRECTION('',(0.,0.,1.));
#1149=DIRECTION('',(0.,1.,0.));
#1150=DIRECTION('',(0.,0.,1.));
#1151=DIRECTION('center_axis',(-1.,0.,0.));
#1152=DIRECTION('ref_axis',(0.,-1.,0.));
#1153=DIRECTION('',(0.,-1.,0.));
#1154=DIRECTION('',(0.,0.,1.));
#1155=DIRECTION('',(0.,-1.,0.));
#1156=DIRECTION('',(0.,0.,1.));
#1157=DIRECTION('center_axis',(0.,0.,1.));
#1158=DIRECTION('ref_axis',(1.,0.,0.));
#1159=DIRECTION('',(-1.,0.,0.));
#1160=DIRECTION('',(1.,0.,0.));
#1161=DIRECTION('center_axis',(1.,0.,0.));
#1162=DIRECTION('ref_axis',(0.,1.,0.));
#1163=DIRECTION('',(0.,1.,0.));
#1164=DIRECTION('',(0.,0.,1.));
#1165=DIRECTION('',(0.,1.,0.));
#1166=DIRECTION('',(0.,0.,1.));
#1167=DIRECTION('center_axis',(-1.,0.,0.));
#1168=DIRECTION('ref_axis',(0.,-1.,0.));
#1169=DIRECTION('',(0.,-1.,0.));
#1170=DIRECTION('',(0.,0.,1.));
#1171=DIRECTION('',(0.,-1.,0.));
#1172=DIRECTION('',(0.,0.,1.));
#1173=DIRECTION('center_axis',(0.,0.,1.));
#1174=DIRECTION('ref_axis',(1.,0.,0.));
#1175=DIRECTION('',(1.,0.,0.));
#1176=DIRECTION('',(-1.,0.,0.));
#1177=DIRECTION('center_axis',(-1.,0.,0.));
#1178=DIRECTION('ref_axis',(0.,1.,0.));
#1179=DIRECTION('',(0.,1.,0.));
#1180=DIRECTION('',(0.,0.,-1.));
#1181=DIRECTION('',(0.,1.,0.));
#1182=DIRECTION('',(0.,0.,-1.));
#1183=DIRECTION('',(0.,1.,0.));
#1184=DIRECTION('center_axis',(1.,0.,0.));
#1185=DIRECTION('ref_axis',(0.,-1.,0.));
#1186=DIRECTION('',(0.,-1.,0.));
#1187=DIRECTION('',(0.,0.,-1.));
#1188=DIRECTION('',(0.,-1.,0.));
#1189=DIRECTION('',(0.,-1.,0.));
#1190=DIRECTION('',(0.,0.,-1.));
#1191=DIRECTION('center_axis',(-1.,0.,0.));
#1192=DIRECTION('ref_axis',(0.,1.,0.));
#1193=DIRECTION('',(0.,1.,0.));
#1194=DIRECTION('',(0.,0.,-1.));
#1195=DIRECTION('',(0.,1.,0.));
#1196=DIRECTION('',(0.,0.,-1.));
#1197=DIRECTION('',(0.,1.,0.));
#1198=DIRECTION('center_axis',(1.,0.,0.));
#1199=DIRECTION('ref_axis',(0.,-1.,0.));
#1200=DIRECTION('',(0.,-1.,0.));
#1201=DIRECTION('',(0.,0.,-1.));
#1202=DIRECTION('',(0.,-1.,0.));
#1203=DIRECTION('',(0.,-1.,0.));
#1204=DIRECTION('',(0.,0.,-1.));
#1205=DIRECTION('center_axis',(0.,1.,0.));
#1206=DIRECTION('ref_axis',(1.,0.,0.));
#1207=DIRECTION('',(1.,0.,0.));
#1208=DIRECTION('',(0.,0.,-1.));
#1209=DIRECTION('',(1.,0.,0.));
#1210=DIRECTION('',(1.,0.,0.));
#1211=DIRECTION('center_axis',(0.,-1.,0.));
#1212=DIRECTION('ref_axis',(-1.,0.,0.));
#1213=DIRECTION('',(-1.,0.,0.));
#1214=DIRECTION('',(0.,0.,-1.));
#1215=DIRECTION('',(-1.,0.,0.));
#1216=DIRECTION('',(-1.,0.,0.));
#1217=DIRECTION('center_axis',(0.,1.,0.));
#1218=DIRECTION('ref_axis',(1.,0.,0.));
#1219=DIRECTION('',(1.,0.,0.));
#1220=DIRECTION('',(1.,0.,0.));
#1221=DIRECTION('',(0.,0.,-1.));
#1222=DIRECTION('',(1.,0.,0.));
#1223=DIRECTION('center_axis',(0.,0.,1.));
#1224=DIRECTION('ref_axis',(1.,0.,0.));
#1225=DIRECTION('',(-1.,0.,0.));
#1226=DIRECTION('',(0.,1.,0.));
#1227=DIRECTION('',(1.,0.,0.));
#1228=DIRECTION('',(0.,-1.,0.));
#1229=DIRECTION('',(-1.,0.,0.));
#1230=DIRECTION('',(0.,-1.,0.));
#1231=DIRECTION('',(0.,-1.,0.));
#1232=DIRECTION('',(1.,0.,0.));
#1233=DIRECTION('',(1.,0.,0.));
#1234=DIRECTION('',(0.,1.,0.));
#1235=DIRECTION('',(-1.,0.,0.));
#1236=DIRECTION('',(0.,1.,0.));
#1237=DIRECTION('',(-1.,0.,0.));
#1238=DIRECTION('center_axis',(0.,0.,1.));
#1239=DIRECTION('ref_axis',(1.,0.,0.));
#1240=DIRECTION('',(-1.,0.,0.));
#1241=DIRECTION('center_axis',(0.,-1.,0.));
#1242=DIRECTION('ref_axis',(-1.,0.,0.));
#1243=DIRECTION('',(-1.,0.,0.));
#1244=DIRECTION('',(0.,0.,-1.));
#1245=DIRECTION('center_axis',(0.707106781186549,0.707106781186546,0.));
#1246=DIRECTION('ref_axis',(0.707106781186546,-0.707106781186549,0.));
#1247=DIRECTION('',(0.707106781186546,-0.707106781186549,0.));
#1248=DIRECTION('',(0.,0.,-1.));
#1249=DIRECTION('',(0.707106781186546,-0.707106781186549,0.));
#1250=DIRECTION('',(0.,0.,-1.));
#1251=DIRECTION('center_axis',(-0.707106781186547,0.707106781186548,0.));
#1252=DIRECTION('ref_axis',(0.707106781186548,0.707106781186547,0.));
#1253=DIRECTION('',(0.707106781186548,0.707106781186547,0.));
#1254=DIRECTION('',(0.,0.,-1.));
#1255=DIRECTION('',(0.707106781186548,0.707106781186547,0.));
#1256=DIRECTION('center_axis',(-0.70710678118655,-0.707106781186545,0.));
#1257=DIRECTION('ref_axis',(-0.707106781186545,0.70710678118655,0.));
#1258=DIRECTION('',(-0.707106781186545,0.70710678118655,0.));
#1259=DIRECTION('',(0.,0.,-1.));
#1260=DIRECTION('',(-0.707106781186545,0.70710678118655,0.));
#1261=DIRECTION('center_axis',(0.707106781186546,-0.707106781186549,0.));
#1262=DIRECTION('ref_axis',(-0.707106781186549,-0.707106781186546,0.));
#1263=DIRECTION('',(-0.707106781186549,-0.707106781186546,0.));
#1264=DIRECTION('',(-0.707106781186549,-0.707106781186546,0.));
#1265=DIRECTION('center_axis',(0.,0.,-1.));
#1266=DIRECTION('ref_axis',(-1.,0.,0.));
#1267=DIRECTION('center_axis',(-0.707106781186545,0.70710678118655,0.));
#1268=DIRECTION('ref_axis',(0.70710678118655,0.707106781186545,0.));
#1269=DIRECTION('',(0.70710678118655,0.707106781186545,0.));
#1270=DIRECTION('',(0.,0.,-1.));
#1271=DIRECTION('',(0.70710678118655,0.707106781186545,0.));
#1272=DIRECTION('',(0.,0.,-1.));
#1273=DIRECTION('center_axis',(-0.707106781186548,-0.707106781186548,0.));
#1274=DIRECTION('ref_axis',(-0.707106781186548,0.707106781186548,0.));
#1275=DIRECTION('',(-0.707106781186548,0.707106781186548,0.));
#1276=DIRECTION('',(0.,0.,-1.));
#1277=DIRECTION('',(-0.707106781186548,0.707106781186548,0.));
#1278=DIRECTION('center_axis',(0.707106781186547,-0.707106781186548,0.));
#1279=DIRECTION('ref_axis',(-0.707106781186548,-0.707106781186547,0.));
#1280=DIRECTION('',(-0.707106781186548,-0.707106781186547,0.));
#1281=DIRECTION('',(0.,0.,-1.));
#1282=DIRECTION('',(-0.707106781186548,-0.707106781186547,0.));
#1283=DIRECTION('center_axis',(0.707106781186549,0.707106781186546,0.));
#1284=DIRECTION('ref_axis',(0.707106781186546,-0.707106781186549,0.));
#1285=DIRECTION('',(0.707106781186546,-0.707106781186549,0.));
#1286=DIRECTION('',(0.707106781186546,-0.707106781186549,0.));
#1287=DIRECTION('center_axis',(0.,0.,-1.));
#1288=DIRECTION('ref_axis',(-1.,0.,0.));
#1289=DIRECTION('center_axis',(0.,0.,1.));
#1290=DIRECTION('ref_axis',(1.,0.,0.));
#1291=DIRECTION('',(1.,0.,0.));
#1292=DIRECTION('',(0.,1.,0.));
#1293=DIRECTION('',(-1.,0.,0.));
#1294=DIRECTION('',(0.,-1.,0.));
#1295=DIRECTION('center_axis',(-1.,0.,0.));
#1296=DIRECTION('ref_axis',(0.,-1.,0.));
#1297=DIRECTION('',(0.,1.,0.));
#1298=DIRECTION('',(0.,0.,1.));
#1299=DIRECTION('',(0.,0.,1.));
#1300=DIRECTION('center_axis',(0.,-1.,0.));
#1301=DIRECTION('ref_axis',(1.,0.,0.));
#1302=DIRECTION('',(-1.,0.,0.));
#1303=DIRECTION('',(0.,0.,1.));
#1304=DIRECTION('center_axis',(0.,1.,0.));
#1305=DIRECTION('ref_axis',(-1.,0.,0.));
#1306=DIRECTION('',(1.,0.,0.));
#1307=DIRECTION('',(0.,0.,1.));
#1308=DIRECTION('center_axis',(1.,0.,0.));
#1309=DIRECTION('ref_axis',(0.,1.,0.));
#1310=DIRECTION('',(0.,-1.,0.));
#1311=DIRECTION('center_axis',(1.,0.,0.));
#1312=DIRECTION('ref_axis',(0.,-1.,0.));
#1313=DIRECTION('',(0.,0.,-1.));
#1314=DIRECTION('',(0.,-1.,0.));
#1315=DIRECTION('center_axis',(0.,-1.,0.));
#1316=DIRECTION('ref_axis',(-1.,0.,0.));
#1317=DIRECTION('',(-1.,0.,0.));
#1318=DIRECTION('center_axis',(0.,0.,-1.));
#1319=DIRECTION('ref_axis',(-1.,0.,0.));
#1320=DIRECTION('center_axis',(1.,0.,0.));
#1321=DIRECTION('ref_axis',(0.,-1.,0.));
#1322=DIRECTION('',(0.,-1.,0.));
#1323=DIRECTION('',(0.,0.,-1.));
#1324=DIRECTION('center_axis',(0.,1.,0.));
#1325=DIRECTION('ref_axis',(1.,0.,0.));
#1326=DIRECTION('',(1.,0.,0.));
#1327=DIRECTION('center_axis',(0.,0.,-1.));
#1328=DIRECTION('ref_axis',(-1.,0.,0.));
#1329=DIRECTION('center_axis',(0.,-1.,0.));
#1330=DIRECTION('ref_axis',(-1.,0.,0.));
#1331=DIRECTION('',(0.,0.,-1.));
#1332=DIRECTION('',(-1.,0.,0.));
#1333=DIRECTION('center_axis',(-1.,0.,0.));
#1334=DIRECTION('ref_axis',(0.,1.,0.));
#1335=DIRECTION('',(0.,1.,0.));
#1336=DIRECTION('center_axis',(0.,0.,-1.));
#1337=DIRECTION('ref_axis',(-1.,0.,0.));
#1338=DIRECTION('center_axis',(0.,1.,0.));
#1339=DIRECTION('ref_axis',(1.,0.,0.));
#1340=DIRECTION('',(1.,0.,0.));
#1341=DIRECTION('',(0.,0.,-1.));
#1342=DIRECTION('center_axis',(-1.,0.,0.));
#1343=DIRECTION('ref_axis',(0.,1.,0.));
#1344=DIRECTION('',(0.,1.,0.));
#1345=DIRECTION('center_axis',(0.,0.,-1.));
#1346=DIRECTION('ref_axis',(-1.,0.,0.));
#1347=DIRECTION('center_axis',(-1.,0.,0.));
#1348=DIRECTION('ref_axis',(0.,-1.,0.));
#1349=DIRECTION('',(0.,0.,1.));
#1350=DIRECTION('',(0.,-1.,0.));
#1351=DIRECTION('',(0.,0.,1.));
#1352=DIRECTION('center_axis',(0.,1.,0.));
#1353=DIRECTION('ref_axis',(-1.,0.,0.));
#1354=DIRECTION('',(-1.,0.,0.));
#1355=DIRECTION('',(0.,0.,1.));
#1356=DIRECTION('center_axis',(1.,0.,0.));
#1357=DIRECTION('ref_axis',(0.,1.,0.));
#1358=DIRECTION('',(0.,1.,0.));
#1359=DIRECTION('',(0.,0.,1.));
#1360=DIRECTION('center_axis',(0.,-1.,0.));
#1361=DIRECTION('ref_axis',(1.,0.,0.));
#1362=DIRECTION('',(1.,0.,0.));
#1363=DIRECTION('center_axis',(0.,0.,1.));
#1364=DIRECTION('ref_axis',(1.,0.,0.));
#1365=CARTESIAN_POINT('',(0.,0.,0.));
#1366=CARTESIAN_POINT('Origin',(-52.1988921480572,-138.264537343253,0.));
#1367=CARTESIAN_POINT('',(-52.1988921480572,-138.264537343253,90.));
#1368=CARTESIAN_POINT('',(-119.698892148057,-138.264537343253,90.));
#1369=CARTESIAN_POINT('',(-69.0738921480572,-138.264537343253,90.));
#1370=CARTESIAN_POINT('',(-52.1988921480572,-138.264537343253,92.));
#1371=CARTESIAN_POINT('',(-52.1988921480572,-138.264537343253,0.));
#1372=CARTESIAN_POINT('',(-119.698892148057,-138.264537343253,92.));
#1373=CARTESIAN_POINT('',(-119.698892148057,-138.264537343253,92.));
#1374=CARTESIAN_POINT('',(-119.698892148057,-138.264537343253,0.));
#1375=CARTESIAN_POINT('Origin',(-119.698892148057,-140.264537343253,0.));
#1376=CARTESIAN_POINT('',(-119.698892148057,-140.264537343253,90.));
#1377=CARTESIAN_POINT('',(-52.1988921480572,-140.264537343253,90.));
#1378=CARTESIAN_POINT('',(-102.823892148057,-140.264537343253,90.));
#1379=CARTESIAN_POINT('',(-119.698892148057,-140.264537343253,92.));
#1380=CARTESIAN_POINT('',(-119.698892148057,-140.264537343253,0.));
#1381=CARTESIAN_POINT('',(-52.1988921480572,-140.264537343253,92.));
#1382=CARTESIAN_POINT('',(-52.1988921480572,-140.264537343253,92.));
#1383=CARTESIAN_POINT('',(-52.1988921480572,-140.264537343253,0.));
#1384=CARTESIAN_POINT('Origin',(-85.9488921480572,-139.264537343253,92.));
#1385=CARTESIAN_POINT('',(-52.1988921480572,-138.264537343253,92.));
#1386=CARTESIAN_POINT('',(-119.698892148057,-140.264537343253,92.));
#1387=CARTESIAN_POINT('Origin',(-52.1988921480572,-63.2645373432528,0.));
#1388=CARTESIAN_POINT('',(-52.1988921480572,-63.2645373432528,90.));
#1389=CARTESIAN_POINT('',(-119.698892148057,-63.2645373432528,90.));
#1390=CARTESIAN_POINT('',(-69.0738921480572,-63.2645373432528,90.));
#1391=CARTESIAN_POINT('',(-52.1988921480572,-63.2645373432528,92.));
#1392=CARTESIAN_POINT('',(-52.1988921480572,-63.2645373432528,0.));
#1393=CARTESIAN_POINT('',(-119.698892148057,-63.2645373432528,92.));
#1394=CARTESIAN_POINT('',(-119.698892148057,-63.2645373432528,92.));
#1395=CARTESIAN_POINT('',(-119.698892148057,-63.2645373432528,0.));
#1396=CARTESIAN_POINT('Origin',(-119.698892148057,-65.2645373432528,0.));
#1397=CARTESIAN_POINT('',(-119.698892148057,-65.2645373432528,90.));
#1398=CARTESIAN_POINT('',(-52.1988921480572,-65.2645373432528,90.));
#1399=CARTESIAN_POINT('',(-102.823892148057,-65.2645373432528,90.));
#1400=CARTESIAN_POINT('',(-119.698892148057,-65.2645373432528,92.));
#1401=CARTESIAN_POINT('',(-119.698892148057,-65.2645373432528,0.));
#1402=CARTESIAN_POINT('',(-52.1988921480572,-65.2645373432528,92.));
#1403=CARTESIAN_POINT('',(-52.1988921480572,-65.2645373432528,92.));
#1404=CARTESIAN_POINT('',(-52.1988921480572,-65.2645373432528,0.));
#1405=CARTESIAN_POINT('Origin',(-85.9488921480572,-64.2645373432528,92.));
#1406=CARTESIAN_POINT('',(-52.1988921480572,-63.2645373432528,92.));
#1407=CARTESIAN_POINT('',(-119.698892148057,-65.2645373432528,92.));
#1408=CARTESIAN_POINT('Origin',(-47.4488921480572,-135.514537343253,0.));
#1409=CARTESIAN_POINT('',(-47.4488921480572,-135.514537343253,90.));
#1410=CARTESIAN_POINT('',(-47.4488921480572,-68.0145373432528,90.));
#1411=CARTESIAN_POINT('',(-47.4488921480572,-118.639537343253,90.));
#1412=CARTESIAN_POINT('',(-47.4488921480572,-135.514537343253,92.));
#1413=CARTESIAN_POINT('',(-47.4488921480572,-135.514537343253,0.));
#1414=CARTESIAN_POINT('',(-47.4488921480572,-68.0145373432528,92.));
#1415=CARTESIAN_POINT('',(-47.4488921480572,-68.0145373432528,92.));
#1416=CARTESIAN_POINT('',(-47.4488921480572,-68.0145373432528,0.));
#1417=CARTESIAN_POINT('Origin',(-49.4488921480572,-68.0145373432528,0.));
#1418=CARTESIAN_POINT('',(-49.4488921480572,-68.0145373432528,90.));
#1419=CARTESIAN_POINT('',(-49.4488921480572,-135.514537343253,90.));
#1420=CARTESIAN_POINT('',(-49.4488921480572,-84.8895373432529,90.));
#1421=CARTESIAN_POINT('',(-49.4488921480572,-68.0145373432528,92.));
#1422=CARTESIAN_POINT('',(-49.4488921480572,-68.0145373432528,0.));
#1423=CARTESIAN_POINT('',(-49.4488921480572,-135.514537343253,92.));
#1424=CARTESIAN_POINT('',(-49.4488921480572,-135.514537343253,92.));
#1425=CARTESIAN_POINT('',(-49.4488921480572,-135.514537343253,0.));
#1426=CARTESIAN_POINT('Origin',(-48.4488921480572,-101.764537343253,92.));
#1427=CARTESIAN_POINT('',(-49.4488921480572,-68.0145373432528,92.));
#1428=CARTESIAN_POINT('',(-47.4488921480572,-135.514537343253,92.));
#1429=CARTESIAN_POINT('Origin',(-122.448892148057,-135.514537343253,0.));
#1430=CARTESIAN_POINT('',(-122.448892148057,-135.514537343253,90.));
#1431=CARTESIAN_POINT('',(-122.448892148057,-68.0145373432528,90.));
#1432=CARTESIAN_POINT('',(-122.448892148057,-118.639537343253,90.));
#1433=CARTESIAN_POINT('',(-122.448892148057,-135.514537343253,92.));
#1434=CARTESIAN_POINT('',(-122.448892148057,-135.514537343253,0.));
#1435=CARTESIAN_POINT('',(-122.448892148057,-68.0145373432528,92.));
#1436=CARTESIAN_POINT('',(-122.448892148057,-135.514537343253,92.));
#1437=CARTESIAN_POINT('',(-122.448892148057,-68.0145373432528,0.));
#1438=CARTESIAN_POINT('Origin',(-124.448892148057,-68.0145373432528,0.));
#1439=CARTESIAN_POINT('',(-124.448892148057,-68.0145373432528,90.));
#1440=CARTESIAN_POINT('',(-124.448892148057,-135.514537343253,90.));
#1441=CARTESIAN_POINT('',(-124.448892148057,-84.8895373432529,90.));
#1442=CARTESIAN_POINT('',(-124.448892148057,-68.0145373432528,92.));
#1443=CARTESIAN_POINT('',(-124.448892148057,-68.0145373432528,0.));
#1444=CARTESIAN_POINT('',(-124.448892148057,-135.514537343253,92.));
#1445=CARTESIAN_POINT('',(-124.448892148057,-68.0145373432528,92.));
#1446=CARTESIAN_POINT('',(-124.448892148057,-135.514537343253,0.));
#1447=CARTESIAN_POINT('Origin',(-123.448892148057,-101.764537343253,92.));
#1448=CARTESIAN_POINT('',(-124.448892148057,-135.514537343253,92.));
#1449=CARTESIAN_POINT('',(-122.448892148057,-68.0145373432528,92.));
#1450=CARTESIAN_POINT('Origin',(-52.1988921480572,-143.014537343253,105.));
#1451=CARTESIAN_POINT('',(-52.1988921480572,-135.514537343253,90.));
#1452=CARTESIAN_POINT('',(-52.1988921480572,-143.014537343253,90.));
#1453=CARTESIAN_POINT('',(-52.1988921480572,-135.514537343253,82.5));
#1454=CARTESIAN_POINT('',(-52.1988921480572,-135.514537343253,105.));
#1455=CARTESIAN_POINT('',(-52.1988921480572,-143.014537343253,82.5));
#1456=CARTESIAN_POINT('',(-52.1988921480572,-143.014537343253,82.5));
#1457=CARTESIAN_POINT('',(-52.1988921480572,-143.014537343253,90.));
#1458=CARTESIAN_POINT('',(-52.1988921480572,-143.014537343253,105.));
#1459=CARTESIAN_POINT('',(-52.1988921480572,-143.014537343253,90.));
#1460=CARTESIAN_POINT('Origin',(-119.698892148057,-135.514537343253,105.));
#1461=CARTESIAN_POINT('',(-119.698892148057,-135.514537343253,82.5));
#1462=CARTESIAN_POINT('',(-119.698892148057,-143.014537343253,82.5));
#1463=CARTESIAN_POINT('',(-119.698892148057,-135.514537343253,82.5));
#1464=CARTESIAN_POINT('',(-119.698892148057,-135.514537343253,90.));
#1465=CARTESIAN_POINT('',(-119.698892148057,-135.514537343253,105.));
#1466=CARTESIAN_POINT('',(-119.698892148057,-135.514537343253,90.));
#1467=CARTESIAN_POINT('',(-119.698892148057,-143.014537343253,90.));
#1468=CARTESIAN_POINT('',(-119.698892148057,-135.514537343253,90.));
#1469=CARTESIAN_POINT('',(-119.698892148057,-143.014537343253,105.));
#1470=CARTESIAN_POINT('Origin',(-52.1988921480572,-68.0145373432528,105.));
#1471=CARTESIAN_POINT('',(-52.1988921480572,-60.5145373432528,90.));
#1472=CARTESIAN_POINT('',(-52.1988921480572,-68.0145373432528,90.));
#1473=CARTESIAN_POINT('',(-52.1988921480572,-60.5145373432528,82.5));
#1474=CARTESIAN_POINT('',(-52.1988921480572,-60.5145373432528,105.));
#1475=CARTESIAN_POINT('',(-52.1988921480572,-68.0145373432528,82.5));
#1476=CARTESIAN_POINT('',(-52.1988921480572,-68.0145373432528,82.5));
#1477=CARTESIAN_POINT('',(-52.1988921480572,-68.0145373432528,90.));
#1478=CARTESIAN_POINT('',(-52.1988921480572,-68.0145373432528,105.));
#1479=CARTESIAN_POINT('',(-52.1988921480572,-68.0145373432528,90.));
#1480=CARTESIAN_POINT('Origin',(-119.698892148057,-60.5145373432528,105.));
#1481=CARTESIAN_POINT('',(-119.698892148057,-60.5145373432528,82.5));
#1482=CARTESIAN_POINT('',(-119.698892148057,-68.0145373432528,82.5));
#1483=CARTESIAN_POINT('',(-119.698892148057,-60.5145373432528,82.5));
#1484=CARTESIAN_POINT('',(-119.698892148057,-60.5145373432528,90.));
#1485=CARTESIAN_POINT('',(-119.698892148057,-60.5145373432528,105.));
#1486=CARTESIAN_POINT('',(-119.698892148057,-60.5145373432528,90.));
#1487=CARTESIAN_POINT('',(-119.698892148057,-68.0145373432528,90.));
#1488=CARTESIAN_POINT('',(-119.698892148057,-60.5145373432528,90.));
#1489=CARTESIAN_POINT('',(-119.698892148057,-68.0145373432528,105.));
#1490=CARTESIAN_POINT('Origin',(-52.1988921480572,-135.514537343253,105.));
#1491=CARTESIAN_POINT('',(-44.6988921480572,-135.514537343253,90.));
#1492=CARTESIAN_POINT('',(-52.1988921480572,-135.514537343253,90.));
#1493=CARTESIAN_POINT('',(-44.6988921480572,-135.514537343253,82.5));
#1494=CARTESIAN_POINT('',(-44.6988921480572,-135.514537343253,105.));
#1495=CARTESIAN_POINT('',(-52.1988921480572,-135.514537343253,82.5));
#1496=CARTESIAN_POINT('',(-52.1988921480572,-135.514537343253,90.));
#1497=CARTESIAN_POINT('Origin',(-44.6988921480572,-68.0145373432528,105.));
#1498=CARTESIAN_POINT('',(-44.6988921480572,-68.0145373432528,82.5));
#1499=CARTESIAN_POINT('',(-44.6988921480572,-68.0145373432528,82.5));
#1500=CARTESIAN_POINT('',(-44.6988921480572,-68.0145373432528,90.));
#1501=CARTESIAN_POINT('',(-44.6988921480572,-68.0145373432528,105.));
#1502=CARTESIAN_POINT('',(-44.6988921480572,-68.0145373432528,90.));
#1503=CARTESIAN_POINT('',(-44.6988921480572,-68.0145373432528,90.));
#1504=CARTESIAN_POINT('Origin',(-127.198892148057,-135.514537343253,105.));
#1505=CARTESIAN_POINT('',(-127.198892148057,-135.514537343253,90.));
#1506=CARTESIAN_POINT('',(-127.198892148057,-135.514537343253,82.5));
#1507=CARTESIAN_POINT('',(-127.198892148057,-135.514537343253,82.5));
#1508=CARTESIAN_POINT('',(-127.198892148057,-135.514537343253,90.));
#1509=CARTESIAN_POINT('',(-127.198892148057,-135.514537343253,105.));
#1510=CARTESIAN_POINT('',(-127.198892148057,-135.514537343253,90.));
#1511=CARTESIAN_POINT('Origin',(-85.9488921480572,-101.764537343253,90.));
#1512=CARTESIAN_POINT('',(-40.9488921480572,-146.764537343253,90.));
#1513=CARTESIAN_POINT('',(-130.948892148057,-146.764537343253,90.));
#1514=CARTESIAN_POINT('',(-40.9488921480572,-146.764537343253,90.));
#1515=CARTESIAN_POINT('',(-130.948892148057,-56.7645373432528,90.));
#1516=CARTESIAN_POINT('',(-130.948892148057,-146.764537343253,90.));
#1517=CARTESIAN_POINT('',(-40.9488921480572,-56.7645373432528,90.));
#1518=CARTESIAN_POINT('',(-130.948892148057,-56.7645373432528,90.));
#1519=CARTESIAN_POINT('',(-40.9488921480572,-56.7645373432528,90.));
#1520=CARTESIAN_POINT('',(-44.6988921480572,-143.014537343253,90.));
#1521=CARTESIAN_POINT('',(-44.6988921480572,-143.014537343253,90.));
#1522=CARTESIAN_POINT('',(-44.6988921480572,-135.514537343253,90.));
#1523=CARTESIAN_POINT('',(-44.6988921480572,-60.5145373432528,90.));
#1524=CARTESIAN_POINT('',(-44.6988921480572,-60.5145373432528,90.));
#1525=CARTESIAN_POINT('',(-52.1988921480572,-60.5145373432528,90.));
#1526=CARTESIAN_POINT('',(-127.198892148057,-60.5145373432528,90.));
#1527=CARTESIAN_POINT('',(-127.198892148057,-60.5145373432528,90.));
#1528=CARTESIAN_POINT('',(-127.198892148057,-68.0145373432528,90.));
#1529=CARTESIAN_POINT('',(-127.198892148057,-68.0145373432528,90.));
#1530=CARTESIAN_POINT('',(-119.698892148057,-68.0145373432528,90.));
#1531=CARTESIAN_POINT('',(-127.198892148057,-143.014537343253,90.));
#1532=CARTESIAN_POINT('',(-127.198892148057,-143.014537343253,90.));
#1533=CARTESIAN_POINT('',(-119.698892148057,-143.014537343253,90.));
#1534=CARTESIAN_POINT('Origin',(-85.9488921480572,-101.764537343253,90.));
#1535=CARTESIAN_POINT('',(-119.698892148057,-68.0145373432528,90.));
#1536=CARTESIAN_POINT('Origin',(-119.698892148057,-68.0145373432528,105.));
#1537=CARTESIAN_POINT('',(-127.198892148057,-68.0145373432528,82.5));
#1538=CARTESIAN_POINT('',(-119.698892148057,-68.0145373432528,82.5));
#1539=CARTESIAN_POINT('',(-127.198892148057,-68.0145373432528,105.));
#1540=CARTESIAN_POINT('Origin',(-75.3426255698776,-107.068041637749,135.));
#1541=CARTESIAN_POINT('',(-75.3426255698776,-107.068041637749,135.));
#1542=CARTESIAN_POINT('',(-70.0393247109785,-112.371342496648,135.));
#1543=CARTESIAN_POINT('',(-79.3200682880464,-103.09059891958,135.));
#1544=CARTESIAN_POINT('',(-75.3426255698776,-107.068041637749,127.5));
#1545=CARTESIAN_POINT('',(-75.3426255698776,-107.068041637749,135.));
#1546=CARTESIAN_POINT('',(-70.0393247109785,-112.371342496648,127.5));
#1547=CARTESIAN_POINT('',(-70.0393247109785,-112.371342496648,127.5));
#1548=CARTESIAN_POINT('',(-70.0393247109785,-112.371342496648,135.));
#1549=CARTESIAN_POINT('Origin',(-80.6459264287767,-112.371342496648,135.));
#1550=CARTESIAN_POINT('',(-80.6459264287767,-112.371342496648,135.));
#1551=CARTESIAN_POINT('',(-79.3199665702481,-111.045382638119,135.));
#1552=CARTESIAN_POINT('',(-80.6459264287767,-112.371342496648,127.5));
#1553=CARTESIAN_POINT('',(-80.6459264287767,-112.371342496648,135.));
#1554=CARTESIAN_POINT('',(-75.3426255698776,-107.068041637749,127.5));
#1555=CARTESIAN_POINT('Origin',(-75.3426255698776,-117.674643355547,135.));
#1556=CARTESIAN_POINT('',(-75.3426255698776,-117.674643355547,135.));
#1557=CARTESIAN_POINT('',(-81.971718717496,-111.045550207928,135.));
#1558=CARTESIAN_POINT('',(-75.3426255698776,-117.674643355547,127.5));
#1559=CARTESIAN_POINT('',(-75.3426255698776,-117.674643355547,135.));
#1560=CARTESIAN_POINT('',(-75.3426255698776,-117.674643355547,127.5));
#1561=CARTESIAN_POINT('Origin',(-70.0393247109785,-112.371342496648,135.));
#1562=CARTESIAN_POINT('',(-71.3650152818995,-113.697033067569,135.));
#1563=CARTESIAN_POINT('',(-75.3426255698776,-117.674643355547,127.5));
#1564=CARTESIAN_POINT('Origin',(-75.3426255698776,-112.371342496648,127.5));
#1565=CARTESIAN_POINT('Origin',(-101.859129864373,-91.1581390610511,135.));
#1566=CARTESIAN_POINT('',(-101.859129864373,-91.1581390610511,135.));
#1567=CARTESIAN_POINT('',(-96.555829005474,-85.854838202152,135.));
#1568=CARTESIAN_POINT('',(-100.533170005845,-89.8321792025226,135.));
#1569=CARTESIAN_POINT('',(-101.859129864373,-91.1581390610511,127.5));
#1570=CARTESIAN_POINT('',(-101.859129864373,-91.1581390610511,135.));
#1571=CARTESIAN_POINT('',(-96.555829005474,-85.854838202152,127.5));
#1572=CARTESIAN_POINT('',(-101.859129864373,-91.1581390610511,127.5));
#1573=CARTESIAN_POINT('',(-96.555829005474,-85.854838202152,135.));
#1574=CARTESIAN_POINT('Origin',(-96.555829005474,-96.4614399199503,135.));
#1575=CARTESIAN_POINT('',(-96.555829005474,-96.4614399199503,135.));
#1576=CARTESIAN_POINT('',(-92.5783204352942,-100.43894849013,135.));
#1577=CARTESIAN_POINT('',(-96.555829005474,-96.4614399199503,127.5));
#1578=CARTESIAN_POINT('',(-96.555829005474,-96.4614399199503,135.));
#1579=CARTESIAN_POINT('',(-101.859129864373,-91.1581390610511,127.5));
#1580=CARTESIAN_POINT('Origin',(-91.2525281465749,-91.1581390610512,135.));
#1581=CARTESIAN_POINT('',(-91.2525281465749,-91.1581390610512,135.));
#1582=CARTESIAN_POINT('',(-92.5782187174959,-92.4838296319722,135.));
#1583=CARTESIAN_POINT('',(-91.2525281465749,-91.1581390610512,127.5));
#1584=CARTESIAN_POINT('',(-91.2525281465749,-91.1581390610512,135.));
#1585=CARTESIAN_POINT('',(-91.2525281465749,-91.1581390610512,127.5));
#1586=CARTESIAN_POINT('Origin',(-96.555829005474,-85.854838202152,135.));
#1587=CARTESIAN_POINT('',(-89.9266700058446,-92.4839972017814,135.));
#1588=CARTESIAN_POINT('',(-96.555829005474,-85.854838202152,127.5));
#1589=CARTESIAN_POINT('Origin',(-96.555829005474,-91.1581390610511,127.5));
#1590=CARTESIAN_POINT('Origin',(-85.9488921480572,-101.764537343253,135.));
#1591=CARTESIAN_POINT('',(-115.948892148057,-131.764537343253,135.));
#1592=CARTESIAN_POINT('',(-55.9488921480572,-131.764537343253,135.));
#1593=CARTESIAN_POINT('',(-91.9488921480572,-131.764537343253,135.));
#1594=CARTESIAN_POINT('',(-55.9488921480572,-71.7645373432528,135.));
#1595=CARTESIAN_POINT('',(-55.9488921480572,-131.764537343253,135.));
#1596=CARTESIAN_POINT('',(-115.948892148057,-71.7645373432528,135.));
#1597=CARTESIAN_POINT('',(-55.9488921480572,-71.7645373432528,135.));
#1598=CARTESIAN_POINT('',(-115.948892148057,-71.7645373432528,135.));
#1599=CARTESIAN_POINT('Origin',(-115.948892148057,-71.7645373432528,90.));
#1600=CARTESIAN_POINT('',(-115.948892148057,-131.764537343253,105.));
#1601=CARTESIAN_POINT('',(-115.948892148057,-71.7645373432528,105.));
#1602=CARTESIAN_POINT('',(-115.948892148057,-71.7645373432528,105.));
#1603=CARTESIAN_POINT('',(-115.948892148057,-131.764537343253,90.));
#1604=CARTESIAN_POINT('',(-115.948892148057,-71.7645373432528,90.));
#1605=CARTESIAN_POINT('Origin',(-115.948892148057,-131.764537343253,90.));
#1606=CARTESIAN_POINT('',(-55.9488921480572,-131.764537343253,105.));
#1607=CARTESIAN_POINT('',(-91.9488921480572,-131.764537343253,105.));
#1608=CARTESIAN_POINT('',(-55.9488921480572,-131.764537343253,90.));
#1609=CARTESIAN_POINT('Origin',(-55.9488921480572,-71.7645373432528,90.));
#1610=CARTESIAN_POINT('',(-55.9488921480572,-71.7645373432528,105.));
#1611=CARTESIAN_POINT('',(-55.9488921480572,-71.7645373432528,105.));
#1612=CARTESIAN_POINT('',(-55.9488921480572,-71.7645373432528,90.));
#1613=CARTESIAN_POINT('Origin',(-55.9488921480572,-131.764537343253,90.));
#1614=CARTESIAN_POINT('',(-55.9488921480572,-131.764537343253,105.));
#1615=CARTESIAN_POINT('Origin',(-44.6988921480572,-135.514537343253,105.));
#1616=CARTESIAN_POINT('',(-44.6988921480572,-143.014537343253,82.5));
#1617=CARTESIAN_POINT('',(-44.6988921480572,-143.014537343253,105.));
#1618=CARTESIAN_POINT('',(-44.6988921480572,-135.514537343253,82.5));
#1619=CARTESIAN_POINT('Origin',(-44.6988921480572,-143.014537343253,105.));
#1620=CARTESIAN_POINT('',(-44.6988921480572,-143.014537343253,82.5));
#1621=CARTESIAN_POINT('Origin',(-48.4488921480572,-139.264537343253,82.5));
#1622=CARTESIAN_POINT('Origin',(-44.6988921480572,-60.5145373432528,105.));
#1623=CARTESIAN_POINT('',(-44.6988921480572,-60.5145373432528,82.5));
#1624=CARTESIAN_POINT('',(-44.6988921480572,-60.5145373432528,82.5));
#1625=CARTESIAN_POINT('',(-44.6988921480572,-60.5145373432528,105.));
#1626=CARTESIAN_POINT('Origin',(-52.1988921480572,-60.5145373432528,105.));
#1627=CARTESIAN_POINT('',(-52.1988921480572,-60.5145373432528,82.5));
#1628=CARTESIAN_POINT('Origin',(-48.4488921480572,-64.2645373432528,82.5));
#1629=CARTESIAN_POINT('Origin',(-119.698892148057,-143.014537343253,105.));
#1630=CARTESIAN_POINT('',(-127.198892148057,-143.014537343253,82.5));
#1631=CARTESIAN_POINT('',(-127.198892148057,-143.014537343253,105.));
#1632=CARTESIAN_POINT('',(-119.698892148057,-143.014537343253,82.5));
#1633=CARTESIAN_POINT('Origin',(-127.198892148057,-143.014537343253,105.));
#1634=CARTESIAN_POINT('',(-127.198892148057,-143.014537343253,82.5));
#1635=CARTESIAN_POINT('Origin',(-123.448892148057,-139.264537343253,82.5));
#1636=CARTESIAN_POINT('Origin',(-127.198892148057,-60.5145373432528,105.));
#1637=CARTESIAN_POINT('',(-127.198892148057,-60.5145373432528,82.5));
#1638=CARTESIAN_POINT('',(-127.198892148057,-60.5145373432528,82.5));
#1639=CARTESIAN_POINT('',(-127.198892148057,-60.5145373432528,105.));
#1640=CARTESIAN_POINT('Origin',(-127.198892148057,-68.0145373432528,105.));
#1641=CARTESIAN_POINT('',(-127.198892148057,-68.0145373432528,82.5));
#1642=CARTESIAN_POINT('Origin',(-123.448892148057,-64.2645373432528,82.5));
#1643=CARTESIAN_POINT('Origin',(-130.948892148057,-56.7645373432528,90.));
#1644=CARTESIAN_POINT('',(-130.948892148057,-146.764537343253,105.));
#1645=CARTESIAN_POINT('',(-130.948892148057,-146.764537343253,90.));
#1646=CARTESIAN_POINT('',(-130.948892148057,-56.7645373432528,105.));
#1647=CARTESIAN_POINT('',(-130.948892148057,-146.764537343253,105.));
#1648=CARTESIAN_POINT('',(-130.948892148057,-56.7645373432528,90.));
#1649=CARTESIAN_POINT('Origin',(-40.9488921480572,-56.7645373432528,90.));
#1650=CARTESIAN_POINT('',(-40.9488921480572,-56.7645373432528,105.));
#1651=CARTESIAN_POINT('',(-130.948892148057,-56.7645373432528,105.));
#1652=CARTESIAN_POINT('',(-40.9488921480572,-56.7645373432528,90.));
#1653=CARTESIAN_POINT('Origin',(-40.9488921480572,-146.764537343253,90.));
#1654=CARTESIAN_POINT('',(-40.9488921480572,-146.764537343253,105.));
#1655=CARTESIAN_POINT('',(-40.9488921480572,-56.7645373432528,105.));
#1656=CARTESIAN_POINT('',(-40.9488921480572,-146.764537343253,90.));
#1657=CARTESIAN_POINT('Origin',(-130.948892148057,-146.764537343253,90.));
#1658=CARTESIAN_POINT('',(-40.9488921480572,-146.764537343253,105.));
#1659=CARTESIAN_POINT('Origin',(-85.9488921480572,-101.764537343253,105.));
#1660=UNCERTAINTY_MEASURE_WITH_UNIT(LENGTH_MEASURE(0.01),#1664,
'DISTANCE_ACCURACY_VALUE',
'Maximum model space distance between geometric entities at asserted c
onnectivities');
#1661=UNCERTAINTY_MEASURE_WITH_UNIT(LENGTH_MEASURE(0.01),#1664,
'DISTANCE_ACCURACY_VALUE',
'Maximum model space distance between geometric entities at asserted c
onnectivities');
#1662=(
GEOMETRIC_REPRESENTATION_CONTEXT(3)
GLOBAL_UNCERTAINTY_ASSIGNED_CONTEXT((#1660))
GLOBAL_UNIT_ASSIGNED_CONTEXT((#1664,#1665,#1666))
REPRESENTATION_CONTEXT('','3D')
);
#1663=(
GEOMETRIC_REPRESENTATION_CONTEXT(3)
GLOBAL_UNCERTAINTY_ASSIGNED_CONTEXT((#1661))
GLOBAL_UNIT_ASSIGNED_CONTEXT((#1664,#1665,#1666))
REPRESENTATION_CONTEXT('','3D')
);
#1664=(
LENGTH_UNIT()
NAMED_UNIT(*)
SI_UNIT(.MILLI.,.METRE.)
);
#1665=(
NAMED_UNIT(*)
PLANE_ANGLE_UNIT()
SI_UNIT($,.RADIAN.)
);
#1666=(
NAMED_UNIT(*)
SI_UNIT($,.STERADIAN.)
SOLID_ANGLE_UNIT()
);
#1667=SHAPE_DEFINITION_REPRESENTATION(#1668,#1669);
#1668=PRODUCT_DEFINITION_SHAPE('',$,#1671);
#1669=SHAPE_REPRESENTATION('',(#1056),#1662);
#1670=PRODUCT_DEFINITION_CONTEXT('part definition',#1675,'design');
#1671=PRODUCT_DEFINITION('Luma','Luma v30',#1672,#1670);
#1672=PRODUCT_DEFINITION_FORMATION('',$,#1677);
#1673=PRODUCT_RELATED_PRODUCT_CATEGORY('Luma v30','Luma v30',(#1677));
#1674=APPLICATION_PROTOCOL_DEFINITION('international standard',
'automotive_design',2009,#1675);
#1675=APPLICATION_CONTEXT(
'Core Data for Automotive Mechanical Design Process');
#1676=PRODUCT_CONTEXT('part definition',#1675,'mechanical');
#1677=PRODUCT('Luma','Luma v30',$,(#1676));
#1678=PRESENTATION_STYLE_ASSIGNMENT((#1693));
#1679=PRESENTATION_STYLE_ASSIGNMENT((#1694));
#1680=PRESENTATION_STYLE_ASSIGNMENT((#1695));
#1681=PRESENTATION_STYLE_ASSIGNMENT((#1696));
#1682=PRESENTATION_STYLE_ASSIGNMENT((#1697));
#1683=PRESENTATION_STYLE_ASSIGNMENT((#1698));
#1684=PRESENTATION_STYLE_ASSIGNMENT((#1699));
#1685=PRESENTATION_STYLE_ASSIGNMENT((#1700));
#1686=PRESENTATION_STYLE_ASSIGNMENT((#1701));
#1687=PRESENTATION_STYLE_ASSIGNMENT((#1702));
#1688=PRESENTATION_STYLE_ASSIGNMENT((#1703));
#1689=PRESENTATION_STYLE_ASSIGNMENT((#1704));
#1690=PRESENTATION_STYLE_ASSIGNMENT((#1705));
#1691=PRESENTATION_STYLE_ASSIGNMENT((#1706));
#1692=PRESENTATION_STYLE_ASSIGNMENT((#1707));
#1693=SURFACE_STYLE_USAGE(.BOTH.,#1708);
#1694=SURFACE_STYLE_USAGE(.BOTH.,#1709);
#1695=SURFACE_STYLE_USAGE(.BOTH.,#1710);
#1696=SURFACE_STYLE_USAGE(.BOTH.,#1711);
#1697=SURFACE_STYLE_USAGE(.BOTH.,#1712);
#1698=SURFACE_STYLE_USAGE(.BOTH.,#1713);
#1699=SURFACE_STYLE_USAGE(.BOTH.,#1714);
#1700=SURFACE_STYLE_USAGE(.BOTH.,#1715);
#1701=SURFACE_STYLE_USAGE(.BOTH.,#1716);
#1702=SURFACE_STYLE_USAGE(.BOTH.,#1717);
#1703=SURFACE_STYLE_USAGE(.BOTH.,#1718);
#1704=SURFACE_STYLE_USAGE(.BOTH.,#1719);
#1705=SURFACE_STYLE_USAGE(.BOTH.,#1720);
#1706=SURFACE_STYLE_USAGE(.BOTH.,#1721);
#1707=SURFACE_STYLE_USAGE(.BOTH.,#1722);
#1708=SURFACE_SIDE_STYLE('',(#1723));
#1709=SURFACE_SIDE_STYLE('',(#1724));
#1710=SURFACE_SIDE_STYLE('',(#1725));
#1711=SURFACE_SIDE_STYLE('',(#1726));
#1712=SURFACE_SIDE_STYLE('',(#1727));
#1713=SURFACE_SIDE_STYLE('',(#1728));
#1714=SURFACE_SIDE_STYLE('',(#1729));
#1715=SURFACE_SIDE_STYLE('',(#1730));
#1716=SURFACE_SIDE_STYLE('',(#1731));
#1717=SURFACE_SIDE_STYLE('',(#1732));
#1718=SURFACE_SIDE_STYLE('',(#1733));
#1719=SURFACE_SIDE_STYLE('',(#1734));
#1720=SURFACE_SIDE_STYLE('',(#1735));
#1721=SURFACE_SIDE_STYLE('',(#1736));
#1722=SURFACE_SIDE_STYLE('',(#1737));
#1723=SURFACE_STYLE_FILL_AREA(#1738);
#1724=SURFACE_STYLE_FILL_AREA(#1739);
#1725=SURFACE_STYLE_FILL_AREA(#1740);
#1726=SURFACE_STYLE_FILL_AREA(#1741);
#1727=SURFACE_STYLE_FILL_AREA(#1742);
#1728=SURFACE_STYLE_FILL_AREA(#1743);
#1729=SURFACE_STYLE_FILL_AREA(#1744);
#1730=SURFACE_STYLE_FILL_AREA(#1745);
#1731=SURFACE_STYLE_FILL_AREA(#1746);
#1732=SURFACE_STYLE_FILL_AREA(#1747);
#1733=SURFACE_STYLE_FILL_AREA(#1748);
#1734=SURFACE_STYLE_FILL_AREA(#1749);
#1735=SURFACE_STYLE_FILL_AREA(#1750);
#1736=SURFACE_STYLE_FILL_AREA(#1751);
#1737=SURFACE_STYLE_FILL_AREA(#1752);
#1738=FILL_AREA_STYLE('Opaque(246,179,39)',(#1753));
#1739=FILL_AREA_STYLE('Opaque(160,160,160)',(#1754));
#1740=FILL_AREA_STYLE('Opaque(246,246,243)',(#1755));
#1741=FILL_AREA_STYLE('Opaque(245,245,246)',(#1756));
#1742=FILL_AREA_STYLE('Opaque(255,255,255)',(#1757));
#1743=FILL_AREA_STYLE('Opaque(202,209,238)',(#1758));
#1744=FILL_AREA_STYLE('Opaque(146,134,121)',(#1759));
#1745=FILL_AREA_STYLE('Opaque(203,203,203)',(#1760));
#1746=FILL_AREA_STYLE('Opaque(251,250,245)',(#1761));
#1747=FILL_AREA_STYLE('Opaque(25,25,25)',(#1762));
#1748=FILL_AREA_STYLE('Opaque(63,63,63)',(#1763));
#1749=FILL_AREA_STYLE('Steel - Satin',(#1764));
#1750=FILL_AREA_STYLE('LED (Blue)',(#1765));
#1751=FILL_AREA_STYLE('ABS (Black)',(#1766));
#1752=FILL_AREA_STYLE('Acrylic (Opaque)',(#1767));
#1753=FILL_AREA_STYLE_COLOUR('Opaque(246,179,39)',#1768);
#1754=FILL_AREA_STYLE_COLOUR('Opaque(160,160,160)',#1769);
#1755=FILL_AREA_STYLE_COLOUR('Opaque(246,246,243)',#1770);
#1756=FILL_AREA_STYLE_COLOUR('Opaque(245,245,246)',#1771);
#1757=FILL_AREA_STYLE_COLOUR('Opaque(255,255,255)',#1772);
#1758=FILL_AREA_STYLE_COLOUR('Opaque(202,209,238)',#1773);
#1759=FILL_AREA_STYLE_COLOUR('Opaque(146,134,121)',#1774);
#1760=FILL_AREA_STYLE_COLOUR('Opaque(203,203,203)',#1775);
#1761=FILL_AREA_STYLE_COLOUR('Opaque(251,250,245)',#1776);
#1762=FILL_AREA_STYLE_COLOUR('Opaque(25,25,25)',#1777);
#1763=FILL_AREA_STYLE_COLOUR('Opaque(63,63,63)',#1778);
#1764=FILL_AREA_STYLE_COLOUR('Steel - Satin',#1779);
#1765=FILL_AREA_STYLE_COLOUR('LED (Blue)',#1780);
#1766=FILL_AREA_STYLE_COLOUR('ABS (Black)',#1781);
#1767=FILL_AREA_STYLE_COLOUR('Acrylic (Opaque)',#1782);
#1768=COLOUR_RGB('Opaque(246,179,39)',0.964705882352941,0.701960784313725,
0.152941176470588);
#1769=COLOUR_RGB('Opaque(160,160,160)',0.627450980392157,0.627450980392157,
0.627450980392157);
#1770=COLOUR_RGB('Opaque(246,246,243)',0.964705882352941,0.964705882352941,
0.952941176470588);
#1771=COLOUR_RGB('Opaque(245,245,246)',0.96078431372549,0.96078431372549,
0.964705882352941);
#1772=COLOUR_RGB('Opaque(255,255,255)',1.,1.,1.);
#1773=COLOUR_RGB('Opaque(202,209,238)',0.792156862745098,0.819607843137255,
0.933333333333333);
#1774=COLOUR_RGB('Opaque(146,134,121)',0.572549019607843,0.525490196078431,
0.474509803921569);
#1775=COLOUR_RGB('Opaque(203,203,203)',0.796078431372549,0.796078431372549,
0.796078431372549);
#1776=COLOUR_RGB('Opaque(251,250,245)',0.984313725490196,0.980392156862745,
0.96078431372549);
#1777=COLOUR_RGB('Opaque(25,25,25)',0.0980392156862745,0.0980392156862745,
0.0980392156862745);
#1778=COLOUR_RGB('Opaque(63,63,63)',0.250980392156863,0.250980392156863,
0.250980392156863);
#1779=COLOUR_RGB('Steel - Satin',0.627450980392157,0.627450980392157,0.627450980392157);
#1780=COLOUR_RGB('LED (Blue)',0.188235294117647,0.231372549019608,0.588235294117647);
#1781=COLOUR_RGB('ABS (Black)',0.00784313725490196,0.00784313725490196,
0.00784313725490196);
#1782=COLOUR_RGB('Acrylic (Opaque)',0.964705882352941,0.964705882352941,
0.952941176470588);
ENDSEC;
END-ISO-10303-21;
