ISO-10303-21;
HEADER;
/* Generated by software containing ST-Developer
 * from STEP Tools, Inc. (www.steptools.com) 
 */

FILE_DESCRIPTION(
/* description */ (''),
/* implementation_level */ '2;1');

FILE_NAME(
/* name */ 'Top_Complete.step',
/* time_stamp */ '2025-08-13T21:12:32-05:00',
/* author */ (''),
/* organization */ (''),
/* preprocessor_version */ 'ST-DEVELOPER v20.1',
/* originating_system */ 'Autodesk Translation Framework v14.10.0.0',
/* authorisation */ '');

FILE_SCHEMA (('AUTOMOTIVE_DESIGN { 1 0 10303 214 3 1 1 }'));
ENDSEC;

DATA;
#10=MECHANICAL_DESIGN_GEOMETRIC_PRESENTATION_REPRESENTATION('',(#13),#1647);
#11=SHAPE_REPRESENTATION_RELATIONSHIP('SRR','None',#1653,#12);
#12=ADVANCED_BREP_SHAPE_REPRESENTATION('',(#14),#1646);
#13=STYLED_ITEM('',(#1675),#14);
#14=MANIFOLD_SOLID_BREP('Top',#1047);
#15=FACE_BOUND('',#99,.T.);
#16=FACE_BOUND('',#103,.T.);
#17=FACE_BOUND('',#104,.T.);
#18=FACE_BOUND('',#126,.T.);
#19=FACE_OUTER_BOUND('',#71,.T.);
#20=FACE_OUTER_BOUND('',#72,.T.);
#21=FACE_OUTER_BOUND('',#73,.T.);
#22=FACE_OUTER_BOUND('',#74,.T.);
#23=FACE_OUTER_BOUND('',#75,.T.);
#24=FACE_OUTER_BOUND('',#76,.T.);
#25=FACE_OUTER_BOUND('',#77,.T.);
#26=FACE_OUTER_BOUND('',#78,.T.);
#27=FACE_OUTER_BOUND('',#79,.T.);
#28=FACE_OUTER_BOUND('',#80,.T.);
#29=FACE_OUTER_BOUND('',#81,.T.);
#30=FACE_OUTER_BOUND('',#82,.T.);
#31=FACE_OUTER_BOUND('',#83,.T.);
#32=FACE_OUTER_BOUND('',#84,.T.);
#33=FACE_OUTER_BOUND('',#85,.T.);
#34=FACE_OUTER_BOUND('',#86,.T.);
#35=FACE_OUTER_BOUND('',#87,.T.);
#36=FACE_OUTER_BOUND('',#88,.T.);
#37=FACE_OUTER_BOUND('',#89,.T.);
#38=FACE_OUTER_BOUND('',#90,.T.);
#39=FACE_OUTER_BOUND('',#91,.T.);
#40=FACE_OUTER_BOUND('',#92,.T.);
#41=FACE_OUTER_BOUND('',#93,.T.);
#42=FACE_OUTER_BOUND('',#94,.T.);
#43=FACE_OUTER_BOUND('',#95,.T.);
#44=FACE_OUTER_BOUND('',#96,.T.);
#45=FACE_OUTER_BOUND('',#97,.T.);
#46=FACE_OUTER_BOUND('',#98,.T.);
#47=FACE_OUTER_BOUND('',#100,.T.);
#48=FACE_OUTER_BOUND('',#101,.T.);
#49=FACE_OUTER_BOUND('',#102,.T.);
#50=FACE_OUTER_BOUND('',#105,.T.);
#51=FACE_OUTER_BOUND('',#106,.T.);
#52=FACE_OUTER_BOUND('',#107,.T.);
#53=FACE_OUTER_BOUND('',#108,.T.);
#54=FACE_OUTER_BOUND('',#109,.T.);
#55=FACE_OUTER_BOUND('',#110,.T.);
#56=FACE_OUTER_BOUND('',#111,.T.);
#57=FACE_OUTER_BOUND('',#112,.T.);
#58=FACE_OUTER_BOUND('',#113,.T.);
#59=FACE_OUTER_BOUND('',#114,.T.);
#60=FACE_OUTER_BOUND('',#115,.T.);
#61=FACE_OUTER_BOUND('',#116,.T.);
#62=FACE_OUTER_BOUND('',#117,.T.);
#63=FACE_OUTER_BOUND('',#118,.T.);
#64=FACE_OUTER_BOUND('',#119,.T.);
#65=FACE_OUTER_BOUND('',#120,.T.);
#66=FACE_OUTER_BOUND('',#121,.T.);
#67=FACE_OUTER_BOUND('',#122,.T.);
#68=FACE_OUTER_BOUND('',#123,.T.);
#69=FACE_OUTER_BOUND('',#124,.T.);
#70=FACE_OUTER_BOUND('',#125,.T.);
#71=EDGE_LOOP('',(#655,#656,#657,#658));
#72=EDGE_LOOP('',(#659,#660,#661,#662));
#73=EDGE_LOOP('',(#663,#664,#665,#666));
#74=EDGE_LOOP('',(#667,#668,#669,#670));
#75=EDGE_LOOP('',(#671,#672,#673,#674));
#76=EDGE_LOOP('',(#675,#676,#677,#678,#679,#680,#681,#682));
#77=EDGE_LOOP('',(#683,#684,#685,#686));
#78=EDGE_LOOP('',(#687,#688,#689,#690,#691,#692,#693,#694));
#79=EDGE_LOOP('',(#695,#696,#697,#698));
#80=EDGE_LOOP('',(#699,#700,#701,#702));
#81=EDGE_LOOP('',(#703,#704,#705,#706));
#82=EDGE_LOOP('',(#707,#708,#709,#710));
#83=EDGE_LOOP('',(#711,#712,#713,#714));
#84=EDGE_LOOP('',(#715,#716,#717,#718));
#85=EDGE_LOOP('',(#719,#720,#721,#722));
#86=EDGE_LOOP('',(#723,#724,#725,#726));
#87=EDGE_LOOP('',(#727,#728,#729,#730));
#88=EDGE_LOOP('',(#731,#732,#733,#734));
#89=EDGE_LOOP('',(#735,#736,#737,#738));
#90=EDGE_LOOP('',(#739,#740,#741,#742));
#91=EDGE_LOOP('',(#743,#744,#745,#746,#747,#748,#749,#750));
#92=EDGE_LOOP('',(#751,#752,#753,#754,#755,#756,#757,#758));
#93=EDGE_LOOP('',(#759,#760,#761,#762,#763,#764,#765,#766));
#94=EDGE_LOOP('',(#767,#768,#769,#770,#771,#772,#773,#774));
#95=EDGE_LOOP('',(#775,#776,#777,#778,#779,#780,#781,#782));
#96=EDGE_LOOP('',(#783,#784,#785,#786,#787,#788,#789,#790));
#97=EDGE_LOOP('',(#791,#792,#793,#794,#795,#796,#797,#798));
#98=EDGE_LOOP('',(#799,#800,#801,#802));
#99=EDGE_LOOP('',(#803,#804,#805,#806,#807,#808,#809,#810,#811,#812,#813,
#814,#815,#816,#817,#818,#819,#820,#821,#822));
#100=EDGE_LOOP('',(#823,#824,#825,#826,#827,#828,#829,#830,#831,#832,#833,
#834));
#101=EDGE_LOOP('',(#835,#836,#837,#838,#839,#840,#841,#842));
#102=EDGE_LOOP('',(#843,#844,#845,#846));
#103=EDGE_LOOP('',(#847,#848,#849,#850));
#104=EDGE_LOOP('',(#851,#852,#853,#854));
#105=EDGE_LOOP('',(#855,#856,#857,#858));
#106=EDGE_LOOP('',(#859,#860,#861,#862));
#107=EDGE_LOOP('',(#863,#864,#865,#866));
#108=EDGE_LOOP('',(#867,#868,#869,#870));
#109=EDGE_LOOP('',(#871,#872,#873,#874));
#110=EDGE_LOOP('',(#875,#876,#877,#878));
#111=EDGE_LOOP('',(#879,#880,#881,#882));
#112=EDGE_LOOP('',(#883,#884,#885,#886));
#113=EDGE_LOOP('',(#887,#888,#889,#890));
#114=EDGE_LOOP('',(#891,#892,#893,#894));
#115=EDGE_LOOP('',(#895,#896,#897,#898));
#116=EDGE_LOOP('',(#899,#900,#901,#902));
#117=EDGE_LOOP('',(#903,#904,#905,#906));
#118=EDGE_LOOP('',(#907,#908,#909,#910));
#119=EDGE_LOOP('',(#911,#912,#913,#914));
#120=EDGE_LOOP('',(#915,#916,#917,#918));
#121=EDGE_LOOP('',(#919,#920,#921,#922));
#122=EDGE_LOOP('',(#923,#924,#925,#926));
#123=EDGE_LOOP('',(#927,#928,#929,#930));
#124=EDGE_LOOP('',(#931,#932,#933,#934));
#125=EDGE_LOOP('',(#935,#936,#937,#938));
#126=EDGE_LOOP('',(#939,#940,#941,#942));
#127=LINE('',#1355,#271);
#128=LINE('',#1357,#272);
#129=LINE('',#1359,#273);
#130=LINE('',#1360,#274);
#131=LINE('',#1364,#275);
#132=LINE('',#1366,#276);
#133=LINE('',#1368,#277);
#134=LINE('',#1369,#278);
#135=LINE('',#1373,#279);
#136=LINE('',#1374,#280);
#137=LINE('',#1375,#281);
#138=LINE('',#1379,#282);
#139=LINE('',#1380,#283);
#140=LINE('',#1381,#284);
#141=LINE('',#1385,#285);
#142=LINE('',#1386,#286);
#143=LINE('',#1387,#287);
#144=LINE('',#1390,#288);
#145=LINE('',#1391,#289);
#146=LINE('',#1392,#290);
#147=LINE('',#1395,#291);
#148=LINE('',#1396,#292);
#149=LINE('',#1398,#293);
#150=LINE('',#1399,#294);
#151=LINE('',#1403,#295);
#152=LINE('',#1405,#296);
#153=LINE('',#1407,#297);
#154=LINE('',#1408,#298);
#155=LINE('',#1412,#299);
#156=LINE('',#1414,#300);
#157=LINE('',#1416,#301);
#158=LINE('',#1417,#302);
#159=LINE('',#1419,#303);
#160=LINE('',#1420,#304);
#161=LINE('',#1424,#305);
#162=LINE('',#1426,#306);
#163=LINE('',#1428,#307);
#164=LINE('',#1429,#308);
#165=LINE('',#1433,#309);
#166=LINE('',#1435,#310);
#167=LINE('',#1437,#311);
#168=LINE('',#1438,#312);
#169=LINE('',#1440,#313);
#170=LINE('',#1441,#314);
#171=LINE('',#1445,#315);
#172=LINE('',#1447,#316);
#173=LINE('',#1449,#317);
#174=LINE('',#1450,#318);
#175=LINE('',#1454,#319);
#176=LINE('',#1456,#320);
#177=LINE('',#1458,#321);
#178=LINE('',#1459,#322);
#179=LINE('',#1461,#323);
#180=LINE('',#1462,#324);
#181=LINE('',#1466,#325);
#182=LINE('',#1468,#326);
#183=LINE('',#1470,#327);
#184=LINE('',#1471,#328);
#185=LINE('',#1475,#329);
#186=LINE('',#1477,#330);
#187=LINE('',#1479,#331);
#188=LINE('',#1480,#332);
#189=LINE('',#1482,#333);
#190=LINE('',#1483,#334);
#191=LINE('',#1486,#335);
#192=LINE('',#1488,#336);
#193=LINE('',#1490,#337);
#194=LINE('',#1492,#338);
#195=LINE('',#1493,#339);
#196=LINE('',#1497,#340);
#197=LINE('',#1499,#341);
#198=LINE('',#1500,#342);
#199=LINE('',#1502,#343);
#200=LINE('',#1503,#344);
#201=LINE('',#1506,#345);
#202=LINE('',#1508,#346);
#203=LINE('',#1510,#347);
#204=LINE('',#1512,#348);
#205=LINE('',#1513,#349);
#206=LINE('',#1517,#350);
#207=LINE('',#1519,#351);
#208=LINE('',#1520,#352);
#209=LINE('',#1522,#353);
#210=LINE('',#1523,#354);
#211=LINE('',#1526,#355);
#212=LINE('',#1528,#356);
#213=LINE('',#1529,#357);
#214=LINE('',#1530,#358);
#215=LINE('',#1533,#359);
#216=LINE('',#1535,#360);
#217=LINE('',#1536,#361);
#218=LINE('',#1537,#362);
#219=LINE('',#1539,#363);
#220=LINE('',#1541,#364);
#221=LINE('',#1543,#365);
#222=LINE('',#1544,#366);
#223=LINE('',#1548,#367);
#224=LINE('',#1550,#368);
#225=LINE('',#1552,#369);
#226=LINE('',#1553,#370);
#227=LINE('',#1555,#371);
#228=LINE('',#1556,#372);
#229=LINE('',#1558,#373);
#230=LINE('',#1559,#374);
#231=LINE('',#1561,#375);
#232=LINE('',#1563,#376);
#233=LINE('',#1564,#377);
#234=LINE('',#1566,#378);
#235=LINE('',#1567,#379);
#236=LINE('',#1569,#380);
#237=LINE('',#1572,#381);
#238=LINE('',#1573,#382);
#239=LINE('',#1577,#383);
#240=LINE('',#1579,#384);
#241=LINE('',#1581,#385);
#242=LINE('',#1582,#386);
#243=LINE('',#1586,#387);
#244=LINE('',#1587,#388);
#245=LINE('',#1588,#389);
#246=LINE('',#1591,#390);
#247=LINE('',#1592,#391);
#248=LINE('',#1595,#392);
#249=LINE('',#1596,#393);
#250=LINE('',#1598,#394);
#251=LINE('',#1601,#395);
#252=LINE('',#1602,#396);
#253=LINE('',#1604,#397);
#254=LINE('',#1608,#398);
#255=LINE('',#1609,#399);
#256=LINE('',#1611,#400);
#257=LINE('',#1615,#401);
#258=LINE('',#1616,#402);
#259=LINE('',#1618,#403);
#260=LINE('',#1622,#404);
#261=LINE('',#1623,#405);
#262=LINE('',#1625,#406);
#263=LINE('',#1629,#407);
#264=LINE('',#1631,#408);
#265=LINE('',#1632,#409);
#266=LINE('',#1635,#410);
#267=LINE('',#1636,#411);
#268=LINE('',#1639,#412);
#269=LINE('',#1640,#413);
#270=LINE('',#1642,#414);
#271=VECTOR('',#1105,10.);
#272=VECTOR('',#1106,10.);
#273=VECTOR('',#1107,10.);
#274=VECTOR('',#1108,10.);
#275=VECTOR('',#1111,10.);
#276=VECTOR('',#1112,10.);
#277=VECTOR('',#1113,10.);
#278=VECTOR('',#1114,10.);
#279=VECTOR('',#1117,10.);
#280=VECTOR('',#1118,10.);
#281=VECTOR('',#1119,10.);
#282=VECTOR('',#1122,10.);
#283=VECTOR('',#1123,10.);
#284=VECTOR('',#1124,10.);
#285=VECTOR('',#1127,10.);
#286=VECTOR('',#1128,10.);
#287=VECTOR('',#1129,10.);
#288=VECTOR('',#1132,10.);
#289=VECTOR('',#1133,10.);
#290=VECTOR('',#1134,10.);
#291=VECTOR('',#1137,10.);
#292=VECTOR('',#1138,10.);
#293=VECTOR('',#1141,10.);
#294=VECTOR('',#1142,10.);
#295=VECTOR('',#1145,10.);
#296=VECTOR('',#1146,10.);
#297=VECTOR('',#1147,10.);
#298=VECTOR('',#1148,10.);
#299=VECTOR('',#1151,10.);
#300=VECTOR('',#1152,10.);
#301=VECTOR('',#1153,10.);
#302=VECTOR('',#1154,10.);
#303=VECTOR('',#1157,10.);
#304=VECTOR('',#1158,10.);
#305=VECTOR('',#1161,10.);
#306=VECTOR('',#1162,10.);
#307=VECTOR('',#1163,10.);
#308=VECTOR('',#1164,10.);
#309=VECTOR('',#1167,10.);
#310=VECTOR('',#1168,10.);
#311=VECTOR('',#1169,10.);
#312=VECTOR('',#1170,10.);
#313=VECTOR('',#1173,10.);
#314=VECTOR('',#1174,10.);
#315=VECTOR('',#1177,10.);
#316=VECTOR('',#1178,10.);
#317=VECTOR('',#1179,10.);
#318=VECTOR('',#1180,10.);
#319=VECTOR('',#1183,10.);
#320=VECTOR('',#1184,10.);
#321=VECTOR('',#1185,10.);
#322=VECTOR('',#1186,10.);
#323=VECTOR('',#1189,10.);
#324=VECTOR('',#1190,10.);
#325=VECTOR('',#1193,10.);
#326=VECTOR('',#1194,10.);
#327=VECTOR('',#1195,10.);
#328=VECTOR('',#1196,10.);
#329=VECTOR('',#1199,10.);
#330=VECTOR('',#1200,10.);
#331=VECTOR('',#1201,10.);
#332=VECTOR('',#1202,10.);
#333=VECTOR('',#1205,10.);
#334=VECTOR('',#1206,10.);
#335=VECTOR('',#1209,10.);
#336=VECTOR('',#1210,10.);
#337=VECTOR('',#1211,10.);
#338=VECTOR('',#1212,10.);
#339=VECTOR('',#1213,10.);
#340=VECTOR('',#1216,10.);
#341=VECTOR('',#1217,10.);
#342=VECTOR('',#1218,10.);
#343=VECTOR('',#1219,10.);
#344=VECTOR('',#1220,10.);
#345=VECTOR('',#1223,10.);
#346=VECTOR('',#1224,10.);
#347=VECTOR('',#1225,10.);
#348=VECTOR('',#1226,10.);
#349=VECTOR('',#1227,10.);
#350=VECTOR('',#1230,10.);
#351=VECTOR('',#1231,10.);
#352=VECTOR('',#1232,10.);
#353=VECTOR('',#1233,10.);
#354=VECTOR('',#1234,10.);
#355=VECTOR('',#1237,10.);
#356=VECTOR('',#1238,10.);
#357=VECTOR('',#1239,10.);
#358=VECTOR('',#1240,10.);
#359=VECTOR('',#1243,10.);
#360=VECTOR('',#1244,10.);
#361=VECTOR('',#1245,10.);
#362=VECTOR('',#1246,10.);
#363=VECTOR('',#1249,10.);
#364=VECTOR('',#1250,10.);
#365=VECTOR('',#1251,10.);
#366=VECTOR('',#1252,10.);
#367=VECTOR('',#1255,10.);
#368=VECTOR('',#1256,10.);
#369=VECTOR('',#1257,10.);
#370=VECTOR('',#1258,10.);
#371=VECTOR('',#1259,10.);
#372=VECTOR('',#1260,10.);
#373=VECTOR('',#1261,10.);
#374=VECTOR('',#1262,10.);
#375=VECTOR('',#1263,10.);
#376=VECTOR('',#1264,10.);
#377=VECTOR('',#1265,10.);
#378=VECTOR('',#1266,10.);
#379=VECTOR('',#1267,10.);
#380=VECTOR('',#1270,10.);
#381=VECTOR('',#1273,10.);
#382=VECTOR('',#1274,10.);
#383=VECTOR('',#1277,10.);
#384=VECTOR('',#1278,10.);
#385=VECTOR('',#1279,10.);
#386=VECTOR('',#1280,10.);
#387=VECTOR('',#1283,10.);
#388=VECTOR('',#1284,10.);
#389=VECTOR('',#1285,10.);
#390=VECTOR('',#1288,10.);
#391=VECTOR('',#1289,10.);
#392=VECTOR('',#1292,10.);
#393=VECTOR('',#1293,10.);
#394=VECTOR('',#1296,10.);
#395=VECTOR('',#1299,10.);
#396=VECTOR('',#1300,10.);
#397=VECTOR('',#1303,10.);
#398=VECTOR('',#1308,10.);
#399=VECTOR('',#1309,10.);
#400=VECTOR('',#1312,10.);
#401=VECTOR('',#1317,10.);
#402=VECTOR('',#1318,10.);
#403=VECTOR('',#1321,10.);
#404=VECTOR('',#1326,10.);
#405=VECTOR('',#1327,10.);
#406=VECTOR('',#1330,10.);
#407=VECTOR('',#1335,10.);
#408=VECTOR('',#1336,10.);
#409=VECTOR('',#1337,10.);
#410=VECTOR('',#1340,10.);
#411=VECTOR('',#1341,10.);
#412=VECTOR('',#1344,10.);
#413=VECTOR('',#1345,10.);
#414=VECTOR('',#1348,10.);
#415=VERTEX_POINT('',#1353);
#416=VERTEX_POINT('',#1354);
#417=VERTEX_POINT('',#1356);
#418=VERTEX_POINT('',#1358);
#419=VERTEX_POINT('',#1362);
#420=VERTEX_POINT('',#1363);
#421=VERTEX_POINT('',#1365);
#422=VERTEX_POINT('',#1367);
#423=VERTEX_POINT('',#1371);
#424=VERTEX_POINT('',#1372);
#425=VERTEX_POINT('',#1377);
#426=VERTEX_POINT('',#1378);
#427=VERTEX_POINT('',#1383);
#428=VERTEX_POINT('',#1384);
#429=VERTEX_POINT('',#1389);
#430=VERTEX_POINT('',#1394);
#431=VERTEX_POINT('',#1401);
#432=VERTEX_POINT('',#1402);
#433=VERTEX_POINT('',#1404);
#434=VERTEX_POINT('',#1406);
#435=VERTEX_POINT('',#1410);
#436=VERTEX_POINT('',#1411);
#437=VERTEX_POINT('',#1413);
#438=VERTEX_POINT('',#1415);
#439=VERTEX_POINT('',#1422);
#440=VERTEX_POINT('',#1423);
#441=VERTEX_POINT('',#1425);
#442=VERTEX_POINT('',#1427);
#443=VERTEX_POINT('',#1431);
#444=VERTEX_POINT('',#1432);
#445=VERTEX_POINT('',#1434);
#446=VERTEX_POINT('',#1436);
#447=VERTEX_POINT('',#1443);
#448=VERTEX_POINT('',#1444);
#449=VERTEX_POINT('',#1446);
#450=VERTEX_POINT('',#1448);
#451=VERTEX_POINT('',#1452);
#452=VERTEX_POINT('',#1453);
#453=VERTEX_POINT('',#1455);
#454=VERTEX_POINT('',#1457);
#455=VERTEX_POINT('',#1464);
#456=VERTEX_POINT('',#1465);
#457=VERTEX_POINT('',#1467);
#458=VERTEX_POINT('',#1469);
#459=VERTEX_POINT('',#1473);
#460=VERTEX_POINT('',#1474);
#461=VERTEX_POINT('',#1476);
#462=VERTEX_POINT('',#1478);
#463=VERTEX_POINT('',#1485);
#464=VERTEX_POINT('',#1487);
#465=VERTEX_POINT('',#1489);
#466=VERTEX_POINT('',#1491);
#467=VERTEX_POINT('',#1495);
#468=VERTEX_POINT('',#1496);
#469=VERTEX_POINT('',#1498);
#470=VERTEX_POINT('',#1501);
#471=VERTEX_POINT('',#1505);
#472=VERTEX_POINT('',#1507);
#473=VERTEX_POINT('',#1509);
#474=VERTEX_POINT('',#1511);
#475=VERTEX_POINT('',#1515);
#476=VERTEX_POINT('',#1516);
#477=VERTEX_POINT('',#1518);
#478=VERTEX_POINT('',#1521);
#479=VERTEX_POINT('',#1525);
#480=VERTEX_POINT('',#1527);
#481=VERTEX_POINT('',#1532);
#482=VERTEX_POINT('',#1534);
#483=VERTEX_POINT('',#1540);
#484=VERTEX_POINT('',#1542);
#485=VERTEX_POINT('',#1546);
#486=VERTEX_POINT('',#1547);
#487=VERTEX_POINT('',#1549);
#488=VERTEX_POINT('',#1551);
#489=VERTEX_POINT('',#1554);
#490=VERTEX_POINT('',#1557);
#491=VERTEX_POINT('',#1560);
#492=VERTEX_POINT('',#1562);
#493=VERTEX_POINT('',#1565);
#494=VERTEX_POINT('',#1571);
#495=VERTEX_POINT('',#1575);
#496=VERTEX_POINT('',#1576);
#497=VERTEX_POINT('',#1578);
#498=VERTEX_POINT('',#1580);
#499=VERTEX_POINT('',#1584);
#500=VERTEX_POINT('',#1585);
#501=VERTEX_POINT('',#1590);
#502=VERTEX_POINT('',#1594);
#503=VERTEX_POINT('',#1600);
#504=VERTEX_POINT('',#1607);
#505=VERTEX_POINT('',#1614);
#506=VERTEX_POINT('',#1621);
#507=VERTEX_POINT('',#1628);
#508=VERTEX_POINT('',#1630);
#509=VERTEX_POINT('',#1634);
#510=VERTEX_POINT('',#1638);
#511=EDGE_CURVE('',#415,#416,#127,.T.);
#512=EDGE_CURVE('',#416,#417,#128,.T.);
#513=EDGE_CURVE('',#417,#418,#129,.T.);
#514=EDGE_CURVE('',#418,#415,#130,.T.);
#515=EDGE_CURVE('',#419,#420,#131,.T.);
#516=EDGE_CURVE('',#420,#421,#132,.T.);
#517=EDGE_CURVE('',#421,#422,#133,.T.);
#518=EDGE_CURVE('',#419,#422,#134,.T.);
#519=EDGE_CURVE('',#423,#424,#135,.T.);
#520=EDGE_CURVE('',#423,#417,#136,.T.);
#521=EDGE_CURVE('',#424,#416,#137,.T.);
#522=EDGE_CURVE('',#425,#426,#138,.T.);
#523=EDGE_CURVE('',#425,#422,#139,.T.);
#524=EDGE_CURVE('',#426,#421,#140,.T.);
#525=EDGE_CURVE('',#427,#428,#141,.T.);
#526=EDGE_CURVE('',#427,#420,#142,.T.);
#527=EDGE_CURVE('',#428,#419,#143,.T.);
#528=EDGE_CURVE('',#428,#429,#144,.T.);
#529=EDGE_CURVE('',#424,#425,#145,.T.);
#530=EDGE_CURVE('',#429,#415,#146,.T.);
#531=EDGE_CURVE('',#429,#430,#147,.T.);
#532=EDGE_CURVE('',#430,#418,#148,.T.);
#533=EDGE_CURVE('',#430,#427,#149,.T.);
#534=EDGE_CURVE('',#426,#423,#150,.T.);
#535=EDGE_CURVE('',#431,#432,#151,.T.);
#536=EDGE_CURVE('',#431,#433,#152,.T.);
#537=EDGE_CURVE('',#433,#434,#153,.T.);
#538=EDGE_CURVE('',#432,#434,#154,.T.);
#539=EDGE_CURVE('',#435,#436,#155,.T.);
#540=EDGE_CURVE('',#435,#437,#156,.T.);
#541=EDGE_CURVE('',#437,#438,#157,.T.);
#542=EDGE_CURVE('',#436,#438,#158,.T.);
#543=EDGE_CURVE('',#438,#433,#159,.T.);
#544=EDGE_CURVE('',#434,#437,#160,.T.);
#545=EDGE_CURVE('',#439,#440,#161,.T.);
#546=EDGE_CURVE('',#439,#441,#162,.T.);
#547=EDGE_CURVE('',#441,#442,#163,.T.);
#548=EDGE_CURVE('',#440,#442,#164,.T.);
#549=EDGE_CURVE('',#443,#444,#165,.T.);
#550=EDGE_CURVE('',#443,#445,#166,.T.);
#551=EDGE_CURVE('',#445,#446,#167,.T.);
#552=EDGE_CURVE('',#444,#446,#168,.T.);
#553=EDGE_CURVE('',#446,#441,#169,.T.);
#554=EDGE_CURVE('',#442,#445,#170,.T.);
#555=EDGE_CURVE('',#447,#448,#171,.T.);
#556=EDGE_CURVE('',#447,#449,#172,.T.);
#557=EDGE_CURVE('',#449,#450,#173,.T.);
#558=EDGE_CURVE('',#448,#450,#174,.T.);
#559=EDGE_CURVE('',#451,#452,#175,.T.);
#560=EDGE_CURVE('',#451,#453,#176,.T.);
#561=EDGE_CURVE('',#453,#454,#177,.T.);
#562=EDGE_CURVE('',#452,#454,#178,.T.);
#563=EDGE_CURVE('',#450,#453,#179,.T.);
#564=EDGE_CURVE('',#454,#449,#180,.T.);
#565=EDGE_CURVE('',#455,#456,#181,.T.);
#566=EDGE_CURVE('',#455,#457,#182,.T.);
#567=EDGE_CURVE('',#457,#458,#183,.T.);
#568=EDGE_CURVE('',#456,#458,#184,.T.);
#569=EDGE_CURVE('',#459,#460,#185,.T.);
#570=EDGE_CURVE('',#459,#461,#186,.T.);
#571=EDGE_CURVE('',#461,#462,#187,.T.);
#572=EDGE_CURVE('',#460,#462,#188,.T.);
#573=EDGE_CURVE('',#462,#457,#189,.T.);
#574=EDGE_CURVE('',#458,#461,#190,.T.);
#575=EDGE_CURVE('',#431,#463,#191,.T.);
#576=EDGE_CURVE('',#463,#464,#192,.T.);
#577=EDGE_CURVE('',#465,#464,#193,.T.);
#578=EDGE_CURVE('',#466,#465,#194,.T.);
#579=EDGE_CURVE('',#466,#436,#195,.T.);
#580=EDGE_CURVE('',#467,#468,#196,.T.);
#581=EDGE_CURVE('',#469,#467,#197,.T.);
#582=EDGE_CURVE('',#469,#432,#198,.T.);
#583=EDGE_CURVE('',#435,#470,#199,.T.);
#584=EDGE_CURVE('',#470,#468,#200,.T.);
#585=EDGE_CURVE('',#439,#471,#201,.T.);
#586=EDGE_CURVE('',#471,#472,#202,.T.);
#587=EDGE_CURVE('',#473,#472,#203,.T.);
#588=EDGE_CURVE('',#474,#473,#204,.T.);
#589=EDGE_CURVE('',#474,#444,#205,.T.);
#590=EDGE_CURVE('',#475,#476,#206,.T.);
#591=EDGE_CURVE('',#477,#475,#207,.T.);
#592=EDGE_CURVE('',#477,#440,#208,.T.);
#593=EDGE_CURVE('',#443,#478,#209,.T.);
#594=EDGE_CURVE('',#478,#476,#210,.T.);
#595=EDGE_CURVE('',#447,#479,#211,.T.);
#596=EDGE_CURVE('',#479,#480,#212,.T.);
#597=EDGE_CURVE('',#464,#480,#213,.T.);
#598=EDGE_CURVE('',#463,#452,#214,.T.);
#599=EDGE_CURVE('',#481,#473,#215,.T.);
#600=EDGE_CURVE('',#482,#481,#216,.T.);
#601=EDGE_CURVE('',#482,#448,#217,.T.);
#602=EDGE_CURVE('',#451,#474,#218,.T.);
#603=EDGE_CURVE('',#455,#469,#219,.T.);
#604=EDGE_CURVE('',#483,#467,#220,.T.);
#605=EDGE_CURVE('',#484,#483,#221,.T.);
#606=EDGE_CURVE('',#484,#460,#222,.T.);
#607=EDGE_CURVE('',#485,#486,#223,.T.);
#608=EDGE_CURVE('',#486,#487,#224,.T.);
#609=EDGE_CURVE('',#487,#488,#225,.T.);
#610=EDGE_CURVE('',#488,#485,#226,.T.);
#611=EDGE_CURVE('',#489,#466,#227,.T.);
#612=EDGE_CURVE('',#479,#489,#228,.T.);
#613=EDGE_CURVE('',#490,#482,#229,.T.);
#614=EDGE_CURVE('',#471,#490,#230,.T.);
#615=EDGE_CURVE('',#491,#477,#231,.T.);
#616=EDGE_CURVE('',#492,#491,#232,.T.);
#617=EDGE_CURVE('',#459,#492,#233,.T.);
#618=EDGE_CURVE('',#493,#484,#234,.T.);
#619=EDGE_CURVE('',#470,#493,#235,.T.);
#620=EDGE_CURVE('',#478,#456,#236,.T.);
#621=EDGE_CURVE('',#476,#494,#237,.T.);
#622=EDGE_CURVE('',#492,#494,#238,.T.);
#623=EDGE_CURVE('',#495,#496,#239,.T.);
#624=EDGE_CURVE('',#496,#497,#240,.T.);
#625=EDGE_CURVE('',#497,#498,#241,.T.);
#626=EDGE_CURVE('',#498,#495,#242,.T.);
#627=EDGE_CURVE('',#499,#500,#243,.T.);
#628=EDGE_CURVE('',#499,#495,#244,.T.);
#629=EDGE_CURVE('',#500,#498,#245,.T.);
#630=EDGE_CURVE('',#501,#499,#246,.T.);
#631=EDGE_CURVE('',#501,#496,#247,.T.);
#632=EDGE_CURVE('',#500,#502,#248,.T.);
#633=EDGE_CURVE('',#502,#497,#249,.T.);
#634=EDGE_CURVE('',#502,#501,#250,.T.);
#635=EDGE_CURVE('',#489,#503,#251,.T.);
#636=EDGE_CURVE('',#480,#503,#252,.T.);
#637=EDGE_CURVE('',#503,#465,#253,.T.);
#638=EDGE_CURVE('',#504,#481,#254,.T.);
#639=EDGE_CURVE('',#490,#504,#255,.T.);
#640=EDGE_CURVE('',#472,#504,#256,.T.);
#641=EDGE_CURVE('',#493,#505,#257,.T.);
#642=EDGE_CURVE('',#468,#505,#258,.T.);
#643=EDGE_CURVE('',#505,#483,#259,.T.);
#644=EDGE_CURVE('',#506,#475,#260,.T.);
#645=EDGE_CURVE('',#491,#506,#261,.T.);
#646=EDGE_CURVE('',#494,#506,#262,.T.);
#647=EDGE_CURVE('',#486,#507,#263,.T.);
#648=EDGE_CURVE('',#508,#507,#264,.T.);
#649=EDGE_CURVE('',#487,#508,#265,.T.);
#650=EDGE_CURVE('',#509,#508,#266,.T.);
#651=EDGE_CURVE('',#488,#509,#267,.T.);
#652=EDGE_CURVE('',#510,#509,#268,.T.);
#653=EDGE_CURVE('',#485,#510,#269,.T.);
#654=EDGE_CURVE('',#507,#510,#270,.T.);
#655=ORIENTED_EDGE('',*,*,#511,.T.);
#656=ORIENTED_EDGE('',*,*,#512,.T.);
#657=ORIENTED_EDGE('',*,*,#513,.T.);
#658=ORIENTED_EDGE('',*,*,#514,.T.);
#659=ORIENTED_EDGE('',*,*,#515,.T.);
#660=ORIENTED_EDGE('',*,*,#516,.T.);
#661=ORIENTED_EDGE('',*,*,#517,.T.);
#662=ORIENTED_EDGE('',*,*,#518,.F.);
#663=ORIENTED_EDGE('',*,*,#519,.F.);
#664=ORIENTED_EDGE('',*,*,#520,.T.);
#665=ORIENTED_EDGE('',*,*,#512,.F.);
#666=ORIENTED_EDGE('',*,*,#521,.F.);
#667=ORIENTED_EDGE('',*,*,#522,.F.);
#668=ORIENTED_EDGE('',*,*,#523,.T.);
#669=ORIENTED_EDGE('',*,*,#517,.F.);
#670=ORIENTED_EDGE('',*,*,#524,.F.);
#671=ORIENTED_EDGE('',*,*,#525,.F.);
#672=ORIENTED_EDGE('',*,*,#526,.T.);
#673=ORIENTED_EDGE('',*,*,#515,.F.);
#674=ORIENTED_EDGE('',*,*,#527,.F.);
#675=ORIENTED_EDGE('',*,*,#528,.F.);
#676=ORIENTED_EDGE('',*,*,#527,.T.);
#677=ORIENTED_EDGE('',*,*,#518,.T.);
#678=ORIENTED_EDGE('',*,*,#523,.F.);
#679=ORIENTED_EDGE('',*,*,#529,.F.);
#680=ORIENTED_EDGE('',*,*,#521,.T.);
#681=ORIENTED_EDGE('',*,*,#511,.F.);
#682=ORIENTED_EDGE('',*,*,#530,.F.);
#683=ORIENTED_EDGE('',*,*,#531,.F.);
#684=ORIENTED_EDGE('',*,*,#530,.T.);
#685=ORIENTED_EDGE('',*,*,#514,.F.);
#686=ORIENTED_EDGE('',*,*,#532,.F.);
#687=ORIENTED_EDGE('',*,*,#533,.F.);
#688=ORIENTED_EDGE('',*,*,#532,.T.);
#689=ORIENTED_EDGE('',*,*,#513,.F.);
#690=ORIENTED_EDGE('',*,*,#520,.F.);
#691=ORIENTED_EDGE('',*,*,#534,.F.);
#692=ORIENTED_EDGE('',*,*,#524,.T.);
#693=ORIENTED_EDGE('',*,*,#516,.F.);
#694=ORIENTED_EDGE('',*,*,#526,.F.);
#695=ORIENTED_EDGE('',*,*,#535,.F.);
#696=ORIENTED_EDGE('',*,*,#536,.T.);
#697=ORIENTED_EDGE('',*,*,#537,.T.);
#698=ORIENTED_EDGE('',*,*,#538,.F.);
#699=ORIENTED_EDGE('',*,*,#539,.F.);
#700=ORIENTED_EDGE('',*,*,#540,.T.);
#701=ORIENTED_EDGE('',*,*,#541,.T.);
#702=ORIENTED_EDGE('',*,*,#542,.F.);
#703=ORIENTED_EDGE('',*,*,#537,.F.);
#704=ORIENTED_EDGE('',*,*,#543,.F.);
#705=ORIENTED_EDGE('',*,*,#541,.F.);
#706=ORIENTED_EDGE('',*,*,#544,.F.);
#707=ORIENTED_EDGE('',*,*,#545,.F.);
#708=ORIENTED_EDGE('',*,*,#546,.T.);
#709=ORIENTED_EDGE('',*,*,#547,.T.);
#710=ORIENTED_EDGE('',*,*,#548,.F.);
#711=ORIENTED_EDGE('',*,*,#549,.F.);
#712=ORIENTED_EDGE('',*,*,#550,.T.);
#713=ORIENTED_EDGE('',*,*,#551,.T.);
#714=ORIENTED_EDGE('',*,*,#552,.F.);
#715=ORIENTED_EDGE('',*,*,#547,.F.);
#716=ORIENTED_EDGE('',*,*,#553,.F.);
#717=ORIENTED_EDGE('',*,*,#551,.F.);
#718=ORIENTED_EDGE('',*,*,#554,.F.);
#719=ORIENTED_EDGE('',*,*,#555,.F.);
#720=ORIENTED_EDGE('',*,*,#556,.T.);
#721=ORIENTED_EDGE('',*,*,#557,.T.);
#722=ORIENTED_EDGE('',*,*,#558,.F.);
#723=ORIENTED_EDGE('',*,*,#559,.F.);
#724=ORIENTED_EDGE('',*,*,#560,.T.);
#725=ORIENTED_EDGE('',*,*,#561,.T.);
#726=ORIENTED_EDGE('',*,*,#562,.F.);
#727=ORIENTED_EDGE('',*,*,#563,.F.);
#728=ORIENTED_EDGE('',*,*,#557,.F.);
#729=ORIENTED_EDGE('',*,*,#564,.F.);
#730=ORIENTED_EDGE('',*,*,#561,.F.);
#731=ORIENTED_EDGE('',*,*,#565,.F.);
#732=ORIENTED_EDGE('',*,*,#566,.T.);
#733=ORIENTED_EDGE('',*,*,#567,.T.);
#734=ORIENTED_EDGE('',*,*,#568,.F.);
#735=ORIENTED_EDGE('',*,*,#569,.F.);
#736=ORIENTED_EDGE('',*,*,#570,.T.);
#737=ORIENTED_EDGE('',*,*,#571,.T.);
#738=ORIENTED_EDGE('',*,*,#572,.F.);
#739=ORIENTED_EDGE('',*,*,#567,.F.);
#740=ORIENTED_EDGE('',*,*,#573,.F.);
#741=ORIENTED_EDGE('',*,*,#571,.F.);
#742=ORIENTED_EDGE('',*,*,#574,.F.);
#743=ORIENTED_EDGE('',*,*,#575,.T.);
#744=ORIENTED_EDGE('',*,*,#576,.T.);
#745=ORIENTED_EDGE('',*,*,#577,.F.);
#746=ORIENTED_EDGE('',*,*,#578,.F.);
#747=ORIENTED_EDGE('',*,*,#579,.T.);
#748=ORIENTED_EDGE('',*,*,#542,.T.);
#749=ORIENTED_EDGE('',*,*,#543,.T.);
#750=ORIENTED_EDGE('',*,*,#536,.F.);
#751=ORIENTED_EDGE('',*,*,#580,.F.);
#752=ORIENTED_EDGE('',*,*,#581,.F.);
#753=ORIENTED_EDGE('',*,*,#582,.T.);
#754=ORIENTED_EDGE('',*,*,#538,.T.);
#755=ORIENTED_EDGE('',*,*,#544,.T.);
#756=ORIENTED_EDGE('',*,*,#540,.F.);
#757=ORIENTED_EDGE('',*,*,#583,.T.);
#758=ORIENTED_EDGE('',*,*,#584,.T.);
#759=ORIENTED_EDGE('',*,*,#585,.T.);
#760=ORIENTED_EDGE('',*,*,#586,.T.);
#761=ORIENTED_EDGE('',*,*,#587,.F.);
#762=ORIENTED_EDGE('',*,*,#588,.F.);
#763=ORIENTED_EDGE('',*,*,#589,.T.);
#764=ORIENTED_EDGE('',*,*,#552,.T.);
#765=ORIENTED_EDGE('',*,*,#553,.T.);
#766=ORIENTED_EDGE('',*,*,#546,.F.);
#767=ORIENTED_EDGE('',*,*,#590,.F.);
#768=ORIENTED_EDGE('',*,*,#591,.F.);
#769=ORIENTED_EDGE('',*,*,#592,.T.);
#770=ORIENTED_EDGE('',*,*,#548,.T.);
#771=ORIENTED_EDGE('',*,*,#554,.T.);
#772=ORIENTED_EDGE('',*,*,#550,.F.);
#773=ORIENTED_EDGE('',*,*,#593,.T.);
#774=ORIENTED_EDGE('',*,*,#594,.T.);
#775=ORIENTED_EDGE('',*,*,#595,.T.);
#776=ORIENTED_EDGE('',*,*,#596,.T.);
#777=ORIENTED_EDGE('',*,*,#597,.F.);
#778=ORIENTED_EDGE('',*,*,#576,.F.);
#779=ORIENTED_EDGE('',*,*,#598,.T.);
#780=ORIENTED_EDGE('',*,*,#562,.T.);
#781=ORIENTED_EDGE('',*,*,#564,.T.);
#782=ORIENTED_EDGE('',*,*,#556,.F.);
#783=ORIENTED_EDGE('',*,*,#599,.F.);
#784=ORIENTED_EDGE('',*,*,#600,.F.);
#785=ORIENTED_EDGE('',*,*,#601,.T.);
#786=ORIENTED_EDGE('',*,*,#558,.T.);
#787=ORIENTED_EDGE('',*,*,#563,.T.);
#788=ORIENTED_EDGE('',*,*,#560,.F.);
#789=ORIENTED_EDGE('',*,*,#602,.T.);
#790=ORIENTED_EDGE('',*,*,#588,.T.);
#791=ORIENTED_EDGE('',*,*,#603,.T.);
#792=ORIENTED_EDGE('',*,*,#581,.T.);
#793=ORIENTED_EDGE('',*,*,#604,.F.);
#794=ORIENTED_EDGE('',*,*,#605,.F.);
#795=ORIENTED_EDGE('',*,*,#606,.T.);
#796=ORIENTED_EDGE('',*,*,#572,.T.);
#797=ORIENTED_EDGE('',*,*,#573,.T.);
#798=ORIENTED_EDGE('',*,*,#566,.F.);
#799=ORIENTED_EDGE('',*,*,#607,.T.);
#800=ORIENTED_EDGE('',*,*,#608,.T.);
#801=ORIENTED_EDGE('',*,*,#609,.T.);
#802=ORIENTED_EDGE('',*,*,#610,.T.);
#803=ORIENTED_EDGE('',*,*,#539,.T.);
#804=ORIENTED_EDGE('',*,*,#579,.F.);
#805=ORIENTED_EDGE('',*,*,#611,.F.);
#806=ORIENTED_EDGE('',*,*,#612,.F.);
#807=ORIENTED_EDGE('',*,*,#595,.F.);
#808=ORIENTED_EDGE('',*,*,#555,.T.);
#809=ORIENTED_EDGE('',*,*,#601,.F.);
#810=ORIENTED_EDGE('',*,*,#613,.F.);
#811=ORIENTED_EDGE('',*,*,#614,.F.);
#812=ORIENTED_EDGE('',*,*,#585,.F.);
#813=ORIENTED_EDGE('',*,*,#545,.T.);
#814=ORIENTED_EDGE('',*,*,#592,.F.);
#815=ORIENTED_EDGE('',*,*,#615,.F.);
#816=ORIENTED_EDGE('',*,*,#616,.F.);
#817=ORIENTED_EDGE('',*,*,#617,.F.);
#818=ORIENTED_EDGE('',*,*,#569,.T.);
#819=ORIENTED_EDGE('',*,*,#606,.F.);
#820=ORIENTED_EDGE('',*,*,#618,.F.);
#821=ORIENTED_EDGE('',*,*,#619,.F.);
#822=ORIENTED_EDGE('',*,*,#583,.F.);
#823=ORIENTED_EDGE('',*,*,#535,.T.);
#824=ORIENTED_EDGE('',*,*,#582,.F.);
#825=ORIENTED_EDGE('',*,*,#603,.F.);
#826=ORIENTED_EDGE('',*,*,#565,.T.);
#827=ORIENTED_EDGE('',*,*,#620,.F.);
#828=ORIENTED_EDGE('',*,*,#593,.F.);
#829=ORIENTED_EDGE('',*,*,#549,.T.);
#830=ORIENTED_EDGE('',*,*,#589,.F.);
#831=ORIENTED_EDGE('',*,*,#602,.F.);
#832=ORIENTED_EDGE('',*,*,#559,.T.);
#833=ORIENTED_EDGE('',*,*,#598,.F.);
#834=ORIENTED_EDGE('',*,*,#575,.F.);
#835=ORIENTED_EDGE('',*,*,#621,.F.);
#836=ORIENTED_EDGE('',*,*,#594,.F.);
#837=ORIENTED_EDGE('',*,*,#620,.T.);
#838=ORIENTED_EDGE('',*,*,#568,.T.);
#839=ORIENTED_EDGE('',*,*,#574,.T.);
#840=ORIENTED_EDGE('',*,*,#570,.F.);
#841=ORIENTED_EDGE('',*,*,#617,.T.);
#842=ORIENTED_EDGE('',*,*,#622,.T.);
#843=ORIENTED_EDGE('',*,*,#623,.T.);
#844=ORIENTED_EDGE('',*,*,#624,.T.);
#845=ORIENTED_EDGE('',*,*,#625,.T.);
#846=ORIENTED_EDGE('',*,*,#626,.T.);
#847=ORIENTED_EDGE('',*,*,#522,.T.);
#848=ORIENTED_EDGE('',*,*,#534,.T.);
#849=ORIENTED_EDGE('',*,*,#519,.T.);
#850=ORIENTED_EDGE('',*,*,#529,.T.);
#851=ORIENTED_EDGE('',*,*,#525,.T.);
#852=ORIENTED_EDGE('',*,*,#528,.T.);
#853=ORIENTED_EDGE('',*,*,#531,.T.);
#854=ORIENTED_EDGE('',*,*,#533,.T.);
#855=ORIENTED_EDGE('',*,*,#627,.F.);
#856=ORIENTED_EDGE('',*,*,#628,.T.);
#857=ORIENTED_EDGE('',*,*,#626,.F.);
#858=ORIENTED_EDGE('',*,*,#629,.F.);
#859=ORIENTED_EDGE('',*,*,#630,.F.);
#860=ORIENTED_EDGE('',*,*,#631,.T.);
#861=ORIENTED_EDGE('',*,*,#623,.F.);
#862=ORIENTED_EDGE('',*,*,#628,.F.);
#863=ORIENTED_EDGE('',*,*,#632,.F.);
#864=ORIENTED_EDGE('',*,*,#629,.T.);
#865=ORIENTED_EDGE('',*,*,#625,.F.);
#866=ORIENTED_EDGE('',*,*,#633,.F.);
#867=ORIENTED_EDGE('',*,*,#634,.F.);
#868=ORIENTED_EDGE('',*,*,#633,.T.);
#869=ORIENTED_EDGE('',*,*,#624,.F.);
#870=ORIENTED_EDGE('',*,*,#631,.F.);
#871=ORIENTED_EDGE('',*,*,#612,.T.);
#872=ORIENTED_EDGE('',*,*,#635,.T.);
#873=ORIENTED_EDGE('',*,*,#636,.F.);
#874=ORIENTED_EDGE('',*,*,#596,.F.);
#875=ORIENTED_EDGE('',*,*,#611,.T.);
#876=ORIENTED_EDGE('',*,*,#578,.T.);
#877=ORIENTED_EDGE('',*,*,#637,.F.);
#878=ORIENTED_EDGE('',*,*,#635,.F.);
#879=ORIENTED_EDGE('',*,*,#637,.T.);
#880=ORIENTED_EDGE('',*,*,#577,.T.);
#881=ORIENTED_EDGE('',*,*,#597,.T.);
#882=ORIENTED_EDGE('',*,*,#636,.T.);
#883=ORIENTED_EDGE('',*,*,#613,.T.);
#884=ORIENTED_EDGE('',*,*,#600,.T.);
#885=ORIENTED_EDGE('',*,*,#638,.F.);
#886=ORIENTED_EDGE('',*,*,#639,.F.);
#887=ORIENTED_EDGE('',*,*,#614,.T.);
#888=ORIENTED_EDGE('',*,*,#639,.T.);
#889=ORIENTED_EDGE('',*,*,#640,.F.);
#890=ORIENTED_EDGE('',*,*,#586,.F.);
#891=ORIENTED_EDGE('',*,*,#599,.T.);
#892=ORIENTED_EDGE('',*,*,#587,.T.);
#893=ORIENTED_EDGE('',*,*,#640,.T.);
#894=ORIENTED_EDGE('',*,*,#638,.T.);
#895=ORIENTED_EDGE('',*,*,#619,.T.);
#896=ORIENTED_EDGE('',*,*,#641,.T.);
#897=ORIENTED_EDGE('',*,*,#642,.F.);
#898=ORIENTED_EDGE('',*,*,#584,.F.);
#899=ORIENTED_EDGE('',*,*,#618,.T.);
#900=ORIENTED_EDGE('',*,*,#605,.T.);
#901=ORIENTED_EDGE('',*,*,#643,.F.);
#902=ORIENTED_EDGE('',*,*,#641,.F.);
#903=ORIENTED_EDGE('',*,*,#642,.T.);
#904=ORIENTED_EDGE('',*,*,#643,.T.);
#905=ORIENTED_EDGE('',*,*,#604,.T.);
#906=ORIENTED_EDGE('',*,*,#580,.T.);
#907=ORIENTED_EDGE('',*,*,#615,.T.);
#908=ORIENTED_EDGE('',*,*,#591,.T.);
#909=ORIENTED_EDGE('',*,*,#644,.F.);
#910=ORIENTED_EDGE('',*,*,#645,.F.);
#911=ORIENTED_EDGE('',*,*,#616,.T.);
#912=ORIENTED_EDGE('',*,*,#645,.T.);
#913=ORIENTED_EDGE('',*,*,#646,.F.);
#914=ORIENTED_EDGE('',*,*,#622,.F.);
#915=ORIENTED_EDGE('',*,*,#621,.T.);
#916=ORIENTED_EDGE('',*,*,#646,.T.);
#917=ORIENTED_EDGE('',*,*,#644,.T.);
#918=ORIENTED_EDGE('',*,*,#590,.T.);
#919=ORIENTED_EDGE('',*,*,#608,.F.);
#920=ORIENTED_EDGE('',*,*,#647,.T.);
#921=ORIENTED_EDGE('',*,*,#648,.F.);
#922=ORIENTED_EDGE('',*,*,#649,.F.);
#923=ORIENTED_EDGE('',*,*,#609,.F.);
#924=ORIENTED_EDGE('',*,*,#649,.T.);
#925=ORIENTED_EDGE('',*,*,#650,.F.);
#926=ORIENTED_EDGE('',*,*,#651,.F.);
#927=ORIENTED_EDGE('',*,*,#610,.F.);
#928=ORIENTED_EDGE('',*,*,#651,.T.);
#929=ORIENTED_EDGE('',*,*,#652,.F.);
#930=ORIENTED_EDGE('',*,*,#653,.F.);
#931=ORIENTED_EDGE('',*,*,#607,.F.);
#932=ORIENTED_EDGE('',*,*,#653,.T.);
#933=ORIENTED_EDGE('',*,*,#654,.F.);
#934=ORIENTED_EDGE('',*,*,#647,.F.);
#935=ORIENTED_EDGE('',*,*,#654,.T.);
#936=ORIENTED_EDGE('',*,*,#652,.T.);
#937=ORIENTED_EDGE('',*,*,#650,.T.);
#938=ORIENTED_EDGE('',*,*,#648,.T.);
#939=ORIENTED_EDGE('',*,*,#630,.T.);
#940=ORIENTED_EDGE('',*,*,#627,.T.);
#941=ORIENTED_EDGE('',*,*,#632,.T.);
#942=ORIENTED_EDGE('',*,*,#634,.T.);
#943=PLANE('',#1049);
#944=PLANE('',#1050);
#945=PLANE('',#1051);
#946=PLANE('',#1052);
#947=PLANE('',#1053);
#948=PLANE('',#1054);
#949=PLANE('',#1055);
#950=PLANE('',#1056);
#951=PLANE('',#1057);
#952=PLANE('',#1058);
#953=PLANE('',#1059);
#954=PLANE('',#1060);
#955=PLANE('',#1061);
#956=PLANE('',#1062);
#957=PLANE('',#1063);
#958=PLANE('',#1064);
#959=PLANE('',#1065);
#960=PLANE('',#1066);
#961=PLANE('',#1067);
#962=PLANE('',#1068);
#963=PLANE('',#1069);
#964=PLANE('',#1070);
#965=PLANE('',#1071);
#966=PLANE('',#1072);
#967=PLANE('',#1073);
#968=PLANE('',#1074);
#969=PLANE('',#1075);
#970=PLANE('',#1076);
#971=PLANE('',#1077);
#972=PLANE('',#1078);
#973=PLANE('',#1079);
#974=PLANE('',#1080);
#975=PLANE('',#1081);
#976=PLANE('',#1082);
#977=PLANE('',#1083);
#978=PLANE('',#1084);
#979=PLANE('',#1085);
#980=PLANE('',#1086);
#981=PLANE('',#1087);
#982=PLANE('',#1088);
#983=PLANE('',#1089);
#984=PLANE('',#1090);
#985=PLANE('',#1091);
#986=PLANE('',#1092);
#987=PLANE('',#1093);
#988=PLANE('',#1094);
#989=PLANE('',#1095);
#990=PLANE('',#1096);
#991=PLANE('',#1097);
#992=PLANE('',#1098);
#993=PLANE('',#1099);
#994=PLANE('',#1100);
#995=ADVANCED_FACE('',(#19),#943,.T.);
#996=ADVANCED_FACE('',(#20),#944,.F.);
#997=ADVANCED_FACE('',(#21),#945,.T.);
#998=ADVANCED_FACE('',(#22),#946,.T.);
#999=ADVANCED_FACE('',(#23),#947,.T.);
#1000=ADVANCED_FACE('',(#24),#948,.T.);
#1001=ADVANCED_FACE('',(#25),#949,.T.);
#1002=ADVANCED_FACE('',(#26),#950,.T.);
#1003=ADVANCED_FACE('',(#27),#951,.F.);
#1004=ADVANCED_FACE('',(#28),#952,.F.);
#1005=ADVANCED_FACE('',(#29),#953,.F.);
#1006=ADVANCED_FACE('',(#30),#954,.F.);
#1007=ADVANCED_FACE('',(#31),#955,.F.);
#1008=ADVANCED_FACE('',(#32),#956,.F.);
#1009=ADVANCED_FACE('',(#33),#957,.F.);
#1010=ADVANCED_FACE('',(#34),#958,.F.);
#1011=ADVANCED_FACE('',(#35),#959,.F.);
#1012=ADVANCED_FACE('',(#36),#960,.F.);
#1013=ADVANCED_FACE('',(#37),#961,.F.);
#1014=ADVANCED_FACE('',(#38),#962,.F.);
#1015=ADVANCED_FACE('',(#39),#963,.T.);
#1016=ADVANCED_FACE('',(#40),#964,.T.);
#1017=ADVANCED_FACE('',(#41),#965,.T.);
#1018=ADVANCED_FACE('',(#42),#966,.T.);
#1019=ADVANCED_FACE('',(#43),#967,.T.);
#1020=ADVANCED_FACE('',(#44),#968,.T.);
#1021=ADVANCED_FACE('',(#45),#969,.T.);
#1022=ADVANCED_FACE('',(#46,#15),#970,.F.);
#1023=ADVANCED_FACE('',(#47),#971,.F.);
#1024=ADVANCED_FACE('',(#48),#972,.T.);
#1025=ADVANCED_FACE('',(#49,#16,#17),#973,.T.);
#1026=ADVANCED_FACE('',(#50),#974,.T.);
#1027=ADVANCED_FACE('',(#51),#975,.T.);
#1028=ADVANCED_FACE('',(#52),#976,.T.);
#1029=ADVANCED_FACE('',(#53),#977,.T.);
#1030=ADVANCED_FACE('',(#54),#978,.T.);
#1031=ADVANCED_FACE('',(#55),#979,.T.);
#1032=ADVANCED_FACE('',(#56),#980,.T.);
#1033=ADVANCED_FACE('',(#57),#981,.T.);
#1034=ADVANCED_FACE('',(#58),#982,.T.);
#1035=ADVANCED_FACE('',(#59),#983,.T.);
#1036=ADVANCED_FACE('',(#60),#984,.T.);
#1037=ADVANCED_FACE('',(#61),#985,.T.);
#1038=ADVANCED_FACE('',(#62),#986,.T.);
#1039=ADVANCED_FACE('',(#63),#987,.T.);
#1040=ADVANCED_FACE('',(#64),#988,.T.);
#1041=ADVANCED_FACE('',(#65),#989,.T.);
#1042=ADVANCED_FACE('',(#66),#990,.T.);
#1043=ADVANCED_FACE('',(#67),#991,.T.);
#1044=ADVANCED_FACE('',(#68),#992,.T.);
#1045=ADVANCED_FACE('',(#69),#993,.T.);
#1046=ADVANCED_FACE('',(#70,#18),#994,.T.);
#1047=CLOSED_SHELL('',(#995,#996,#997,#998,#999,#1000,#1001,#1002,#1003,
#1004,#1005,#1006,#1007,#1008,#1009,#1010,#1011,#1012,#1013,#1014,#1015,
#1016,#1017,#1018,#1019,#1020,#1021,#1022,#1023,#1024,#1025,#1026,#1027,
#1028,#1029,#1030,#1031,#1032,#1033,#1034,#1035,#1036,#1037,#1038,#1039,
#1040,#1041,#1042,#1043,#1044,#1045,#1046));
#1048=AXIS2_PLACEMENT_3D('',#1351,#1101,#1102);
#1049=AXIS2_PLACEMENT_3D('',#1352,#1103,#1104);
#1050=AXIS2_PLACEMENT_3D('',#1361,#1109,#1110);
#1051=AXIS2_PLACEMENT_3D('',#1370,#1115,#1116);
#1052=AXIS2_PLACEMENT_3D('',#1376,#1120,#1121);
#1053=AXIS2_PLACEMENT_3D('',#1382,#1125,#1126);
#1054=AXIS2_PLACEMENT_3D('',#1388,#1130,#1131);
#1055=AXIS2_PLACEMENT_3D('',#1393,#1135,#1136);
#1056=AXIS2_PLACEMENT_3D('',#1397,#1139,#1140);
#1057=AXIS2_PLACEMENT_3D('',#1400,#1143,#1144);
#1058=AXIS2_PLACEMENT_3D('',#1409,#1149,#1150);
#1059=AXIS2_PLACEMENT_3D('',#1418,#1155,#1156);
#1060=AXIS2_PLACEMENT_3D('',#1421,#1159,#1160);
#1061=AXIS2_PLACEMENT_3D('',#1430,#1165,#1166);
#1062=AXIS2_PLACEMENT_3D('',#1439,#1171,#1172);
#1063=AXIS2_PLACEMENT_3D('',#1442,#1175,#1176);
#1064=AXIS2_PLACEMENT_3D('',#1451,#1181,#1182);
#1065=AXIS2_PLACEMENT_3D('',#1460,#1187,#1188);
#1066=AXIS2_PLACEMENT_3D('',#1463,#1191,#1192);
#1067=AXIS2_PLACEMENT_3D('',#1472,#1197,#1198);
#1068=AXIS2_PLACEMENT_3D('',#1481,#1203,#1204);
#1069=AXIS2_PLACEMENT_3D('',#1484,#1207,#1208);
#1070=AXIS2_PLACEMENT_3D('',#1494,#1214,#1215);
#1071=AXIS2_PLACEMENT_3D('',#1504,#1221,#1222);
#1072=AXIS2_PLACEMENT_3D('',#1514,#1228,#1229);
#1073=AXIS2_PLACEMENT_3D('',#1524,#1235,#1236);
#1074=AXIS2_PLACEMENT_3D('',#1531,#1241,#1242);
#1075=AXIS2_PLACEMENT_3D('',#1538,#1247,#1248);
#1076=AXIS2_PLACEMENT_3D('',#1545,#1253,#1254);
#1077=AXIS2_PLACEMENT_3D('',#1568,#1268,#1269);
#1078=AXIS2_PLACEMENT_3D('',#1570,#1271,#1272);
#1079=AXIS2_PLACEMENT_3D('',#1574,#1275,#1276);
#1080=AXIS2_PLACEMENT_3D('',#1583,#1281,#1282);
#1081=AXIS2_PLACEMENT_3D('',#1589,#1286,#1287);
#1082=AXIS2_PLACEMENT_3D('',#1593,#1290,#1291);
#1083=AXIS2_PLACEMENT_3D('',#1597,#1294,#1295);
#1084=AXIS2_PLACEMENT_3D('',#1599,#1297,#1298);
#1085=AXIS2_PLACEMENT_3D('',#1603,#1301,#1302);
#1086=AXIS2_PLACEMENT_3D('',#1605,#1304,#1305);
#1087=AXIS2_PLACEMENT_3D('',#1606,#1306,#1307);
#1088=AXIS2_PLACEMENT_3D('',#1610,#1310,#1311);
#1089=AXIS2_PLACEMENT_3D('',#1612,#1313,#1314);
#1090=AXIS2_PLACEMENT_3D('',#1613,#1315,#1316);
#1091=AXIS2_PLACEMENT_3D('',#1617,#1319,#1320);
#1092=AXIS2_PLACEMENT_3D('',#1619,#1322,#1323);
#1093=AXIS2_PLACEMENT_3D('',#1620,#1324,#1325);
#1094=AXIS2_PLACEMENT_3D('',#1624,#1328,#1329);
#1095=AXIS2_PLACEMENT_3D('',#1626,#1331,#1332);
#1096=AXIS2_PLACEMENT_3D('',#1627,#1333,#1334);
#1097=AXIS2_PLACEMENT_3D('',#1633,#1338,#1339);
#1098=AXIS2_PLACEMENT_3D('',#1637,#1342,#1343);
#1099=AXIS2_PLACEMENT_3D('',#1641,#1346,#1347);
#1100=AXIS2_PLACEMENT_3D('',#1643,#1349,#1350);
#1101=DIRECTION('axis',(0.,0.,1.));
#1102=DIRECTION('refdir',(1.,0.,0.));
#1103=DIRECTION('center_axis',(0.,0.,1.));
#1104=DIRECTION('ref_axis',(1.,0.,0.));
#1105=DIRECTION('',(0.707106781186543,-0.707106781186552,0.));
#1106=DIRECTION('',(0.707106781186549,0.707106781186546,0.));
#1107=DIRECTION('',(-0.707106781186542,0.707106781186553,0.));
#1108=DIRECTION('',(-0.707106781186545,-0.707106781186551,0.));
#1109=DIRECTION('center_axis',(0.,0.,1.));
#1110=DIRECTION('ref_axis',(-1.,0.,0.));
#1111=DIRECTION('',(0.707106781186546,0.707106781186549,0.));
#1112=DIRECTION('',(0.707106781186542,-0.707106781186553,0.));
#1113=DIRECTION('',(-0.707106781186551,-0.707106781186544,0.));
#1114=DIRECTION('',(0.707106781186543,-0.707106781186552,0.));
#1115=DIRECTION('center_axis',(0.707106781186546,-0.707106781186549,0.));
#1116=DIRECTION('ref_axis',(0.707106781186549,0.707106781186546,0.));
#1117=DIRECTION('',(-0.707106781186549,-0.707106781186546,0.));
#1118=DIRECTION('',(0.,0.,1.));
#1119=DIRECTION('',(0.,0.,1.));
#1120=DIRECTION('center_axis',(-0.707106781186544,0.707106781186551,0.));
#1121=DIRECTION('ref_axis',(-0.707106781186551,-0.707106781186544,0.));
#1122=DIRECTION('',(0.707106781186551,0.707106781186544,0.));
#1123=DIRECTION('',(0.,0.,1.));
#1124=DIRECTION('',(0.,0.,1.));
#1125=DIRECTION('center_axis',(0.707106781186549,-0.707106781186546,0.));
#1126=DIRECTION('ref_axis',(0.707106781186546,0.707106781186549,0.));
#1127=DIRECTION('',(-0.707106781186546,-0.707106781186549,0.));
#1128=DIRECTION('',(0.,0.,1.));
#1129=DIRECTION('',(0.,0.,1.));
#1130=DIRECTION('center_axis',(-0.707106781186548,-0.707106781186548,0.));
#1131=DIRECTION('ref_axis',(0.707106781186548,-0.707106781186548,0.));
#1132=DIRECTION('',(-0.707106781186548,0.707106781186548,0.));
#1133=DIRECTION('',(-0.707106781186548,0.707106781186548,0.));
#1134=DIRECTION('',(0.,0.,1.));
#1135=DIRECTION('center_axis',(-0.707106781186551,0.707106781186545,0.));
#1136=DIRECTION('ref_axis',(-0.707106781186545,-0.707106781186551,0.));
#1137=DIRECTION('',(0.707106781186545,0.707106781186551,0.));
#1138=DIRECTION('',(0.,0.,1.));
#1139=DIRECTION('center_axis',(0.707106781186552,0.707106781186543,0.));
#1140=DIRECTION('ref_axis',(-0.707106781186543,0.707106781186552,0.));
#1141=DIRECTION('',(0.707106781186543,-0.707106781186552,0.));
#1142=DIRECTION('',(0.707106781186543,-0.707106781186552,0.));
#1143=DIRECTION('center_axis',(0.,1.,0.));
#1144=DIRECTION('ref_axis',(-1.,0.,0.));
#1145=DIRECTION('',(-1.,0.,0.));
#1146=DIRECTION('',(0.,0.,1.));
#1147=DIRECTION('',(-1.,0.,0.));
#1148=DIRECTION('',(0.,0.,1.));
#1149=DIRECTION('center_axis',(0.,-1.,0.));
#1150=DIRECTION('ref_axis',(1.,0.,0.));
#1151=DIRECTION('',(1.,0.,0.));
#1152=DIRECTION('',(0.,0.,1.));
#1153=DIRECTION('',(1.,0.,0.));
#1154=DIRECTION('',(0.,0.,1.));
#1155=DIRECTION('center_axis',(0.,0.,1.));
#1156=DIRECTION('ref_axis',(1.,0.,0.));
#1157=DIRECTION('',(0.,1.,0.));
#1158=DIRECTION('',(0.,-1.,0.));
#1159=DIRECTION('center_axis',(0.,1.,0.));
#1160=DIRECTION('ref_axis',(-1.,0.,0.));
#1161=DIRECTION('',(-1.,0.,0.));
#1162=DIRECTION('',(0.,0.,1.));
#1163=DIRECTION('',(-1.,0.,0.));
#1164=DIRECTION('',(0.,0.,1.));
#1165=DIRECTION('center_axis',(0.,-1.,0.));
#1166=DIRECTION('ref_axis',(1.,0.,0.));
#1167=DIRECTION('',(1.,0.,0.));
#1168=DIRECTION('',(0.,0.,1.));
#1169=DIRECTION('',(1.,0.,0.));
#1170=DIRECTION('',(0.,0.,1.));
#1171=DIRECTION('center_axis',(0.,0.,1.));
#1172=DIRECTION('ref_axis',(1.,0.,0.));
#1173=DIRECTION('',(0.,1.,0.));
#1174=DIRECTION('',(0.,-1.,0.));
#1175=DIRECTION('center_axis',(1.,0.,0.));
#1176=DIRECTION('ref_axis',(0.,1.,0.));
#1177=DIRECTION('',(0.,1.,0.));
#1178=DIRECTION('',(0.,0.,1.));
#1179=DIRECTION('',(0.,1.,0.));
#1180=DIRECTION('',(0.,0.,1.));
#1181=DIRECTION('center_axis',(-1.,0.,0.));
#1182=DIRECTION('ref_axis',(0.,-1.,0.));
#1183=DIRECTION('',(0.,-1.,0.));
#1184=DIRECTION('',(0.,0.,1.));
#1185=DIRECTION('',(0.,-1.,0.));
#1186=DIRECTION('',(0.,0.,1.));
#1187=DIRECTION('center_axis',(0.,0.,1.));
#1188=DIRECTION('ref_axis',(1.,0.,0.));
#1189=DIRECTION('',(-1.,0.,0.));
#1190=DIRECTION('',(1.,0.,0.));
#1191=DIRECTION('center_axis',(1.,0.,0.));
#1192=DIRECTION('ref_axis',(0.,1.,0.));
#1193=DIRECTION('',(0.,1.,0.));
#1194=DIRECTION('',(0.,0.,1.));
#1195=DIRECTION('',(0.,1.,0.));
#1196=DIRECTION('',(0.,0.,1.));
#1197=DIRECTION('center_axis',(-1.,0.,0.));
#1198=DIRECTION('ref_axis',(0.,-1.,0.));
#1199=DIRECTION('',(0.,-1.,0.));
#1200=DIRECTION('',(0.,0.,1.));
#1201=DIRECTION('',(0.,-1.,0.));
#1202=DIRECTION('',(0.,0.,1.));
#1203=DIRECTION('center_axis',(0.,0.,1.));
#1204=DIRECTION('ref_axis',(1.,0.,0.));
#1205=DIRECTION('',(1.,0.,0.));
#1206=DIRECTION('',(-1.,0.,0.));
#1207=DIRECTION('center_axis',(-1.,0.,0.));
#1208=DIRECTION('ref_axis',(0.,1.,0.));
#1209=DIRECTION('',(0.,1.,0.));
#1210=DIRECTION('',(0.,0.,-1.));
#1211=DIRECTION('',(0.,1.,0.));
#1212=DIRECTION('',(0.,0.,-1.));
#1213=DIRECTION('',(0.,1.,0.));
#1214=DIRECTION('center_axis',(1.,0.,0.));
#1215=DIRECTION('ref_axis',(0.,-1.,0.));
#1216=DIRECTION('',(0.,-1.,0.));
#1217=DIRECTION('',(0.,0.,-1.));
#1218=DIRECTION('',(0.,-1.,0.));
#1219=DIRECTION('',(0.,-1.,0.));
#1220=DIRECTION('',(0.,0.,-1.));
#1221=DIRECTION('center_axis',(-1.,0.,0.));
#1222=DIRECTION('ref_axis',(0.,1.,0.));
#1223=DIRECTION('',(0.,1.,0.));
#1224=DIRECTION('',(0.,0.,-1.));
#1225=DIRECTION('',(0.,1.,0.));
#1226=DIRECTION('',(0.,0.,-1.));
#1227=DIRECTION('',(0.,1.,0.));
#1228=DIRECTION('center_axis',(1.,0.,0.));
#1229=DIRECTION('ref_axis',(0.,-1.,0.));
#1230=DIRECTION('',(0.,-1.,0.));
#1231=DIRECTION('',(0.,0.,-1.));
#1232=DIRECTION('',(0.,-1.,0.));
#1233=DIRECTION('',(0.,-1.,0.));
#1234=DIRECTION('',(0.,0.,-1.));
#1235=DIRECTION('center_axis',(0.,1.,0.));
#1236=DIRECTION('ref_axis',(1.,0.,0.));
#1237=DIRECTION('',(1.,0.,0.));
#1238=DIRECTION('',(0.,0.,-1.));
#1239=DIRECTION('',(1.,0.,0.));
#1240=DIRECTION('',(1.,0.,0.));
#1241=DIRECTION('center_axis',(0.,-1.,0.));
#1242=DIRECTION('ref_axis',(-1.,0.,0.));
#1243=DIRECTION('',(-1.,0.,0.));
#1244=DIRECTION('',(0.,0.,-1.));
#1245=DIRECTION('',(-1.,0.,0.));
#1246=DIRECTION('',(-1.,0.,0.));
#1247=DIRECTION('center_axis',(0.,1.,0.));
#1248=DIRECTION('ref_axis',(1.,0.,0.));
#1249=DIRECTION('',(1.,0.,0.));
#1250=DIRECTION('',(1.,0.,0.));
#1251=DIRECTION('',(0.,0.,-1.));
#1252=DIRECTION('',(1.,0.,0.));
#1253=DIRECTION('center_axis',(0.,0.,1.));
#1254=DIRECTION('ref_axis',(1.,0.,0.));
#1255=DIRECTION('',(-1.,0.,0.));
#1256=DIRECTION('',(0.,1.,0.));
#1257=DIRECTION('',(1.,0.,0.));
#1258=DIRECTION('',(0.,-1.,0.));
#1259=DIRECTION('',(-1.,0.,0.));
#1260=DIRECTION('',(0.,-1.,0.));
#1261=DIRECTION('',(0.,-1.,0.));
#1262=DIRECTION('',(1.,0.,0.));
#1263=DIRECTION('',(1.,0.,0.));
#1264=DIRECTION('',(0.,1.,0.));
#1265=DIRECTION('',(-1.,0.,0.));
#1266=DIRECTION('',(0.,1.,0.));
#1267=DIRECTION('',(-1.,0.,0.));
#1268=DIRECTION('center_axis',(0.,0.,1.));
#1269=DIRECTION('ref_axis',(1.,0.,0.));
#1270=DIRECTION('',(-1.,0.,0.));
#1271=DIRECTION('center_axis',(0.,-1.,0.));
#1272=DIRECTION('ref_axis',(-1.,0.,0.));
#1273=DIRECTION('',(-1.,0.,0.));
#1274=DIRECTION('',(0.,0.,-1.));
#1275=DIRECTION('center_axis',(0.,0.,1.));
#1276=DIRECTION('ref_axis',(1.,0.,0.));
#1277=DIRECTION('',(1.,0.,0.));
#1278=DIRECTION('',(0.,1.,0.));
#1279=DIRECTION('',(-1.,0.,0.));
#1280=DIRECTION('',(0.,-1.,0.));
#1281=DIRECTION('center_axis',(-1.,0.,0.));
#1282=DIRECTION('ref_axis',(0.,-1.,0.));
#1283=DIRECTION('',(0.,1.,0.));
#1284=DIRECTION('',(0.,0.,1.));
#1285=DIRECTION('',(0.,0.,1.));
#1286=DIRECTION('center_axis',(0.,-1.,0.));
#1287=DIRECTION('ref_axis',(1.,0.,0.));
#1288=DIRECTION('',(-1.,0.,0.));
#1289=DIRECTION('',(0.,0.,1.));
#1290=DIRECTION('center_axis',(0.,1.,0.));
#1291=DIRECTION('ref_axis',(-1.,0.,0.));
#1292=DIRECTION('',(1.,0.,0.));
#1293=DIRECTION('',(0.,0.,1.));
#1294=DIRECTION('center_axis',(1.,0.,0.));
#1295=DIRECTION('ref_axis',(0.,1.,0.));
#1296=DIRECTION('',(0.,-1.,0.));
#1297=DIRECTION('center_axis',(1.,0.,0.));
#1298=DIRECTION('ref_axis',(0.,-1.,0.));
#1299=DIRECTION('',(0.,0.,-1.));
#1300=DIRECTION('',(0.,-1.,0.));
#1301=DIRECTION('center_axis',(0.,-1.,0.));
#1302=DIRECTION('ref_axis',(-1.,0.,0.));
#1303=DIRECTION('',(-1.,0.,0.));
#1304=DIRECTION('center_axis',(0.,0.,-1.));
#1305=DIRECTION('ref_axis',(-1.,0.,0.));
#1306=DIRECTION('center_axis',(1.,0.,0.));
#1307=DIRECTION('ref_axis',(0.,-1.,0.));
#1308=DIRECTION('',(0.,-1.,0.));
#1309=DIRECTION('',(0.,0.,-1.));
#1310=DIRECTION('center_axis',(0.,1.,0.));
#1311=DIRECTION('ref_axis',(1.,0.,0.));
#1312=DIRECTION('',(1.,0.,0.));
#1313=DIRECTION('center_axis',(0.,0.,-1.));
#1314=DIRECTION('ref_axis',(-1.,0.,0.));
#1315=DIRECTION('center_axis',(0.,-1.,0.));
#1316=DIRECTION('ref_axis',(-1.,0.,0.));
#1317=DIRECTION('',(0.,0.,-1.));
#1318=DIRECTION('',(-1.,0.,0.));
#1319=DIRECTION('center_axis',(-1.,0.,0.));
#1320=DIRECTION('ref_axis',(0.,1.,0.));
#1321=DIRECTION('',(0.,1.,0.));
#1322=DIRECTION('center_axis',(0.,0.,-1.));
#1323=DIRECTION('ref_axis',(-1.,0.,0.));
#1324=DIRECTION('center_axis',(0.,1.,0.));
#1325=DIRECTION('ref_axis',(1.,0.,0.));
#1326=DIRECTION('',(1.,0.,0.));
#1327=DIRECTION('',(0.,0.,-1.));
#1328=DIRECTION('center_axis',(-1.,0.,0.));
#1329=DIRECTION('ref_axis',(0.,1.,0.));
#1330=DIRECTION('',(0.,1.,0.));
#1331=DIRECTION('center_axis',(0.,0.,-1.));
#1332=DIRECTION('ref_axis',(-1.,0.,0.));
#1333=DIRECTION('center_axis',(-1.,0.,0.));
#1334=DIRECTION('ref_axis',(0.,-1.,0.));
#1335=DIRECTION('',(0.,0.,1.));
#1336=DIRECTION('',(0.,-1.,0.));
#1337=DIRECTION('',(0.,0.,1.));
#1338=DIRECTION('center_axis',(0.,1.,0.));
#1339=DIRECTION('ref_axis',(-1.,0.,0.));
#1340=DIRECTION('',(-1.,0.,0.));
#1341=DIRECTION('',(0.,0.,1.));
#1342=DIRECTION('center_axis',(1.,0.,0.));
#1343=DIRECTION('ref_axis',(0.,1.,0.));
#1344=DIRECTION('',(0.,1.,0.));
#1345=DIRECTION('',(0.,0.,1.));
#1346=DIRECTION('center_axis',(0.,-1.,0.));
#1347=DIRECTION('ref_axis',(1.,0.,0.));
#1348=DIRECTION('',(1.,0.,0.));
#1349=DIRECTION('center_axis',(0.,0.,1.));
#1350=DIRECTION('ref_axis',(1.,0.,0.));
#1351=CARTESIAN_POINT('',(0.,0.,0.));
#1352=CARTESIAN_POINT('Origin',(-85.9492272876758,-101.764740778849,165.));
#1353=CARTESIAN_POINT('',(-107.162430723272,-91.1581390610511,165.));
#1354=CARTESIAN_POINT('',(-75.3426255698776,-122.977944214446,165.));
#1355=CARTESIAN_POINT('',(-96.555829005474,-101.764740778849,165.));
#1356=CARTESIAN_POINT('',(-64.7360238520795,-112.371342496648,165.));
#1357=CARTESIAN_POINT('',(-64.7360238520795,-112.371342496648,165.));
#1358=CARTESIAN_POINT('',(-96.555829005474,-80.5515373432528,165.));
#1359=CARTESIAN_POINT('',(-75.3426255698775,-101.764740778849,165.));
#1360=CARTESIAN_POINT('',(-107.162430723272,-91.1581390610511,165.));
#1361=CARTESIAN_POINT('Origin',(-85.9492272876758,-101.764740778849,150.));
#1362=CARTESIAN_POINT('',(-96.555829005474,-101.764740778849,150.));
#1363=CARTESIAN_POINT('',(-85.9492272876759,-91.1581390610512,150.));
#1364=CARTESIAN_POINT('',(-85.9492272876759,-91.1581390610512,150.));
#1365=CARTESIAN_POINT('',(-75.3426255698775,-101.764740778849,150.));
#1366=CARTESIAN_POINT('',(-75.3426255698775,-101.764740778849,150.));
#1367=CARTESIAN_POINT('',(-85.9492272876759,-112.371342496648,150.));
#1368=CARTESIAN_POINT('',(-85.9492272876759,-112.371342496648,150.));
#1369=CARTESIAN_POINT('',(-96.555829005474,-101.764740778849,150.));
#1370=CARTESIAN_POINT('Origin',(-75.3426255698776,-122.977944214446,135.));
#1371=CARTESIAN_POINT('',(-64.7360238520795,-112.371342496648,135.));
#1372=CARTESIAN_POINT('',(-75.3426255698776,-122.977944214446,135.));
#1373=CARTESIAN_POINT('',(-72.6908404966243,-120.326159141192,135.));
#1374=CARTESIAN_POINT('',(-64.7360238520795,-112.371342496648,135.));
#1375=CARTESIAN_POINT('',(-75.3426255698776,-122.977944214446,135.));
#1376=CARTESIAN_POINT('Origin',(-75.3426255698775,-101.764740778849,135.));
#1377=CARTESIAN_POINT('',(-85.9492272876759,-112.371342496648,135.));
#1378=CARTESIAN_POINT('',(-75.3426255698775,-101.764740778849,135.));
#1379=CARTESIAN_POINT('',(-77.9941413555234,-104.416256564495,135.));
#1380=CARTESIAN_POINT('',(-85.9492272876759,-112.371342496648,135.));
#1381=CARTESIAN_POINT('',(-75.3426255698775,-101.764740778849,135.));
#1382=CARTESIAN_POINT('Origin',(-96.555829005474,-101.764740778849,135.));
#1383=CARTESIAN_POINT('',(-85.9492272876759,-91.1581390610512,135.));
#1384=CARTESIAN_POINT('',(-96.555829005474,-101.764740778849,135.));
#1385=CARTESIAN_POINT('',(-93.9040439322207,-99.112955705596,135.));
#1386=CARTESIAN_POINT('',(-85.9492272876759,-91.1581390610512,135.));
#1387=CARTESIAN_POINT('',(-96.555829005474,-101.764740778849,135.));
#1388=CARTESIAN_POINT('Origin',(-107.162430723272,-91.1581390610511,135.));
#1389=CARTESIAN_POINT('',(-107.162430723272,-91.1581390610511,135.));
#1390=CARTESIAN_POINT('',(-99.207446508918,-99.1131232754053,135.));
#1391=CARTESIAN_POINT('',(-99.207446508918,-99.1131232754053,135.));
#1392=CARTESIAN_POINT('',(-107.162430723272,-91.1581390610511,135.));
#1393=CARTESIAN_POINT('Origin',(-96.555829005474,-80.5515373432528,135.));
#1394=CARTESIAN_POINT('',(-96.555829005474,-80.5515373432528,135.));
#1395=CARTESIAN_POINT('',(-99.2073447911199,-83.2030531288987,135.));
#1396=CARTESIAN_POINT('',(-96.555829005474,-80.5515373432528,135.));
#1397=CARTESIAN_POINT('Origin',(-85.9492272876759,-91.1581390610512,135.));
#1398=CARTESIAN_POINT('',(-83.2975439322208,-93.8098224165063,135.));
#1399=CARTESIAN_POINT('',(-83.2975439322208,-93.8098224165063,135.));
#1400=CARTESIAN_POINT('Origin',(-52.1988921480572,-138.264537343253,0.));
#1401=CARTESIAN_POINT('',(-52.1988921480572,-138.264537343253,90.));
#1402=CARTESIAN_POINT('',(-119.698892148057,-138.264537343253,90.));
#1403=CARTESIAN_POINT('',(-69.0738921480572,-138.264537343253,90.));
#1404=CARTESIAN_POINT('',(-52.1988921480572,-138.264537343253,92.));
#1405=CARTESIAN_POINT('',(-52.1988921480572,-138.264537343253,0.));
#1406=CARTESIAN_POINT('',(-119.698892148057,-138.264537343253,92.));
#1407=CARTESIAN_POINT('',(-119.698892148057,-138.264537343253,92.));
#1408=CARTESIAN_POINT('',(-119.698892148057,-138.264537343253,0.));
#1409=CARTESIAN_POINT('Origin',(-119.698892148057,-140.264537343253,0.));
#1410=CARTESIAN_POINT('',(-119.698892148057,-140.264537343253,90.));
#1411=CARTESIAN_POINT('',(-52.1988921480572,-140.264537343253,90.));
#1412=CARTESIAN_POINT('',(-102.823892148057,-140.264537343253,90.));
#1413=CARTESIAN_POINT('',(-119.698892148057,-140.264537343253,92.));
#1414=CARTESIAN_POINT('',(-119.698892148057,-140.264537343253,0.));
#1415=CARTESIAN_POINT('',(-52.1988921480572,-140.264537343253,92.));
#1416=CARTESIAN_POINT('',(-52.1988921480572,-140.264537343253,92.));
#1417=CARTESIAN_POINT('',(-52.1988921480572,-140.264537343253,0.));
#1418=CARTESIAN_POINT('Origin',(-85.9488921480572,-139.264537343253,92.));
#1419=CARTESIAN_POINT('',(-52.1988921480572,-138.264537343253,92.));
#1420=CARTESIAN_POINT('',(-119.698892148057,-140.264537343253,92.));
#1421=CARTESIAN_POINT('Origin',(-52.1988921480572,-63.2645373432528,0.));
#1422=CARTESIAN_POINT('',(-52.1988921480572,-63.2645373432528,90.));
#1423=CARTESIAN_POINT('',(-119.698892148057,-63.2645373432528,90.));
#1424=CARTESIAN_POINT('',(-69.0738921480572,-63.2645373432528,90.));
#1425=CARTESIAN_POINT('',(-52.1988921480572,-63.2645373432528,92.));
#1426=CARTESIAN_POINT('',(-52.1988921480572,-63.2645373432528,0.));
#1427=CARTESIAN_POINT('',(-119.698892148057,-63.2645373432528,92.));
#1428=CARTESIAN_POINT('',(-119.698892148057,-63.2645373432528,92.));
#1429=CARTESIAN_POINT('',(-119.698892148057,-63.2645373432528,0.));
#1430=CARTESIAN_POINT('Origin',(-119.698892148057,-65.2645373432528,0.));
#1431=CARTESIAN_POINT('',(-119.698892148057,-65.2645373432528,90.));
#1432=CARTESIAN_POINT('',(-52.1988921480572,-65.2645373432528,90.));
#1433=CARTESIAN_POINT('',(-102.823892148057,-65.2645373432528,90.));
#1434=CARTESIAN_POINT('',(-119.698892148057,-65.2645373432528,92.));
#1435=CARTESIAN_POINT('',(-119.698892148057,-65.2645373432528,0.));
#1436=CARTESIAN_POINT('',(-52.1988921480572,-65.2645373432528,92.));
#1437=CARTESIAN_POINT('',(-52.1988921480572,-65.2645373432528,92.));
#1438=CARTESIAN_POINT('',(-52.1988921480572,-65.2645373432528,0.));
#1439=CARTESIAN_POINT('Origin',(-85.9488921480572,-64.2645373432528,92.));
#1440=CARTESIAN_POINT('',(-52.1988921480572,-63.2645373432528,92.));
#1441=CARTESIAN_POINT('',(-119.698892148057,-65.2645373432528,92.));
#1442=CARTESIAN_POINT('Origin',(-47.4488921480572,-135.514537343253,0.));
#1443=CARTESIAN_POINT('',(-47.4488921480572,-135.514537343253,90.));
#1444=CARTESIAN_POINT('',(-47.4488921480572,-68.0145373432528,90.));
#1445=CARTESIAN_POINT('',(-47.4488921480572,-118.639537343253,90.));
#1446=CARTESIAN_POINT('',(-47.4488921480572,-135.514537343253,92.));
#1447=CARTESIAN_POINT('',(-47.4488921480572,-135.514537343253,0.));
#1448=CARTESIAN_POINT('',(-47.4488921480572,-68.0145373432528,92.));
#1449=CARTESIAN_POINT('',(-47.4488921480572,-68.0145373432528,92.));
#1450=CARTESIAN_POINT('',(-47.4488921480572,-68.0145373432528,0.));
#1451=CARTESIAN_POINT('Origin',(-49.4488921480572,-68.0145373432528,0.));
#1452=CARTESIAN_POINT('',(-49.4488921480572,-68.0145373432528,90.));
#1453=CARTESIAN_POINT('',(-49.4488921480572,-135.514537343253,90.));
#1454=CARTESIAN_POINT('',(-49.4488921480572,-84.8895373432529,90.));
#1455=CARTESIAN_POINT('',(-49.4488921480572,-68.0145373432528,92.));
#1456=CARTESIAN_POINT('',(-49.4488921480572,-68.0145373432528,0.));
#1457=CARTESIAN_POINT('',(-49.4488921480572,-135.514537343253,92.));
#1458=CARTESIAN_POINT('',(-49.4488921480572,-135.514537343253,92.));
#1459=CARTESIAN_POINT('',(-49.4488921480572,-135.514537343253,0.));
#1460=CARTESIAN_POINT('Origin',(-48.4488921480572,-101.764537343253,92.));
#1461=CARTESIAN_POINT('',(-49.4488921480572,-68.0145373432528,92.));
#1462=CARTESIAN_POINT('',(-47.4488921480572,-135.514537343253,92.));
#1463=CARTESIAN_POINT('Origin',(-122.448892148057,-135.514537343253,0.));
#1464=CARTESIAN_POINT('',(-122.448892148057,-135.514537343253,90.));
#1465=CARTESIAN_POINT('',(-122.448892148057,-68.0145373432528,90.));
#1466=CARTESIAN_POINT('',(-122.448892148057,-118.639537343253,90.));
#1467=CARTESIAN_POINT('',(-122.448892148057,-135.514537343253,92.));
#1468=CARTESIAN_POINT('',(-122.448892148057,-135.514537343253,0.));
#1469=CARTESIAN_POINT('',(-122.448892148057,-68.0145373432528,92.));
#1470=CARTESIAN_POINT('',(-122.448892148057,-135.514537343253,92.));
#1471=CARTESIAN_POINT('',(-122.448892148057,-68.0145373432528,0.));
#1472=CARTESIAN_POINT('Origin',(-124.448892148057,-68.0145373432528,0.));
#1473=CARTESIAN_POINT('',(-124.448892148057,-68.0145373432528,90.));
#1474=CARTESIAN_POINT('',(-124.448892148057,-135.514537343253,90.));
#1475=CARTESIAN_POINT('',(-124.448892148057,-84.8895373432529,90.));
#1476=CARTESIAN_POINT('',(-124.448892148057,-68.0145373432528,92.));
#1477=CARTESIAN_POINT('',(-124.448892148057,-68.0145373432528,0.));
#1478=CARTESIAN_POINT('',(-124.448892148057,-135.514537343253,92.));
#1479=CARTESIAN_POINT('',(-124.448892148057,-68.0145373432528,92.));
#1480=CARTESIAN_POINT('',(-124.448892148057,-135.514537343253,0.));
#1481=CARTESIAN_POINT('Origin',(-123.448892148057,-101.764537343253,92.));
#1482=CARTESIAN_POINT('',(-124.448892148057,-135.514537343253,92.));
#1483=CARTESIAN_POINT('',(-122.448892148057,-68.0145373432528,92.));
#1484=CARTESIAN_POINT('Origin',(-52.1988921480572,-143.014537343253,105.));
#1485=CARTESIAN_POINT('',(-52.1988921480572,-135.514537343253,90.));
#1486=CARTESIAN_POINT('',(-52.1988921480572,-143.014537343253,90.));
#1487=CARTESIAN_POINT('',(-52.1988921480572,-135.514537343253,82.5));
#1488=CARTESIAN_POINT('',(-52.1988921480572,-135.514537343253,105.));
#1489=CARTESIAN_POINT('',(-52.1988921480572,-143.014537343253,82.5));
#1490=CARTESIAN_POINT('',(-52.1988921480572,-143.014537343253,82.5));
#1491=CARTESIAN_POINT('',(-52.1988921480572,-143.014537343253,90.));
#1492=CARTESIAN_POINT('',(-52.1988921480572,-143.014537343253,105.));
#1493=CARTESIAN_POINT('',(-52.1988921480572,-143.014537343253,90.));
#1494=CARTESIAN_POINT('Origin',(-119.698892148057,-135.514537343253,105.));
#1495=CARTESIAN_POINT('',(-119.698892148057,-135.514537343253,82.5));
#1496=CARTESIAN_POINT('',(-119.698892148057,-143.014537343253,82.5));
#1497=CARTESIAN_POINT('',(-119.698892148057,-135.514537343253,82.5));
#1498=CARTESIAN_POINT('',(-119.698892148057,-135.514537343253,90.));
#1499=CARTESIAN_POINT('',(-119.698892148057,-135.514537343253,105.));
#1500=CARTESIAN_POINT('',(-119.698892148057,-135.514537343253,90.));
#1501=CARTESIAN_POINT('',(-119.698892148057,-143.014537343253,90.));
#1502=CARTESIAN_POINT('',(-119.698892148057,-135.514537343253,90.));
#1503=CARTESIAN_POINT('',(-119.698892148057,-143.014537343253,105.));
#1504=CARTESIAN_POINT('Origin',(-52.1988921480572,-68.0145373432528,105.));
#1505=CARTESIAN_POINT('',(-52.1988921480572,-60.5145373432528,90.));
#1506=CARTESIAN_POINT('',(-52.1988921480572,-68.0145373432528,90.));
#1507=CARTESIAN_POINT('',(-52.1988921480572,-60.5145373432528,82.5));
#1508=CARTESIAN_POINT('',(-52.1988921480572,-60.5145373432528,105.));
#1509=CARTESIAN_POINT('',(-52.1988921480572,-68.0145373432528,82.5));
#1510=CARTESIAN_POINT('',(-52.1988921480572,-68.0145373432528,82.5));
#1511=CARTESIAN_POINT('',(-52.1988921480572,-68.0145373432528,90.));
#1512=CARTESIAN_POINT('',(-52.1988921480572,-68.0145373432528,105.));
#1513=CARTESIAN_POINT('',(-52.1988921480572,-68.0145373432528,90.));
#1514=CARTESIAN_POINT('Origin',(-119.698892148057,-60.5145373432528,105.));
#1515=CARTESIAN_POINT('',(-119.698892148057,-60.5145373432528,82.5));
#1516=CARTESIAN_POINT('',(-119.698892148057,-68.0145373432528,82.5));
#1517=CARTESIAN_POINT('',(-119.698892148057,-60.5145373432528,82.5));
#1518=CARTESIAN_POINT('',(-119.698892148057,-60.5145373432528,90.));
#1519=CARTESIAN_POINT('',(-119.698892148057,-60.5145373432528,105.));
#1520=CARTESIAN_POINT('',(-119.698892148057,-60.5145373432528,90.));
#1521=CARTESIAN_POINT('',(-119.698892148057,-68.0145373432528,90.));
#1522=CARTESIAN_POINT('',(-119.698892148057,-60.5145373432528,90.));
#1523=CARTESIAN_POINT('',(-119.698892148057,-68.0145373432528,105.));
#1524=CARTESIAN_POINT('Origin',(-52.1988921480572,-135.514537343253,105.));
#1525=CARTESIAN_POINT('',(-44.6988921480572,-135.514537343253,90.));
#1526=CARTESIAN_POINT('',(-52.1988921480572,-135.514537343253,90.));
#1527=CARTESIAN_POINT('',(-44.6988921480572,-135.514537343253,82.5));
#1528=CARTESIAN_POINT('',(-44.6988921480572,-135.514537343253,105.));
#1529=CARTESIAN_POINT('',(-52.1988921480572,-135.514537343253,82.5));
#1530=CARTESIAN_POINT('',(-52.1988921480572,-135.514537343253,90.));
#1531=CARTESIAN_POINT('Origin',(-44.6988921480572,-68.0145373432528,105.));
#1532=CARTESIAN_POINT('',(-44.6988921480572,-68.0145373432528,82.5));
#1533=CARTESIAN_POINT('',(-44.6988921480572,-68.0145373432528,82.5));
#1534=CARTESIAN_POINT('',(-44.6988921480572,-68.0145373432528,90.));
#1535=CARTESIAN_POINT('',(-44.6988921480572,-68.0145373432528,105.));
#1536=CARTESIAN_POINT('',(-44.6988921480572,-68.0145373432528,90.));
#1537=CARTESIAN_POINT('',(-44.6988921480572,-68.0145373432528,90.));
#1538=CARTESIAN_POINT('Origin',(-127.198892148057,-135.514537343253,105.));
#1539=CARTESIAN_POINT('',(-127.198892148057,-135.514537343253,90.));
#1540=CARTESIAN_POINT('',(-127.198892148057,-135.514537343253,82.5));
#1541=CARTESIAN_POINT('',(-127.198892148057,-135.514537343253,82.5));
#1542=CARTESIAN_POINT('',(-127.198892148057,-135.514537343253,90.));
#1543=CARTESIAN_POINT('',(-127.198892148057,-135.514537343253,105.));
#1544=CARTESIAN_POINT('',(-127.198892148057,-135.514537343253,90.));
#1545=CARTESIAN_POINT('Origin',(-85.9488921480572,-101.764537343253,90.));
#1546=CARTESIAN_POINT('',(-40.9488921480572,-146.764537343253,90.));
#1547=CARTESIAN_POINT('',(-130.948892148057,-146.764537343253,90.));
#1548=CARTESIAN_POINT('',(-40.9488921480572,-146.764537343253,90.));
#1549=CARTESIAN_POINT('',(-130.948892148057,-56.7645373432528,90.));
#1550=CARTESIAN_POINT('',(-130.948892148057,-146.764537343253,90.));
#1551=CARTESIAN_POINT('',(-40.9488921480572,-56.7645373432528,90.));
#1552=CARTESIAN_POINT('',(-130.948892148057,-56.7645373432528,90.));
#1553=CARTESIAN_POINT('',(-40.9488921480572,-56.7645373432528,90.));
#1554=CARTESIAN_POINT('',(-44.6988921480572,-143.014537343253,90.));
#1555=CARTESIAN_POINT('',(-44.6988921480572,-143.014537343253,90.));
#1556=CARTESIAN_POINT('',(-44.6988921480572,-135.514537343253,90.));
#1557=CARTESIAN_POINT('',(-44.6988921480572,-60.5145373432528,90.));
#1558=CARTESIAN_POINT('',(-44.6988921480572,-60.5145373432528,90.));
#1559=CARTESIAN_POINT('',(-52.1988921480572,-60.5145373432528,90.));
#1560=CARTESIAN_POINT('',(-127.198892148057,-60.5145373432528,90.));
#1561=CARTESIAN_POINT('',(-127.198892148057,-60.5145373432528,90.));
#1562=CARTESIAN_POINT('',(-127.198892148057,-68.0145373432528,90.));
#1563=CARTESIAN_POINT('',(-127.198892148057,-68.0145373432528,90.));
#1564=CARTESIAN_POINT('',(-119.698892148057,-68.0145373432528,90.));
#1565=CARTESIAN_POINT('',(-127.198892148057,-143.014537343253,90.));
#1566=CARTESIAN_POINT('',(-127.198892148057,-143.014537343253,90.));
#1567=CARTESIAN_POINT('',(-119.698892148057,-143.014537343253,90.));
#1568=CARTESIAN_POINT('Origin',(-85.9488921480572,-101.764537343253,90.));
#1569=CARTESIAN_POINT('',(-119.698892148057,-68.0145373432528,90.));
#1570=CARTESIAN_POINT('Origin',(-119.698892148057,-68.0145373432528,105.));
#1571=CARTESIAN_POINT('',(-127.198892148057,-68.0145373432528,82.5));
#1572=CARTESIAN_POINT('',(-119.698892148057,-68.0145373432528,82.5));
#1573=CARTESIAN_POINT('',(-127.198892148057,-68.0145373432528,105.));
#1574=CARTESIAN_POINT('Origin',(-85.9488921480572,-101.764537343253,135.));
#1575=CARTESIAN_POINT('',(-115.948892148057,-131.764537343253,135.));
#1576=CARTESIAN_POINT('',(-55.9488921480572,-131.764537343253,135.));
#1577=CARTESIAN_POINT('',(-91.9488921480572,-131.764537343253,135.));
#1578=CARTESIAN_POINT('',(-55.9488921480572,-71.7645373432528,135.));
#1579=CARTESIAN_POINT('',(-55.9488921480572,-131.764537343253,135.));
#1580=CARTESIAN_POINT('',(-115.948892148057,-71.7645373432528,135.));
#1581=CARTESIAN_POINT('',(-55.9488921480572,-71.7645373432528,135.));
#1582=CARTESIAN_POINT('',(-115.948892148057,-71.7645373432528,135.));
#1583=CARTESIAN_POINT('Origin',(-115.948892148057,-71.7645373432528,90.));
#1584=CARTESIAN_POINT('',(-115.948892148057,-131.764537343253,105.));
#1585=CARTESIAN_POINT('',(-115.948892148057,-71.7645373432528,105.));
#1586=CARTESIAN_POINT('',(-115.948892148057,-71.7645373432528,105.));
#1587=CARTESIAN_POINT('',(-115.948892148057,-131.764537343253,90.));
#1588=CARTESIAN_POINT('',(-115.948892148057,-71.7645373432528,90.));
#1589=CARTESIAN_POINT('Origin',(-115.948892148057,-131.764537343253,90.));
#1590=CARTESIAN_POINT('',(-55.9488921480572,-131.764537343253,105.));
#1591=CARTESIAN_POINT('',(-91.9488921480572,-131.764537343253,105.));
#1592=CARTESIAN_POINT('',(-55.9488921480572,-131.764537343253,90.));
#1593=CARTESIAN_POINT('Origin',(-55.9488921480572,-71.7645373432528,90.));
#1594=CARTESIAN_POINT('',(-55.9488921480572,-71.7645373432528,105.));
#1595=CARTESIAN_POINT('',(-55.9488921480572,-71.7645373432528,105.));
#1596=CARTESIAN_POINT('',(-55.9488921480572,-71.7645373432528,90.));
#1597=CARTESIAN_POINT('Origin',(-55.9488921480572,-131.764537343253,90.));
#1598=CARTESIAN_POINT('',(-55.9488921480572,-131.764537343253,105.));
#1599=CARTESIAN_POINT('Origin',(-44.6988921480572,-135.514537343253,105.));
#1600=CARTESIAN_POINT('',(-44.6988921480572,-143.014537343253,82.5));
#1601=CARTESIAN_POINT('',(-44.6988921480572,-143.014537343253,105.));
#1602=CARTESIAN_POINT('',(-44.6988921480572,-135.514537343253,82.5));
#1603=CARTESIAN_POINT('Origin',(-44.6988921480572,-143.014537343253,105.));
#1604=CARTESIAN_POINT('',(-44.6988921480572,-143.014537343253,82.5));
#1605=CARTESIAN_POINT('Origin',(-48.4488921480572,-139.264537343253,82.5));
#1606=CARTESIAN_POINT('Origin',(-44.6988921480572,-60.5145373432528,105.));
#1607=CARTESIAN_POINT('',(-44.6988921480572,-60.5145373432528,82.5));
#1608=CARTESIAN_POINT('',(-44.6988921480572,-60.5145373432528,82.5));
#1609=CARTESIAN_POINT('',(-44.6988921480572,-60.5145373432528,105.));
#1610=CARTESIAN_POINT('Origin',(-52.1988921480572,-60.5145373432528,105.));
#1611=CARTESIAN_POINT('',(-52.1988921480572,-60.5145373432528,82.5));
#1612=CARTESIAN_POINT('Origin',(-48.4488921480572,-64.2645373432528,82.5));
#1613=CARTESIAN_POINT('Origin',(-119.698892148057,-143.014537343253,105.));
#1614=CARTESIAN_POINT('',(-127.198892148057,-143.014537343253,82.5));
#1615=CARTESIAN_POINT('',(-127.198892148057,-143.014537343253,105.));
#1616=CARTESIAN_POINT('',(-119.698892148057,-143.014537343253,82.5));
#1617=CARTESIAN_POINT('Origin',(-127.198892148057,-143.014537343253,105.));
#1618=CARTESIAN_POINT('',(-127.198892148057,-143.014537343253,82.5));
#1619=CARTESIAN_POINT('Origin',(-123.448892148057,-139.264537343253,82.5));
#1620=CARTESIAN_POINT('Origin',(-127.198892148057,-60.5145373432528,105.));
#1621=CARTESIAN_POINT('',(-127.198892148057,-60.5145373432528,82.5));
#1622=CARTESIAN_POINT('',(-127.198892148057,-60.5145373432528,82.5));
#1623=CARTESIAN_POINT('',(-127.198892148057,-60.5145373432528,105.));
#1624=CARTESIAN_POINT('Origin',(-127.198892148057,-68.0145373432528,105.));
#1625=CARTESIAN_POINT('',(-127.198892148057,-68.0145373432528,82.5));
#1626=CARTESIAN_POINT('Origin',(-123.448892148057,-64.2645373432528,82.5));
#1627=CARTESIAN_POINT('Origin',(-130.948892148057,-56.7645373432528,90.));
#1628=CARTESIAN_POINT('',(-130.948892148057,-146.764537343253,105.));
#1629=CARTESIAN_POINT('',(-130.948892148057,-146.764537343253,90.));
#1630=CARTESIAN_POINT('',(-130.948892148057,-56.7645373432528,105.));
#1631=CARTESIAN_POINT('',(-130.948892148057,-146.764537343253,105.));
#1632=CARTESIAN_POINT('',(-130.948892148057,-56.7645373432528,90.));
#1633=CARTESIAN_POINT('Origin',(-40.9488921480572,-56.7645373432528,90.));
#1634=CARTESIAN_POINT('',(-40.9488921480572,-56.7645373432528,105.));
#1635=CARTESIAN_POINT('',(-130.948892148057,-56.7645373432528,105.));
#1636=CARTESIAN_POINT('',(-40.9488921480572,-56.7645373432528,90.));
#1637=CARTESIAN_POINT('Origin',(-40.9488921480572,-146.764537343253,90.));
#1638=CARTESIAN_POINT('',(-40.9488921480572,-146.764537343253,105.));
#1639=CARTESIAN_POINT('',(-40.9488921480572,-56.7645373432528,105.));
#1640=CARTESIAN_POINT('',(-40.9488921480572,-146.764537343253,90.));
#1641=CARTESIAN_POINT('Origin',(-130.948892148057,-146.764537343253,90.));
#1642=CARTESIAN_POINT('',(-40.9488921480572,-146.764537343253,105.));
#1643=CARTESIAN_POINT('Origin',(-85.9488921480572,-101.764537343253,105.));
#1644=UNCERTAINTY_MEASURE_WITH_UNIT(LENGTH_MEASURE(0.01),#1648,
'DISTANCE_ACCURACY_VALUE',
'Maximum model space distance between geometric entities at asserted c
onnectivities');
#1645=UNCERTAINTY_MEASURE_WITH_UNIT(LENGTH_MEASURE(0.01),#1648,
'DISTANCE_ACCURACY_VALUE',
'Maximum model space distance between geometric entities at asserted c
onnectivities');
#1646=(
GEOMETRIC_REPRESENTATION_CONTEXT(3)
GLOBAL_UNCERTAINTY_ASSIGNED_CONTEXT((#1644))
GLOBAL_UNIT_ASSIGNED_CONTEXT((#1648,#1649,#1650))
REPRESENTATION_CONTEXT('','3D')
);
#1647=(
GEOMETRIC_REPRESENTATION_CONTEXT(3)
GLOBAL_UNCERTAINTY_ASSIGNED_CONTEXT((#1645))
GLOBAL_UNIT_ASSIGNED_CONTEXT((#1648,#1649,#1650))
REPRESENTATION_CONTEXT('','3D')
);
#1648=(
LENGTH_UNIT()
NAMED_UNIT(*)
SI_UNIT(.MILLI.,.METRE.)
);
#1649=(
NAMED_UNIT(*)
PLANE_ANGLE_UNIT()
SI_UNIT($,.RADIAN.)
);
#1650=(
NAMED_UNIT(*)
SI_UNIT($,.STERADIAN.)
SOLID_ANGLE_UNIT()
);
#1651=SHAPE_DEFINITION_REPRESENTATION(#1652,#1653);
#1652=PRODUCT_DEFINITION_SHAPE('',$,#1655);
#1653=SHAPE_REPRESENTATION('',(#1048),#1646);
#1654=PRODUCT_DEFINITION_CONTEXT('part definition',#1659,'design');
#1655=PRODUCT_DEFINITION('Luma','Luma v39',#1656,#1654);
#1656=PRODUCT_DEFINITION_FORMATION('',$,#1661);
#1657=PRODUCT_RELATED_PRODUCT_CATEGORY('Luma v39','Luma v39',(#1661));
#1658=APPLICATION_PROTOCOL_DEFINITION('international standard',
'automotive_design',2009,#1659);
#1659=APPLICATION_CONTEXT(
'Core Data for Automotive Mechanical Design Process');
#1660=PRODUCT_CONTEXT('part definition',#1659,'mechanical');
#1661=PRODUCT('Luma','Luma v39',$,(#1660));
#1662=PRESENTATION_STYLE_ASSIGNMENT((#1677));
#1663=PRESENTATION_STYLE_ASSIGNMENT((#1678));
#1664=PRESENTATION_STYLE_ASSIGNMENT((#1679));
#1665=PRESENTATION_STYLE_ASSIGNMENT((#1680));
#1666=PRESENTATION_STYLE_ASSIGNMENT((#1681));
#1667=PRESENTATION_STYLE_ASSIGNMENT((#1682));
#1668=PRESENTATION_STYLE_ASSIGNMENT((#1683));
#1669=PRESENTATION_STYLE_ASSIGNMENT((#1684));
#1670=PRESENTATION_STYLE_ASSIGNMENT((#1685));
#1671=PRESENTATION_STYLE_ASSIGNMENT((#1686));
#1672=PRESENTATION_STYLE_ASSIGNMENT((#1687));
#1673=PRESENTATION_STYLE_ASSIGNMENT((#1688));
#1674=PRESENTATION_STYLE_ASSIGNMENT((#1689));
#1675=PRESENTATION_STYLE_ASSIGNMENT((#1690));
#1676=PRESENTATION_STYLE_ASSIGNMENT((#1691));
#1677=SURFACE_STYLE_USAGE(.BOTH.,#1692);
#1678=SURFACE_STYLE_USAGE(.BOTH.,#1693);
#1679=SURFACE_STYLE_USAGE(.BOTH.,#1694);
#1680=SURFACE_STYLE_USAGE(.BOTH.,#1695);
#1681=SURFACE_STYLE_USAGE(.BOTH.,#1696);
#1682=SURFACE_STYLE_USAGE(.BOTH.,#1697);
#1683=SURFACE_STYLE_USAGE(.BOTH.,#1698);
#1684=SURFACE_STYLE_USAGE(.BOTH.,#1699);
#1685=SURFACE_STYLE_USAGE(.BOTH.,#1700);
#1686=SURFACE_STYLE_USAGE(.BOTH.,#1701);
#1687=SURFACE_STYLE_USAGE(.BOTH.,#1702);
#1688=SURFACE_STYLE_USAGE(.BOTH.,#1703);
#1689=SURFACE_STYLE_USAGE(.BOTH.,#1704);
#1690=SURFACE_STYLE_USAGE(.BOTH.,#1705);
#1691=SURFACE_STYLE_USAGE(.BOTH.,#1706);
#1692=SURFACE_SIDE_STYLE('',(#1707));
#1693=SURFACE_SIDE_STYLE('',(#1708));
#1694=SURFACE_SIDE_STYLE('',(#1709));
#1695=SURFACE_SIDE_STYLE('',(#1710));
#1696=SURFACE_SIDE_STYLE('',(#1711));
#1697=SURFACE_SIDE_STYLE('',(#1712));
#1698=SURFACE_SIDE_STYLE('',(#1713));
#1699=SURFACE_SIDE_STYLE('',(#1714));
#1700=SURFACE_SIDE_STYLE('',(#1715));
#1701=SURFACE_SIDE_STYLE('',(#1716));
#1702=SURFACE_SIDE_STYLE('',(#1717));
#1703=SURFACE_SIDE_STYLE('',(#1718));
#1704=SURFACE_SIDE_STYLE('',(#1719));
#1705=SURFACE_SIDE_STYLE('',(#1720));
#1706=SURFACE_SIDE_STYLE('',(#1721));
#1707=SURFACE_STYLE_FILL_AREA(#1722);
#1708=SURFACE_STYLE_FILL_AREA(#1723);
#1709=SURFACE_STYLE_FILL_AREA(#1724);
#1710=SURFACE_STYLE_FILL_AREA(#1725);
#1711=SURFACE_STYLE_FILL_AREA(#1726);
#1712=SURFACE_STYLE_FILL_AREA(#1727);
#1713=SURFACE_STYLE_FILL_AREA(#1728);
#1714=SURFACE_STYLE_FILL_AREA(#1729);
#1715=SURFACE_STYLE_FILL_AREA(#1730);
#1716=SURFACE_STYLE_FILL_AREA(#1731);
#1717=SURFACE_STYLE_FILL_AREA(#1732);
#1718=SURFACE_STYLE_FILL_AREA(#1733);
#1719=SURFACE_STYLE_FILL_AREA(#1734);
#1720=SURFACE_STYLE_FILL_AREA(#1735);
#1721=SURFACE_STYLE_FILL_AREA(#1736);
#1722=FILL_AREA_STYLE('Opaque(246,179,39)',(#1737));
#1723=FILL_AREA_STYLE('Opaque(160,160,160)',(#1738));
#1724=FILL_AREA_STYLE('Opaque(246,246,243)',(#1739));
#1725=FILL_AREA_STYLE('Opaque(245,245,246)',(#1740));
#1726=FILL_AREA_STYLE('Opaque(255,255,255)',(#1741));
#1727=FILL_AREA_STYLE('Opaque(202,209,238)',(#1742));
#1728=FILL_AREA_STYLE('Opaque(146,134,121)',(#1743));
#1729=FILL_AREA_STYLE('Opaque(203,203,203)',(#1744));
#1730=FILL_AREA_STYLE('Opaque(251,250,245)',(#1745));
#1731=FILL_AREA_STYLE('Opaque(25,25,25)',(#1746));
#1732=FILL_AREA_STYLE('Opaque(63,63,63)',(#1747));
#1733=FILL_AREA_STYLE('Steel - Satin',(#1748));
#1734=FILL_AREA_STYLE('LED (Blue)',(#1749));
#1735=FILL_AREA_STYLE('ABS (Black)',(#1750));
#1736=FILL_AREA_STYLE('Acrylic (Opaque)',(#1751));
#1737=FILL_AREA_STYLE_COLOUR('Opaque(246,179,39)',#1752);
#1738=FILL_AREA_STYLE_COLOUR('Opaque(160,160,160)',#1753);
#1739=FILL_AREA_STYLE_COLOUR('Opaque(246,246,243)',#1754);
#1740=FILL_AREA_STYLE_COLOUR('Opaque(245,245,246)',#1755);
#1741=FILL_AREA_STYLE_COLOUR('Opaque(255,255,255)',#1756);
#1742=FILL_AREA_STYLE_COLOUR('Opaque(202,209,238)',#1757);
#1743=FILL_AREA_STYLE_COLOUR('Opaque(146,134,121)',#1758);
#1744=FILL_AREA_STYLE_COLOUR('Opaque(203,203,203)',#1759);
#1745=FILL_AREA_STYLE_COLOUR('Opaque(251,250,245)',#1760);
#1746=FILL_AREA_STYLE_COLOUR('Opaque(25,25,25)',#1761);
#1747=FILL_AREA_STYLE_COLOUR('Opaque(63,63,63)',#1762);
#1748=FILL_AREA_STYLE_COLOUR('Steel - Satin',#1763);
#1749=FILL_AREA_STYLE_COLOUR('LED (Blue)',#1764);
#1750=FILL_AREA_STYLE_COLOUR('ABS (Black)',#1765);
#1751=FILL_AREA_STYLE_COLOUR('Acrylic (Opaque)',#1766);
#1752=COLOUR_RGB('Opaque(246,179,39)',0.964705882352941,0.701960784313725,
0.152941176470588);
#1753=COLOUR_RGB('Opaque(160,160,160)',0.627450980392157,0.627450980392157,
0.627450980392157);
#1754=COLOUR_RGB('Opaque(246,246,243)',0.964705882352941,0.964705882352941,
0.952941176470588);
#1755=COLOUR_RGB('Opaque(245,245,246)',0.96078431372549,0.96078431372549,
0.964705882352941);
#1756=COLOUR_RGB('Opaque(255,255,255)',1.,1.,1.);
#1757=COLOUR_RGB('Opaque(202,209,238)',0.792156862745098,0.819607843137255,
0.933333333333333);
#1758=COLOUR_RGB('Opaque(146,134,121)',0.572549019607843,0.525490196078431,
0.474509803921569);
#1759=COLOUR_RGB('Opaque(203,203,203)',0.796078431372549,0.796078431372549,
0.796078431372549);
#1760=COLOUR_RGB('Opaque(251,250,245)',0.984313725490196,0.980392156862745,
0.96078431372549);
#1761=COLOUR_RGB('Opaque(25,25,25)',0.0980392156862745,0.0980392156862745,
0.0980392156862745);
#1762=COLOUR_RGB('Opaque(63,63,63)',0.250980392156863,0.250980392156863,
0.250980392156863);
#1763=COLOUR_RGB('Steel - Satin',0.627450980392157,0.627450980392157,0.627450980392157);
#1764=COLOUR_RGB('LED (Blue)',0.188235294117647,0.231372549019608,0.588235294117647);
#1765=COLOUR_RGB('ABS (Black)',0.00784313725490196,0.00784313725490196,
0.00784313725490196);
#1766=COLOUR_RGB('Acrylic (Opaque)',0.964705882352941,0.964705882352941,
0.952941176470588);
ENDSEC;
END-ISO-10303-21;
