ISO-10303-21;
HEADER;
/* Generated by software containing ST-Developer
 * from STEP Tools, Inc. (www.steptools.com) 
 */

FILE_DESCRIPTION(
/* description */ (''),
/* implementation_level */ '2;1');

FILE_NAME(
/* name */ 'Window.step',
/* time_stamp */ '2025-08-15T14:28:00-05:00',
/* author */ (''),
/* organization */ (''),
/* preprocessor_version */ 'ST-DEVELOPER v20.1',
/* originating_system */ 'Autodesk Translation Framework v14.10.0.0',
/* authorisation */ '');

FILE_SCHEMA (('AUTOMOTIVE_DESIGN { 1 0 10303 214 3 1 1 }'));
ENDSEC;

DATA;
#10=MECHANICAL_DESIGN_GEOMETRIC_PRESENTATION_REPRESENTATION('',(#13),#865);
#11=SHAPE_REPRESENTATION_RELATIONSHIP('SRR','None',#871,#12);
#12=ADVANCED_BREP_SHAPE_REPRESENTATION('',(#14),#864);
#13=STYLED_ITEM('',(#891),#14);
#14=MANIFOLD_SOLID_BREP('Window',#545);
#15=FACE_BOUND('',#52,.T.);
#16=FACE_OUTER_BOUND('',#47,.T.);
#17=FACE_OUTER_BOUND('',#48,.T.);
#18=FACE_OUTER_BOUND('',#49,.T.);
#19=FACE_OUTER_BOUND('',#50,.T.);
#20=FACE_OUTER_BOUND('',#51,.T.);
#21=FACE_OUTER_BOUND('',#53,.T.);
#22=FACE_OUTER_BOUND('',#54,.T.);
#23=FACE_OUTER_BOUND('',#55,.T.);
#24=FACE_OUTER_BOUND('',#56,.T.);
#25=FACE_OUTER_BOUND('',#57,.T.);
#26=FACE_OUTER_BOUND('',#58,.T.);
#27=FACE_OUTER_BOUND('',#59,.T.);
#28=FACE_OUTER_BOUND('',#60,.T.);
#29=FACE_OUTER_BOUND('',#61,.T.);
#30=FACE_OUTER_BOUND('',#62,.T.);
#31=FACE_OUTER_BOUND('',#63,.T.);
#32=FACE_OUTER_BOUND('',#64,.T.);
#33=FACE_OUTER_BOUND('',#65,.T.);
#34=FACE_OUTER_BOUND('',#66,.T.);
#35=FACE_OUTER_BOUND('',#67,.T.);
#36=FACE_OUTER_BOUND('',#68,.T.);
#37=FACE_OUTER_BOUND('',#69,.T.);
#38=FACE_OUTER_BOUND('',#70,.T.);
#39=FACE_OUTER_BOUND('',#71,.T.);
#40=FACE_OUTER_BOUND('',#72,.T.);
#41=FACE_OUTER_BOUND('',#73,.T.);
#42=FACE_OUTER_BOUND('',#74,.T.);
#43=FACE_OUTER_BOUND('',#75,.T.);
#44=FACE_OUTER_BOUND('',#76,.T.);
#45=FACE_OUTER_BOUND('',#77,.T.);
#46=FACE_OUTER_BOUND('',#78,.T.);
#47=EDGE_LOOP('',(#339,#340,#341,#342));
#48=EDGE_LOOP('',(#343,#344,#345,#346));
#49=EDGE_LOOP('',(#347,#348,#349,#350));
#50=EDGE_LOOP('',(#351,#352,#353,#354));
#51=EDGE_LOOP('',(#355,#356,#357,#358));
#52=EDGE_LOOP('',(#359,#360,#361,#362));
#53=EDGE_LOOP('',(#363,#364,#365,#366,#367,#368,#369,#370));
#54=EDGE_LOOP('',(#371,#372,#373,#374,#375,#376,#377,#378));
#55=EDGE_LOOP('',(#379,#380,#381,#382,#383,#384,#385,#386));
#56=EDGE_LOOP('',(#387,#388,#389,#390,#391,#392,#393,#394));
#57=EDGE_LOOP('',(#395,#396,#397,#398));
#58=EDGE_LOOP('',(#399,#400,#401,#402));
#59=EDGE_LOOP('',(#403,#404,#405,#406));
#60=EDGE_LOOP('',(#407,#408,#409,#410));
#61=EDGE_LOOP('',(#411,#412,#413,#414));
#62=EDGE_LOOP('',(#415,#416,#417,#418));
#63=EDGE_LOOP('',(#419,#420,#421,#422));
#64=EDGE_LOOP('',(#423,#424,#425,#426));
#65=EDGE_LOOP('',(#427,#428,#429,#430));
#66=EDGE_LOOP('',(#431,#432,#433,#434));
#67=EDGE_LOOP('',(#435,#436,#437,#438));
#68=EDGE_LOOP('',(#439,#440,#441,#442));
#69=EDGE_LOOP('',(#443,#444,#445,#446));
#70=EDGE_LOOP('',(#447,#448,#449,#450));
#71=EDGE_LOOP('',(#451,#452,#453,#454));
#72=EDGE_LOOP('',(#455,#456,#457,#458));
#73=EDGE_LOOP('',(#459,#460,#461,#462));
#74=EDGE_LOOP('',(#463,#464,#465,#466));
#75=EDGE_LOOP('',(#467,#468,#469,#470));
#76=EDGE_LOOP('',(#471,#472,#473,#474));
#77=EDGE_LOOP('',(#475,#476,#477,#478));
#78=EDGE_LOOP('',(#479,#480,#481,#482));
#79=LINE('',#718,#151);
#80=LINE('',#720,#152);
#81=LINE('',#722,#153);
#82=LINE('',#723,#154);
#83=LINE('',#726,#155);
#84=LINE('',#728,#156);
#85=LINE('',#729,#157);
#86=LINE('',#732,#158);
#87=LINE('',#733,#159);
#88=LINE('',#736,#160);
#89=LINE('',#737,#161);
#90=LINE('',#739,#162);
#91=LINE('',#742,#163);
#92=LINE('',#744,#164);
#93=LINE('',#746,#165);
#94=LINE('',#747,#166);
#95=LINE('',#750,#167);
#96=LINE('',#752,#168);
#97=LINE('',#754,#169);
#98=LINE('',#756,#170);
#99=LINE('',#758,#171);
#100=LINE('',#760,#172);
#101=LINE('',#761,#173);
#102=LINE('',#764,#174);
#103=LINE('',#766,#175);
#104=LINE('',#768,#176);
#105=LINE('',#770,#177);
#106=LINE('',#772,#178);
#107=LINE('',#773,#179);
#108=LINE('',#776,#180);
#109=LINE('',#778,#181);
#110=LINE('',#780,#182);
#111=LINE('',#782,#183);
#112=LINE('',#784,#184);
#113=LINE('',#785,#185);
#114=LINE('',#788,#186);
#115=LINE('',#790,#187);
#116=LINE('',#792,#188);
#117=LINE('',#794,#189);
#118=LINE('',#795,#190);
#119=LINE('',#798,#191);
#120=LINE('',#800,#192);
#121=LINE('',#801,#193);
#122=LINE('',#803,#194);
#123=LINE('',#805,#195);
#124=LINE('',#806,#196);
#125=LINE('',#809,#197);
#126=LINE('',#810,#198);
#127=LINE('',#811,#199);
#128=LINE('',#814,#200);
#129=LINE('',#815,#201);
#130=LINE('',#818,#202);
#131=LINE('',#819,#203);
#132=LINE('',#822,#204);
#133=LINE('',#823,#205);
#134=LINE('',#824,#206);
#135=LINE('',#826,#207);
#136=LINE('',#828,#208);
#137=LINE('',#831,#209);
#138=LINE('',#832,#210);
#139=LINE('',#834,#211);
#140=LINE('',#836,#212);
#141=LINE('',#837,#213);
#142=LINE('',#840,#214);
#143=LINE('',#842,#215);
#144=LINE('',#843,#216);
#145=LINE('',#846,#217);
#146=LINE('',#847,#218);
#147=LINE('',#850,#219);
#148=LINE('',#851,#220);
#149=LINE('',#857,#221);
#150=LINE('',#859,#222);
#151=VECTOR('',#582,10.);
#152=VECTOR('',#583,10.);
#153=VECTOR('',#584,10.);
#154=VECTOR('',#585,10.);
#155=VECTOR('',#588,10.);
#156=VECTOR('',#589,10.);
#157=VECTOR('',#590,10.);
#158=VECTOR('',#593,10.);
#159=VECTOR('',#594,10.);
#160=VECTOR('',#597,10.);
#161=VECTOR('',#598,10.);
#162=VECTOR('',#601,10.);
#163=VECTOR('',#602,10.);
#164=VECTOR('',#603,10.);
#165=VECTOR('',#604,10.);
#166=VECTOR('',#605,10.);
#167=VECTOR('',#608,10.);
#168=VECTOR('',#609,10.);
#169=VECTOR('',#610,10.);
#170=VECTOR('',#611,10.);
#171=VECTOR('',#612,10.);
#172=VECTOR('',#613,10.);
#173=VECTOR('',#614,10.);
#174=VECTOR('',#617,10.);
#175=VECTOR('',#618,10.);
#176=VECTOR('',#619,10.);
#177=VECTOR('',#620,10.);
#178=VECTOR('',#621,10.);
#179=VECTOR('',#622,10.);
#180=VECTOR('',#625,10.);
#181=VECTOR('',#626,10.);
#182=VECTOR('',#627,10.);
#183=VECTOR('',#628,10.);
#184=VECTOR('',#629,10.);
#185=VECTOR('',#630,10.);
#186=VECTOR('',#633,10.);
#187=VECTOR('',#634,10.);
#188=VECTOR('',#635,10.);
#189=VECTOR('',#636,10.);
#190=VECTOR('',#637,10.);
#191=VECTOR('',#640,10.);
#192=VECTOR('',#641,10.);
#193=VECTOR('',#642,10.);
#194=VECTOR('',#645,10.);
#195=VECTOR('',#646,10.);
#196=VECTOR('',#647,10.);
#197=VECTOR('',#650,10.);
#198=VECTOR('',#651,10.);
#199=VECTOR('',#652,10.);
#200=VECTOR('',#655,10.);
#201=VECTOR('',#656,10.);
#202=VECTOR('',#659,10.);
#203=VECTOR('',#660,10.);
#204=VECTOR('',#663,10.);
#205=VECTOR('',#664,10.);
#206=VECTOR('',#665,10.);
#207=VECTOR('',#668,10.);
#208=VECTOR('',#671,10.);
#209=VECTOR('',#674,10.);
#210=VECTOR('',#675,10.);
#211=VECTOR('',#678,10.);
#212=VECTOR('',#681,10.);
#213=VECTOR('',#682,10.);
#214=VECTOR('',#685,10.);
#215=VECTOR('',#686,10.);
#216=VECTOR('',#687,10.);
#217=VECTOR('',#690,10.);
#218=VECTOR('',#691,10.);
#219=VECTOR('',#694,10.);
#220=VECTOR('',#695,10.);
#221=VECTOR('',#706,10.);
#222=VECTOR('',#709,10.);
#223=VERTEX_POINT('',#716);
#224=VERTEX_POINT('',#717);
#225=VERTEX_POINT('',#719);
#226=VERTEX_POINT('',#721);
#227=VERTEX_POINT('',#725);
#228=VERTEX_POINT('',#727);
#229=VERTEX_POINT('',#731);
#230=VERTEX_POINT('',#735);
#231=VERTEX_POINT('',#740);
#232=VERTEX_POINT('',#741);
#233=VERTEX_POINT('',#743);
#234=VERTEX_POINT('',#745);
#235=VERTEX_POINT('',#749);
#236=VERTEX_POINT('',#751);
#237=VERTEX_POINT('',#753);
#238=VERTEX_POINT('',#755);
#239=VERTEX_POINT('',#757);
#240=VERTEX_POINT('',#759);
#241=VERTEX_POINT('',#763);
#242=VERTEX_POINT('',#765);
#243=VERTEX_POINT('',#767);
#244=VERTEX_POINT('',#769);
#245=VERTEX_POINT('',#771);
#246=VERTEX_POINT('',#775);
#247=VERTEX_POINT('',#777);
#248=VERTEX_POINT('',#779);
#249=VERTEX_POINT('',#781);
#250=VERTEX_POINT('',#783);
#251=VERTEX_POINT('',#787);
#252=VERTEX_POINT('',#789);
#253=VERTEX_POINT('',#791);
#254=VERTEX_POINT('',#793);
#255=VERTEX_POINT('',#797);
#256=VERTEX_POINT('',#799);
#257=VERTEX_POINT('',#804);
#258=VERTEX_POINT('',#808);
#259=VERTEX_POINT('',#813);
#260=VERTEX_POINT('',#817);
#261=VERTEX_POINT('',#821);
#262=VERTEX_POINT('',#830);
#263=VERTEX_POINT('',#839);
#264=VERTEX_POINT('',#841);
#265=VERTEX_POINT('',#845);
#266=VERTEX_POINT('',#849);
#267=EDGE_CURVE('',#223,#224,#79,.T.);
#268=EDGE_CURVE('',#225,#223,#80,.T.);
#269=EDGE_CURVE('',#226,#225,#81,.T.);
#270=EDGE_CURVE('',#224,#226,#82,.T.);
#271=EDGE_CURVE('',#227,#226,#83,.T.);
#272=EDGE_CURVE('',#228,#227,#84,.T.);
#273=EDGE_CURVE('',#224,#228,#85,.T.);
#274=EDGE_CURVE('',#225,#229,#86,.T.);
#275=EDGE_CURVE('',#227,#229,#87,.T.);
#276=EDGE_CURVE('',#230,#228,#88,.T.);
#277=EDGE_CURVE('',#229,#230,#89,.T.);
#278=EDGE_CURVE('',#230,#223,#90,.T.);
#279=EDGE_CURVE('',#231,#232,#91,.T.);
#280=EDGE_CURVE('',#233,#231,#92,.T.);
#281=EDGE_CURVE('',#234,#233,#93,.T.);
#282=EDGE_CURVE('',#232,#234,#94,.T.);
#283=EDGE_CURVE('',#235,#231,#95,.T.);
#284=EDGE_CURVE('',#235,#236,#96,.T.);
#285=EDGE_CURVE('',#236,#237,#97,.T.);
#286=EDGE_CURVE('',#238,#237,#98,.T.);
#287=EDGE_CURVE('',#238,#239,#99,.T.);
#288=EDGE_CURVE('',#239,#240,#100,.T.);
#289=EDGE_CURVE('',#240,#233,#101,.T.);
#290=EDGE_CURVE('',#241,#232,#102,.T.);
#291=EDGE_CURVE('',#241,#242,#103,.T.);
#292=EDGE_CURVE('',#242,#243,#104,.T.);
#293=EDGE_CURVE('',#244,#243,#105,.T.);
#294=EDGE_CURVE('',#244,#245,#106,.T.);
#295=EDGE_CURVE('',#245,#235,#107,.T.);
#296=EDGE_CURVE('',#240,#246,#108,.T.);
#297=EDGE_CURVE('',#246,#247,#109,.T.);
#298=EDGE_CURVE('',#248,#247,#110,.T.);
#299=EDGE_CURVE('',#248,#249,#111,.T.);
#300=EDGE_CURVE('',#249,#250,#112,.T.);
#301=EDGE_CURVE('',#250,#234,#113,.T.);
#302=EDGE_CURVE('',#250,#251,#114,.T.);
#303=EDGE_CURVE('',#251,#252,#115,.T.);
#304=EDGE_CURVE('',#253,#252,#116,.T.);
#305=EDGE_CURVE('',#253,#254,#117,.T.);
#306=EDGE_CURVE('',#254,#241,#118,.T.);
#307=EDGE_CURVE('',#255,#243,#119,.T.);
#308=EDGE_CURVE('',#256,#255,#120,.T.);
#309=EDGE_CURVE('',#244,#256,#121,.T.);
#310=EDGE_CURVE('',#256,#237,#122,.T.);
#311=EDGE_CURVE('',#257,#256,#123,.T.);
#312=EDGE_CURVE('',#238,#257,#124,.T.);
#313=EDGE_CURVE('',#258,#252,#125,.T.);
#314=EDGE_CURVE('',#255,#258,#126,.T.);
#315=EDGE_CURVE('',#253,#255,#127,.T.);
#316=EDGE_CURVE('',#259,#245,#128,.T.);
#317=EDGE_CURVE('',#256,#259,#129,.T.);
#318=EDGE_CURVE('',#260,#239,#130,.T.);
#319=EDGE_CURVE('',#257,#260,#131,.T.);
#320=EDGE_CURVE('',#261,#249,#132,.T.);
#321=EDGE_CURVE('',#248,#258,#133,.T.);
#322=EDGE_CURVE('',#258,#261,#134,.T.);
#323=EDGE_CURVE('',#251,#261,#135,.T.);
#324=EDGE_CURVE('',#236,#259,#136,.T.);
#325=EDGE_CURVE('',#242,#262,#137,.T.);
#326=EDGE_CURVE('',#255,#262,#138,.T.);
#327=EDGE_CURVE('',#262,#254,#139,.T.);
#328=EDGE_CURVE('',#246,#260,#140,.T.);
#329=EDGE_CURVE('',#257,#247,#141,.T.);
#330=EDGE_CURVE('',#263,#255,#142,.T.);
#331=EDGE_CURVE('',#263,#264,#143,.T.);
#332=EDGE_CURVE('',#264,#256,#144,.T.);
#333=EDGE_CURVE('',#265,#258,#145,.T.);
#334=EDGE_CURVE('',#265,#263,#146,.T.);
#335=EDGE_CURVE('',#266,#265,#147,.T.);
#336=EDGE_CURVE('',#264,#266,#148,.T.);
#337=EDGE_CURVE('',#266,#257,#149,.T.);
#338=EDGE_CURVE('',#258,#257,#150,.T.);
#339=ORIENTED_EDGE('',*,*,#267,.F.);
#340=ORIENTED_EDGE('',*,*,#268,.F.);
#341=ORIENTED_EDGE('',*,*,#269,.F.);
#342=ORIENTED_EDGE('',*,*,#270,.F.);
#343=ORIENTED_EDGE('',*,*,#270,.T.);
#344=ORIENTED_EDGE('',*,*,#271,.F.);
#345=ORIENTED_EDGE('',*,*,#272,.F.);
#346=ORIENTED_EDGE('',*,*,#273,.F.);
#347=ORIENTED_EDGE('',*,*,#269,.T.);
#348=ORIENTED_EDGE('',*,*,#274,.T.);
#349=ORIENTED_EDGE('',*,*,#275,.F.);
#350=ORIENTED_EDGE('',*,*,#271,.T.);
#351=ORIENTED_EDGE('',*,*,#276,.T.);
#352=ORIENTED_EDGE('',*,*,#272,.T.);
#353=ORIENTED_EDGE('',*,*,#275,.T.);
#354=ORIENTED_EDGE('',*,*,#277,.T.);
#355=ORIENTED_EDGE('',*,*,#267,.T.);
#356=ORIENTED_EDGE('',*,*,#273,.T.);
#357=ORIENTED_EDGE('',*,*,#276,.F.);
#358=ORIENTED_EDGE('',*,*,#278,.T.);
#359=ORIENTED_EDGE('',*,*,#279,.F.);
#360=ORIENTED_EDGE('',*,*,#280,.F.);
#361=ORIENTED_EDGE('',*,*,#281,.F.);
#362=ORIENTED_EDGE('',*,*,#282,.F.);
#363=ORIENTED_EDGE('',*,*,#280,.T.);
#364=ORIENTED_EDGE('',*,*,#283,.F.);
#365=ORIENTED_EDGE('',*,*,#284,.T.);
#366=ORIENTED_EDGE('',*,*,#285,.T.);
#367=ORIENTED_EDGE('',*,*,#286,.F.);
#368=ORIENTED_EDGE('',*,*,#287,.T.);
#369=ORIENTED_EDGE('',*,*,#288,.T.);
#370=ORIENTED_EDGE('',*,*,#289,.T.);
#371=ORIENTED_EDGE('',*,*,#279,.T.);
#372=ORIENTED_EDGE('',*,*,#290,.F.);
#373=ORIENTED_EDGE('',*,*,#291,.T.);
#374=ORIENTED_EDGE('',*,*,#292,.T.);
#375=ORIENTED_EDGE('',*,*,#293,.F.);
#376=ORIENTED_EDGE('',*,*,#294,.T.);
#377=ORIENTED_EDGE('',*,*,#295,.T.);
#378=ORIENTED_EDGE('',*,*,#283,.T.);
#379=ORIENTED_EDGE('',*,*,#281,.T.);
#380=ORIENTED_EDGE('',*,*,#289,.F.);
#381=ORIENTED_EDGE('',*,*,#296,.T.);
#382=ORIENTED_EDGE('',*,*,#297,.T.);
#383=ORIENTED_EDGE('',*,*,#298,.F.);
#384=ORIENTED_EDGE('',*,*,#299,.T.);
#385=ORIENTED_EDGE('',*,*,#300,.T.);
#386=ORIENTED_EDGE('',*,*,#301,.T.);
#387=ORIENTED_EDGE('',*,*,#282,.T.);
#388=ORIENTED_EDGE('',*,*,#301,.F.);
#389=ORIENTED_EDGE('',*,*,#302,.T.);
#390=ORIENTED_EDGE('',*,*,#303,.T.);
#391=ORIENTED_EDGE('',*,*,#304,.F.);
#392=ORIENTED_EDGE('',*,*,#305,.T.);
#393=ORIENTED_EDGE('',*,*,#306,.T.);
#394=ORIENTED_EDGE('',*,*,#290,.T.);
#395=ORIENTED_EDGE('',*,*,#293,.T.);
#396=ORIENTED_EDGE('',*,*,#307,.F.);
#397=ORIENTED_EDGE('',*,*,#308,.F.);
#398=ORIENTED_EDGE('',*,*,#309,.F.);
#399=ORIENTED_EDGE('',*,*,#286,.T.);
#400=ORIENTED_EDGE('',*,*,#310,.F.);
#401=ORIENTED_EDGE('',*,*,#311,.F.);
#402=ORIENTED_EDGE('',*,*,#312,.F.);
#403=ORIENTED_EDGE('',*,*,#304,.T.);
#404=ORIENTED_EDGE('',*,*,#313,.F.);
#405=ORIENTED_EDGE('',*,*,#314,.F.);
#406=ORIENTED_EDGE('',*,*,#315,.F.);
#407=ORIENTED_EDGE('',*,*,#316,.T.);
#408=ORIENTED_EDGE('',*,*,#294,.F.);
#409=ORIENTED_EDGE('',*,*,#309,.T.);
#410=ORIENTED_EDGE('',*,*,#317,.T.);
#411=ORIENTED_EDGE('',*,*,#318,.T.);
#412=ORIENTED_EDGE('',*,*,#287,.F.);
#413=ORIENTED_EDGE('',*,*,#312,.T.);
#414=ORIENTED_EDGE('',*,*,#319,.T.);
#415=ORIENTED_EDGE('',*,*,#320,.T.);
#416=ORIENTED_EDGE('',*,*,#299,.F.);
#417=ORIENTED_EDGE('',*,*,#321,.T.);
#418=ORIENTED_EDGE('',*,*,#322,.T.);
#419=ORIENTED_EDGE('',*,*,#323,.T.);
#420=ORIENTED_EDGE('',*,*,#322,.F.);
#421=ORIENTED_EDGE('',*,*,#313,.T.);
#422=ORIENTED_EDGE('',*,*,#303,.F.);
#423=ORIENTED_EDGE('',*,*,#324,.T.);
#424=ORIENTED_EDGE('',*,*,#317,.F.);
#425=ORIENTED_EDGE('',*,*,#310,.T.);
#426=ORIENTED_EDGE('',*,*,#285,.F.);
#427=ORIENTED_EDGE('',*,*,#325,.T.);
#428=ORIENTED_EDGE('',*,*,#326,.F.);
#429=ORIENTED_EDGE('',*,*,#307,.T.);
#430=ORIENTED_EDGE('',*,*,#292,.F.);
#431=ORIENTED_EDGE('',*,*,#327,.T.);
#432=ORIENTED_EDGE('',*,*,#305,.F.);
#433=ORIENTED_EDGE('',*,*,#315,.T.);
#434=ORIENTED_EDGE('',*,*,#326,.T.);
#435=ORIENTED_EDGE('',*,*,#328,.T.);
#436=ORIENTED_EDGE('',*,*,#319,.F.);
#437=ORIENTED_EDGE('',*,*,#329,.T.);
#438=ORIENTED_EDGE('',*,*,#297,.F.);
#439=ORIENTED_EDGE('',*,*,#308,.T.);
#440=ORIENTED_EDGE('',*,*,#330,.F.);
#441=ORIENTED_EDGE('',*,*,#331,.T.);
#442=ORIENTED_EDGE('',*,*,#332,.T.);
#443=ORIENTED_EDGE('',*,*,#314,.T.);
#444=ORIENTED_EDGE('',*,*,#333,.F.);
#445=ORIENTED_EDGE('',*,*,#334,.T.);
#446=ORIENTED_EDGE('',*,*,#330,.T.);
#447=ORIENTED_EDGE('',*,*,#335,.F.);
#448=ORIENTED_EDGE('',*,*,#336,.F.);
#449=ORIENTED_EDGE('',*,*,#331,.F.);
#450=ORIENTED_EDGE('',*,*,#334,.F.);
#451=ORIENTED_EDGE('',*,*,#284,.F.);
#452=ORIENTED_EDGE('',*,*,#295,.F.);
#453=ORIENTED_EDGE('',*,*,#316,.F.);
#454=ORIENTED_EDGE('',*,*,#324,.F.);
#455=ORIENTED_EDGE('',*,*,#300,.F.);
#456=ORIENTED_EDGE('',*,*,#320,.F.);
#457=ORIENTED_EDGE('',*,*,#323,.F.);
#458=ORIENTED_EDGE('',*,*,#302,.F.);
#459=ORIENTED_EDGE('',*,*,#327,.F.);
#460=ORIENTED_EDGE('',*,*,#325,.F.);
#461=ORIENTED_EDGE('',*,*,#291,.F.);
#462=ORIENTED_EDGE('',*,*,#306,.F.);
#463=ORIENTED_EDGE('',*,*,#318,.F.);
#464=ORIENTED_EDGE('',*,*,#328,.F.);
#465=ORIENTED_EDGE('',*,*,#296,.F.);
#466=ORIENTED_EDGE('',*,*,#288,.F.);
#467=ORIENTED_EDGE('',*,*,#311,.T.);
#468=ORIENTED_EDGE('',*,*,#332,.F.);
#469=ORIENTED_EDGE('',*,*,#336,.T.);
#470=ORIENTED_EDGE('',*,*,#337,.T.);
#471=ORIENTED_EDGE('',*,*,#338,.T.);
#472=ORIENTED_EDGE('',*,*,#337,.F.);
#473=ORIENTED_EDGE('',*,*,#335,.T.);
#474=ORIENTED_EDGE('',*,*,#333,.T.);
#475=ORIENTED_EDGE('',*,*,#268,.T.);
#476=ORIENTED_EDGE('',*,*,#278,.F.);
#477=ORIENTED_EDGE('',*,*,#277,.F.);
#478=ORIENTED_EDGE('',*,*,#274,.F.);
#479=ORIENTED_EDGE('',*,*,#298,.T.);
#480=ORIENTED_EDGE('',*,*,#329,.F.);
#481=ORIENTED_EDGE('',*,*,#338,.F.);
#482=ORIENTED_EDGE('',*,*,#321,.F.);
#483=PLANE('',#547);
#484=PLANE('',#548);
#485=PLANE('',#549);
#486=PLANE('',#550);
#487=PLANE('',#551);
#488=PLANE('',#552);
#489=PLANE('',#553);
#490=PLANE('',#554);
#491=PLANE('',#555);
#492=PLANE('',#556);
#493=PLANE('',#557);
#494=PLANE('',#558);
#495=PLANE('',#559);
#496=PLANE('',#560);
#497=PLANE('',#561);
#498=PLANE('',#562);
#499=PLANE('',#563);
#500=PLANE('',#564);
#501=PLANE('',#565);
#502=PLANE('',#566);
#503=PLANE('',#567);
#504=PLANE('',#568);
#505=PLANE('',#569);
#506=PLANE('',#570);
#507=PLANE('',#571);
#508=PLANE('',#572);
#509=PLANE('',#573);
#510=PLANE('',#574);
#511=PLANE('',#575);
#512=PLANE('',#576);
#513=PLANE('',#577);
#514=ADVANCED_FACE('',(#16),#483,.F.);
#515=ADVANCED_FACE('',(#17),#484,.T.);
#516=ADVANCED_FACE('',(#18),#485,.F.);
#517=ADVANCED_FACE('',(#19),#486,.T.);
#518=ADVANCED_FACE('',(#20,#15),#487,.F.);
#519=ADVANCED_FACE('',(#21),#488,.T.);
#520=ADVANCED_FACE('',(#22),#489,.T.);
#521=ADVANCED_FACE('',(#23),#490,.T.);
#522=ADVANCED_FACE('',(#24),#491,.T.);
#523=ADVANCED_FACE('',(#25),#492,.T.);
#524=ADVANCED_FACE('',(#26),#493,.T.);
#525=ADVANCED_FACE('',(#27),#494,.T.);
#526=ADVANCED_FACE('',(#28),#495,.F.);
#527=ADVANCED_FACE('',(#29),#496,.F.);
#528=ADVANCED_FACE('',(#30),#497,.F.);
#529=ADVANCED_FACE('',(#31),#498,.F.);
#530=ADVANCED_FACE('',(#32),#499,.F.);
#531=ADVANCED_FACE('',(#33),#500,.F.);
#532=ADVANCED_FACE('',(#34),#501,.F.);
#533=ADVANCED_FACE('',(#35),#502,.F.);
#534=ADVANCED_FACE('',(#36),#503,.T.);
#535=ADVANCED_FACE('',(#37),#504,.T.);
#536=ADVANCED_FACE('',(#38),#505,.F.);
#537=ADVANCED_FACE('',(#39),#506,.F.);
#538=ADVANCED_FACE('',(#40),#507,.F.);
#539=ADVANCED_FACE('',(#41),#508,.F.);
#540=ADVANCED_FACE('',(#42),#509,.F.);
#541=ADVANCED_FACE('',(#43),#510,.T.);
#542=ADVANCED_FACE('',(#44),#511,.T.);
#543=ADVANCED_FACE('',(#45),#512,.T.);
#544=ADVANCED_FACE('',(#46),#513,.T.);
#545=CLOSED_SHELL('',(#514,#515,#516,#517,#518,#519,#520,#521,#522,#523,
#524,#525,#526,#527,#528,#529,#530,#531,#532,#533,#534,#535,#536,#537,#538,
#539,#540,#541,#542,#543,#544));
#546=AXIS2_PLACEMENT_3D('',#714,#578,#579);
#547=AXIS2_PLACEMENT_3D('',#715,#580,#581);
#548=AXIS2_PLACEMENT_3D('',#724,#586,#587);
#549=AXIS2_PLACEMENT_3D('',#730,#591,#592);
#550=AXIS2_PLACEMENT_3D('',#734,#595,#596);
#551=AXIS2_PLACEMENT_3D('',#738,#599,#600);
#552=AXIS2_PLACEMENT_3D('',#748,#606,#607);
#553=AXIS2_PLACEMENT_3D('',#762,#615,#616);
#554=AXIS2_PLACEMENT_3D('',#774,#623,#624);
#555=AXIS2_PLACEMENT_3D('',#786,#631,#632);
#556=AXIS2_PLACEMENT_3D('',#796,#638,#639);
#557=AXIS2_PLACEMENT_3D('',#802,#643,#644);
#558=AXIS2_PLACEMENT_3D('',#807,#648,#649);
#559=AXIS2_PLACEMENT_3D('',#812,#653,#654);
#560=AXIS2_PLACEMENT_3D('',#816,#657,#658);
#561=AXIS2_PLACEMENT_3D('',#820,#661,#662);
#562=AXIS2_PLACEMENT_3D('',#825,#666,#667);
#563=AXIS2_PLACEMENT_3D('',#827,#669,#670);
#564=AXIS2_PLACEMENT_3D('',#829,#672,#673);
#565=AXIS2_PLACEMENT_3D('',#833,#676,#677);
#566=AXIS2_PLACEMENT_3D('',#835,#679,#680);
#567=AXIS2_PLACEMENT_3D('',#838,#683,#684);
#568=AXIS2_PLACEMENT_3D('',#844,#688,#689);
#569=AXIS2_PLACEMENT_3D('',#848,#692,#693);
#570=AXIS2_PLACEMENT_3D('',#852,#696,#697);
#571=AXIS2_PLACEMENT_3D('',#853,#698,#699);
#572=AXIS2_PLACEMENT_3D('',#854,#700,#701);
#573=AXIS2_PLACEMENT_3D('',#855,#702,#703);
#574=AXIS2_PLACEMENT_3D('',#856,#704,#705);
#575=AXIS2_PLACEMENT_3D('',#858,#707,#708);
#576=AXIS2_PLACEMENT_3D('',#860,#710,#711);
#577=AXIS2_PLACEMENT_3D('',#861,#712,#713);
#578=DIRECTION('axis',(0.,0.,1.));
#579=DIRECTION('refdir',(1.,0.,0.));
#580=DIRECTION('center_axis',(0.,-1.,0.));
#581=DIRECTION('ref_axis',(0.,0.,-1.));
#582=DIRECTION('',(0.,0.,1.));
#583=DIRECTION('',(1.,0.,0.));
#584=DIRECTION('',(0.,0.,-1.));
#585=DIRECTION('',(-1.,0.,0.));
#586=DIRECTION('center_axis',(0.,0.,1.));
#587=DIRECTION('ref_axis',(0.,-1.,0.));
#588=DIRECTION('',(0.,1.,0.));
#589=DIRECTION('',(-1.,0.,0.));
#590=DIRECTION('',(0.,-1.,0.));
#591=DIRECTION('center_axis',(1.,0.,0.));
#592=DIRECTION('ref_axis',(0.,1.,0.));
#593=DIRECTION('',(0.,-1.,0.));
#594=DIRECTION('',(0.,0.,-1.));
#595=DIRECTION('center_axis',(0.,-1.,0.));
#596=DIRECTION('ref_axis',(0.,0.,-1.));
#597=DIRECTION('',(0.,0.,1.));
#598=DIRECTION('',(1.,0.,0.));
#599=DIRECTION('center_axis',(-1.,0.,0.));
#600=DIRECTION('ref_axis',(0.,0.,1.));
#601=DIRECTION('',(0.,1.,0.));
#602=DIRECTION('',(0.,0.,1.));
#603=DIRECTION('',(0.,1.,0.));
#604=DIRECTION('',(0.,0.,-1.));
#605=DIRECTION('',(0.,-1.,0.));
#606=DIRECTION('center_axis',(0.,0.,1.));
#607=DIRECTION('ref_axis',(0.,-1.,0.));
#608=DIRECTION('',(1.,0.,0.));
#609=DIRECTION('',(0.,-1.,0.));
#610=DIRECTION('',(-1.,0.,0.));
#611=DIRECTION('',(0.,1.,0.));
#612=DIRECTION('',(1.,0.,0.));
#613=DIRECTION('',(0.,-1.,0.));
#614=DIRECTION('',(1.,0.,0.));
#615=DIRECTION('center_axis',(0.,-1.,0.));
#616=DIRECTION('ref_axis',(0.,0.,-1.));
#617=DIRECTION('',(1.,0.,0.));
#618=DIRECTION('',(0.,0.,-1.));
#619=DIRECTION('',(-1.,0.,0.));
#620=DIRECTION('',(0.,0.,1.));
#621=DIRECTION('',(1.,0.,0.));
#622=DIRECTION('',(0.,0.,-1.));
#623=DIRECTION('center_axis',(0.,1.,0.));
#624=DIRECTION('ref_axis',(0.,0.,1.));
#625=DIRECTION('',(0.,0.,1.));
#626=DIRECTION('',(-1.,0.,0.));
#627=DIRECTION('',(0.,0.,-1.));
#628=DIRECTION('',(1.,0.,0.));
#629=DIRECTION('',(0.,0.,1.));
#630=DIRECTION('',(1.,0.,0.));
#631=DIRECTION('center_axis',(0.,0.,-1.));
#632=DIRECTION('ref_axis',(0.,1.,0.));
#633=DIRECTION('',(0.,1.,0.));
#634=DIRECTION('',(-1.,0.,0.));
#635=DIRECTION('',(0.,-1.,0.));
#636=DIRECTION('',(1.,0.,0.));
#637=DIRECTION('',(0.,1.,0.));
#638=DIRECTION('center_axis',(1.,0.,0.));
#639=DIRECTION('ref_axis',(0.,0.,-1.));
#640=DIRECTION('',(0.,1.,0.));
#641=DIRECTION('',(0.,0.,1.));
#642=DIRECTION('',(0.,-1.,0.));
#643=DIRECTION('center_axis',(1.,0.,0.));
#644=DIRECTION('ref_axis',(0.,0.,-1.));
#645=DIRECTION('',(0.,0.,-1.));
#646=DIRECTION('',(0.,1.,0.));
#647=DIRECTION('',(0.,0.,1.));
#648=DIRECTION('center_axis',(1.,0.,0.));
#649=DIRECTION('ref_axis',(0.,0.,-1.));
#650=DIRECTION('',(0.,0.,1.));
#651=DIRECTION('',(0.,-1.,0.));
#652=DIRECTION('',(0.,0.,-1.));
#653=DIRECTION('center_axis',(0.,0.,-1.));
#654=DIRECTION('ref_axis',(0.,-1.,0.));
#655=DIRECTION('',(0.,1.,0.));
#656=DIRECTION('',(1.,0.,0.));
#657=DIRECTION('center_axis',(0.,-1.,0.));
#658=DIRECTION('ref_axis',(0.,0.,1.));
#659=DIRECTION('',(0.,0.,-1.));
#660=DIRECTION('',(1.,0.,0.));
#661=DIRECTION('center_axis',(0.,0.,1.));
#662=DIRECTION('ref_axis',(0.,1.,0.));
#663=DIRECTION('',(0.,-1.,0.));
#664=DIRECTION('',(0.,1.,0.));
#665=DIRECTION('',(1.,0.,0.));
#666=DIRECTION('center_axis',(0.,-1.,0.));
#667=DIRECTION('ref_axis',(0.,0.,1.));
#668=DIRECTION('',(0.,0.,-1.));
#669=DIRECTION('center_axis',(0.,1.,0.));
#670=DIRECTION('ref_axis',(0.,0.,-1.));
#671=DIRECTION('',(0.,0.,1.));
#672=DIRECTION('center_axis',(0.,0.,1.));
#673=DIRECTION('ref_axis',(0.,1.,0.));
#674=DIRECTION('',(0.,-1.,0.));
#675=DIRECTION('',(1.,0.,0.));
#676=DIRECTION('center_axis',(0.,1.,0.));
#677=DIRECTION('ref_axis',(0.,0.,-1.));
#678=DIRECTION('',(0.,0.,1.));
#679=DIRECTION('center_axis',(0.,0.,-1.));
#680=DIRECTION('ref_axis',(0.,-1.,0.));
#681=DIRECTION('',(0.,1.,0.));
#682=DIRECTION('',(0.,-1.,0.));
#683=DIRECTION('center_axis',(0.,-1.,0.));
#684=DIRECTION('ref_axis',(0.,0.,-1.));
#685=DIRECTION('',(1.,0.,0.));
#686=DIRECTION('',(0.,0.,-1.));
#687=DIRECTION('',(1.,0.,0.));
#688=DIRECTION('center_axis',(0.,0.,-1.));
#689=DIRECTION('ref_axis',(0.,1.,0.));
#690=DIRECTION('',(1.,0.,0.));
#691=DIRECTION('',(0.,1.,0.));
#692=DIRECTION('center_axis',(-1.,0.,0.));
#693=DIRECTION('ref_axis',(0.,0.,1.));
#694=DIRECTION('',(0.,0.,1.));
#695=DIRECTION('',(0.,-1.,0.));
#696=DIRECTION('center_axis',(-1.,0.,0.));
#697=DIRECTION('ref_axis',(0.,0.,1.));
#698=DIRECTION('center_axis',(-1.,0.,0.));
#699=DIRECTION('ref_axis',(0.,0.,1.));
#700=DIRECTION('center_axis',(-1.,0.,0.));
#701=DIRECTION('ref_axis',(0.,0.,1.));
#702=DIRECTION('center_axis',(-1.,0.,0.));
#703=DIRECTION('ref_axis',(0.,0.,1.));
#704=DIRECTION('center_axis',(0.,0.,1.));
#705=DIRECTION('ref_axis',(0.,-1.,0.));
#706=DIRECTION('',(1.,0.,0.));
#707=DIRECTION('center_axis',(0.,1.,0.));
#708=DIRECTION('ref_axis',(0.,0.,1.));
#709=DIRECTION('',(0.,0.,-1.));
#710=DIRECTION('center_axis',(0.,0.,-1.));
#711=DIRECTION('ref_axis',(0.,1.,0.));
#712=DIRECTION('center_axis',(1.,0.,0.));
#713=DIRECTION('ref_axis',(0.,0.,-1.));
#714=CARTESIAN_POINT('',(0.,0.,0.));
#715=CARTESIAN_POINT('Origin',(0.,49.8991868027709,9.851486238636));
#716=CARTESIAN_POINT('',(1.6,49.8991868027709,9.851486238636));
#717=CARTESIAN_POINT('',(1.6,49.8991868027709,88.851486238636));
#718=CARTESIAN_POINT('',(1.6,49.8991868027709,29.601486238636));
#719=CARTESIAN_POINT('',(0.,49.8991868027709,9.851486238636));
#720=CARTESIAN_POINT('',(0.,49.8991868027709,9.851486238636));
#721=CARTESIAN_POINT('',(0.,49.8991868027709,88.851486238636));
#722=CARTESIAN_POINT('',(0.,49.8991868027709,29.601486238636));
#723=CARTESIAN_POINT('',(0.,49.8991868027709,88.851486238636));
#724=CARTESIAN_POINT('Origin',(0.,47.3991868027709,88.851486238636));
#725=CARTESIAN_POINT('',(0.,-17.1008131972291,88.851486238636));
#726=CARTESIAN_POINT('',(0.,47.3991868027709,88.851486238636));
#727=CARTESIAN_POINT('',(1.6,-17.1008131972291,88.851486238636));
#728=CARTESIAN_POINT('',(0.,-17.1008131972291,88.851486238636));
#729=CARTESIAN_POINT('',(1.6,-14.6008131972291,88.851486238636));
#730=CARTESIAN_POINT('Origin',(0.,16.3991868027709,49.351486238636));
#731=CARTESIAN_POINT('',(0.,-17.1008131972291,9.851486238636));
#732=CARTESIAN_POINT('',(0.,-14.6008131972291,9.851486238636));
#733=CARTESIAN_POINT('',(0.,-17.1008131972291,9.851486238636));
#734=CARTESIAN_POINT('Origin',(0.,-17.1008131972291,88.851486238636));
#735=CARTESIAN_POINT('',(1.6,-17.1008131972291,9.851486238636));
#736=CARTESIAN_POINT('',(1.6,-17.1008131972291,69.101486238636));
#737=CARTESIAN_POINT('',(0.,-17.1008131972291,9.851486238636));
#738=CARTESIAN_POINT('Origin',(1.6,16.3991868027709,49.351486238636));
#739=CARTESIAN_POINT('',(1.6,47.3991868027709,9.851486238636));
#740=CARTESIAN_POINT('',(1.6,46.3991868027709,11.851486238636));
#741=CARTESIAN_POINT('',(1.6,46.3991868027709,86.851486238636));
#742=CARTESIAN_POINT('',(1.6,46.3991868027709,68.101486238636));
#743=CARTESIAN_POINT('',(1.6,-13.6008131972291,11.851486238636));
#744=CARTESIAN_POINT('',(1.6,31.3991868027709,11.851486238636));
#745=CARTESIAN_POINT('',(1.6,-13.6008131972291,86.851486238636));
#746=CARTESIAN_POINT('',(1.6,-13.6008131972291,30.601486238636));
#747=CARTESIAN_POINT('',(1.6,1.39918680277089,86.851486238636));
#748=CARTESIAN_POINT('Origin',(0.,46.3991868027709,11.851486238636));
#749=CARTESIAN_POINT('',(1.5,46.3991868027709,11.851486238636));
#750=CARTESIAN_POINT('',(0.,46.3991868027709,11.851486238636));
#751=CARTESIAN_POINT('',(1.5,31.3991868027709,11.851486238636));
#752=CARTESIAN_POINT('',(1.5,20.1491868027709,11.851486238636));
#753=CARTESIAN_POINT('',(1.,31.3991868027709,11.851486238636));
#754=CARTESIAN_POINT('',(1.,31.3991868027709,11.851486238636));
#755=CARTESIAN_POINT('',(1.,1.39918680277089,11.851486238636));
#756=CARTESIAN_POINT('',(1.,31.3991868027709,11.851486238636));
#757=CARTESIAN_POINT('',(1.5,1.39918680277089,11.851486238636));
#758=CARTESIAN_POINT('',(1.,1.39918680277089,11.851486238636));
#759=CARTESIAN_POINT('',(1.5,-13.6008131972291,11.851486238636));
#760=CARTESIAN_POINT('',(1.5,-2.35081319722911,11.851486238636));
#761=CARTESIAN_POINT('',(0.,-13.6008131972291,11.851486238636));
#762=CARTESIAN_POINT('Origin',(0.,46.3991868027709,86.851486238636));
#763=CARTESIAN_POINT('',(1.5,46.3991868027709,86.851486238636));
#764=CARTESIAN_POINT('',(0.,46.3991868027709,86.851486238636));
#765=CARTESIAN_POINT('',(1.5,46.3991868027709,71.851486238636));
#766=CARTESIAN_POINT('',(1.5,46.3991868027709,53.101486238636));
#767=CARTESIAN_POINT('',(1.,46.3991868027709,71.851486238636));
#768=CARTESIAN_POINT('',(1.,46.3991868027709,71.851486238636));
#769=CARTESIAN_POINT('',(1.,46.3991868027709,26.851486238636));
#770=CARTESIAN_POINT('',(1.,46.3991868027709,68.101486238636));
#771=CARTESIAN_POINT('',(1.5,46.3991868027709,26.851486238636));
#772=CARTESIAN_POINT('',(1.,46.3991868027709,26.851486238636));
#773=CARTESIAN_POINT('',(1.5,46.3991868027709,23.101486238636));
#774=CARTESIAN_POINT('Origin',(0.,-13.6008131972291,11.851486238636));
#775=CARTESIAN_POINT('',(1.5,-13.6008131972291,26.851486238636));
#776=CARTESIAN_POINT('',(1.5,-13.6008131972291,45.601486238636));
#777=CARTESIAN_POINT('',(1.,-13.6008131972291,26.851486238636));
#778=CARTESIAN_POINT('',(1.,-13.6008131972291,26.851486238636));
#779=CARTESIAN_POINT('',(1.,-13.6008131972291,71.851486238636));
#780=CARTESIAN_POINT('',(1.,-13.6008131972291,30.601486238636));
#781=CARTESIAN_POINT('',(1.5,-13.6008131972291,71.851486238636));
#782=CARTESIAN_POINT('',(1.,-13.6008131972291,71.851486238636));
#783=CARTESIAN_POINT('',(1.5,-13.6008131972291,86.851486238636));
#784=CARTESIAN_POINT('',(1.5,-13.6008131972291,75.601486238636));
#785=CARTESIAN_POINT('',(0.,-13.6008131972291,86.851486238636));
#786=CARTESIAN_POINT('Origin',(0.,-13.6008131972291,86.851486238636));
#787=CARTESIAN_POINT('',(1.5,1.39918680277089,86.851486238636));
#788=CARTESIAN_POINT('',(1.5,12.6491868027709,86.851486238636));
#789=CARTESIAN_POINT('',(1.,1.39918680277089,86.851486238636));
#790=CARTESIAN_POINT('',(1.,1.39918680277089,86.851486238636));
#791=CARTESIAN_POINT('',(1.,31.3991868027709,86.851486238636));
#792=CARTESIAN_POINT('',(1.,1.39918680277089,86.851486238636));
#793=CARTESIAN_POINT('',(1.5,31.3991868027709,86.851486238636));
#794=CARTESIAN_POINT('',(1.,31.3991868027709,86.851486238636));
#795=CARTESIAN_POINT('',(1.5,35.1491868027709,86.851486238636));
#796=CARTESIAN_POINT('Origin',(1.,16.3991868027709,49.351486238636));
#797=CARTESIAN_POINT('',(1.,31.3991868027709,71.851486238636));
#798=CARTESIAN_POINT('',(1.,31.3991868027709,71.851486238636));
#799=CARTESIAN_POINT('',(1.,31.3991868027709,26.851486238636));
#800=CARTESIAN_POINT('',(1.,31.3991868027709,60.601486238636));
#801=CARTESIAN_POINT('',(1.,31.3991868027709,26.851486238636));
#802=CARTESIAN_POINT('Origin',(1.,16.3991868027709,49.351486238636));
#803=CARTESIAN_POINT('',(1.,31.3991868027709,11.851486238636));
#804=CARTESIAN_POINT('',(1.,1.39918680277089,26.851486238636));
#805=CARTESIAN_POINT('',(1.,23.8991868027709,26.851486238636));
#806=CARTESIAN_POINT('',(1.,1.39918680277089,11.851486238636));
#807=CARTESIAN_POINT('Origin',(1.,16.3991868027709,49.351486238636));
#808=CARTESIAN_POINT('',(1.,1.39918680277089,71.851486238636));
#809=CARTESIAN_POINT('',(1.,1.39918680277089,86.851486238636));
#810=CARTESIAN_POINT('',(1.,8.89918680277089,71.851486238636));
#811=CARTESIAN_POINT('',(1.,31.3991868027709,86.851486238636));
#812=CARTESIAN_POINT('Origin',(2.,46.3991868027709,26.851486238636));
#813=CARTESIAN_POINT('',(1.5,31.3991868027709,26.851486238636));
#814=CARTESIAN_POINT('',(1.5,31.3991868027709,26.851486238636));
#815=CARTESIAN_POINT('',(0.,31.3991868027709,26.851486238636));
#816=CARTESIAN_POINT('Origin',(2.,1.39918680277089,11.851486238636));
#817=CARTESIAN_POINT('',(1.5,1.39918680277089,26.851486238636));
#818=CARTESIAN_POINT('',(1.5,1.39918680277089,11.851486238636));
#819=CARTESIAN_POINT('',(0.,1.39918680277089,26.851486238636));
#820=CARTESIAN_POINT('Origin',(2.,-13.6008131972291,71.851486238636));
#821=CARTESIAN_POINT('',(1.5,1.39918680277089,71.851486238636));
#822=CARTESIAN_POINT('',(1.5,-13.6008131972291,71.851486238636));
#823=CARTESIAN_POINT('',(1.,-13.6008131972291,71.851486238636));
#824=CARTESIAN_POINT('',(0.,1.39918680277089,71.851486238636));
#825=CARTESIAN_POINT('Origin',(2.,1.39918680277089,71.851486238636));
#826=CARTESIAN_POINT('',(1.5,1.39918680277089,86.851486238636));
#827=CARTESIAN_POINT('Origin',(2.,31.3991868027709,26.851486238636));
#828=CARTESIAN_POINT('',(1.5,31.3991868027709,11.851486238636));
#829=CARTESIAN_POINT('Origin',(2.,31.3991868027709,71.851486238636));
#830=CARTESIAN_POINT('',(1.5,31.3991868027709,71.851486238636));
#831=CARTESIAN_POINT('',(1.5,31.3991868027709,71.851486238636));
#832=CARTESIAN_POINT('',(0.,31.3991868027709,71.851486238636));
#833=CARTESIAN_POINT('Origin',(2.,31.3991868027709,86.851486238636));
#834=CARTESIAN_POINT('',(1.5,31.3991868027709,86.851486238636));
#835=CARTESIAN_POINT('Origin',(2.,1.39918680277089,26.851486238636));
#836=CARTESIAN_POINT('',(1.5,-13.6008131972291,26.851486238636));
#837=CARTESIAN_POINT('',(1.,-13.6008131972291,26.851486238636));
#838=CARTESIAN_POINT('Origin',(0.,31.3991868027709,71.851486238636));
#839=CARTESIAN_POINT('',(0.5,31.3991868027709,71.851486238636));
#840=CARTESIAN_POINT('',(0.,31.3991868027709,71.851486238636));
#841=CARTESIAN_POINT('',(0.5,31.3991868027709,26.851486238636));
#842=CARTESIAN_POINT('',(0.5,31.3991868027709,26.851486238636));
#843=CARTESIAN_POINT('',(0.,31.3991868027709,26.851486238636));
#844=CARTESIAN_POINT('Origin',(0.,1.39918680277089,71.851486238636));
#845=CARTESIAN_POINT('',(0.5,1.39918680277089,71.851486238636));
#846=CARTESIAN_POINT('',(0.,1.39918680277089,71.851486238636));
#847=CARTESIAN_POINT('',(0.5,16.3991868027709,71.851486238636));
#848=CARTESIAN_POINT('Origin',(0.5,16.3991868027709,49.351486238636));
#849=CARTESIAN_POINT('',(0.5,1.39918680277089,26.851486238636));
#850=CARTESIAN_POINT('',(0.5,1.39918680277089,56.851486238636));
#851=CARTESIAN_POINT('',(0.5,1.39918680277089,26.851486238636));
#852=CARTESIAN_POINT('Origin',(1.5,38.8991868027709,19.351486238636));
#853=CARTESIAN_POINT('Origin',(1.5,-6.10081319722911,79.351486238636));
#854=CARTESIAN_POINT('Origin',(1.5,38.8991868027709,79.351486238636));
#855=CARTESIAN_POINT('Origin',(1.5,-6.10081319722911,19.351486238636));
#856=CARTESIAN_POINT('Origin',(0.,31.3991868027709,26.851486238636));
#857=CARTESIAN_POINT('',(0.,1.39918680277089,26.851486238636));
#858=CARTESIAN_POINT('Origin',(0.,1.39918680277089,26.851486238636));
#859=CARTESIAN_POINT('',(1.,1.39918680277089,38.101486238636));
#860=CARTESIAN_POINT('Origin',(0.,-14.6008131972291,9.851486238636));
#861=CARTESIAN_POINT('Origin',(1.,16.3991868027709,49.351486238636));
#862=UNCERTAINTY_MEASURE_WITH_UNIT(LENGTH_MEASURE(0.01),#866,
'DISTANCE_ACCURACY_VALUE',
'Maximum model space distance between geometric entities at asserted c
onnectivities');
#863=UNCERTAINTY_MEASURE_WITH_UNIT(LENGTH_MEASURE(0.01),#866,
'DISTANCE_ACCURACY_VALUE',
'Maximum model space distance between geometric entities at asserted c
onnectivities');
#864=(
GEOMETRIC_REPRESENTATION_CONTEXT(3)
GLOBAL_UNCERTAINTY_ASSIGNED_CONTEXT((#862))
GLOBAL_UNIT_ASSIGNED_CONTEXT((#866,#867,#868))
REPRESENTATION_CONTEXT('','3D')
);
#865=(
GEOMETRIC_REPRESENTATION_CONTEXT(3)
GLOBAL_UNCERTAINTY_ASSIGNED_CONTEXT((#863))
GLOBAL_UNIT_ASSIGNED_CONTEXT((#866,#867,#868))
REPRESENTATION_CONTEXT('','3D')
);
#866=(
LENGTH_UNIT()
NAMED_UNIT(*)
SI_UNIT(.MILLI.,.METRE.)
);
#867=(
NAMED_UNIT(*)
PLANE_ANGLE_UNIT()
SI_UNIT($,.RADIAN.)
);
#868=(
NAMED_UNIT(*)
SI_UNIT($,.STERADIAN.)
SOLID_ANGLE_UNIT()
);
#869=SHAPE_DEFINITION_REPRESENTATION(#870,#871);
#870=PRODUCT_DEFINITION_SHAPE('',$,#873);
#871=SHAPE_REPRESENTATION('',(#546),#864);
#872=PRODUCT_DEFINITION_CONTEXT('part definition',#877,'design');
#873=PRODUCT_DEFINITION('Luma','Luma v45',#874,#872);
#874=PRODUCT_DEFINITION_FORMATION('',$,#879);
#875=PRODUCT_RELATED_PRODUCT_CATEGORY('Luma v45','Luma v45',(#879));
#876=APPLICATION_PROTOCOL_DEFINITION('international standard',
'automotive_design',2009,#877);
#877=APPLICATION_CONTEXT(
'Core Data for Automotive Mechanical Design Process');
#878=PRODUCT_CONTEXT('part definition',#877,'mechanical');
#879=PRODUCT('Luma','Luma v45',$,(#878));
#880=PRESENTATION_STYLE_ASSIGNMENT((#895));
#881=PRESENTATION_STYLE_ASSIGNMENT((#896));
#882=PRESENTATION_STYLE_ASSIGNMENT((#897));
#883=PRESENTATION_STYLE_ASSIGNMENT((#898));
#884=PRESENTATION_STYLE_ASSIGNMENT((#899));
#885=PRESENTATION_STYLE_ASSIGNMENT((#900));
#886=PRESENTATION_STYLE_ASSIGNMENT((#901));
#887=PRESENTATION_STYLE_ASSIGNMENT((#902));
#888=PRESENTATION_STYLE_ASSIGNMENT((#903));
#889=PRESENTATION_STYLE_ASSIGNMENT((#904));
#890=PRESENTATION_STYLE_ASSIGNMENT((#905));
#891=PRESENTATION_STYLE_ASSIGNMENT((#906));
#892=PRESENTATION_STYLE_ASSIGNMENT((#907));
#893=PRESENTATION_STYLE_ASSIGNMENT((#908));
#894=PRESENTATION_STYLE_ASSIGNMENT((#909));
#895=SURFACE_STYLE_USAGE(.BOTH.,#910);
#896=SURFACE_STYLE_USAGE(.BOTH.,#911);
#897=SURFACE_STYLE_USAGE(.BOTH.,#912);
#898=SURFACE_STYLE_USAGE(.BOTH.,#913);
#899=SURFACE_STYLE_USAGE(.BOTH.,#914);
#900=SURFACE_STYLE_USAGE(.BOTH.,#915);
#901=SURFACE_STYLE_USAGE(.BOTH.,#916);
#902=SURFACE_STYLE_USAGE(.BOTH.,#917);
#903=SURFACE_STYLE_USAGE(.BOTH.,#918);
#904=SURFACE_STYLE_USAGE(.BOTH.,#919);
#905=SURFACE_STYLE_USAGE(.BOTH.,#920);
#906=SURFACE_STYLE_USAGE(.BOTH.,#921);
#907=SURFACE_STYLE_USAGE(.BOTH.,#922);
#908=SURFACE_STYLE_USAGE(.BOTH.,#923);
#909=SURFACE_STYLE_USAGE(.BOTH.,#924);
#910=SURFACE_SIDE_STYLE('',(#925));
#911=SURFACE_SIDE_STYLE('',(#926));
#912=SURFACE_SIDE_STYLE('',(#927));
#913=SURFACE_SIDE_STYLE('',(#928));
#914=SURFACE_SIDE_STYLE('',(#929));
#915=SURFACE_SIDE_STYLE('',(#930));
#916=SURFACE_SIDE_STYLE('',(#931));
#917=SURFACE_SIDE_STYLE('',(#932));
#918=SURFACE_SIDE_STYLE('',(#933));
#919=SURFACE_SIDE_STYLE('',(#934));
#920=SURFACE_SIDE_STYLE('',(#935));
#921=SURFACE_SIDE_STYLE('',(#936));
#922=SURFACE_SIDE_STYLE('',(#937));
#923=SURFACE_SIDE_STYLE('',(#938));
#924=SURFACE_SIDE_STYLE('',(#939));
#925=SURFACE_STYLE_FILL_AREA(#940);
#926=SURFACE_STYLE_FILL_AREA(#941);
#927=SURFACE_STYLE_FILL_AREA(#942);
#928=SURFACE_STYLE_FILL_AREA(#943);
#929=SURFACE_STYLE_FILL_AREA(#944);
#930=SURFACE_STYLE_FILL_AREA(#945);
#931=SURFACE_STYLE_FILL_AREA(#946);
#932=SURFACE_STYLE_FILL_AREA(#947);
#933=SURFACE_STYLE_FILL_AREA(#948);
#934=SURFACE_STYLE_FILL_AREA(#949);
#935=SURFACE_STYLE_FILL_AREA(#950);
#936=SURFACE_STYLE_FILL_AREA(#951);
#937=SURFACE_STYLE_FILL_AREA(#952);
#938=SURFACE_STYLE_FILL_AREA(#953);
#939=SURFACE_STYLE_FILL_AREA(#954);
#940=FILL_AREA_STYLE('Opaque(246,179,39)',(#955));
#941=FILL_AREA_STYLE('Opaque(160,160,160)',(#956));
#942=FILL_AREA_STYLE('Opaque(246,246,243)',(#957));
#943=FILL_AREA_STYLE('Opaque(245,245,246)',(#958));
#944=FILL_AREA_STYLE('Opaque(255,255,255)',(#959));
#945=FILL_AREA_STYLE('Opaque(202,209,238)',(#960));
#946=FILL_AREA_STYLE('Opaque(146,134,121)',(#961));
#947=FILL_AREA_STYLE('Opaque(203,203,203)',(#962));
#948=FILL_AREA_STYLE('Opaque(251,250,245)',(#963));
#949=FILL_AREA_STYLE('Opaque(25,25,25)',(#964));
#950=FILL_AREA_STYLE('Opaque(63,63,63)',(#965));
#951=FILL_AREA_STYLE('Steel - Satin',(#966));
#952=FILL_AREA_STYLE('LED (Blue)',(#967));
#953=FILL_AREA_STYLE('ABS (Black)',(#968));
#954=FILL_AREA_STYLE('Acrylic (Opaque)',(#969));
#955=FILL_AREA_STYLE_COLOUR('Opaque(246,179,39)',#970);
#956=FILL_AREA_STYLE_COLOUR('Opaque(160,160,160)',#971);
#957=FILL_AREA_STYLE_COLOUR('Opaque(246,246,243)',#972);
#958=FILL_AREA_STYLE_COLOUR('Opaque(245,245,246)',#973);
#959=FILL_AREA_STYLE_COLOUR('Opaque(255,255,255)',#974);
#960=FILL_AREA_STYLE_COLOUR('Opaque(202,209,238)',#975);
#961=FILL_AREA_STYLE_COLOUR('Opaque(146,134,121)',#976);
#962=FILL_AREA_STYLE_COLOUR('Opaque(203,203,203)',#977);
#963=FILL_AREA_STYLE_COLOUR('Opaque(251,250,245)',#978);
#964=FILL_AREA_STYLE_COLOUR('Opaque(25,25,25)',#979);
#965=FILL_AREA_STYLE_COLOUR('Opaque(63,63,63)',#980);
#966=FILL_AREA_STYLE_COLOUR('Steel - Satin',#981);
#967=FILL_AREA_STYLE_COLOUR('LED (Blue)',#982);
#968=FILL_AREA_STYLE_COLOUR('ABS (Black)',#983);
#969=FILL_AREA_STYLE_COLOUR('Acrylic (Opaque)',#984);
#970=COLOUR_RGB('Opaque(246,179,39)',0.964705882352941,0.701960784313725,
0.152941176470588);
#971=COLOUR_RGB('Opaque(160,160,160)',0.627450980392157,0.627450980392157,
0.627450980392157);
#972=COLOUR_RGB('Opaque(246,246,243)',0.964705882352941,0.964705882352941,
0.952941176470588);
#973=COLOUR_RGB('Opaque(245,245,246)',0.96078431372549,0.96078431372549,
0.964705882352941);
#974=COLOUR_RGB('Opaque(255,255,255)',1.,1.,1.);
#975=COLOUR_RGB('Opaque(202,209,238)',0.792156862745098,0.819607843137255,
0.933333333333333);
#976=COLOUR_RGB('Opaque(146,134,121)',0.572549019607843,0.525490196078431,
0.474509803921569);
#977=COLOUR_RGB('Opaque(203,203,203)',0.796078431372549,0.796078431372549,
0.796078431372549);
#978=COLOUR_RGB('Opaque(251,250,245)',0.984313725490196,0.980392156862745,
0.96078431372549);
#979=COLOUR_RGB('Opaque(25,25,25)',0.0980392156862745,0.0980392156862745,
0.0980392156862745);
#980=COLOUR_RGB('Opaque(63,63,63)',0.250980392156863,0.250980392156863,
0.250980392156863);
#981=COLOUR_RGB('Steel - Satin',0.627450980392157,0.627450980392157,0.627450980392157);
#982=COLOUR_RGB('LED (Blue)',0.188235294117647,0.231372549019608,0.588235294117647);
#983=COLOUR_RGB('ABS (Black)',0.00784313725490196,0.00784313725490196,0.00784313725490196);
#984=COLOUR_RGB('Acrylic (Opaque)',0.964705882352941,0.964705882352941,
0.952941176470588);
ENDSEC;
END-ISO-10303-21;
